<?xml version="1.0" encoding="UTF-8" standalone="no"?><svg width="11" height="10" viewBox="0 0 11 10" fill="none" xmlns="http://www.w3.org/2000/svg">
<g clip-path="url(#clip0_156_4182)">
<path d="M8.39573 3.138C8.48406 3.04967 8.60406 3 8.72906 3C8.9894 3 9.2004 3.211 9.2004 3.47133C9.2004 3.59633 9.15073 3.71633 9.0624 3.80467L7.60156 5.2655" stroke="url(#paint0_linear_156_4182)" stroke-width="0.333333" stroke-miterlimit="10"/>
<path d="M8.55992 4.30475C8.64825 4.21641 8.76825 4.16675 8.89325 4.16675C9.15358 4.16675 9.36458 4.37775 9.36458 4.63808C9.36458 4.76308 9.31492 4.88308 9.22658 4.97141L6.76092 7.43708C6.60958 7.58841 6.42742 7.70575 6.22692 7.78091L5.50208 8.05275C5.30158 8.12791 5.11958 8.24525 4.96808 8.39658L4.53125 8.83341" stroke="url(#paint1_linear_156_4182)" stroke-width="0.333333" stroke-miterlimit="10"/>
<path d="M2.53125 6.83325L2.73075 6.63375C3.02992 6.33459 3.19792 5.92892 3.19792 5.50592C3.19792 5.41825 3.19058 5.33059 3.17608 5.24409L2.87125 3.41559C2.86692 3.38875 2.86458 3.36125 2.86458 3.33325C2.86458 3.05709 3.08842 2.83325 3.36458 2.83325C3.59892 2.83325 3.79558 2.99442 3.84975 3.21209L4.14092 4.37675C4.16008 4.45359 4.22742 4.49992 4.29692 4.49992C4.33792 4.49992 4.37958 4.48492 4.41258 4.45192L6.89325 1.97125C6.98158 1.88292 7.10158 1.83325 7.22658 1.83325C7.48692 1.83325 7.69792 2.04425 7.69792 2.30459C7.69792 2.42959 7.64825 2.54959 7.55992 2.63792L6.26575 3.93209" stroke="url(#paint2_linear_156_4182)" stroke-width="0.333333" stroke-miterlimit="10"/>
<path d="M1.76562 6.93358L1.91479 6.78441C1.99012 6.70908 2.09246 6.66675 2.19912 6.66675C2.30596 6.66675 2.40812 6.70908 2.48362 6.78458L4.58113 8.88208C4.65663 8.95758 4.69913 9.06008 4.69913 9.16675C4.69913 9.27358 4.65663 9.37591 4.58113 9.45141L4.43229 9.60025" stroke="url(#paint3_linear_156_4182)" stroke-width="0.333333" stroke-miterlimit="10"/>
<path d="M4.03255 9H3.69922V9.33333H4.03255V9Z" fill="url(#paint4_linear_156_4182)"/>
<path d="M0.535156 3.5H0.86849C1.05266 3.5 1.20182 3.64917 1.20182 3.83333V6.66667C1.20182 6.85083 1.05266 7 0.86849 7H0.535156" stroke="url(#paint5_linear_156_4182)" stroke-width="0.333333" stroke-miterlimit="10"/>
<path d="M1.20312 4.112L1.46462 4.00183C1.67529 3.913 1.82579 3.7225 1.86329 3.497L2.20996 1.41717C2.24929 1.1805 2.45513 1 2.70313 1C2.97929 1 3.20313 1.22383 3.20313 1.5V2.86233" stroke="url(#paint6_linear_156_4182)" stroke-width="0.333333" stroke-miterlimit="10"/>
<path d="M3.84375 3.17617L6.15792 2.04667C6.22208 2.01667 6.29358 2 6.36908 2C6.50692 2 6.63175 2.05583 6.72225 2.146" stroke="url(#paint7_linear_156_4182)" stroke-width="0.333333" stroke-miterlimit="10"/>
<path d="M5.53516 0.833333V0" stroke="url(#paint8_linear_156_4182)" stroke-width="0.333333" stroke-miterlimit="10"/>
<path d="M6.53516 0.934688L6.73282 0.197021" stroke="url(#paint9_linear_156_4182)" stroke-width="0.333333" stroke-miterlimit="10"/>
<path d="M7.48438 1.29043L7.90888 0.554932" stroke="url(#paint10_linear_156_4182)" stroke-width="0.333333" stroke-miterlimit="10"/>
<path d="M4.54244 0.967855L4.33594 0.197021" stroke="url(#paint11_linear_156_4182)" stroke-width="0.333333" stroke-miterlimit="10"/>
<path d="M9.26562 6.33325L10.0033 6.53092" stroke="url(#paint12_linear_156_4182)" stroke-width="0.333333" stroke-miterlimit="10"/>
<path d="M8.91016 7.28271L9.64566 7.70721" stroke="url(#paint13_linear_156_4182)" stroke-width="0.333333" stroke-miterlimit="10"/>
<path d="M8.26953 8.06958L8.80253 8.60258" stroke="url(#paint14_linear_156_4182)" stroke-width="0.333333" stroke-miterlimit="10"/>
<path d="M7.46875 8.67944L7.85058 9.34094" stroke="url(#paint15_linear_156_4182)" stroke-width="0.333333" stroke-miterlimit="10"/>
<path d="M6.54297 9.09888L6.7628 9.91921" stroke="url(#paint16_linear_156_4182)" stroke-width="0.333333" stroke-miterlimit="10"/>
<path d="M5.53516 10.0001V9.16675" stroke="url(#paint17_linear_156_4182)" stroke-width="0.333333" stroke-miterlimit="10"/>
<path d="M6.93359 4.60075L8.56293 2.97141C8.65126 2.88308 8.70093 2.76308 8.70093 2.63808C8.70093 2.37775 8.48993 2.16675 8.22959 2.16675C8.10459 2.16675 7.98459 2.21641 7.89626 2.30475L7.72959 2.47141L7.56293 2.63808" stroke="url(#paint18_linear_156_4182)" stroke-width="0.333333" stroke-miterlimit="10"/>
</g>
<defs>
<linearGradient id="paint0_linear_156_4182" x1="7.60156" y1="5.2655" x2="9.2881" y2="5.19821" gradientUnits="userSpaceOnUse">
<stop stop-color="#C83467"/>
<stop offset="1" stop-color="#FE315C"/>
</linearGradient>
<linearGradient id="paint1_linear_156_4182" x1="4.53125" y1="8.83341" x2="9.62038" y2="8.53543" gradientUnits="userSpaceOnUse">
<stop stop-color="#C83467"/>
<stop offset="1" stop-color="#FE315C"/>
</linearGradient>
<linearGradient id="paint2_linear_156_4182" x1="2.53125" y1="6.83325" x2="7.97144" y2="6.51545" gradientUnits="userSpaceOnUse">
<stop stop-color="#C83467"/>
<stop offset="1" stop-color="#FE315C"/>
</linearGradient>
<linearGradient id="paint3_linear_156_4182" x1="1.76562" y1="9.60025" x2="4.85509" y2="9.42559" gradientUnits="userSpaceOnUse">
<stop stop-color="#C83467"/>
<stop offset="1" stop-color="#FE315C"/>
</linearGradient>
<linearGradient id="paint4_linear_156_4182" x1="3.69922" y1="9.33333" x2="4.05027" y2="9.31349" gradientUnits="userSpaceOnUse">
<stop stop-color="#C83467"/>
<stop offset="1" stop-color="#FE315C"/>
</linearGradient>
<linearGradient id="paint5_linear_156_4182" x1="0.535156" y1="7" x2="1.23943" y2="6.99242" gradientUnits="userSpaceOnUse">
<stop stop-color="#C83467"/>
<stop offset="1" stop-color="#FE315C"/>
</linearGradient>
<linearGradient id="paint6_linear_156_4182" x1="1.20312" y1="4.112" x2="3.31341" y2="4.03533" gradientUnits="userSpaceOnUse">
<stop stop-color="#C83467"/>
<stop offset="1" stop-color="#FE315C"/>
</linearGradient>
<linearGradient id="paint7_linear_156_4182" x1="3.84375" y1="3.17617" x2="6.82786" y2="2.76329" gradientUnits="userSpaceOnUse">
<stop stop-color="#C83467"/>
<stop offset="1" stop-color="#FE315C"/>
</linearGradient>
<linearGradient id="paint8_linear_156_4182" x1="5.53516" y1="0.833333" x2="6.58685" y2="0.761986" gradientUnits="userSpaceOnUse">
<stop stop-color="#C83467"/>
<stop offset="1" stop-color="#FE315C"/>
</linearGradient>
<linearGradient id="paint9_linear_156_4182" x1="6.53516" y1="0.934688" x2="6.74395" y2="0.931525" gradientUnits="userSpaceOnUse">
<stop stop-color="#C83467"/>
<stop offset="1" stop-color="#FE315C"/>
</linearGradient>
<linearGradient id="paint10_linear_156_4182" x1="7.48437" y1="1.29043" x2="7.9324" y2="1.27581" gradientUnits="userSpaceOnUse">
<stop stop-color="#C83467"/>
<stop offset="1" stop-color="#FE315C"/>
</linearGradient>
<linearGradient id="paint11_linear_156_4182" x1="4.33594" y1="0.967855" x2="4.55406" y2="0.964551" gradientUnits="userSpaceOnUse">
<stop stop-color="#C83467"/>
<stop offset="1" stop-color="#FE315C"/>
</linearGradient>
<linearGradient id="paint12_linear_156_4182" x1="9.26562" y1="6.53092" x2="10.0118" y2="6.3735" gradientUnits="userSpaceOnUse">
<stop stop-color="#C83467"/>
<stop offset="1" stop-color="#FE315C"/>
</linearGradient>
<linearGradient id="paint13_linear_156_4182" x1="8.91016" y1="7.70721" x2="9.67985" y2="7.63182" gradientUnits="userSpaceOnUse">
<stop stop-color="#C83467"/>
<stop offset="1" stop-color="#FE315C"/>
</linearGradient>
<linearGradient id="paint14_linear_156_4182" x1="8.26953" y1="8.60258" x2="8.83087" y2="8.57085" gradientUnits="userSpaceOnUse">
<stop stop-color="#C83467"/>
<stop offset="1" stop-color="#FE315C"/>
</linearGradient>
<linearGradient id="paint15_linear_156_4182" x1="7.46875" y1="9.34094" x2="7.87174" y2="9.32779" gradientUnits="userSpaceOnUse">
<stop stop-color="#C83467"/>
<stop offset="1" stop-color="#FE315C"/>
</linearGradient>
<linearGradient id="paint16_linear_156_4182" x1="6.54297" y1="9.91921" x2="6.77518" y2="9.91569" gradientUnits="userSpaceOnUse">
<stop stop-color="#C83467"/>
<stop offset="1" stop-color="#FE315C"/>
</linearGradient>
<linearGradient id="paint17_linear_156_4182" x1="5.53516" y1="10.0001" x2="6.58685" y2="9.92873" gradientUnits="userSpaceOnUse">
<stop stop-color="#C83467"/>
<stop offset="1" stop-color="#FE315C"/>
</linearGradient>
<linearGradient id="paint18_linear_156_4182" x1="6.93359" y1="4.60075" x2="8.7977" y2="4.52423" gradientUnits="userSpaceOnUse">
<stop stop-color="#C83467"/>
<stop offset="1" stop-color="#FE315C"/>
</linearGradient>
<clipPath id="clip0_156_4182">
<rect width="10" height="10" fill="white" transform="translate(0.199219)"/>
</clipPath>
</defs>
</svg>
