<?xml version="1.0" encoding="UTF-8" standalone="no"?><svg width="11" height="10" viewBox="0 0 11 10" fill="none" xmlns="http://www.w3.org/2000/svg">
<g clip-path="url(#clip0_156_4225)">
<path d="M2.19792 7.34858C2.14092 7.44575 2.03708 7.50008 1.93042 7.50008C1.87825 7.50008 1.82558 7.48708 1.77708 7.45991L1.10875 7.08341C1.05892 7.05525 1.03125 7.00391 1.03125 6.95025C1.03125 6.92608 1.03775 6.90175 1.05075 6.87925C1.12658 6.74791 1.26725 6.66675 1.41675 6.66675C1.48358 6.66675 1.54042 6.68158 1.61208 6.69575L2.61558 4.95008C2.71625 4.77475 2.90308 4.66675 3.10525 4.66675" stroke="url(#paint0_linear_156_4225)" stroke-width="0.333333" stroke-miterlimit="10"/>
<path d="M0.942135 9.53467L0.792969 9.79417" stroke="url(#paint1_linear_156_4225)" stroke-width="0.333333" stroke-miterlimit="10"/>
<path d="M6.82935 4.52734L6.34952 5.66668H3.45452C3.27569 5.66668 3.11035 5.76234 3.02102 5.91751L1.17969 9.12101" stroke="url(#paint2_linear_156_4225)" stroke-width="0.333333" stroke-miterlimit="10"/>
<path d="M7.10769 3.86597L6.99219 4.14063" stroke="url(#paint3_linear_156_4225)" stroke-width="0.333333" stroke-miterlimit="10"/>
<path d="M6.83203 2.80267L6.9477 2.52783" stroke="url(#paint4_linear_156_4225)" stroke-width="0.333333" stroke-miterlimit="10"/>
<path d="M5.98828 4.80731L6.66545 3.19897" stroke="url(#paint5_linear_156_4225)" stroke-width="0.333333" stroke-miterlimit="10"/>
<path d="M3.66797 7.80658L4.0358 7.16675H7.0163C7.21747 7.16675 7.39914 7.04625 7.47714 6.86075L9.16214 2.85875L9.47064 2.98725C9.49014 2.99558 9.51164 3.00008 9.53447 3.00008C9.62664 3.00008 9.70114 2.92558 9.70114 2.83341C9.70114 2.82391 9.7003 2.81491 9.6988 2.80591L9.36547 0.805915C9.35247 0.726915 9.2838 0.666748 9.20114 0.666748C9.16564 0.666748 9.1328 0.677748 9.1058 0.696748L7.43914 1.86341C7.39597 1.89358 7.3678 1.94358 7.3678 2.00008C7.3678 2.06975 7.41064 2.12958 7.47147 2.15441L7.77747 2.28208L7.27547 3.47408" stroke="url(#paint6_linear_156_4225)" stroke-width="0.333333" stroke-miterlimit="10"/>
<path d="M8.75519 5.54126L8.09085 7.11943C7.90869 7.55276 7.48652 7.83326 7.01569 7.83326H5.86719" stroke="url(#paint7_linear_156_4225)" stroke-width="0.333333" stroke-miterlimit="10"/>
<path d="M3.28516 8.47103L3.44482 8.19336" stroke="url(#paint8_linear_156_4225)" stroke-width="0.333333" stroke-miterlimit="10"/>
<path d="M2.62109 9.62641L3.06293 8.85791" stroke="url(#paint9_linear_156_4225)" stroke-width="0.333333" stroke-miterlimit="10"/>
<path d="M3.92708 5.66675C4.44475 5.66675 4.86458 5.24691 4.86458 4.72925V3.07291C4.86458 2.84875 4.68258 2.66675 4.45842 2.66675H4.22725C3.99258 2.66675 3.78158 2.80958 3.69475 3.02741L3.30558 4.00008H2.36458C2.18058 4.00008 2.03125 4.14941 2.03125 4.33341C2.03125 4.51741 2.18058 4.66675 2.36458 4.66675H3.53125C3.67158 4.66675 3.79175 4.57991 3.84075 4.45708L4.20475 3.54725" stroke="url(#paint10_linear_156_4225)" stroke-width="0.333333" stroke-miterlimit="10"/>
<path d="M4.86589 1.41667C4.86589 1.739 4.60489 2 4.28255 2C3.96039 2 3.69922 1.739 3.69922 1.41667V1.08333C3.69922 0.761167 3.96039 0.5 4.28255 0.5C4.60489 0.5 4.86589 0.761167 4.86589 1.08333V1.41667Z" stroke="url(#paint11_linear_156_4225)" stroke-width="0.333333" stroke-miterlimit="10"/>
<path d="M2.69928 3.33334H1.62828L1.26311 2.11817C1.23628 2.02884 1.14095 1.98017 1.05161 2.00767C0.789445 2.08867 0.641279 2.36617 0.720612 2.6295L1.02545 3.64384C1.08895 3.85534 1.28361 4 1.50428 4H2.36595C2.64061 4 2.86378 3.77434 2.86595 3.5C2.86661 3.4065 2.79278 3.33334 2.69928 3.33334Z" stroke="url(#paint12_linear_156_4225)" stroke-width="0.333333" stroke-miterlimit="10"/>
<path d="M5.53255 7.83325H5.19922" stroke="url(#paint13_linear_156_4225)" stroke-width="0.333333" stroke-miterlimit="10"/>
</g>
<defs>
<linearGradient id="paint0_linear_156_4225" x1="1.03125" y1="7.50008" x2="3.21876" y2="7.40956" gradientUnits="userSpaceOnUse">
<stop stop-color="#C83467"/>
<stop offset="1" stop-color="#FE315C"/>
</linearGradient>
<linearGradient id="paint1_linear_156_4225" x1="0.792969" y1="9.79417" x2="0.950402" y2="9.78905" gradientUnits="userSpaceOnUse">
<stop stop-color="#C83467"/>
<stop offset="1" stop-color="#FE315C"/>
</linearGradient>
<linearGradient id="paint2_linear_156_4225" x1="1.17969" y1="9.12101" x2="7.12003" y2="8.70798" gradientUnits="userSpaceOnUse">
<stop stop-color="#C83467"/>
<stop offset="1" stop-color="#FE315C"/>
</linearGradient>
<linearGradient id="paint3_linear_156_4225" x1="6.99219" y1="4.14063" x2="7.11415" y2="4.13773" gradientUnits="userSpaceOnUse">
<stop stop-color="#C83467"/>
<stop offset="1" stop-color="#FE315C"/>
</linearGradient>
<linearGradient id="paint4_linear_156_4225" x1="6.83203" y1="2.80267" x2="6.95417" y2="2.79976" gradientUnits="userSpaceOnUse">
<stop stop-color="#C83467"/>
<stop offset="1" stop-color="#FE315C"/>
</linearGradient>
<linearGradient id="paint5_linear_156_4225" x1="5.98828" y1="4.80731" x2="6.70333" y2="4.79029" gradientUnits="userSpaceOnUse">
<stop stop-color="#C83467"/>
<stop offset="1" stop-color="#FE315C"/>
</linearGradient>
<linearGradient id="paint6_linear_156_4225" x1="3.66797" y1="7.80658" x2="10.0277" y2="7.50277" gradientUnits="userSpaceOnUse">
<stop stop-color="#C83467"/>
<stop offset="1" stop-color="#FE315C"/>
</linearGradient>
<linearGradient id="paint7_linear_156_4225" x1="5.86719" y1="7.83326" x2="8.90305" y2="7.617" gradientUnits="userSpaceOnUse">
<stop stop-color="#C83467"/>
<stop offset="1" stop-color="#FE315C"/>
</linearGradient>
<linearGradient id="paint8_linear_156_4225" x1="3.28516" y1="8.47103" x2="3.45367" y2="8.46555" gradientUnits="userSpaceOnUse">
<stop stop-color="#C83467"/>
<stop offset="1" stop-color="#FE315C"/>
</linearGradient>
<linearGradient id="paint9_linear_156_4225" x1="2.62109" y1="9.62641" x2="3.08741" y2="9.61125" gradientUnits="userSpaceOnUse">
<stop stop-color="#C83467"/>
<stop offset="1" stop-color="#FE315C"/>
</linearGradient>
<linearGradient id="paint10_linear_156_4225" x1="2.03125" y1="5.66675" x2="5.01625" y2="5.50737" gradientUnits="userSpaceOnUse">
<stop stop-color="#C83467"/>
<stop offset="1" stop-color="#FE315C"/>
</linearGradient>
<linearGradient id="paint11_linear_156_4225" x1="3.69922" y1="2" x2="4.92946" y2="1.94591" gradientUnits="userSpaceOnUse">
<stop stop-color="#C83467"/>
<stop offset="1" stop-color="#FE315C"/>
</linearGradient>
<linearGradient id="paint12_linear_156_4225" x1="0.699219" y1="4" x2="2.97989" y2="3.86032" gradientUnits="userSpaceOnUse">
<stop stop-color="#C83467"/>
<stop offset="1" stop-color="#FE315C"/>
</linearGradient>
<linearGradient id="paint13_linear_156_4225" x1="5.19922" y1="8.83325" x2="5.55127" y2="8.82662" gradientUnits="userSpaceOnUse">
<stop stop-color="#C83467"/>
<stop offset="1" stop-color="#FE315C"/>
</linearGradient>
<clipPath id="clip0_156_4225">
<rect width="10" height="10" fill="white" transform="translate(0.199219)"/>
</clipPath>
</defs>
</svg>
