<?xml version="1.0" encoding="UTF-8" standalone="no"?><svg width="11" height="10" viewBox="0 0 11 10" fill="none" xmlns="http://www.w3.org/2000/svg">
<g clip-path="url(#clip0_156_4255)">
<path d="M7.64844 2.88217L8.5306 2" stroke="url(#paint0_linear_156_4255)" stroke-width="0.333333" stroke-miterlimit="10"/>
<path d="M9.36458 1.16662H9.91292C10.0181 1.16662 10.0708 1.29379 9.99642 1.36812L9.41342 1.95112C9.38208 1.98246 9.33975 1.99996 9.29558 1.99996H8.53125V1.23562C8.53125 1.19146 8.54875 1.14896 8.58008 1.11779L9.16308 0.53479C9.23742 0.460457 9.36458 0.513124 9.36458 0.61829V1.16662Z" stroke="url(#paint1_linear_156_4255)" stroke-width="0.333333" stroke-miterlimit="10"/>
<path d="M8.07602 4.02493C7.88385 4.4056 7.48935 4.6666 7.03385 4.6666C6.38952 4.6666 5.86719 4.14426 5.86719 3.49993C5.86719 3.04443 6.12819 2.64993 6.50885 2.45776" stroke="url(#paint2_linear_156_4255)" stroke-width="0.333333" stroke-miterlimit="10"/>
<path d="M8.79208 2.55067C8.94458 2.83317 9.03125 3.1565 9.03125 3.5C9.03125 4.6045 8.13575 5.5 7.03125 5.5C5.92675 5.5 5.03125 4.6045 5.03125 3.5C5.03125 2.3955 5.92675 1.5 7.03125 1.5C7.37475 1.5 7.69808 1.58667 7.98058 1.73917" stroke="url(#paint3_linear_156_4255)" stroke-width="0.333333" stroke-miterlimit="10"/>
<path d="M9.63555 2.37941C9.78372 2.72308 9.86589 3.10208 9.86589 3.50008C9.86589 5.06491 8.59739 6.33341 7.03255 6.33341C5.46772 6.33341 4.19922 5.06491 4.19922 3.50008C4.19922 1.93525 5.46772 0.666748 7.03255 0.666748C7.43055 0.666748 7.80955 0.748915 8.15322 0.897081" stroke="url(#paint4_linear_156_4255)" stroke-width="0.333333" stroke-miterlimit="10"/>
<path d="M2.53255 8.33325H2.19922V8.66659H2.53255V8.33325Z" fill="url(#paint5_linear_156_4255)"/>
<path d="M3.20052 8.33325H2.86719V8.66659H3.20052V8.33325Z" fill="url(#paint6_linear_156_4255)"/>
<path d="M3.86458 8.33325H3.53125V8.66659H3.86458V8.33325Z" fill="url(#paint7_linear_156_4255)"/>
<path d="M1.86458 8.33325H1.53125V8.66659H1.86458V8.33325Z" fill="url(#paint8_linear_156_4255)"/>
<path d="M1.20052 8.33325H0.867188V8.66659H1.20052V8.33325Z" fill="url(#paint9_linear_156_4255)"/>
<path d="M4.03385 5.33325H3.53385C3.44185 5.33325 3.36719 5.40792 3.36719 5.49992C3.36719 5.51392 3.36885 5.52759 3.37219 5.54059L3.53919 6.20825C3.55752 6.28009 3.62285 6.33325 3.70052 6.33325H4.70052" stroke="url(#paint10_linear_156_4255)" stroke-width="0.333333" stroke-miterlimit="10"/>
<path d="M7.70052 6.83341V8.66675C7.70052 8.94291 7.47669 9.16675 7.20052 9.16675H0.867188C0.591021 9.16675 0.367188 8.94291 0.367188 8.66675V4.16675C0.367188 3.89058 0.591021 3.66675 0.867188 3.66675H3.70052" stroke="url(#paint11_linear_156_4255)" stroke-width="0.333333" stroke-miterlimit="10"/>
<path d="M3.48702 5.99987H2.86352C2.43502 5.99987 2.02019 5.84987 1.69085 5.57587L0.367188 4.47437" stroke="url(#paint12_linear_156_4255)" stroke-width="0.333333" stroke-miterlimit="10"/>
<path d="M2.53125 3.6665V3.1665C2.53125 2.89034 2.75508 2.6665 3.03125 2.6665H3.69792" stroke="url(#paint13_linear_156_4255)" stroke-width="0.333333" stroke-miterlimit="10"/>
<path d="M7.98339 3.21517C8.01372 3.24533 8.03255 3.28717 8.03255 3.33333C8.03255 3.40767 7.98389 3.47017 7.91672 3.492C7.66539 3.574 6.91322 3.82583 6.91322 3.82583C6.89839 3.83067 6.88239 3.83333 6.86589 3.83333C6.78039 3.83333 6.69922 3.75217 6.69922 3.66667C6.69922 3.65017 6.70189 3.63417 6.70655 3.61933C6.70655 3.61933 6.95822 2.867 7.04039 2.61567C7.06239 2.54867 7.12505 2.5 7.19922 2.5C7.24505 2.5 7.28655 2.5185 7.31672 2.5485L7.98339 3.21517Z" stroke="url(#paint14_linear_156_4255)" stroke-width="0.333333" stroke-miterlimit="10"/>
</g>
<defs>
<linearGradient id="paint0_linear_156_4255" x1="7.64844" y1="2.88217" x2="8.57751" y2="2.82964" gradientUnits="userSpaceOnUse">
<stop stop-color="#C83467"/>
<stop offset="1" stop-color="#FE315C"/>
</linearGradient>
<linearGradient id="paint1_linear_156_4255" x1="8.53125" y1="1.99996" x2="10.111" y2="1.91065" gradientUnits="userSpaceOnUse">
<stop stop-color="#C83467"/>
<stop offset="1" stop-color="#FE315C"/>
</linearGradient>
<linearGradient id="paint2_linear_156_4255" x1="5.86719" y1="4.6666" x2="8.19346" y2="4.53509" gradientUnits="userSpaceOnUse">
<stop stop-color="#C83467"/>
<stop offset="1" stop-color="#FE315C"/>
</linearGradient>
<linearGradient id="paint3_linear_156_4255" x1="5.03125" y1="5.5" x2="9.24392" y2="5.26184" gradientUnits="userSpaceOnUse">
<stop stop-color="#C83467"/>
<stop offset="1" stop-color="#FE315C"/>
</linearGradient>
<linearGradient id="paint4_linear_156_4255" x1="4.19922" y1="6.33341" x2="10.1672" y2="5.99603" gradientUnits="userSpaceOnUse">
<stop stop-color="#C83467"/>
<stop offset="1" stop-color="#FE315C"/>
</linearGradient>
<linearGradient id="paint5_linear_156_4255" x1="2.19922" y1="8.66659" x2="2.55027" y2="8.64674" gradientUnits="userSpaceOnUse">
<stop stop-color="#C83467"/>
<stop offset="1" stop-color="#FE315C"/>
</linearGradient>
<linearGradient id="paint6_linear_156_4255" x1="2.86719" y1="8.66659" x2="3.21824" y2="8.64674" gradientUnits="userSpaceOnUse">
<stop stop-color="#C83467"/>
<stop offset="1" stop-color="#FE315C"/>
</linearGradient>
<linearGradient id="paint7_linear_156_4255" x1="3.53125" y1="8.66659" x2="3.88231" y2="8.64674" gradientUnits="userSpaceOnUse">
<stop stop-color="#C83467"/>
<stop offset="1" stop-color="#FE315C"/>
</linearGradient>
<linearGradient id="paint8_linear_156_4255" x1="1.53125" y1="8.66659" x2="1.88231" y2="8.64674" gradientUnits="userSpaceOnUse">
<stop stop-color="#C83467"/>
<stop offset="1" stop-color="#FE315C"/>
</linearGradient>
<linearGradient id="paint9_linear_156_4255" x1="0.867187" y1="8.66659" x2="1.21824" y2="8.64674" gradientUnits="userSpaceOnUse">
<stop stop-color="#C83467"/>
<stop offset="1" stop-color="#FE315C"/>
</linearGradient>
<linearGradient id="paint10_linear_156_4255" x1="3.36719" y1="6.33325" x2="4.76794" y2="6.22767" gradientUnits="userSpaceOnUse">
<stop stop-color="#C83467"/>
<stop offset="1" stop-color="#FE315C"/>
</linearGradient>
<linearGradient id="paint11_linear_156_4255" x1="0.367187" y1="9.16675" x2="8.07133" y2="8.58603" gradientUnits="userSpaceOnUse">
<stop stop-color="#C83467"/>
<stop offset="1" stop-color="#FE315C"/>
</linearGradient>
<linearGradient id="paint12_linear_156_4255" x1="0.367187" y1="5.99986" x2="3.61992" y2="5.62379" gradientUnits="userSpaceOnUse">
<stop stop-color="#C83467"/>
<stop offset="1" stop-color="#FE315C"/>
</linearGradient>
<linearGradient id="paint13_linear_156_4255" x1="2.53125" y1="3.6665" x2="3.75853" y2="3.58556" gradientUnits="userSpaceOnUse">
<stop stop-color="#C83467"/>
<stop offset="1" stop-color="#FE315C"/>
</linearGradient>
<linearGradient id="paint14_linear_156_4255" x1="6.69922" y1="3.83333" x2="8.10344" y2="3.75395" gradientUnits="userSpaceOnUse">
<stop stop-color="#C83467"/>
<stop offset="1" stop-color="#FE315C"/>
</linearGradient>
<clipPath id="clip0_156_4255">
<rect width="10" height="10" fill="white" transform="translate(0.199219)"/>
</clipPath>
</defs>
</svg>
