<?xml version="1.0" encoding="UTF-8" standalone="no"?><svg width="10" height="10" viewBox="0 0 10 10" fill="none" xmlns="http://www.w3.org/2000/svg">
<g clip-path="url(#clip0_243_2)">
<path d="M5.83317 1.3335H2.1665" stroke="url(#paint0_linear_243_2)" stroke-width="0.333333" stroke-miterlimit="10"/>
<path d="M1.66667 1.3335H1C0.723833 1.3335 0.5 1.55733 0.5 1.8335V3.16683H7.33333V1.8335C7.33333 1.55733 7.1095 1.3335 6.83333 1.3335H6.33333" stroke="url(#paint1_linear_243_2)" stroke-width="0.333333" stroke-miterlimit="10"/>
<path d="M1.6665 0.666748V2.00008" stroke="url(#paint2_linear_243_2)" stroke-width="0.333333" stroke-miterlimit="10"/>
<path d="M5.8335 0.666748V2.00008" stroke="url(#paint3_linear_243_2)" stroke-width="0.333333" stroke-miterlimit="10"/>
<path d="M7.33333 7.50008V7.83341C7.33333 8.10958 7.1095 8.33341 6.83333 8.33341H1C0.723833 8.33341 0.5 8.10958 0.5 7.83341V3.16675" stroke="url(#paint4_linear_243_2)" stroke-width="0.333333" stroke-miterlimit="10"/>
<path d="M7.66696 7H2.17529" stroke="url(#paint5_linear_243_2)" stroke-width="0.333333" stroke-miterlimit="10"/>
<path d="M0.5 3.16675C0.5 3.16675 1.298 5.66691 1.53833 6.50808C1.6205 6.79608 1.87567 7.00008 2.17517 7.00008C2.53867 7.00008 2.83333 6.70541 2.83333 6.34191V6.16675H9.66667V6.34191C9.66667 6.70541 9.372 7.00008 9.0085 7.00008H7.5" stroke="url(#paint6_linear_243_2)" stroke-width="0.333333" stroke-miterlimit="10"/>
<path d="M7.3335 3.16675L8.25633 6.16408" stroke="url(#paint7_linear_243_2)" stroke-width="0.333333" stroke-miterlimit="10"/>
<path d="M6.99984 3.66675H6.6665V4.00008H6.99984V3.66675Z" fill="url(#paint8_linear_243_2)"/>
<path d="M6.33333 3.66675H6V4.00008H6.33333V3.66675Z" fill="url(#paint9_linear_243_2)"/>
<path d="M5.66683 3.66675H5.3335V4.00008H5.66683V3.66675Z" fill="url(#paint10_linear_243_2)"/>
<path d="M3.49984 9H2.1665" stroke="url(#paint11_linear_243_2)" stroke-width="0.333333" stroke-miterlimit="10"/>
<path d="M1.8335 9H1.3335" stroke="url(#paint12_linear_243_2)" stroke-width="0.333333" stroke-miterlimit="10"/>
</g>
<defs>
<linearGradient id="paint0_linear_243_2" x1="2.1665" y1="2.3335" x2="5.89116" y2="2.01788" gradientUnits="userSpaceOnUse">
<stop stop-color="#377DC5"/>
<stop offset="1" stop-color="#013792"/>
</linearGradient>
<linearGradient id="paint1_linear_243_2" x1="0.5" y1="3.16683" x2="7.43976" y2="2.56906" gradientUnits="userSpaceOnUse">
<stop stop-color="#377DC5"/>
<stop offset="1" stop-color="#013792"/>
</linearGradient>
<linearGradient id="paint2_linear_243_2" x1="1.6665" y1="2.00008" x2="2.68931" y2="1.98235" gradientUnits="userSpaceOnUse">
<stop stop-color="#377DC5"/>
<stop offset="1" stop-color="#013792"/>
</linearGradient>
<linearGradient id="paint3_linear_243_2" x1="5.8335" y1="2.00008" x2="6.8563" y2="1.98235" gradientUnits="userSpaceOnUse">
<stop stop-color="#377DC5"/>
<stop offset="1" stop-color="#013792"/>
</linearGradient>
<linearGradient id="paint4_linear_243_2" x1="0.5" y1="8.33341" x2="7.48473" y2="8.11993" gradientUnits="userSpaceOnUse">
<stop stop-color="#377DC5"/>
<stop offset="1" stop-color="#013792"/>
</linearGradient>
<linearGradient id="paint5_linear_243_2" x1="2.17529" y1="8" x2="7.70481" y2="7.29824" gradientUnits="userSpaceOnUse">
<stop stop-color="#377DC5"/>
<stop offset="1" stop-color="#013792"/>
</linearGradient>
<linearGradient id="paint6_linear_243_2" x1="0.5" y1="7.00008" x2="9.84995" y2="6.48338" gradientUnits="userSpaceOnUse">
<stop stop-color="#377DC5"/>
<stop offset="1" stop-color="#013792"/>
</linearGradient>
<linearGradient id="paint7_linear_243_2" x1="7.3335" y1="6.16408" x2="8.27761" y2="6.15736" gradientUnits="userSpaceOnUse">
<stop stop-color="#377DC5"/>
<stop offset="1" stop-color="#013792"/>
</linearGradient>
<linearGradient id="paint8_linear_243_2" x1="6.6665" y1="4.00008" x2="7.00736" y2="3.9922" gradientUnits="userSpaceOnUse">
<stop stop-color="#377DC5"/>
<stop offset="1" stop-color="#013792"/>
</linearGradient>
<linearGradient id="paint9_linear_243_2" x1="6" y1="4.00008" x2="6.34085" y2="3.9922" gradientUnits="userSpaceOnUse">
<stop stop-color="#377DC5"/>
<stop offset="1" stop-color="#013792"/>
</linearGradient>
<linearGradient id="paint10_linear_243_2" x1="5.3335" y1="4.00008" x2="5.67435" y2="3.9922" gradientUnits="userSpaceOnUse">
<stop stop-color="#377DC5"/>
<stop offset="1" stop-color="#013792"/>
</linearGradient>
<linearGradient id="paint11_linear_243_2" x1="2.1665" y1="10" x2="3.52936" y2="9.95801" gradientUnits="userSpaceOnUse">
<stop stop-color="#377DC5"/>
<stop offset="1" stop-color="#013792"/>
</linearGradient>
<linearGradient id="paint12_linear_243_2" x1="1.3335" y1="10" x2="1.84498" y2="9.99409" gradientUnits="userSpaceOnUse">
<stop stop-color="#377DC5"/>
<stop offset="1" stop-color="#013792"/>
</linearGradient>
<clipPath id="clip0_243_2">
<rect width="10" height="10" fill="white"/>
</clipPath>
</defs>
</svg>
