<?xml version="1.0" encoding="UTF-8" standalone="no"?><svg width="81" height="81" viewBox="0 0 81 81" fill="none" xmlns="http://www.w3.org/2000/svg">
<path d="M4.33203 14.9362C4.33203 18.6175 7.31736 21.6029 10.9987 21.6029H28.3387L37.6654 28.2695V21.6029C41.3467 21.6029 44.332 18.6175 44.332 14.9362C44.332 11.2549 41.3467 8.26953 37.6654 8.26953H10.9987C7.31736 8.26953 4.33203 11.2549 4.33203 14.9362Z" stroke="url(#paint0_linear_156_3667)" stroke-width="2.66667" stroke-miterlimit="10"/>
<path d="M13.6667 13.6025H11V16.2692H13.6667V13.6025Z" fill="url(#paint1_linear_156_3667)"/>
<path d="M18.9987 13.6025H16.332V16.2692H18.9987V13.6025Z" fill="url(#paint2_linear_156_3667)"/>
<path d="M24.3307 13.6025H21.6641V16.2692H24.3307V13.6025Z" fill="url(#paint3_linear_156_3667)"/>
<path d="M29.6667 13.6025H27V16.2692H29.6667V13.6025Z" fill="url(#paint4_linear_156_3667)"/>
<path d="M7 26.9355H9.66667" stroke="url(#paint5_linear_156_3667)" stroke-width="2.66667" stroke-miterlimit="10"/>
<path d="M12.332 26.9355H22.9987" stroke="url(#paint6_linear_156_3667)" stroke-width="2.66667" stroke-miterlimit="10"/>
<path d="M64.332 26.9355C68.7503 26.9355 72.332 23.3538 72.332 18.9355C72.332 14.5173 68.7503 10.9355 64.332 10.9355C59.9138 10.9355 56.332 14.5173 56.332 18.9355C56.332 23.3538 59.9138 26.9355 64.332 26.9355Z" stroke="url(#paint7_linear_156_3667)" stroke-width="2.66667" stroke-miterlimit="10"/>
<path d="M76.332 65.6029C76.332 61.9215 73.3467 58.9362 69.6654 58.9362H52.3254L42.9987 52.2695V58.9362C39.3174 58.9362 36.332 61.9215 36.332 65.6029C36.332 69.2842 39.3174 72.2695 42.9987 72.2695H69.6654C73.3467 72.2695 76.332 69.2842 76.332 65.6029Z" stroke="url(#paint8_linear_156_3667)" stroke-width="2.66667" stroke-miterlimit="10"/>
<path d="M61.6667 64.2695H59V66.9362H61.6667V64.2695Z" fill="url(#paint9_linear_156_3667)"/>
<path d="M56.3307 64.2695H53.6641V66.9362H56.3307V64.2695Z" fill="url(#paint10_linear_156_3667)"/>
<path d="M50.9987 64.2695H48.332V66.9362H50.9987V64.2695Z" fill="url(#paint11_linear_156_3667)"/>
<path d="M45.6667 64.2695H43V66.9362H45.6667V64.2695Z" fill="url(#paint12_linear_156_3667)"/>
<path d="M73.6667 53.6016H71" stroke="url(#paint13_linear_156_3667)" stroke-width="2.66667" stroke-miterlimit="10"/>
<path d="M68.3346 53.6016H57.668" stroke="url(#paint14_linear_156_3667)" stroke-width="2.66667" stroke-miterlimit="10"/>
<path d="M78.1911 41.3139C75.9365 36.0032 70.5831 32.2686 64.3365 32.2686C58.0898 32.2686 52.7351 36.0032 50.4805 41.3152" stroke="url(#paint15_linear_156_3667)" stroke-width="2.66667" stroke-miterlimit="10"/>
<path d="M16.3359 56.2686C20.7542 56.2686 24.3359 52.6868 24.3359 48.2686C24.3359 43.8503 20.7542 40.2686 16.3359 40.2686C11.9177 40.2686 8.33594 43.8503 8.33594 48.2686C8.33594 52.6868 11.9177 56.2686 16.3359 56.2686Z" stroke="url(#paint16_linear_156_3667)" stroke-width="2.66667" stroke-miterlimit="10"/>
<path d="M30.1911 70.6469C27.9365 65.3362 22.5831 61.6016 16.3365 61.6016C10.0898 61.6016 4.73514 65.3362 2.48047 70.6482" stroke="url(#paint17_linear_156_3667)" stroke-width="2.66667" stroke-miterlimit="10"/>
<defs>
<linearGradient id="paint0_linear_156_3667" x1="4.33203" y1="28.2695" x2="45.1692" y2="26.3821" gradientUnits="userSpaceOnUse">
<stop stop-color="#377DC5"/>
<stop offset="1" stop-color="#013792"/>
</linearGradient>
<linearGradient id="paint1_linear_156_3667" x1="11" y1="16.2692" x2="13.7268" y2="16.2062" gradientUnits="userSpaceOnUse">
<stop stop-color="#377DC5"/>
<stop offset="1" stop-color="#013792"/>
</linearGradient>
<linearGradient id="paint2_linear_156_3667" x1="16.332" y1="16.2692" x2="19.0589" y2="16.2062" gradientUnits="userSpaceOnUse">
<stop stop-color="#377DC5"/>
<stop offset="1" stop-color="#013792"/>
</linearGradient>
<linearGradient id="paint3_linear_156_3667" x1="21.6641" y1="16.2692" x2="24.3909" y2="16.2062" gradientUnits="userSpaceOnUse">
<stop stop-color="#377DC5"/>
<stop offset="1" stop-color="#013792"/>
</linearGradient>
<linearGradient id="paint4_linear_156_3667" x1="27" y1="16.2692" x2="29.7268" y2="16.2062" gradientUnits="userSpaceOnUse">
<stop stop-color="#377DC5"/>
<stop offset="1" stop-color="#013792"/>
</linearGradient>
<linearGradient id="paint5_linear_156_3667" x1="7" y1="27.9355" x2="9.71797" y2="27.768" gradientUnits="userSpaceOnUse">
<stop stop-color="#377DC5"/>
<stop offset="1" stop-color="#013792"/>
</linearGradient>
<linearGradient id="paint6_linear_156_3667" x1="12.332" y1="27.9355" x2="22.6201" y2="25.3995" gradientUnits="userSpaceOnUse">
<stop stop-color="#377DC5"/>
<stop offset="1" stop-color="#013792"/>
</linearGradient>
<linearGradient id="paint7_linear_156_3667" x1="56.332" y1="26.9355" x2="72.693" y2="26.5574" gradientUnits="userSpaceOnUse">
<stop stop-color="#377DC5"/>
<stop offset="1" stop-color="#013792"/>
</linearGradient>
<linearGradient id="paint8_linear_156_3667" x1="36.332" y1="72.2695" x2="77.1692" y2="70.3821" gradientUnits="userSpaceOnUse">
<stop stop-color="#377DC5"/>
<stop offset="1" stop-color="#013792"/>
</linearGradient>
<linearGradient id="paint9_linear_156_3667" x1="59" y1="66.9362" x2="61.7268" y2="66.8732" gradientUnits="userSpaceOnUse">
<stop stop-color="#377DC5"/>
<stop offset="1" stop-color="#013792"/>
</linearGradient>
<linearGradient id="paint10_linear_156_3667" x1="53.6641" y1="66.9362" x2="56.3909" y2="66.8732" gradientUnits="userSpaceOnUse">
<stop stop-color="#377DC5"/>
<stop offset="1" stop-color="#013792"/>
</linearGradient>
<linearGradient id="paint11_linear_156_3667" x1="48.332" y1="66.9362" x2="51.0589" y2="66.8732" gradientUnits="userSpaceOnUse">
<stop stop-color="#377DC5"/>
<stop offset="1" stop-color="#013792"/>
</linearGradient>
<linearGradient id="paint12_linear_156_3667" x1="43" y1="66.9362" x2="45.7268" y2="66.8732" gradientUnits="userSpaceOnUse">
<stop stop-color="#377DC5"/>
<stop offset="1" stop-color="#013792"/>
</linearGradient>
<linearGradient id="paint13_linear_156_3667" x1="71" y1="54.6016" x2="73.718" y2="54.4341" gradientUnits="userSpaceOnUse">
<stop stop-color="#377DC5"/>
<stop offset="1" stop-color="#013792"/>
</linearGradient>
<linearGradient id="paint14_linear_156_3667" x1="57.668" y1="54.6016" x2="67.956" y2="52.0655" gradientUnits="userSpaceOnUse">
<stop stop-color="#377DC5"/>
<stop offset="1" stop-color="#013792"/>
</linearGradient>
<linearGradient id="paint15_linear_156_3667" x1="50.4805" y1="41.3152" x2="78.6902" y2="39.3183" gradientUnits="userSpaceOnUse">
<stop stop-color="#377DC5"/>
<stop offset="1" stop-color="#013792"/>
</linearGradient>
<linearGradient id="paint16_linear_156_3667" x1="8.33594" y1="56.2686" x2="24.697" y2="55.8905" gradientUnits="userSpaceOnUse">
<stop stop-color="#377DC5"/>
<stop offset="1" stop-color="#013792"/>
</linearGradient>
<linearGradient id="paint17_linear_156_3667" x1="2.48047" y1="70.6482" x2="30.6902" y2="68.6513" gradientUnits="userSpaceOnUse">
<stop stop-color="#377DC5"/>
<stop offset="1" stop-color="#013792"/>
</linearGradient>
</defs>
</svg>
