<?xml version="1.0" encoding="UTF-8" standalone="no"?><svg width="81" height="6" viewBox="0 0 81 6" fill="none" xmlns="http://www.w3.org/2000/svg">
<path d="M2.76512 0.405563L5.19821 2.83865L2.76512 5.27174L0.332031 2.83865L2.76512 0.405563Z" fill="#D9D9D9"/>
<path d="M2.76512 0.405563L0.332031 2.83865L2.76512 2.83865L2.76512 0.405563Z" fill="white"/>
<path d="M2.76512 0.405563L5.19821 2.83865L2.76512 2.83865L2.76512 0.405563Z" fill="white"/>
<path d="M2.76512 5.27174L0.332031 2.83865L2.76512 2.83865L2.76512 5.27174Z" fill="white"/>
<path d="M2.76512 5.27174L5.19821 2.83865L2.76512 2.83865L2.76512 5.27174Z" fill="white"/>
<path d="M9.64849 4.05749C9.5068 4.36396 9.29274 4.5172 9.00629 4.5172C8.88617 4.5172 8.78298 4.49179 8.69674 4.44096C8.60896 4.39784 8.53812 4.34163 8.48422 4.27233C8.41799 4.19995 8.3741 4.10524 8.35254 3.98819C8.3279 3.87115 8.31558 3.64707 8.31558 3.31596C8.31558 2.98486 8.3279 2.75924 8.35254 2.63912C8.3741 2.52515 8.41799 2.43198 8.48422 2.3596C8.53812 2.2903 8.60896 2.23254 8.69674 2.18634C8.78298 2.14168 8.88617 2.11781 9.00629 2.11473C9.16953 2.11781 9.30814 2.16478 9.4221 2.25565C9.53144 2.35113 9.60691 2.46663 9.64849 2.60215H10.189C10.1351 2.32033 10.0058 2.08393 9.80095 1.89297C9.59613 1.70354 9.33124 1.60729 9.00629 1.60421C8.7414 1.60729 8.52041 1.67043 8.3433 1.79363C8.16312 1.9153 8.03221 2.0539 7.95059 2.20944C7.89977 2.29107 7.86204 2.3981 7.8374 2.53054C7.8143 2.66299 7.80275 2.92479 7.80275 3.31596C7.80275 3.70097 7.8143 3.96124 7.8374 4.09677C7.84972 4.16915 7.86512 4.22921 7.8836 4.27695C7.90362 4.32315 7.92595 4.37166 7.95059 4.42248C8.03221 4.57803 8.16312 4.71509 8.3433 4.83368C8.52041 4.95688 8.7414 5.02156 9.00629 5.02772C9.2989 5.02772 9.55223 4.94456 9.7663 4.77823C9.97421 4.61037 10.1151 4.37012 10.189 4.05749H9.64849ZM10.9625 3.85883C10.9655 4.21304 11.0826 4.4941 11.3136 4.702C11.54 4.91607 11.8218 5.02464 12.1591 5.02772C12.5025 5.02464 12.7866 4.91607 13.0115 4.702C13.2348 4.4941 13.3495 4.21304 13.3557 3.85883V1.63193H12.8452V3.80339C12.8421 4.03285 12.7774 4.20765 12.6511 4.32777C12.5217 4.45406 12.3577 4.5172 12.1591 4.5172C11.9604 4.5172 11.7979 4.45406 11.6716 4.32777C11.5423 4.20765 11.4761 4.03285 11.473 3.80339V1.63193H10.9625V3.85883ZM14.4779 5H16.6286V4.5172H14.9884V3.52849H16.3883V3.07572H14.9884V2.11473H16.6286V1.63193H14.4779V5ZM17.5845 5H19.0029C19.2677 5 19.4887 4.91145 19.6658 4.73434C19.8445 4.56494 19.9353 4.3347 19.9384 4.04363C19.9384 3.86807 19.8945 3.70559 19.8068 3.55621C19.7128 3.41145 19.5742 3.31519 19.3909 3.26745V3.25821C19.488 3.21201 19.5696 3.16042 19.6358 3.10344C19.702 3.04954 19.7529 2.99256 19.7883 2.93249C19.8576 2.80621 19.8907 2.67377 19.8876 2.53516C19.8876 2.26412 19.8037 2.0462 19.6358 1.88142C19.4695 1.71817 19.2208 1.63501 18.8897 1.63193H17.5845V5ZM18.8804 3.50539C19.0698 3.50847 19.2085 3.55852 19.2962 3.65554C19.384 3.75411 19.4279 3.87269 19.4279 4.01129C19.4279 4.14682 19.384 4.26386 19.2962 4.36242C19.2085 4.46253 19.0698 4.51412 18.8804 4.5172H18.095V3.50539H18.8804ZM18.8319 2.08701C19.0183 2.09009 19.1553 2.13552 19.2431 2.2233C19.3324 2.31725 19.3771 2.43198 19.3771 2.5675C19.3771 2.70303 19.3324 2.81545 19.2431 2.90477C19.1553 3.0018 19.0183 3.05031 18.8319 3.05031H18.095V2.08701H18.8319ZM20.9151 5H21.3979V2.60215H20.9151V5ZM20.9151 2.11473H21.3979V1.63193H20.9151V2.11473ZM24.285 4.05749C24.1434 4.36396 23.9293 4.5172 23.6428 4.5172C23.5227 4.5172 23.4195 4.49179 23.3333 4.44096C23.2455 4.39784 23.1747 4.34163 23.1208 4.27233C23.0546 4.19995 23.0107 4.10524 22.9891 3.98819C22.9645 3.87115 22.9521 3.64707 22.9521 3.31596C22.9521 2.98486 22.9645 2.75924 22.9891 2.63912C23.0107 2.52515 23.0546 2.43198 23.1208 2.3596C23.1747 2.2903 23.2455 2.23254 23.3333 2.18634C23.4195 2.14168 23.5227 2.11781 23.6428 2.11473C23.8061 2.11781 23.9447 2.16478 24.0587 2.25565C24.168 2.35113 24.2435 2.46663 24.285 2.60215H24.8256C24.7717 2.32033 24.6423 2.08393 24.4375 1.89297C24.2327 1.70354 23.9678 1.60729 23.6428 1.60421C23.378 1.60729 23.157 1.67043 22.9799 1.79363C22.7997 1.9153 22.6688 2.0539 22.5871 2.20944C22.5363 2.29107 22.4986 2.3981 22.474 2.53054C22.4509 2.66299 22.4393 2.92479 22.4393 3.31596C22.4393 3.70097 22.4509 3.96124 22.474 4.09677C22.4863 4.16915 22.5017 4.22921 22.5202 4.27695C22.5402 4.32315 22.5625 4.37166 22.5871 4.42248C22.6688 4.57803 22.7997 4.71509 22.9799 4.83368C23.157 4.95688 23.378 5.02156 23.6428 5.02772C23.9355 5.02772 24.1888 4.94456 24.4029 4.77823C24.6108 4.61037 24.7517 4.37012 24.8256 4.05749H24.285ZM27.271 5H27.7816V2.90015H27.7908L28.4954 4.5172H28.9204L29.625 2.90015H29.6365V5H30.1471V1.63193H29.6643L28.7171 3.82649L27.7515 1.63193H27.271V5ZM31.9253 3.79415L32.4128 2.32264H32.422L32.9094 3.79415H31.9253ZM33.316 5H33.8542L32.6299 1.63193H32.2026L30.9782 5H31.5188L31.7775 4.24692H33.055L33.316 5ZM35.2006 2.08701H35.9998C36.1631 2.08701 36.2878 2.12166 36.3741 2.19096C36.4834 2.26951 36.5396 2.39656 36.5427 2.57212C36.5427 2.71843 36.4957 2.84163 36.4018 2.94173C36.3063 3.04954 36.1631 3.10498 35.9721 3.10806H35.2006V2.08701ZM34.69 5H35.2006V3.56083H35.852L36.5473 5H37.1549L36.3741 3.50539C36.8022 3.3406 37.0193 3.02952 37.0255 2.57212C37.0163 2.26104 36.9046 2.02156 36.6905 1.85369C36.5134 1.70585 36.2847 1.63193 36.0045 1.63193H34.69V5ZM38.0507 5H38.5612V3.97433L39.1526 3.35293L40.0697 5H40.6749L39.4829 2.96021L40.5617 1.63193H39.9565L38.5705 3.36679H38.5612V1.63193H38.0507V5ZM41.5038 5H43.6545V4.5172H42.0143V3.52849H43.4142V3.07572H42.0143V2.11473H43.6545V1.63193H41.5038V5ZM45.1809 5H45.6938V2.08701H46.6155V1.63193H44.2592V2.08701H45.1809V5ZM47.449 5H47.9595V1.63193H47.449V5ZM49.1418 5H49.6523V2.60677H49.6615L51.1839 5H51.6667V1.63193H51.1562V4.02515H51.1469L49.6223 1.63193H49.1418V5ZM53.9463 3.62782H54.6323V3.80339C54.6293 4.01437 54.563 4.18455 54.4337 4.31391C54.3043 4.44944 54.1403 4.5172 53.9416 4.5172C53.8215 4.5172 53.7183 4.49179 53.6321 4.44096C53.5443 4.39784 53.4735 4.34163 53.4196 4.27233C53.3533 4.19995 53.3094 4.10524 53.2879 3.98819C53.2632 3.87115 53.2509 3.64707 53.2509 3.31596C53.2509 2.98486 53.2632 2.75924 53.2879 2.63912C53.3094 2.52515 53.3533 2.43198 53.4196 2.3596C53.4735 2.2903 53.5443 2.23254 53.6321 2.18634C53.7183 2.14168 53.8215 2.11781 53.9416 2.11473C54.1049 2.11781 54.2435 2.16478 54.3574 2.25565C54.4668 2.35113 54.5422 2.46663 54.5838 2.60215H55.1244C55.0705 2.32033 54.9411 2.08393 54.7363 1.89297C54.5315 1.70354 54.2666 1.60729 53.9416 1.60421C53.6767 1.60729 53.4557 1.67043 53.2786 1.79363C53.0985 1.9153 52.9676 2.0539 52.8859 2.20944C52.8351 2.29107 52.7974 2.3981 52.7727 2.53054C52.7496 2.66299 52.7381 2.92479 52.7381 3.31596C52.7381 3.70097 52.7496 3.96124 52.7727 4.09677C52.7851 4.16915 52.8005 4.22921 52.8189 4.27695C52.839 4.32315 52.8613 4.37166 52.8859 4.42248C52.9676 4.57803 53.0985 4.71509 53.2786 4.83368C53.4557 4.95688 53.6767 5.02156 53.9416 5.02772C54.2851 5.02156 54.57 4.90529 54.7964 4.6789C55.0212 4.45098 55.1367 4.16838 55.1429 3.83111V3.14502H53.9463V3.62782ZM58.4199 3.79415L58.9073 2.32264H58.9166L59.404 3.79415H58.4199ZM59.8106 5H60.3488L59.1245 1.63193H58.6971L57.4728 5H58.0133L58.2721 4.24692H59.5495L59.8106 5ZM62.8271 4.05749C62.6854 4.36396 62.4713 4.5172 62.1849 4.5172C62.0647 4.5172 61.9616 4.49179 61.8753 4.44096C61.7875 4.39784 61.7167 4.34163 61.6628 4.27233C61.5966 4.19995 61.5527 4.10524 61.5311 3.98819C61.5065 3.87115 61.4942 3.64707 61.4942 3.31596C61.4942 2.98486 61.5065 2.75924 61.5311 2.63912C61.5527 2.52515 61.5966 2.43198 61.6628 2.3596C61.7167 2.2903 61.7875 2.23254 61.8753 2.18634C61.9616 2.14168 62.0647 2.11781 62.1849 2.11473C62.3481 2.11781 62.4867 2.16478 62.6007 2.25565C62.71 2.35113 62.7855 2.46663 62.8271 2.60215H63.3676C63.3137 2.32033 63.1843 2.08393 62.9795 1.89297C62.7747 1.70354 62.5098 1.60729 62.1849 1.60421C61.92 1.60729 61.699 1.67043 61.5219 1.79363C61.3417 1.9153 61.2108 2.0539 61.1292 2.20944C61.0783 2.29107 61.0406 2.3981 61.016 2.53054C60.9929 2.66299 60.9813 2.92479 60.9813 3.31596C60.9813 3.70097 60.9929 3.96124 61.016 4.09677C61.0283 4.16915 61.0437 4.22921 61.0622 4.27695C61.0822 4.32315 61.1045 4.37166 61.1292 4.42248C61.2108 4.57803 61.3417 4.71509 61.5219 4.83368C61.699 4.95688 61.92 5.02156 62.1849 5.02772C62.4775 5.02772 62.7308 4.94456 62.9449 4.77823C63.1528 4.61037 63.2937 4.37012 63.3676 4.05749H62.8271ZM64.7994 3.79415L65.2868 2.32264H65.2961L65.7835 3.79415H64.7994ZM66.19 5H66.7283L65.504 1.63193H65.0766L63.8523 5H64.3928L64.6515 4.24692H65.929L66.19 5ZM67.5641 5H68.7076C68.9601 5 69.1734 4.94456 69.3474 4.83368C69.523 4.73049 69.6601 4.59959 69.7586 4.44096C69.7956 4.3809 69.8272 4.32315 69.8533 4.26771C69.878 4.21073 69.8965 4.14605 69.9088 4.07366C69.935 3.93044 69.9481 3.67787 69.9481 3.31596C69.9481 2.97562 69.9396 2.73614 69.9226 2.59753C69.9011 2.45893 69.8495 2.32649 69.7679 2.2002C69.5399 1.82443 69.1981 1.63501 68.7422 1.63193H67.5641V5ZM68.0746 2.11473H68.6845C68.9432 2.10857 69.1434 2.20328 69.2851 2.39887C69.3544 2.47741 69.3983 2.57982 69.4167 2.70611C69.4306 2.83239 69.4375 3.04184 69.4375 3.33444C69.4375 3.63475 69.4306 3.83958 69.4167 3.94892C69.4013 4.0598 69.3651 4.15144 69.3082 4.22382C69.1788 4.4194 68.9709 4.5172 68.6845 4.5172H68.0746V2.11473ZM71.0172 5H73.1678V4.5172H71.5277V3.52849H72.9276V3.07572H71.5277V2.11473H73.1678V1.63193H71.0172V5ZM74.1237 5H74.6342V2.90015H74.6435L75.3481 4.5172H75.7731L76.4777 2.90015H76.4892V5H76.9998V1.63193H76.5169L75.5698 3.82649L74.6042 1.63193H74.1237V5ZM78.7688 5H79.2493V3.61396L80.2634 1.63193H79.7229L79.009 3.12654L78.2952 1.63193H77.7547L78.7688 3.61396V5Z" fill="white"/>
</svg>
