<?xml version="1.0" encoding="UTF-8" standalone="no"?><svg width="10" height="11" viewBox="0 0 10 11" fill="none" xmlns="http://www.w3.org/2000/svg">
<g clip-path="url(#clip0_243_164)">
<path d="M5.83333 3.03227V3.19893C5.83333 3.65927 6.20633 4.03227 6.66667 4.03227C7.127 4.03227 7.5 3.65927 7.5 3.19893V2.43327C7.5 2.02777 7.17117 1.69893 6.76567 1.69893H6.66667C6.16667 1.69893 5.66667 1.3656 5.66667 1.3656C5.66667 1.3656 5.5 1.53227 5.5 1.8656C5.5 2.3656 5.83333 2.69893 6.33333 2.69893" stroke="url(#paint0_linear_243_164)" stroke-width="0.333333" stroke-miterlimit="10"/>
<path d="M5.8335 3.19886V2.55603" stroke="url(#paint1_linear_243_164)" stroke-width="0.333333" stroke-miterlimit="10"/>
<path d="M6.1665 4.53223C6.1665 4.53223 6.33317 4.69889 6.6665 4.69889C6.99984 4.69889 7.1665 4.53223 7.1665 4.53223" stroke="url(#paint2_linear_243_164)" stroke-width="0.333333" stroke-miterlimit="10"/>
<path d="M3 4.8656V4.25293" stroke="url(#paint3_linear_243_164)" stroke-width="0.333333" stroke-miterlimit="10"/>
<path d="M2.6665 6.19897C2.6665 6.19897 2.49984 6.36564 2.1665 6.36564C1.83317 6.36564 1.6665 6.19897 1.6665 6.19897" stroke="url(#paint4_linear_243_164)" stroke-width="0.333333" stroke-miterlimit="10"/>
<path d="M9.99984 6.8656H9.6665" stroke="url(#paint5_linear_243_164)" stroke-width="0.333333" stroke-miterlimit="10"/>
<path d="M9.33336 6.8656H3.7627" stroke="url(#paint6_linear_243_164)" stroke-width="0.333333" stroke-miterlimit="10"/>
<path d="M3.00016 4.69893V4.8656C3.00016 5.32593 2.62716 5.69893 2.16683 5.69893C1.7065 5.69893 1.3335 5.32593 1.3335 4.8656V4.09993C1.3335 3.69443 1.66233 3.3656 2.06783 3.3656H2.16683H3.00016C3.18416 3.3656 3.3335 3.51493 3.3335 3.69893C3.3335 4.10527 3.00016 4.3656 2.50016 4.3656" stroke="url(#paint7_linear_243_164)" stroke-width="0.333333" stroke-miterlimit="10"/>
<path d="M3.5 7.69897V10.3656" stroke="url(#paint8_linear_243_164)" stroke-width="0.333333" stroke-miterlimit="10"/>
<path d="M4.39617 8.04223L5.00983 7.60839C5.07767 7.56039 5.1605 7.53223 5.25 7.53223C5.48017 7.53223 5.66667 7.71873 5.66667 7.94889C5.66667 8.06839 5.61617 8.17606 5.53583 8.25206L4.6765 9.06256C4.58683 9.14706 4.46617 9.19889 4.33333 9.19889C4.21517 9.19889 4.10683 9.15673 4.02067 9.08889L3.5 8.67806" stroke="url(#paint9_linear_243_164)" stroke-width="0.333333" stroke-miterlimit="10"/>
<path d="M4.5545 8.33689L3.7065 6.76139C3.627 6.61373 3.496 6.50056 3.33834 6.44323L2.6665 6.19889V5.53223" stroke="url(#paint10_linear_243_164)" stroke-width="0.333333" stroke-miterlimit="10"/>
<path d="M2.86717 10.3369L1.80733 7.38739C1.62283 6.87439 1.13633 6.53223 0.5915 6.53223H0" stroke="url(#paint11_linear_243_164)" stroke-width="0.333333" stroke-miterlimit="10"/>
<path d="M1.37939 8.16848L1.28223 7.89832" stroke="url(#paint12_linear_243_164)" stroke-width="0.333333" stroke-miterlimit="10"/>
<path d="M2.03825 10.0013L1.52441 8.57178" stroke="url(#paint13_linear_243_164)" stroke-width="0.333333" stroke-miterlimit="10"/>
<path d="M0.867188 6.56223L1.01185 6.45439C1.11169 6.38006 1.22419 6.32439 1.34402 6.29056L1.66669 6.19889V5.53223" stroke="url(#paint14_linear_243_164)" stroke-width="0.333333" stroke-miterlimit="10"/>
<path d="M5.06201 8.69897H9.33334" stroke="url(#paint15_linear_243_164)" stroke-width="0.333333" stroke-miterlimit="10"/>
<path d="M8.91917 6.8656L8.3235 5.28243C8.22417 5.01877 8.01134 4.81377 7.744 4.72477L7.1665 4.53227V3.8656" stroke="url(#paint16_linear_243_164)" stroke-width="0.333333" stroke-miterlimit="10"/>
<path d="M6.24217 6.86556L5.77667 5.38256C5.71133 5.17406 5.51783 5.03223 5.2995 5.03223H3.5" stroke="url(#paint17_linear_243_164)" stroke-width="0.333333" stroke-miterlimit="10"/>
<path d="M6.16683 3.8656V4.53227L5.841 4.62543C5.74166 4.65377 5.64866 4.70027 5.56616 4.76243L5.2085 5.03227" stroke="url(#paint18_linear_243_164)" stroke-width="0.333333" stroke-miterlimit="10"/>
<path d="M5.33333 5.53223H5V5.86556H5.33333V5.53223Z" fill="url(#paint19_linear_243_164)"/>
<path d="M4.66683 5.53223H4.3335V5.86556H4.66683V5.53223Z" fill="url(#paint20_linear_243_164)"/>
<path d="M6.03271 6.19885H7.33322C7.60922 6.19885 7.83322 6.42269 7.83322 6.69885C7.83322 6.79102 7.75872 6.86552 7.66655 6.86552" stroke="url(#paint21_linear_243_164)" stroke-width="0.333333" stroke-miterlimit="10"/>
<path d="M4.71066 3.18506L4.00083 2.69889H2.16683C1.98283 2.69889 1.8335 2.54956 1.8335 2.36556V1.36556C1.8335 1.18156 1.98283 1.03223 2.16683 1.03223H4.50016C4.68416 1.03223 4.8335 1.18156 4.8335 1.36556V3.12023C4.8335 3.18339 4.76266 3.22073 4.71066 3.18506Z" stroke="url(#paint22_linear_243_164)" stroke-width="0.333333" stroke-miterlimit="10"/>
<path d="M4.16683 1.69885H3.8335V2.03219H4.16683V1.69885Z" fill="url(#paint23_linear_243_164)"/>
<path d="M3.49984 1.69885H3.1665V2.03219H3.49984V1.69885Z" fill="url(#paint24_linear_243_164)"/>
<path d="M2.83333 1.69885H2.5V2.03219H2.83333V1.69885Z" fill="url(#paint25_linear_243_164)"/>
</g>
<defs>
<linearGradient id="paint0_linear_243_164" x1="5.5" y1="4.03227" x2="7.54561" y2="3.99681" gradientUnits="userSpaceOnUse">
<stop stop-color="#377DC5"/>
<stop offset="1" stop-color="#013792"/>
</linearGradient>
<linearGradient id="paint1_linear_243_164" x1="5.8335" y1="3.19886" x2="6.85529" y2="3.16213" gradientUnits="userSpaceOnUse">
<stop stop-color="#377DC5"/>
<stop offset="1" stop-color="#013792"/>
</linearGradient>
<linearGradient id="paint2_linear_243_164" x1="6.1665" y1="4.69889" x2="7.17031" y2="4.55971" gradientUnits="userSpaceOnUse">
<stop stop-color="#377DC5"/>
<stop offset="1" stop-color="#013792"/>
</linearGradient>
<linearGradient id="paint3_linear_243_164" x1="3" y1="4.8656" x2="4.02166" y2="4.82706" gradientUnits="userSpaceOnUse">
<stop stop-color="#377DC5"/>
<stop offset="1" stop-color="#013792"/>
</linearGradient>
<linearGradient id="paint4_linear_243_164" x1="1.6665" y1="6.36564" x2="2.67031" y2="6.22645" gradientUnits="userSpaceOnUse">
<stop stop-color="#377DC5"/>
<stop offset="1" stop-color="#013792"/>
</linearGradient>
<linearGradient id="paint5_linear_243_164" x1="9.6665" y1="7.8656" x2="10.0075" y2="7.86297" gradientUnits="userSpaceOnUse">
<stop stop-color="#377DC5"/>
<stop offset="1" stop-color="#013792"/>
</linearGradient>
<linearGradient id="paint6_linear_243_164" x1="3.7627" y1="7.8656" x2="9.36918" y2="7.14384" gradientUnits="userSpaceOnUse">
<stop stop-color="#377DC5"/>
<stop offset="1" stop-color="#013792"/>
</linearGradient>
<linearGradient id="paint7_linear_243_164" x1="1.3335" y1="5.69893" x2="3.37891" y2="5.65842" gradientUnits="userSpaceOnUse">
<stop stop-color="#377DC5"/>
<stop offset="1" stop-color="#013792"/>
</linearGradient>
<linearGradient id="paint8_linear_243_164" x1="3.5" y1="10.3656" x2="4.52303" y2="10.3568" gradientUnits="userSpaceOnUse">
<stop stop-color="#377DC5"/>
<stop offset="1" stop-color="#013792"/>
</linearGradient>
<linearGradient id="paint9_linear_243_164" x1="3.5" y1="9.19889" x2="5.71474" y2="9.13236" gradientUnits="userSpaceOnUse">
<stop stop-color="#377DC5"/>
<stop offset="1" stop-color="#013792"/>
</linearGradient>
<linearGradient id="paint10_linear_243_164" x1="2.6665" y1="8.33689" x2="4.59767" y2="8.30685" gradientUnits="userSpaceOnUse">
<stop stop-color="#377DC5"/>
<stop offset="1" stop-color="#013792"/>
</linearGradient>
<linearGradient id="paint11_linear_243_164" x1="-1.0681e-08" y1="10.3369" x2="2.93254" y2="10.2858" gradientUnits="userSpaceOnUse">
<stop stop-color="#377DC5"/>
<stop offset="1" stop-color="#013792"/>
</linearGradient>
<linearGradient id="paint12_linear_243_164" x1="1.28223" y1="8.16848" x2="1.38163" y2="8.16766" gradientUnits="userSpaceOnUse">
<stop stop-color="#377DC5"/>
<stop offset="1" stop-color="#013792"/>
</linearGradient>
<linearGradient id="paint13_linear_243_164" x1="1.52441" y1="10.0013" x2="2.05009" y2="9.99691" gradientUnits="userSpaceOnUse">
<stop stop-color="#377DC5"/>
<stop offset="1" stop-color="#013792"/>
</linearGradient>
<linearGradient id="paint14_linear_243_164" x1="0.867187" y1="6.56223" x2="1.6849" y2="6.54756" gradientUnits="userSpaceOnUse">
<stop stop-color="#377DC5"/>
<stop offset="1" stop-color="#013792"/>
</linearGradient>
<linearGradient id="paint15_linear_243_164" x1="5.06201" y1="9.69897" x2="9.38989" y2="9.27177" gradientUnits="userSpaceOnUse">
<stop stop-color="#377DC5"/>
<stop offset="1" stop-color="#013792"/>
</linearGradient>
<linearGradient id="paint16_linear_243_164" x1="7.1665" y1="6.8656" x2="8.95935" y2="6.84139" gradientUnits="userSpaceOnUse">
<stop stop-color="#377DC5"/>
<stop offset="1" stop-color="#013792"/>
</linearGradient>
<linearGradient id="paint17_linear_243_164" x1="3.5" y1="6.86556" x2="6.30219" y2="6.7687" gradientUnits="userSpaceOnUse">
<stop stop-color="#377DC5"/>
<stop offset="1" stop-color="#013792"/>
</linearGradient>
<linearGradient id="paint18_linear_243_164" x1="5.2085" y1="5.03227" x2="6.18862" y2="5.01366" gradientUnits="userSpaceOnUse">
<stop stop-color="#377DC5"/>
<stop offset="1" stop-color="#013792"/>
</linearGradient>
<linearGradient id="paint19_linear_243_164" x1="5" y1="5.86556" x2="5.34085" y2="5.85768" gradientUnits="userSpaceOnUse">
<stop stop-color="#377DC5"/>
<stop offset="1" stop-color="#013792"/>
</linearGradient>
<linearGradient id="paint20_linear_243_164" x1="4.3335" y1="5.86556" x2="4.67435" y2="5.85768" gradientUnits="userSpaceOnUse">
<stop stop-color="#377DC5"/>
<stop offset="1" stop-color="#013792"/>
</linearGradient>
<linearGradient id="paint21_linear_243_164" x1="6.03271" y1="6.86552" x2="7.86768" y2="6.75099" gradientUnits="userSpaceOnUse">
<stop stop-color="#377DC5"/>
<stop offset="1" stop-color="#013792"/>
</linearGradient>
<linearGradient id="paint22_linear_243_164" x1="1.8335" y1="3.19891" x2="4.89969" y2="3.1008" gradientUnits="userSpaceOnUse">
<stop stop-color="#377DC5"/>
<stop offset="1" stop-color="#013792"/>
</linearGradient>
<linearGradient id="paint23_linear_243_164" x1="3.8335" y1="2.03219" x2="4.17435" y2="2.02431" gradientUnits="userSpaceOnUse">
<stop stop-color="#377DC5"/>
<stop offset="1" stop-color="#013792"/>
</linearGradient>
<linearGradient id="paint24_linear_243_164" x1="3.1665" y1="2.03219" x2="3.50736" y2="2.02431" gradientUnits="userSpaceOnUse">
<stop stop-color="#377DC5"/>
<stop offset="1" stop-color="#013792"/>
</linearGradient>
<linearGradient id="paint25_linear_243_164" x1="2.5" y1="2.03219" x2="2.84085" y2="2.02431" gradientUnits="userSpaceOnUse">
<stop stop-color="#377DC5"/>
<stop offset="1" stop-color="#013792"/>
</linearGradient>
<clipPath id="clip0_243_164">
<rect width="10" height="10" fill="white" transform="translate(0 0.532227)"/>
</clipPath>
</defs>
</svg>
