<?xml version="1.0" encoding="UTF-8" standalone="no"?><svg width="48" height="49" viewBox="0 0 48 49" fill="none" xmlns="http://www.w3.org/2000/svg">
<path d="M13.6001 10.8866V7.16504" stroke="url(#paint0_linear_243_336)" stroke-width="1.6" stroke-miterlimit="10"/>
<path d="M16.8008 8.48672C14.6256 8.48672 12.8008 7.23632 12.8008 4.76992C12.8008 3.68672 13.6008 2.88672 13.6008 2.88672C13.6008 2.88672 15.2008 4.48672 17.6008 4.48672H18.7336C21.2008 4.48672 23.2008 6.48672 23.2008 8.95312V12.4867C23.2008 15.1371 21.0512 17.2867 18.4008 17.2867C15.7496 17.2867 13.6008 15.1371 13.6008 12.4867V10.0867" stroke="url(#paint1_linear_243_336)" stroke-width="1.6" stroke-miterlimit="10"/>
<path d="M20.8 19.6865C20.8 19.6865 20 21.2865 18.4 21.2865C16.8 21.2865 16 19.6865 16 19.6865" stroke="url(#paint2_linear_243_336)" stroke-width="1.6" stroke-miterlimit="10"/>
<path d="M16.0007 16.644V19.6864L10.0399 22.0704C8.74628 22.5872 7.74708 23.648 7.30708 24.9688L3.76868 35.5816C3.39268 36.7104 3.20068 37.8936 3.20068 39.0832C3.20068 40.7416 4.54548 42.0864 6.20388 42.0864C6.33508 42.0864 6.46628 42.0776 6.59588 42.0608L18.7831 40.456C19.9335 40.304 20.8007 39.2824 20.8007 38.0864C20.8007 36.7608 19.7255 35.6864 18.4007 35.6864C18.3359 35.6864 18.2703 35.6888 18.2071 35.6944L8.17428 36.496" stroke="url(#paint3_linear_243_336)" stroke-width="1.6" stroke-miterlimit="10"/>
<path d="M20.8003 16.644V19.6864L26.7619 22.0704C27.8915 22.5224 28.7971 23.3888 29.3019 24.4832" stroke="url(#paint4_linear_243_336)" stroke-width="1.6" stroke-miterlimit="10"/>
<path d="M12.334 30.2866L10.2812 36.3274" stroke="url(#paint5_linear_243_336)" stroke-width="1.6" stroke-miterlimit="10"/>
<path d="M20.6663 38.8862H44.8007V41.2862C44.8007 42.6118 43.7255 43.6862 42.4007 43.6862H17.6007C16.2751 43.6862 15.2007 42.6118 15.2007 41.2862V40.9278" stroke="url(#paint6_linear_243_336)" stroke-width="1.6" stroke-miterlimit="10"/>
<path d="M16.7993 35.8063V26.8863C16.7993 25.5607 17.8737 24.4863 19.1993 24.4863H40.7993C42.1241 24.4863 43.1993 25.5607 43.1993 26.8863V38.8863" stroke="url(#paint7_linear_243_336)" stroke-width="1.6" stroke-miterlimit="10"/>
<path d="M41.6011 41.2861V43.6861" stroke="url(#paint8_linear_243_336)" stroke-width="1.6" stroke-miterlimit="10"/>
<path d="M38.3994 41.2861V43.6861" stroke="url(#paint9_linear_243_336)" stroke-width="1.6" stroke-miterlimit="10"/>
<path d="M35.2002 41.2861V43.6861" stroke="url(#paint10_linear_243_336)" stroke-width="1.6" stroke-miterlimit="10"/>
<path d="M38.4008 46.8867H36.8008" stroke="url(#paint11_linear_243_336)" stroke-width="1.6" stroke-miterlimit="10"/>
<path d="M35.201 46.8867H20.001" stroke="url(#paint12_linear_243_336)" stroke-width="1.6" stroke-miterlimit="10"/>
<path d="M36.001 35.6865C38.2101 35.6865 40.001 33.8957 40.001 31.6865C40.001 29.4774 38.2101 27.6865 36.001 27.6865C33.7918 27.6865 32.001 29.4774 32.001 31.6865C32.001 33.8957 33.7918 35.6865 36.001 35.6865Z" stroke="url(#paint13_linear_243_336)" stroke-width="1.6" stroke-miterlimit="10"/>
<path d="M39.9995 31.6865H35.9995V27.6865" stroke="url(#paint14_linear_243_336)" stroke-width="1.6" stroke-miterlimit="10"/>
<path d="M36.0009 31.6865L33.1729 34.5145" stroke="url(#paint15_linear_243_336)" stroke-width="1.6" stroke-miterlimit="10"/>
<path d="M19.1992 27.6865H25.5992" stroke="url(#paint16_linear_243_336)" stroke-width="1.6" stroke-miterlimit="10"/>
<path d="M27.2007 27.6865H28.8007" stroke="url(#paint17_linear_243_336)" stroke-width="1.6" stroke-miterlimit="10"/>
<path d="M19.1992 30.8867H28.7992" stroke="url(#paint18_linear_243_336)" stroke-width="1.6" stroke-miterlimit="10"/>
<path d="M40.8007 14.8868H42.4007C43.2839 14.8868 44.0007 14.17 44.0007 13.2868V6.08682C44.0007 5.20362 43.2839 4.48682 42.4007 4.48682H28.8007C27.9175 4.48682 27.2007 5.20362 27.2007 6.08682V16.9092C27.2007 17.2124 27.5399 17.3916 27.7895 17.2204L31.1967 14.8868H36.0007" stroke="url(#paint19_linear_243_336)" stroke-width="1.6" stroke-miterlimit="10"/>
<path d="M29.6011 7.68652H36.0011" stroke="url(#paint20_linear_243_336)" stroke-width="1.6" stroke-miterlimit="10"/>
<path d="M37.6001 7.68652H39.2001" stroke="url(#paint21_linear_243_336)" stroke-width="1.6" stroke-miterlimit="10"/>
<path d="M29.6011 10.8867H41.6011" stroke="url(#paint22_linear_243_336)" stroke-width="1.6" stroke-miterlimit="10"/>
<path d="M37.6001 14.8867H39.2001" stroke="url(#paint23_linear_243_336)" stroke-width="1.6" stroke-miterlimit="10"/>
<path d="M1.6001 18.8867H5.6001" stroke="url(#paint24_linear_243_336)" stroke-width="1.6" stroke-miterlimit="10"/>
<path d="M2.72266 12.7568L6.30426 13.716" stroke="url(#paint25_linear_243_336)" stroke-width="1.6" stroke-miterlimit="10"/>
<path d="M5.58691 7.33398L8.66051 9.10758" stroke="url(#paint26_linear_243_336)" stroke-width="1.6" stroke-miterlimit="10"/>
<defs>
<linearGradient id="paint0_linear_243_336" x1="13.6001" y1="10.8866" x2="14.6232" y2="10.8803" gradientUnits="userSpaceOnUse">
<stop stop-color="#377DC5"/>
<stop offset="1" stop-color="#013792"/>
</linearGradient>
<linearGradient id="paint1_linear_243_336" x1="12.8008" y1="17.2867" x2="23.4382" y2="17.1092" gradientUnits="userSpaceOnUse">
<stop stop-color="#377DC5"/>
<stop offset="1" stop-color="#013792"/>
</linearGradient>
<linearGradient id="paint2_linear_243_336" x1="16" y1="21.2865" x2="20.8874" y2="20.9477" gradientUnits="userSpaceOnUse">
<stop stop-color="#377DC5"/>
<stop offset="1" stop-color="#013792"/>
</linearGradient>
<linearGradient id="paint3_linear_243_336" x1="3.20068" y1="42.0864" x2="21.2028" y2="41.7986" gradientUnits="userSpaceOnUse">
<stop stop-color="#377DC5"/>
<stop offset="1" stop-color="#013792"/>
</linearGradient>
<linearGradient id="paint4_linear_243_336" x1="20.8003" y1="24.4832" x2="29.4929" y2="24.2654" gradientUnits="userSpaceOnUse">
<stop stop-color="#377DC5"/>
<stop offset="1" stop-color="#013792"/>
</linearGradient>
<linearGradient id="paint5_linear_243_336" x1="10.2812" y1="36.3274" x2="12.3814" y2="36.3109" gradientUnits="userSpaceOnUse">
<stop stop-color="#377DC5"/>
<stop offset="1" stop-color="#013792"/>
</linearGradient>
<linearGradient id="paint6_linear_243_336" x1="15.2007" y1="43.6862" x2="44.8819" y2="39.4563" gradientUnits="userSpaceOnUse">
<stop stop-color="#377DC5"/>
<stop offset="1" stop-color="#013792"/>
</linearGradient>
<linearGradient id="paint7_linear_243_336" x1="16.7993" y1="38.8863" x2="43.761" y2="37.744" gradientUnits="userSpaceOnUse">
<stop stop-color="#377DC5"/>
<stop offset="1" stop-color="#013792"/>
</linearGradient>
<linearGradient id="paint8_linear_243_336" x1="41.6011" y1="43.6861" x2="42.6241" y2="43.6763" gradientUnits="userSpaceOnUse">
<stop stop-color="#377DC5"/>
<stop offset="1" stop-color="#013792"/>
</linearGradient>
<linearGradient id="paint9_linear_243_336" x1="38.3994" y1="43.6861" x2="39.4224" y2="43.6763" gradientUnits="userSpaceOnUse">
<stop stop-color="#377DC5"/>
<stop offset="1" stop-color="#013792"/>
</linearGradient>
<linearGradient id="paint10_linear_243_336" x1="35.2002" y1="43.6861" x2="36.2232" y2="43.6763" gradientUnits="userSpaceOnUse">
<stop stop-color="#377DC5"/>
<stop offset="1" stop-color="#013792"/>
</linearGradient>
<linearGradient id="paint11_linear_243_336" x1="36.8008" y1="47.8867" x2="38.4355" y2="47.8263" gradientUnits="userSpaceOnUse">
<stop stop-color="#377DC5"/>
<stop offset="1" stop-color="#013792"/>
</linearGradient>
<linearGradient id="paint12_linear_243_336" x1="20.001" y1="47.8867" x2="33.8441" y2="43.024" gradientUnits="userSpaceOnUse">
<stop stop-color="#377DC5"/>
<stop offset="1" stop-color="#013792"/>
</linearGradient>
<linearGradient id="paint13_linear_243_336" x1="32.001" y1="35.6865" x2="40.1815" y2="35.4975" gradientUnits="userSpaceOnUse">
<stop stop-color="#377DC5"/>
<stop offset="1" stop-color="#013792"/>
</linearGradient>
<linearGradient id="paint14_linear_243_336" x1="35.9995" y1="31.6865" x2="40.0898" y2="31.592" gradientUnits="userSpaceOnUse">
<stop stop-color="#377DC5"/>
<stop offset="1" stop-color="#013792"/>
</linearGradient>
<linearGradient id="paint15_linear_243_336" x1="33.1729" y1="34.5145" x2="36.0647" y2="34.4477" gradientUnits="userSpaceOnUse">
<stop stop-color="#377DC5"/>
<stop offset="1" stop-color="#013792"/>
</linearGradient>
<linearGradient id="paint16_linear_243_336" x1="19.1992" y1="28.6865" x2="25.607" y2="27.7388" gradientUnits="userSpaceOnUse">
<stop stop-color="#377DC5"/>
<stop offset="1" stop-color="#013792"/>
</linearGradient>
<linearGradient id="paint17_linear_243_336" x1="27.2007" y1="28.6865" x2="28.8354" y2="28.6261" gradientUnits="userSpaceOnUse">
<stop stop-color="#377DC5"/>
<stop offset="1" stop-color="#013792"/>
</linearGradient>
<linearGradient id="paint18_linear_243_336" x1="19.1992" y1="31.8867" x2="28.5603" y2="29.8099" gradientUnits="userSpaceOnUse">
<stop stop-color="#377DC5"/>
<stop offset="1" stop-color="#013792"/>
</linearGradient>
<linearGradient id="paint19_linear_243_336" x1="27.2007" y1="17.2869" x2="44.3731" y2="16.7661" gradientUnits="userSpaceOnUse">
<stop stop-color="#377DC5"/>
<stop offset="1" stop-color="#013792"/>
</linearGradient>
<linearGradient id="paint20_linear_243_336" x1="29.6011" y1="8.68652" x2="36.0088" y2="7.7388" gradientUnits="userSpaceOnUse">
<stop stop-color="#377DC5"/>
<stop offset="1" stop-color="#013792"/>
</linearGradient>
<linearGradient id="paint21_linear_243_336" x1="37.6001" y1="8.68652" x2="39.2348" y2="8.62608" gradientUnits="userSpaceOnUse">
<stop stop-color="#377DC5"/>
<stop offset="1" stop-color="#013792"/>
</linearGradient>
<linearGradient id="paint22_linear_243_336" x1="29.6011" y1="11.8867" x2="41.0016" y2="8.72515" gradientUnits="userSpaceOnUse">
<stop stop-color="#377DC5"/>
<stop offset="1" stop-color="#013792"/>
</linearGradient>
<linearGradient id="paint23_linear_243_336" x1="37.6001" y1="15.8867" x2="39.2348" y2="15.8263" gradientUnits="userSpaceOnUse">
<stop stop-color="#377DC5"/>
<stop offset="1" stop-color="#013792"/>
</linearGradient>
<linearGradient id="paint24_linear_243_336" x1="1.6001" y1="19.8867" x2="5.65786" y2="19.5116" gradientUnits="userSpaceOnUse">
<stop stop-color="#377DC5"/>
<stop offset="1" stop-color="#013792"/>
</linearGradient>
<linearGradient id="paint25_linear_243_336" x1="2.72266" y1="13.716" x2="6.35994" y2="13.4022" gradientUnits="userSpaceOnUse">
<stop stop-color="#377DC5"/>
<stop offset="1" stop-color="#013792"/>
</linearGradient>
<linearGradient id="paint26_linear_243_336" x1="5.58691" y1="9.10758" x2="8.72651" y2="8.98185" gradientUnits="userSpaceOnUse">
<stop stop-color="#377DC5"/>
<stop offset="1" stop-color="#013792"/>
</linearGradient>
</defs>
</svg>
