<?xml version="1.0" encoding="UTF-8" standalone="no"?><svg width="60" height="60" viewBox="0 0 60 60" fill="none" xmlns="http://www.w3.org/2000/svg">
<path d="M3 41V50H8V55.851L17 50H37V17.8L3 22.2V35" stroke="url(#paint0_linear_243_286)" stroke-width="2" stroke-miterlimit="10"/>
<path d="M3 37V39" stroke="url(#paint1_linear_243_286)" stroke-width="2" stroke-miterlimit="10"/>
<path d="M34 37H23V23" stroke="url(#paint2_linear_243_286)" stroke-width="2" stroke-miterlimit="10"/>
<path d="M57 20V37H52V42.847L43 37H37" stroke="url(#paint3_linear_243_286)" stroke-width="2" stroke-miterlimit="10"/>
<path d="M57 16V18" stroke="url(#paint4_linear_243_286)" stroke-width="2" stroke-miterlimit="10"/>
<path d="M23 19.612V4.79999L57 9.19999V14" stroke="url(#paint5_linear_243_286)" stroke-width="2" stroke-miterlimit="10"/>
<path d="M17 4V12" stroke="url(#paint6_linear_243_286)" stroke-width="2" stroke-miterlimit="10"/>
<path d="M17 14V17" stroke="url(#paint7_linear_243_286)" stroke-width="2" stroke-miterlimit="10"/>
<path d="M57 43V51" stroke="url(#paint8_linear_243_286)" stroke-width="2" stroke-miterlimit="10"/>
<path d="M57 53V56" stroke="url(#paint9_linear_243_286)" stroke-width="2" stroke-miterlimit="10"/>
<path d="M45 53V47" stroke="url(#paint10_linear_243_286)" stroke-width="2" stroke-miterlimit="10"/>
<path d="M45 45V42" stroke="url(#paint11_linear_243_286)" stroke-width="2" stroke-miterlimit="10"/>
<path d="M11 17V11" stroke="url(#paint12_linear_243_286)" stroke-width="2" stroke-miterlimit="10"/>
<defs>
<linearGradient id="paint0_linear_243_286" x1="3" y1="55.851" x2="37.7709" y2="55.133" gradientUnits="userSpaceOnUse">
<stop stop-color="#377DC5"/>
<stop offset="1" stop-color="#013792"/>
</linearGradient>
<linearGradient id="paint1_linear_243_286" x1="3" y1="39" x2="4.02297" y2="38.9882" gradientUnits="userSpaceOnUse">
<stop stop-color="#377DC5"/>
<stop offset="1" stop-color="#013792"/>
</linearGradient>
<linearGradient id="paint2_linear_243_286" x1="23" y1="37" x2="34.2505" y2="36.7957" gradientUnits="userSpaceOnUse">
<stop stop-color="#377DC5"/>
<stop offset="1" stop-color="#013792"/>
</linearGradient>
<linearGradient id="paint3_linear_243_286" x1="37" y1="42.847" x2="57.4538" y2="42.4332" gradientUnits="userSpaceOnUse">
<stop stop-color="#377DC5"/>
<stop offset="1" stop-color="#013792"/>
</linearGradient>
<linearGradient id="paint4_linear_243_286" x1="57" y1="18" x2="58.023" y2="17.9882" gradientUnits="userSpaceOnUse">
<stop stop-color="#377DC5"/>
<stop offset="1" stop-color="#013792"/>
</linearGradient>
<linearGradient id="paint5_linear_243_286" x1="23" y1="19.612" x2="57.6881" y2="17.7719" gradientUnits="userSpaceOnUse">
<stop stop-color="#377DC5"/>
<stop offset="1" stop-color="#013792"/>
</linearGradient>
<linearGradient id="paint6_linear_243_286" x1="17" y1="12" x2="18.0231" y2="11.997" gradientUnits="userSpaceOnUse">
<stop stop-color="#377DC5"/>
<stop offset="1" stop-color="#013792"/>
</linearGradient>
<linearGradient id="paint7_linear_243_286" x1="17" y1="17" x2="18.023" y2="16.9921" gradientUnits="userSpaceOnUse">
<stop stop-color="#377DC5"/>
<stop offset="1" stop-color="#013792"/>
</linearGradient>
<linearGradient id="paint8_linear_243_286" x1="57" y1="51" x2="58.0231" y2="50.997" gradientUnits="userSpaceOnUse">
<stop stop-color="#377DC5"/>
<stop offset="1" stop-color="#013792"/>
</linearGradient>
<linearGradient id="paint9_linear_243_286" x1="57" y1="56" x2="58.023" y2="55.9921" gradientUnits="userSpaceOnUse">
<stop stop-color="#377DC5"/>
<stop offset="1" stop-color="#013792"/>
</linearGradient>
<linearGradient id="paint10_linear_243_286" x1="45" y1="53" x2="46.0231" y2="52.9961" gradientUnits="userSpaceOnUse">
<stop stop-color="#377DC5"/>
<stop offset="1" stop-color="#013792"/>
</linearGradient>
<linearGradient id="paint11_linear_243_286" x1="45" y1="45" x2="46.023" y2="44.9921" gradientUnits="userSpaceOnUse">
<stop stop-color="#377DC5"/>
<stop offset="1" stop-color="#013792"/>
</linearGradient>
<linearGradient id="paint12_linear_243_286" x1="11" y1="17" x2="12.0231" y2="16.9961" gradientUnits="userSpaceOnUse">
<stop stop-color="#377DC5"/>
<stop offset="1" stop-color="#013792"/>
</linearGradient>
</defs>
</svg>
