<?xml version="1.0" encoding="UTF-8" standalone="no"?><svg width="52" height="36" viewBox="0 0 52 36" fill="none" xmlns="http://www.w3.org/2000/svg">
<path d="M15.9377 0.894222L15.5914 0.859096C15.5864 0.989565 15.5588 1.1401 15.5237 1.2781C15.4459 1.28563 15.3706 1.28814 15.2954 1.28814C15.2025 1.28814 15.0696 1.28312 14.9617 1.27057L14.9842 1.56162C15.0921 1.56914 15.195 1.57165 15.2979 1.57165C15.3405 1.57165 15.3832 1.57165 15.4283 1.56914C15.3179 1.84012 15.1147 2.20894 14.9165 2.45482L15.2201 2.61038C15.4233 2.32686 15.6366 1.88779 15.757 1.53653C15.9251 1.51144 16.0807 1.47882 16.1961 1.44871L16.1861 1.15767C16.0882 1.18778 15.9703 1.21537 15.8473 1.23796C15.885 1.10247 15.9176 0.974511 15.9377 0.894222ZM15.8072 2.63045C15.8072 2.54264 15.9 2.4774 16.0456 2.4774C16.1158 2.4774 16.1835 2.48744 16.2488 2.50249C16.2488 2.52256 16.2488 2.53762 16.2488 2.55267C16.2488 2.69067 16.1961 2.78601 16.023 2.78601C15.885 2.78601 15.8072 2.72328 15.8072 2.63045ZM16.5248 1.67452H16.2111C16.2162 1.82757 16.2287 2.05087 16.2387 2.23654C16.181 2.23152 16.1258 2.2265 16.0656 2.2265C15.7169 2.2265 15.5111 2.41468 15.5111 2.66056C15.5111 2.93655 15.757 3.07454 16.0681 3.07454C16.4244 3.07454 16.5524 2.8939 16.5524 2.66056C16.5524 2.65303 16.5524 2.643 16.5524 2.63547C16.6904 2.71827 16.8033 2.82364 16.8911 2.90393L17.0592 2.63547C16.9312 2.52006 16.7556 2.3946 16.5398 2.31432C16.5348 2.18887 16.5273 2.06843 16.5248 1.99567C16.5223 1.88528 16.5172 1.7799 16.5248 1.67452ZM16.9563 1.8075L17.1345 1.54405C17.0065 1.45122 16.6954 1.28061 16.5147 1.20283L16.3542 1.45122C16.5248 1.529 16.8108 1.69208 16.9563 1.8075Z" fill="#2B3F53"/>
<path d="M19.1843 0.987056H18.8481C18.8556 1.03473 18.8657 1.15265 18.8657 1.21788V1.5014C18.6373 1.51896 18.3915 1.54405 18.1807 1.56413C18.1807 1.46627 18.1832 1.38097 18.1832 1.32326C18.1832 1.21537 18.1857 1.14512 18.1983 1.06233H17.8445C17.8571 1.15014 17.8646 1.23545 17.8646 1.34082C17.8646 1.38348 17.8646 1.47631 17.8646 1.59423C17.7843 1.60176 17.7191 1.60678 17.6739 1.6118C17.5459 1.62183 17.428 1.62685 17.3578 1.62685L17.3904 1.948C17.4581 1.93546 17.6137 1.91539 17.694 1.90535C17.7366 1.90033 17.7943 1.89531 17.8621 1.88779C17.8621 2.12112 17.8621 2.36199 17.8646 2.46988C17.8771 2.90393 17.9524 3.04193 18.6047 3.04193C18.8431 3.04193 19.1492 3.01935 19.3198 2.99927L19.3323 2.65805C19.1442 2.69318 18.828 2.72328 18.5822 2.72328C18.2058 2.72328 18.1832 2.66809 18.1782 2.41969C18.1732 2.31181 18.1757 2.08098 18.1782 1.85266C18.3915 1.83008 18.6373 1.8075 18.8607 1.78743C18.8581 1.91037 18.8506 2.02327 18.8406 2.09352C18.8356 2.1412 18.813 2.14872 18.7628 2.14872C18.7126 2.14872 18.6098 2.13367 18.532 2.12112L18.5244 2.3946C18.6123 2.40966 18.813 2.43224 18.9008 2.43224C19.0313 2.43224 19.094 2.39962 19.1191 2.26665C19.1391 2.16127 19.1492 1.95804 19.1567 1.76485C19.2295 1.75983 19.2972 1.75732 19.3524 1.75481C19.4176 1.7523 19.5506 1.74979 19.5933 1.7523V1.44369C19.5205 1.45122 19.4202 1.45875 19.3524 1.46126C19.2947 1.46627 19.232 1.46878 19.1617 1.47631C19.1642 1.391 19.1667 1.30319 19.1693 1.20283C19.1718 1.1376 19.1793 1.02469 19.1843 0.987056ZM19.38 0.994583L19.2094 1.04978C19.2596 1.15014 19.3022 1.28814 19.3374 1.39602L19.5105 1.33832C19.4829 1.24046 19.4252 1.09494 19.38 0.994583ZM19.6384 0.909277L19.4678 0.961966C19.518 1.06233 19.5657 1.19781 19.6033 1.3057L19.7739 1.2505C19.7438 1.15516 19.6861 1.00713 19.6384 0.909277Z" fill="#2B3F53"/>
<path d="M20.5141 1.66699H20.7449V1.38348H20.5141V0.821462H20.2381V1.38348H19.9897V1.66699H20.2381V2.35446C20.1227 2.3946 20.0198 2.42973 19.9345 2.45482L20.0374 2.75841C20.2657 2.66809 20.5517 2.55016 20.8177 2.44228L20.7575 2.16879C20.6772 2.1989 20.5944 2.22901 20.5141 2.25912V1.66699ZM21.8413 2.37955V2.49497H21.194V2.37955H21.8413ZM21.194 2.82113V2.70572H21.8413V2.82113H21.194ZM20.918 3.13225H21.194V3.05698H21.8413V3.12974H22.1299V2.1437H20.918V3.13225ZM21.9417 1.49136H21.6431V1.36341H21.9417V1.49136ZM21.9417 1.82255H21.6431V1.69459H21.9417V1.82255ZM21.0761 1.69459H21.3696V1.82255H21.0761V1.69459ZM21.3696 1.36341V1.49136H21.0761V1.36341H21.3696ZM21.9367 1.14261C21.9969 1.05982 22.0621 0.959457 22.1274 0.854079L21.8213 0.778809C21.7836 0.884187 21.7159 1.02971 21.6557 1.12505L21.7109 1.14261H21.2919L21.3546 1.12003C21.322 1.0272 21.2442 0.889205 21.1664 0.788844L20.913 0.87666C20.9657 0.956948 21.0209 1.05982 21.056 1.14261H20.8101V2.04334H22.2227V1.14261H21.9367Z" fill="#2B3F53"/>
<path d="M23.2138 0.879169L23.1661 1.17021C23.4647 1.22039 23.9338 1.27559 24.1973 1.29566L24.2374 1.00211C23.9765 0.984547 23.4948 0.931858 23.2138 0.879169ZM24.3253 1.67703L24.1421 1.46878C24.1145 1.47882 24.0468 1.49136 23.9991 1.49638C23.7908 1.52398 23.2213 1.54907 23.1034 1.54907C23.0105 1.55158 22.9202 1.54656 22.8625 1.54154L22.8926 1.88779C22.9453 1.88026 23.0206 1.86771 23.1084 1.86019C23.2514 1.84764 23.5525 1.82004 23.7281 1.81503C23.4998 2.05589 22.9854 2.56773 22.8575 2.69819C22.7897 2.76343 22.7295 2.81612 22.6844 2.85375L22.9804 3.062C23.1535 2.84121 23.3417 2.63547 23.427 2.54765C23.4872 2.48744 23.5399 2.44729 23.5926 2.44729C23.6428 2.44729 23.698 2.47991 23.7256 2.56773C23.7432 2.63045 23.7733 2.74837 23.7984 2.82364C23.8611 2.98673 23.989 3.03942 24.2274 3.03942C24.3579 3.03942 24.6163 3.02186 24.7192 3.00178L24.7392 2.6731C24.6138 2.69819 24.4407 2.71827 24.2475 2.71827C24.1496 2.71827 24.0944 2.67812 24.0718 2.60034C24.0493 2.53511 24.0217 2.43977 23.9991 2.37202C23.9665 2.27919 23.9213 2.22399 23.8485 2.20141C23.8209 2.19138 23.7758 2.18134 23.7532 2.18385C23.8134 2.11861 24.0468 1.90284 24.1622 1.80499C24.2073 1.76735 24.26 1.72219 24.3253 1.67703Z" fill="#2B3F53"/>
<path d="M25.0433 1.18778L25.0759 1.53151C25.367 1.46878 25.8788 1.41359 26.1147 1.3885C25.9466 1.51645 25.7433 1.80248 25.7433 2.16378C25.7433 2.70572 26.2401 2.98924 26.7645 3.02436L26.8824 2.68063C26.4584 2.65805 26.072 2.50751 26.072 2.09603C26.072 1.79746 26.2978 1.47129 26.6014 1.391C26.7344 1.3609 26.9502 1.3609 27.0856 1.35839L27.0831 1.03724C26.9075 1.04225 26.6315 1.05982 26.3731 1.07989C25.9139 1.12003 25.5 1.15767 25.2917 1.17523C25.2415 1.18025 25.1437 1.18527 25.0433 1.18778Z" fill="#2B3F53"/>
<path d="M28.0767 1.12003L27.6903 1.11501C27.7054 1.19279 27.7104 1.30068 27.7104 1.37093C27.7104 1.52398 27.7129 1.81753 27.738 2.04836C27.8082 2.72077 28.0466 2.96917 28.3226 2.96917C28.5233 2.96917 28.6814 2.81612 28.847 2.37955L28.5961 2.07345C28.5484 2.27417 28.448 2.56773 28.3301 2.56773C28.172 2.56773 28.0968 2.31933 28.0616 1.95804C28.0466 1.77739 28.0441 1.58922 28.0466 1.42613C28.0466 1.35588 28.0591 1.21036 28.0767 1.12003ZM29.3312 1.17774L29.0125 1.28061C29.286 1.59172 29.419 2.20141 29.4592 2.60536L29.7878 2.4774C29.7602 2.09352 29.5695 1.46627 29.3312 1.17774Z" fill="#2B3F53"/>
<path d="M30.962 2.61791C30.962 2.55518 31.0223 2.49747 31.1176 2.49747C31.2531 2.49747 31.3459 2.60285 31.361 2.76594C31.3158 2.77095 31.2681 2.77346 31.2155 2.77346C31.0649 2.77346 30.962 2.71074 30.962 2.61791ZM30.5355 1.00211L30.5455 1.32828C30.6033 1.32075 30.6835 1.31323 30.7513 1.30821C30.8843 1.30068 31.2305 1.28563 31.3585 1.28312C31.2355 1.391 30.9746 1.60176 30.8341 1.71717C30.6861 1.84012 30.3825 2.09603 30.2043 2.23905L30.4326 2.47489C30.7011 2.16879 30.952 1.96557 31.3359 1.96557C31.6319 1.96557 31.8578 2.11861 31.8578 2.34442C31.8578 2.49747 31.7875 2.61289 31.6495 2.68565C31.6144 2.44729 31.4262 2.25661 31.1151 2.25661C30.8491 2.25661 30.666 2.44478 30.666 2.64801C30.666 2.89891 30.9294 3.05949 31.2782 3.05949C31.8854 3.05949 32.1864 2.74587 32.1864 2.34944C32.1864 1.98313 31.8628 1.71717 31.4362 1.71717C31.356 1.71717 31.2807 1.7247 31.1979 1.74477C31.356 1.61932 31.6194 1.39853 31.7549 1.30319C31.8126 1.26054 31.8728 1.22541 31.9305 1.18778L31.7674 0.964475C31.7373 0.97451 31.6796 0.982038 31.5767 0.992074C31.4337 1.00462 30.8968 1.01465 30.7638 1.01465C30.6936 1.01465 30.6058 1.01215 30.5355 1.00211Z" fill="#2B3F53"/>
<path d="M33.0203 2.36691V2.33661C33.0209 2.23267 33.0301 2.1498 33.0479 2.08803C33.0663 2.02625 33.093 1.97636 33.1281 1.93834C33.1631 1.90033 33.2053 1.86588 33.2546 1.83499C33.2914 1.81123 33.3244 1.78658 33.3535 1.76104C33.3826 1.7355 33.4058 1.70728 33.423 1.6764C33.4402 1.64492 33.4488 1.60987 33.4488 1.57126C33.4488 1.53028 33.439 1.49434 33.4194 1.46345C33.3998 1.43256 33.3734 1.40881 33.3401 1.39217C33.3075 1.37554 33.2712 1.36723 33.2314 1.36723C33.1928 1.36723 33.1563 1.37584 33.1218 1.39306C33.0874 1.4097 33.0592 1.43464 33.0372 1.46791C33.0152 1.50058 33.0033 1.54126 33.0016 1.58997H32.638C32.641 1.47117 32.6695 1.37317 32.7236 1.29595C32.7776 1.21814 32.8492 1.16022 32.9383 1.12221C33.0274 1.0836 33.1257 1.06429 33.2332 1.06429C33.3514 1.06429 33.456 1.08389 33.5468 1.1231C33.6377 1.16171 33.709 1.21784 33.7607 1.29149C33.8124 1.36515 33.8382 1.45395 33.8382 1.5579C33.8382 1.62739 33.8266 1.68917 33.8034 1.74322C33.7809 1.79668 33.7491 1.8442 33.7081 1.88578C33.6671 1.92676 33.6187 1.96389 33.5629 1.99715C33.516 2.02507 33.4774 2.05417 33.4471 2.08447C33.4174 2.11476 33.3951 2.1498 33.3802 2.1896C33.366 2.2294 33.3586 2.2784 33.358 2.33661V2.36691H33.0203ZM33.1967 2.93713C33.1373 2.93713 33.0865 2.91634 33.0443 2.87476C33.0028 2.83259 32.9823 2.7821 32.9829 2.7233C32.9823 2.66509 33.0028 2.61519 33.0443 2.57361C33.0865 2.53203 33.1373 2.51125 33.1967 2.51125C33.2531 2.51125 33.3027 2.53203 33.3455 2.57361C33.3883 2.61519 33.4099 2.66509 33.4105 2.7233C33.4099 2.7625 33.3995 2.79844 33.3793 2.83111C33.3597 2.86318 33.3339 2.88902 33.3018 2.90862C33.2698 2.92763 33.2347 2.93713 33.1967 2.93713Z" fill="#2B3F53"/>
<path d="M34.4818 2.36691V2.33661C34.4824 2.23267 34.4916 2.1498 34.5094 2.08803C34.5278 2.02625 34.5545 1.97636 34.5896 1.93834C34.6246 1.90033 34.6668 1.86588 34.7161 1.83499C34.7529 1.81123 34.7859 1.78658 34.815 1.76104C34.8441 1.7355 34.8673 1.70728 34.8845 1.6764C34.9017 1.64492 34.9103 1.60987 34.9103 1.57126C34.9103 1.53028 34.9005 1.49434 34.8809 1.46345C34.8613 1.43256 34.8349 1.40881 34.8016 1.39217C34.769 1.37554 34.7327 1.36723 34.6929 1.36723C34.6543 1.36723 34.6178 1.37584 34.5833 1.39306C34.5489 1.4097 34.5207 1.43464 34.4987 1.46791C34.4767 1.50058 34.4648 1.54126 34.4631 1.58997H34.0995C34.1025 1.47117 34.131 1.37317 34.1851 1.29595C34.2391 1.21814 34.3107 1.16022 34.3998 1.12221C34.4889 1.0836 34.5872 1.06429 34.6947 1.06429C34.8129 1.06429 34.9175 1.08389 35.0083 1.1231C35.0992 1.16171 35.1705 1.21784 35.2222 1.29149C35.2738 1.36515 35.2997 1.45395 35.2997 1.5579C35.2997 1.62739 35.2881 1.68917 35.2649 1.74322C35.2424 1.79668 35.2106 1.8442 35.1696 1.88578C35.1286 1.92676 35.0802 1.96389 35.0244 1.99715C34.9775 2.02507 34.9388 2.05417 34.9085 2.08447C34.8788 2.11476 34.8566 2.1498 34.8417 2.1896C34.8275 2.2294 34.82 2.2784 34.8194 2.33661V2.36691H34.4818ZM34.6582 2.93713C34.5988 2.93713 34.548 2.91634 34.5058 2.87476C34.4642 2.83259 34.4438 2.7821 34.4443 2.7233C34.4438 2.66509 34.4642 2.61519 34.5058 2.57361C34.548 2.53203 34.5988 2.51125 34.6582 2.51125C34.7146 2.51125 34.7642 2.53203 34.807 2.57361C34.8497 2.61519 34.8714 2.66509 34.872 2.7233C34.8714 2.7625 34.861 2.79844 34.8408 2.83111C34.8212 2.86318 34.7954 2.88902 34.7633 2.90862C34.7312 2.92763 34.6962 2.93713 34.6582 2.93713Z" fill="#2B3F53"/>
<path d="M35.9433 2.36691V2.33661C35.9439 2.23267 35.9531 2.1498 35.9709 2.08803C35.9893 2.02625 36.016 1.97636 36.0511 1.93834C36.0861 1.90033 36.1283 1.86588 36.1776 1.83499C36.2144 1.81123 36.2474 1.78658 36.2765 1.76104C36.3056 1.7355 36.3288 1.70728 36.346 1.6764C36.3632 1.64492 36.3718 1.60987 36.3718 1.57126C36.3718 1.53028 36.362 1.49434 36.3424 1.46345C36.3228 1.43256 36.2964 1.40881 36.2631 1.39217C36.2305 1.37554 36.1942 1.36723 36.1544 1.36723C36.1158 1.36723 36.0793 1.37584 36.0448 1.39306C36.0104 1.4097 35.9822 1.43464 35.9602 1.46791C35.9382 1.50058 35.9263 1.54126 35.9246 1.58997H35.561C35.564 1.47117 35.5925 1.37317 35.6466 1.29595C35.7006 1.21814 35.7722 1.16022 35.8613 1.12221C35.9504 1.0836 36.0487 1.06429 36.1562 1.06429C36.2744 1.06429 36.379 1.08389 36.4698 1.1231C36.5607 1.16171 36.632 1.21784 36.6837 1.29149C36.7353 1.36515 36.7612 1.45395 36.7612 1.5579C36.7612 1.62739 36.7496 1.68917 36.7264 1.74322C36.7039 1.79668 36.6721 1.8442 36.6311 1.88578C36.5901 1.92676 36.5417 1.96389 36.4859 1.99715C36.4389 2.02507 36.4003 2.05417 36.37 2.08447C36.3403 2.11476 36.3181 2.1498 36.3032 2.1896C36.289 2.2294 36.2815 2.2784 36.2809 2.33661V2.36691H35.9433ZM36.1197 2.93713C36.0603 2.93713 36.0095 2.91634 35.9673 2.87476C35.9257 2.83259 35.9052 2.7821 35.9058 2.7233C35.9052 2.66509 35.9257 2.61519 35.9673 2.57361C36.0095 2.53203 36.0603 2.51125 36.1197 2.51125C36.1761 2.51125 36.2257 2.53203 36.2685 2.57361C36.3112 2.61519 36.3329 2.66509 36.3335 2.7233C36.3329 2.7625 36.3225 2.79844 36.3023 2.83111C36.2827 2.86318 36.2569 2.88902 36.2248 2.90862C36.1927 2.92763 36.1577 2.93713 36.1197 2.93713Z" fill="#2B3F53"/>
<rect x="0.27832" y="3.96875" width="51.1209" height="5.66198" rx="0.104542" fill="url(#paint0_linear_242_3681)"/>
<path d="M22.3796 5.68835C22.3395 5.76613 22.2868 5.84642 22.2316 5.92921C22.1639 5.8414 22.0836 5.7586 21.9832 5.67831L21.7775 5.83638C21.8954 5.93674 21.9882 6.03961 22.056 6.1475C21.9581 6.25287 21.8528 6.35072 21.7449 6.4285C21.8101 6.47617 21.9054 6.56399 21.9506 6.62421C22.0284 6.56399 22.1062 6.49625 22.1789 6.42349C22.204 6.50126 22.2191 6.58155 22.2316 6.66686C22.1137 6.86507 21.918 7.07332 21.7449 7.18371C21.8151 7.23389 21.8954 7.33425 21.9431 7.402C22.0434 7.32171 22.1488 7.21131 22.2492 7.09088C22.2442 7.35683 22.2241 7.57261 22.1739 7.63533C22.1538 7.66293 22.1313 7.67548 22.0961 7.6805C22.0434 7.68551 21.9531 7.68802 21.8302 7.67799C21.8804 7.76329 21.908 7.86867 21.9105 7.96401C22.0284 7.96903 22.1338 7.96652 22.2316 7.94394C22.2969 7.92889 22.3521 7.89376 22.3897 7.84358C22.5051 7.69053 22.5327 7.35433 22.5327 7.00808C22.5327 6.72206 22.5101 6.44858 22.3897 6.18764C22.485 6.06972 22.5703 5.94678 22.6406 5.81882L22.3796 5.68835ZM22.9517 6.84249V6.35323H23.17V6.84249H22.9517ZM23.6793 6.35323V6.84249H23.4711V6.35323H23.6793ZM24.1284 7.8762C24.0757 7.683 23.9478 7.37691 23.8424 7.14357L23.5664 7.22135C23.599 7.30916 23.6392 7.402 23.6743 7.49985L23.4711 7.51992V7.09841H23.9929V6.09732H23.4711V5.64068H23.17V6.09732H22.6581V7.09841H23.17V7.55003C22.9291 7.57261 22.7058 7.59017 22.5327 7.60523L22.5804 7.92136C22.904 7.88623 23.3481 7.83605 23.7772 7.78587C23.7972 7.85362 23.8173 7.91885 23.8299 7.97405L24.1284 7.8762Z" fill="white"/>
<path d="M24.698 6.29302H26.2987V6.63926H26.5923V6.02957H26.2586C26.3263 5.94176 26.4016 5.8414 26.4693 5.74606L26.1457 5.6482C26.098 5.76613 26.0127 5.91165 25.9299 6.02957H25.551L25.6715 5.9819C25.6388 5.88154 25.556 5.72849 25.4758 5.62061L25.2123 5.71595C25.2725 5.81129 25.3353 5.93172 25.3704 6.02957H24.9765L25.0668 5.98692C25.0266 5.88907 24.9263 5.75609 24.8385 5.65824L24.5851 5.77115C24.6453 5.84892 24.713 5.94678 24.7582 6.02957H24.417V6.63926H24.698V6.29302ZM26.6173 7.04823H25.6689C25.8747 6.9303 26.0704 6.76973 26.2134 6.61668L26.0252 6.47116L25.96 6.48621H24.8335V6.74464H25.684C25.6238 6.79482 25.556 6.84249 25.4908 6.88263H25.3478V7.04823H24.3843V7.32171H25.3478V7.64788C25.3478 7.683 25.3353 7.69304 25.2826 7.69304C25.2324 7.69555 25.0467 7.69555 24.8861 7.68802C24.9313 7.76831 24.989 7.89376 25.0091 7.97907C25.2223 7.97907 25.3779 7.97405 25.4958 7.9314C25.6188 7.88874 25.6514 7.81096 25.6514 7.65541V7.32171H26.6173V7.04823Z" fill="white"/>
<path d="M27.7347 7.36854L27.534 7.35014C27.5206 7.41538 27.5055 7.49567 27.5055 7.57428C27.5055 7.74322 27.6577 7.84023 27.9388 7.84023C28.0726 7.84023 28.1846 7.82853 28.28 7.81514L28.2883 7.60272C28.1679 7.62446 28.0525 7.63617 27.9404 7.63617C27.7615 7.63617 27.7113 7.58097 27.7113 7.50737C27.7113 7.47058 27.7213 7.41705 27.7347 7.36854ZM27.5457 6.44189L27.2898 6.42181C27.2948 6.46196 27.2914 6.53054 27.2847 6.59243C27.2814 6.61919 27.2764 6.65097 27.2697 6.68777C27.2178 6.69111 27.1677 6.69279 27.1191 6.69279C27.0489 6.69279 26.9937 6.68944 26.9084 6.6794L26.9134 6.88849C26.972 6.89183 27.0338 6.89518 27.1158 6.89518C27.1509 6.89518 27.1877 6.89351 27.2262 6.89183C27.2145 6.93867 27.2028 6.98717 27.1911 7.03234C27.1292 7.26651 27.0021 7.6161 26.9017 7.78504L27.1342 7.86365C27.2279 7.6646 27.3383 7.32338 27.4002 7.08921C27.4186 7.02063 27.4353 6.94536 27.4503 6.87343C27.5624 6.86005 27.6761 6.84165 27.7765 6.81824V6.60915C27.6845 6.6309 27.5892 6.6493 27.4955 6.66268C27.5005 6.64093 27.5055 6.61919 27.5089 6.60079C27.5156 6.56399 27.5323 6.48872 27.5457 6.44189ZM27.6444 6.9487V7.14441C27.7497 7.13102 27.8518 7.12601 27.9672 7.12601C28.0692 7.12601 28.1713 7.13771 28.2549 7.14775L28.2599 6.94703C28.1612 6.93699 28.0609 6.93198 27.9655 6.93198C27.8568 6.93198 27.738 6.93867 27.6444 6.9487ZM28.0809 6.49039L27.9488 6.54559C27.994 6.60915 28.0458 6.70951 28.0793 6.77809L28.2131 6.71955C28.183 6.65766 28.1227 6.55228 28.0809 6.49039ZM28.2783 6.41512L28.1462 6.46865C28.193 6.53221 28.2465 6.62922 28.2817 6.69948L28.4138 6.64261C28.3854 6.58406 28.3235 6.47701 28.2783 6.41512Z" fill="white"/>
<path d="M29.0611 6.42516L28.852 6.51046C28.9273 6.68777 29.0076 6.86674 29.0845 7.00892C28.924 7.12768 28.8069 7.26651 28.8069 7.4505C28.8069 7.7382 29.0594 7.8302 29.3923 7.8302C29.6097 7.8302 29.7871 7.81347 29.9292 7.78838L29.9326 7.54752C29.7837 7.58432 29.5579 7.60941 29.3856 7.60941C29.1531 7.60941 29.0377 7.54585 29.0377 7.42541C29.0377 7.30833 29.1314 7.21298 29.2702 7.12099C29.4224 7.0223 29.6332 6.92529 29.7369 6.87343C29.7988 6.84165 29.8523 6.81322 29.9025 6.78311L29.7871 6.58908C29.7436 6.62588 29.6951 6.65431 29.6315 6.69111C29.5529 6.73627 29.4074 6.8082 29.2702 6.88849C29.2033 6.75969 29.1247 6.59912 29.0611 6.42516Z" fill="white"/>
<rect x="0.330591" y="9.57815" width="51.0163" height="4.74787" rx="0.0522708" fill="#F6FBFF"/>
<path d="M7.65208 12.5131L6.96899 11.8306L7.08126 11.7178L7.76434 12.4008L7.65208 12.5131ZM7.08126 12.5131L6.96899 12.4008L7.65208 11.7178L7.76434 11.8306L7.08126 12.5131Z" fill="#2B3F53"/>
<path d="M9.33438 11.2012C9.25075 11.4537 9.11526 11.703 8.96807 11.8652C8.98981 11.8936 9.02661 11.9589 9.03999 11.9873C9.0885 11.9304 9.13701 11.8652 9.18217 11.7949V12.7199H9.30093V11.5892C9.3578 11.4755 9.40965 11.355 9.4498 11.2363L9.33438 11.2012ZM10.4986 11.6511V11.5307H10.0001V11.2012H9.87967V11.5307H9.41132V11.6511H9.8044C9.70237 11.9338 9.52841 12.2148 9.34609 12.362C9.37453 12.3837 9.41467 12.4272 9.43641 12.4557C9.61204 12.2951 9.77262 12.0208 9.87967 11.7314V12.3001H9.60703V12.4138H9.87967V12.7132H10.0001V12.4138H10.2694V12.3001H10.0001V11.7197C10.1021 12.0107 10.2627 12.2917 10.4383 12.4523C10.4601 12.4189 10.5019 12.3754 10.532 12.3536C10.3514 12.2081 10.1791 11.9304 10.0804 11.6511H10.4986Z" fill="#2B3F53"/>
<path d="M11.0689 12.2717C10.9769 12.3954 10.8264 12.5209 10.6859 12.6028C10.7193 12.6212 10.7712 12.6631 10.7963 12.6882C10.9301 12.5978 11.0873 12.4557 11.1944 12.3185L11.0689 12.2717ZM12.2147 12.2198C12.1294 12.1061 11.9504 11.9388 11.8049 11.8217L11.7045 11.8853C11.7648 11.9355 11.8283 11.9923 11.8885 12.0525C11.6761 12.0559 11.4603 12.0609 11.2613 12.0642C11.457 11.9104 11.6811 11.708 11.8484 11.5323L11.7313 11.4688C11.6226 11.5942 11.4704 11.7414 11.3182 11.8736C11.268 11.8267 11.1994 11.7749 11.1275 11.7264C11.2228 11.6394 11.3332 11.5206 11.4185 11.4153L11.4001 11.4052C11.6527 11.3868 11.8952 11.3601 12.0826 11.3233L11.9922 11.2196C11.7062 11.2764 11.1944 11.3115 10.7662 11.3233C10.7779 11.3534 10.7946 11.4019 10.7963 11.4337C10.9435 11.4303 11.1007 11.4236 11.2563 11.4153C11.1927 11.4989 11.1091 11.5942 11.0355 11.6645C10.997 11.6411 10.9585 11.6176 10.9217 11.5976L10.8381 11.6745C10.9719 11.7515 11.1258 11.8635 11.2228 11.9555C11.1726 11.9957 11.1258 12.0325 11.079 12.0659C10.9435 12.0676 10.818 12.0693 10.7143 12.0709L10.7277 12.1964C10.905 12.1914 11.1358 12.1864 11.3851 12.1797V12.7216H11.5139V12.1763C11.6728 12.1713 11.835 12.1663 11.9939 12.1613C12.0391 12.2098 12.0776 12.2549 12.1043 12.2934L12.2147 12.2198ZM11.6878 12.3335C11.8317 12.4389 12.0106 12.5911 12.0943 12.6848L12.203 12.6079C12.111 12.5125 11.9287 12.3653 11.7882 12.265L11.6878 12.3335Z" fill="#2B3F53"/>
<path d="M12.9373 11.9237H12.586V11.5742H12.9373V11.9237ZM12.586 12.4356V12.0341H12.9373V12.4356H12.586ZM12.7265 11.1911C12.7148 11.2697 12.6847 11.3818 12.6596 11.4621H12.4723V12.6798H12.586V12.5476H13.051V11.4621H12.7734C12.8018 11.3902 12.8319 11.2982 12.8604 11.2162L12.7265 11.1911ZM13.869 11.4571H13.3689C13.3973 11.3785 13.4207 11.2982 13.4408 11.2162L13.322 11.1878C13.2685 11.4169 13.1782 11.6478 13.0661 11.7949C13.0929 11.8117 13.1464 11.8451 13.1681 11.8652C13.2267 11.7866 13.2785 11.6846 13.3254 11.5725H13.7502C13.7285 12.2382 13.7034 12.4925 13.6482 12.551C13.6315 12.5727 13.6131 12.5761 13.5796 12.5761C13.5411 12.5761 13.4408 12.5761 13.3321 12.566C13.3555 12.6012 13.3705 12.6514 13.3739 12.6882C13.4675 12.6932 13.5629 12.6965 13.6214 12.6898C13.6783 12.6848 13.7168 12.6698 13.7536 12.6229C13.8205 12.541 13.8422 12.2834 13.869 11.5206V11.4571ZM13.6047 12.2098C13.5512 12.1111 13.4358 11.9505 13.3421 11.8317L13.2451 11.8886C13.3371 12.009 13.4491 12.1746 13.4993 12.275L13.6047 12.2098Z" fill="#2B3F53"/>
<path d="M14.7906 11.4654V11.5992C14.9746 11.6193 15.2991 11.6193 15.4781 11.5992V11.4638C15.3108 11.4889 14.9729 11.4955 14.7906 11.4654ZM14.8559 12.1462L14.7354 12.1345C14.717 12.2165 14.707 12.275 14.707 12.3319C14.707 12.4891 14.8324 12.5828 15.1134 12.5828C15.2857 12.5828 15.4262 12.5677 15.5316 12.5476L15.5283 12.4071C15.3928 12.4373 15.264 12.4506 15.1134 12.4506C14.886 12.4506 14.8308 12.377 14.8308 12.3001C14.8308 12.2549 14.8391 12.2081 14.8559 12.1462ZM14.4711 11.3366L14.3223 11.3233C14.3223 11.3601 14.3173 11.4035 14.3106 11.442C14.2905 11.5808 14.2353 11.8669 14.2353 12.1128C14.2353 12.3386 14.2637 12.5309 14.2972 12.6497L14.4176 12.6413C14.4159 12.6246 14.4143 12.6012 14.4126 12.5828C14.4109 12.5644 14.4159 12.5326 14.421 12.5075C14.436 12.4289 14.4962 12.2516 14.5397 12.1328L14.4695 12.0793C14.441 12.1479 14.4009 12.2482 14.3725 12.3235C14.3624 12.2416 14.3574 12.1713 14.3574 12.0893C14.3574 11.902 14.4093 11.6026 14.441 11.4487C14.4477 11.4186 14.4628 11.3651 14.4711 11.3366Z" fill="#2B3F53"/>
<path d="M15.9916 11.5825H17.1574V11.8418H17.2779V11.4721H17.0186C17.0755 11.4052 17.1374 11.3249 17.1892 11.2497L17.0604 11.2062C17.0186 11.2848 16.945 11.3952 16.8814 11.4721H16.5854L16.6573 11.4437C16.6356 11.3734 16.5787 11.2664 16.5218 11.1878L16.4131 11.2279C16.4633 11.3015 16.5168 11.4019 16.5369 11.4721H16.1957L16.2525 11.4437C16.2224 11.3801 16.1538 11.2848 16.092 11.2162L15.9882 11.263C16.0384 11.3249 16.097 11.4102 16.1288 11.4721H15.8728V11.8418H15.9916V11.5825ZM17.308 12.1328H16.6339V12.091C16.7811 12.0208 16.9366 11.9154 17.0404 11.8083L16.9601 11.7481L16.935 11.7548H16.1187V11.8652H16.8095C16.7409 11.9187 16.6556 11.9723 16.5737 12.0124H16.5101V12.1328H15.8411V12.2482H16.5101V12.5711C16.5101 12.5962 16.5018 12.6045 16.4666 12.6062C16.4348 12.6079 16.3211 12.6079 16.194 12.6045C16.2124 12.6363 16.2375 12.6882 16.2458 12.7233C16.398 12.7233 16.4934 12.7216 16.5536 12.7032C16.6138 12.6848 16.6339 12.648 16.6339 12.5744V12.2482H17.308V12.1328Z" fill="#2B3F53"/>
<path d="M18.2447 11.6929L18.33 11.7715C18.3919 11.728 18.4872 11.6528 18.5257 11.6193L18.4939 11.534C18.3952 11.4604 18.2095 11.3684 18.0808 11.3149L18.0038 11.4119C18.1326 11.4638 18.2898 11.5474 18.3618 11.6076C18.3367 11.6277 18.2898 11.6628 18.2447 11.6929ZM17.9218 12.4908L17.9419 12.6296C18.0172 12.6447 18.1075 12.6564 18.2146 12.6564C18.335 12.6564 18.5023 12.6095 18.5023 12.4038C18.5023 12.2533 18.3919 12.1061 18.2346 11.9405C18.1962 11.8987 18.1543 11.8535 18.1125 11.8117L18.0138 11.897C18.0607 11.9371 18.1109 11.9856 18.1477 12.0241C18.2413 12.1261 18.3618 12.2767 18.3618 12.3904C18.3618 12.4975 18.2698 12.5292 18.1928 12.5292C18.0874 12.5292 18.0072 12.5159 17.9218 12.4908ZM18.887 12.5543L19.0124 12.4858C18.9589 12.3386 18.8335 12.0994 18.718 11.9639L18.6093 12.0258C18.7247 12.1546 18.8401 12.3954 18.887 12.5543ZM17.9787 12.2282L17.9001 12.1278C17.8064 12.2315 17.6107 12.3804 17.4736 12.4557L17.5522 12.566C17.7144 12.469 17.8817 12.3285 17.9787 12.2282ZM18.7197 11.4822L18.6311 11.5206C18.6762 11.5859 18.7348 11.6862 18.7665 11.7548L18.8569 11.7147C18.8234 11.6461 18.7632 11.544 18.7197 11.4822ZM18.9037 11.4153L18.8167 11.4537C18.8652 11.5156 18.9188 11.6126 18.9556 11.6846L19.0459 11.6444C19.0141 11.5825 18.9505 11.4771 18.9037 11.4153Z" fill="#2B3F53"/>
<path d="M20.665 12.009C20.665 11.6695 20.4158 11.3935 20.0244 11.3935C19.6163 11.3935 19.2934 11.7113 19.2934 12.0743C19.2934 12.3503 19.4423 12.5209 19.5912 12.5209C19.7467 12.5209 19.8789 12.3453 19.9809 12.0007C20.0277 11.8451 20.0595 11.6745 20.0813 11.519C20.3656 11.5424 20.5279 11.7515 20.5279 12.004C20.5279 12.2934 20.3171 12.4523 20.103 12.5008C20.0645 12.5092 20.0127 12.5175 19.9592 12.5226L20.0378 12.6463C20.4342 12.5945 20.665 12.3603 20.665 12.009ZM19.4239 12.0626C19.4239 11.8351 19.6213 11.5608 19.9424 11.5206C19.924 11.6745 19.8906 11.8334 19.8488 11.9723C19.7635 12.2549 19.6748 12.367 19.5962 12.367C19.5209 12.367 19.4239 12.2733 19.4239 12.0626Z" fill="#2B3F53"/>
<path d="M21.5616 11.2948L21.4077 11.2798C21.4077 11.3935 21.3893 11.524 21.3642 11.6444C21.2622 11.6528 21.1651 11.6611 21.11 11.6628C21.0564 11.6645 21.0129 11.6645 20.9594 11.6628L20.9745 11.8067C21.0163 11.8 21.0865 11.7916 21.125 11.7866C21.1685 11.7816 21.2488 11.7732 21.3374 11.7648C21.2806 11.989 21.1551 12.3703 20.9845 12.5978L21.12 12.653C21.2973 12.3703 21.411 11.9907 21.4729 11.7515C21.5448 11.7448 21.6117 11.7398 21.6519 11.7398C21.7589 11.7398 21.8292 11.7682 21.8292 11.9204C21.8292 12.101 21.8041 12.3202 21.7506 12.4322C21.7171 12.5058 21.6653 12.5192 21.6034 12.5192C21.5566 12.5192 21.4696 12.5058 21.3993 12.4841L21.4211 12.6246C21.4746 12.6363 21.5532 12.648 21.6184 12.648C21.7255 12.648 21.8091 12.6212 21.8626 12.5092C21.9312 12.3703 21.9597 12.1044 21.9597 11.9053C21.9597 11.6779 21.8376 11.621 21.687 11.621C21.6469 11.621 21.5783 11.626 21.4997 11.6327C21.5181 11.5424 21.5331 11.4437 21.5432 11.3952C21.5482 11.3617 21.5549 11.3266 21.5616 11.2948ZM22.137 11.4889L22.0149 11.544C22.1336 11.6812 22.2641 11.9723 22.3143 12.1445L22.4431 12.0826C22.3879 11.9271 22.2407 11.6243 22.137 11.4889ZM22.157 11.2463L22.0667 11.2831C22.1119 11.3467 22.1687 11.4487 22.2022 11.5156L22.2942 11.4755C22.2591 11.4086 22.1989 11.3049 22.157 11.2463ZM22.341 11.1777L22.2524 11.2162C22.2992 11.2798 22.3544 11.3751 22.3912 11.447L22.4815 11.4069C22.4498 11.345 22.3845 11.2396 22.341 11.1777Z" fill="#2B3F53"/>
<path d="M22.8044 11.5624H22.9131V11.4504H23.1222V11.5624H23.2326V11.4504H23.3898V11.3483H23.2326V11.1945H23.1222V11.3483H22.9131V11.1945H22.8044V11.3483H22.6438V11.4504H22.8044V11.5624ZM23.5822 12.2917H23.7896V12.5226H23.5822V12.2917ZM23.7896 11.8485H23.5822V11.626H23.7896V11.8485ZM23.7896 12.183H23.5822V11.9572H23.7896V12.183ZM23.2393 11.8585H23.062V11.6862H23.2393V11.8585ZM22.786 11.6862H22.9582V11.8585H22.786V11.6862ZM24.1626 12.5226H23.9033V12.2917H24.1325V12.183H23.9033V11.9572H24.1325V11.8485H23.9033V11.626H24.1442V11.5123H23.8983C23.9368 11.4303 23.9752 11.3316 24.0087 11.2413L23.8899 11.2129C23.8648 11.2998 23.823 11.4219 23.7829 11.5123H23.5989C23.6357 11.4186 23.6675 11.3199 23.6942 11.2229L23.5805 11.1961C23.527 11.4019 23.445 11.6126 23.343 11.7615V11.5976H22.6889V11.9472H22.9532V12.0492H22.694V12.1445H22.9532V12.173C22.9532 12.1997 22.9516 12.2298 22.9482 12.26H22.6354V12.3603H22.9248C22.888 12.464 22.8044 12.5694 22.6204 12.6413C22.6471 12.6631 22.6806 12.7032 22.6973 12.7266C22.8579 12.6564 22.9499 12.5677 23.0017 12.4724C23.0954 12.541 23.2292 12.648 23.2878 12.6999L23.3614 12.5995C23.3095 12.561 23.1272 12.4322 23.0419 12.3787L23.0469 12.3603H23.3864V12.26H23.0653C23.067 12.2315 23.0686 12.2031 23.0686 12.1746V12.1445H23.3463V12.0492H23.0686V11.9472H23.343V11.8167C23.368 11.8368 23.3965 11.8619 23.4115 11.8769C23.4316 11.8501 23.45 11.82 23.4684 11.7866V12.7233H23.5822V12.6346H24.1626V12.5226Z" fill="#2B3F53"/>
<path d="M24.8333 11.2915L24.6644 11.2898C24.6744 11.3383 24.6777 11.3985 24.6777 11.4604C24.6777 11.636 24.661 12.0592 24.661 12.3068C24.661 12.5794 24.8266 12.6798 25.0675 12.6798C25.4355 12.6798 25.6512 12.469 25.7667 12.3101L25.6713 12.1964C25.5509 12.3703 25.3786 12.5426 25.0725 12.5426C24.9136 12.5426 24.7982 12.4774 24.7982 12.2934C24.7982 12.0442 24.8099 11.6494 24.8183 11.4604C24.8199 11.4052 24.8249 11.3467 24.8333 11.2915Z" fill="#2B3F53"/>
<path d="M26.3437 11.427L26.1815 11.4236C26.1915 11.4638 26.1932 11.534 26.1932 11.5725C26.1932 11.6695 26.1965 11.8736 26.2116 12.0191C26.2567 12.4523 26.409 12.6095 26.5679 12.6095C26.6799 12.6095 26.782 12.5125 26.8823 12.2282L26.7769 12.1094C26.7335 12.2767 26.6548 12.4506 26.5695 12.4506C26.4508 12.4506 26.3688 12.265 26.3421 11.9856C26.3303 11.8468 26.3287 11.6946 26.3303 11.5892C26.3303 11.5457 26.337 11.4671 26.3437 11.427ZM27.2152 11.4738L27.0847 11.519C27.2453 11.7147 27.3456 12.0576 27.3758 12.3603L27.5096 12.3051C27.4845 12.0224 27.364 11.6678 27.2152 11.4738Z" fill="#2B3F53"/>
<rect x="0.330591" y="9.57815" width="51.0163" height="4.74787" rx="0.0522708" stroke="#D9E1E7" stroke-width="0.104542"/>
<rect x="0.330591" y="14.3262" width="51.0163" height="4.75957" rx="0.0522708" fill="#F6FBFF"/>
<path d="M7.65208 17.2612L6.96899 16.5787L7.08126 16.4658L7.76434 17.1489L7.65208 17.2612ZM7.08126 17.2612L6.96899 17.1489L7.65208 16.4658L7.76434 16.5787L7.08126 17.2612Z" fill="#2B3F53"/>
<path d="M10.4952 16.2921V16.1717H9.85793V15.9442H9.72913V16.1717H9.12864V16.6149C9.12864 16.8474 9.11526 17.1736 8.96639 17.4027C8.99818 17.4145 9.05003 17.4513 9.07177 17.4713C9.22733 17.2305 9.25242 16.8658 9.25242 16.6149V16.2921H10.4952ZM10.5203 17.4161C10.4534 17.2505 10.2895 16.998 10.1406 16.8106L10.0302 16.8608C10.1122 16.9662 10.1975 17.0916 10.2661 17.2121C10.0336 17.2238 9.79604 17.2355 9.58863 17.2455C9.6823 17.0164 9.78935 16.6919 9.86294 16.4293L9.72411 16.3975C9.66557 16.6618 9.55517 17.018 9.4615 17.2505C9.38791 17.2522 9.31933 17.2556 9.25911 17.2572L9.27249 17.3843C9.54346 17.3693 9.94323 17.3475 10.3279 17.3225C10.3564 17.3793 10.3798 17.4312 10.3965 17.4763L10.5203 17.4161Z" fill="#2B3F53"/>
<path d="M11.8651 16.9561V17.2756H11.0539V16.9561H11.8651ZM10.9301 17.4864H11.0539V17.3927H11.8651V17.483H11.9906V16.8407H10.9301V17.4864ZM11.554 16.5597V16.2971H12.0625V16.1834H11.554V15.9425H11.4252V16.1834H11.0756C11.1057 16.1198 11.1342 16.0546 11.1576 15.9877L11.0338 15.9592C10.9719 16.1449 10.8665 16.3356 10.7444 16.4543C10.7762 16.4711 10.8314 16.5045 10.8565 16.5213C10.9117 16.461 10.9652 16.3824 11.0154 16.2971H11.4252V16.5597H10.7244V16.6768H12.1863V16.5597H11.554Z" fill="#2B3F53"/>
<path d="M12.6713 16.2954H12.9122C12.9105 16.3272 12.9039 16.3573 12.8905 16.3858H12.6396L12.6713 16.2954ZM13.0293 16.1181H13.2869V16.2135H13.0293V16.1181ZM13.6632 16.1181V16.2135H13.404V16.1181H13.6632ZM13.2869 16.3858H13.0142C13.0209 16.3573 13.026 16.3272 13.0276 16.2954H13.2869V16.3858ZM13.7569 16.4677C13.7502 16.5112 13.7435 16.5346 13.7352 16.5447C13.7251 16.5514 13.7151 16.553 13.695 16.553C13.6783 16.553 13.6315 16.5514 13.5796 16.548C13.5863 16.5614 13.593 16.5798 13.598 16.5965H12.8553C12.9156 16.558 12.9557 16.5146 12.9808 16.4677H13.2869V16.5932H13.404V16.4677H13.7569ZM13.5863 16.7805H12.75V16.6768H13.5863V16.7805ZM13.5863 16.9595H12.75V16.8575H13.5863V16.9595ZM13.5863 17.1418H12.75V17.0381H13.5863V17.1418ZM12.6295 17.2221H13.7101V16.6333H13.7502C13.7837 16.6316 13.8104 16.6233 13.8305 16.6032C13.8573 16.5764 13.8673 16.5279 13.879 16.4259C13.8807 16.4109 13.8824 16.3858 13.8824 16.3858H13.404V16.2954H13.7753V16.0362H13.404V15.9442H13.2869V16.0362H13.0293V15.9442H12.9156V16.0362H12.5074V16.1181H12.9156V16.2135H12.5827C12.5543 16.3021 12.5191 16.4075 12.484 16.4828L12.5994 16.4895L12.6078 16.4677H12.8353C12.7667 16.5363 12.6429 16.5915 12.4221 16.6333C12.4439 16.6551 12.469 16.7019 12.4807 16.7287C12.5359 16.717 12.5844 16.7052 12.6295 16.6935V17.2221ZM12.9105 17.2388C12.7901 17.2974 12.5894 17.3509 12.4171 17.3827C12.4455 17.4044 12.4874 17.4513 12.5074 17.4747C12.6747 17.4345 12.8855 17.3643 13.0226 17.289L12.9105 17.2388ZM13.2919 17.3041C13.4792 17.3593 13.6616 17.4228 13.7686 17.4713L13.9008 17.4061C13.777 17.3576 13.5763 17.289 13.3923 17.2388L13.2919 17.3041Z" fill="#2B3F53"/>
<path d="M14.7371 16.0429L14.5832 16.0278C14.5832 16.1416 14.5648 16.272 14.5397 16.3925C14.4377 16.4008 14.3407 16.4092 14.2855 16.4109C14.2319 16.4125 14.1885 16.4125 14.1349 16.4109L14.15 16.5547C14.1918 16.548 14.2621 16.5397 14.3005 16.5346C14.344 16.5296 14.4243 16.5213 14.513 16.5129C14.4561 16.737 14.3306 17.1184 14.16 17.3459L14.2955 17.4011C14.4728 17.1184 14.5866 16.7387 14.6484 16.4995C14.7204 16.4928 14.7873 16.4878 14.8274 16.4878C14.9345 16.4878 15.0047 16.5162 15.0047 16.6684C15.0047 16.8491 14.9796 17.0682 14.9261 17.1803C14.8927 17.2539 14.8408 17.2673 14.7789 17.2673C14.7321 17.2673 14.6451 17.2539 14.5748 17.2321L14.5966 17.3726C14.6501 17.3843 14.7287 17.3961 14.794 17.3961C14.901 17.3961 14.9846 17.3693 15.0382 17.2572C15.1068 17.1184 15.1352 16.8524 15.1352 16.6534C15.1352 16.4259 15.0131 16.369 14.8625 16.369C14.8224 16.369 14.7538 16.3741 14.6752 16.3807C14.6936 16.2904 14.7087 16.1917 14.7187 16.1432C14.7237 16.1098 14.7304 16.0746 14.7371 16.0429ZM15.3125 16.2369L15.1904 16.2921C15.3091 16.4293 15.4396 16.7203 15.4898 16.8926L15.6186 16.8307C15.5634 16.6751 15.4162 16.3724 15.3125 16.2369ZM15.3326 15.9944L15.2422 16.0312C15.2874 16.0947 15.3443 16.1968 15.3777 16.2637L15.4697 16.2235C15.4346 16.1566 15.3744 16.0529 15.3326 15.9944ZM15.5166 15.9258L15.4279 15.9643C15.4747 16.0278 15.5299 16.1232 15.5667 16.1951L15.6571 16.1549C15.6253 16.093 15.56 15.9877 15.5166 15.9258Z" fill="#2B3F53"/>
<path d="M16.7543 16.257C16.659 16.1784 16.4767 16.0429 16.3362 15.9492L16.2542 16.0378C16.3947 16.1332 16.5754 16.272 16.6724 16.3573L16.7543 16.257ZM15.9849 16.4477C15.9531 16.63 15.8862 16.8541 15.7942 16.998L15.9096 17.0465C16.0033 16.8993 16.0652 16.6618 16.102 16.4761L15.9849 16.4477ZM16.4934 17.3342C16.398 17.3342 16.3797 17.3191 16.3797 17.2405V17.0582C16.7209 16.7922 16.9885 16.4527 17.1775 16.0947L17.0537 16.0445C16.9015 16.3506 16.6707 16.6534 16.3797 16.9009V16.349H16.2509V17.0047C16.1104 17.11 15.9581 17.202 15.7959 17.2756C15.821 17.299 15.8578 17.3442 15.8762 17.3726C16.0083 17.3091 16.1321 17.2355 16.2509 17.1552V17.2388C16.2509 17.4111 16.3027 17.4563 16.4834 17.4563H16.8196C17.0002 17.4563 17.042 17.3659 17.0604 17.0699C17.0236 17.0615 16.9718 17.0398 16.9383 17.0147C16.9266 17.2806 16.9116 17.3342 16.8145 17.3342H16.4934ZM16.9668 16.5547C17.0772 16.7203 17.1892 16.9444 17.2327 17.0916L17.3498 17.0348C17.3046 16.8876 17.1926 16.6684 17.0772 16.5045L16.9668 16.5547Z" fill="#2B3F53"/>
<path d="M18.5642 16.9545C18.5123 17.0498 18.4387 17.1251 18.3417 17.1836C18.2162 17.1535 18.0841 17.1251 17.952 17.1C17.9854 17.0548 18.0205 17.0047 18.0557 16.9545H18.5642ZM17.7613 16.369H18.0138V16.5948H17.7613V16.369ZM18.1326 16.1265H18.4019V16.267H18.1326V16.1265ZM18.7983 16.369V16.5948H18.5207V16.369H18.7983ZM18.1326 16.5948V16.369H18.4019V16.5948H18.1326ZM19.0325 16.9545V16.8508H18.1259C18.1594 16.8023 18.1911 16.7538 18.2196 16.7086L18.1744 16.6969H18.9204V16.267H18.5207V16.1265H18.9907V16.0161H17.5622V16.1265H18.0138V16.267H17.6442V16.6969H18.0841C18.054 16.7454 18.0189 16.7972 17.9837 16.8508H17.5221V16.9545H17.9118C17.8483 17.0431 17.7864 17.1301 17.7345 17.1953L17.8516 17.2355L17.8867 17.1903C17.9888 17.2104 18.0891 17.2321 18.1878 17.2556C18.0222 17.3158 17.8115 17.3459 17.5455 17.3609C17.5656 17.3877 17.584 17.4329 17.5923 17.468C17.9235 17.4446 18.1778 17.3944 18.3651 17.299C18.5775 17.3542 18.7649 17.4161 18.9054 17.473L18.9806 17.3726C18.8519 17.3241 18.6812 17.2706 18.4906 17.2204C18.5826 17.1502 18.6511 17.0632 18.7013 16.9545H19.0325Z" fill="#2B3F53"/>
<path d="M19.2784 16.2419L19.2934 16.3874C19.4741 16.349 19.9006 16.3088 20.0796 16.2888C19.9257 16.3807 19.7668 16.5932 19.7668 16.8541C19.7668 17.2271 20.1197 17.3927 20.4292 17.4044L20.4777 17.2656C20.205 17.2556 19.9006 17.1518 19.9006 16.8257C19.9006 16.6266 20.0461 16.3724 20.2837 16.2954C20.369 16.2704 20.5162 16.2687 20.6115 16.2687V16.1349C20.4994 16.1399 20.3422 16.1499 20.1599 16.165C19.8521 16.1901 19.536 16.2218 19.4272 16.2336C19.3955 16.2369 19.3419 16.2402 19.2784 16.2419ZM20.3706 16.4744L20.2853 16.5112C20.3355 16.5798 20.384 16.6668 20.4225 16.7471L20.5078 16.7069C20.4727 16.6333 20.4091 16.5296 20.3706 16.4744ZM20.553 16.4042L20.471 16.4426C20.5228 16.5129 20.5714 16.5948 20.6115 16.6768L20.6985 16.635C20.66 16.5614 20.5931 16.4594 20.553 16.4042Z" fill="#2B3F53"/>
<path d="M22.4247 17.0364V16.926H21.7155C21.7305 16.8742 21.7389 16.8207 21.7422 16.7688H22.239V16.6651H21.7456V16.5162H22.2624V16.4276H22.3879V16.1064H21.7489V15.9442H21.6251V16.1064H20.9878V16.4276H21.1083V16.2185H22.2624V16.4109H21.7456V16.272H21.6218V16.4109H21.1283V16.5162H21.6218V16.6651H21.1551V16.7688H21.6184C21.6151 16.8207 21.6067 16.8742 21.5867 16.926H20.9628V17.0364H21.5298C21.4428 17.1619 21.2722 17.279 20.946 17.3693C20.9728 17.3961 21.0079 17.4429 21.0213 17.4697C21.4027 17.3559 21.585 17.202 21.672 17.0364H21.687C21.8141 17.2756 22.0416 17.4161 22.3678 17.473C22.3845 17.4412 22.4163 17.391 22.4431 17.3659C22.152 17.3241 21.9379 17.2154 21.8192 17.0364H22.4247Z" fill="#2B3F53"/>
<path d="M24.0722 16.0797C24.0187 16.0345 23.915 15.976 23.833 15.9392L23.7628 16.0144C23.8448 16.0546 23.9485 16.1181 24.0003 16.165L24.0722 16.0797ZM22.8161 16.1232H23.1121V16.4175H22.8161V16.1232ZM23.2861 17.1134L23.0352 17.1753V16.8742H23.266V16.7638H23.0352V16.5246H23.2259V16.0161H22.709V16.5246H22.9265V17.202L22.8127 17.2288V16.6802H22.7107V17.2522L22.6271 17.2706L22.6538 17.386C22.8295 17.3425 23.0703 17.2823 23.2995 17.2204L23.2861 17.1134ZM23.9819 16.8641C23.9334 16.9361 23.8698 17.003 23.7963 17.0632C23.7762 16.998 23.7578 16.9227 23.7427 16.8391L24.1609 16.7939L24.1475 16.6885L23.726 16.7354C23.7176 16.6818 23.7109 16.6266 23.7043 16.5698L24.0722 16.5296L24.0589 16.4259L23.6942 16.4661C23.6909 16.4175 23.6875 16.3674 23.6859 16.3172L24.1007 16.2737L24.0906 16.1666L23.6808 16.2085C23.6775 16.1232 23.6775 16.0362 23.6775 15.9459H23.552C23.552 16.0395 23.5554 16.1315 23.5587 16.2202L23.2911 16.2469L23.3028 16.3557L23.5637 16.3289C23.5671 16.3791 23.5704 16.4293 23.5738 16.4778L23.3312 16.5045L23.343 16.6099L23.5838 16.5831C23.5905 16.64 23.5972 16.6952 23.6039 16.7487L23.2928 16.7822L23.3062 16.8876L23.6223 16.8524C23.6407 16.9612 23.6641 17.0565 23.6942 17.1401C23.5554 17.2338 23.3931 17.3091 23.2242 17.3593C23.2526 17.386 23.2844 17.4295 23.3011 17.4596C23.4567 17.4078 23.6056 17.3375 23.7377 17.2489C23.8029 17.3877 23.8899 17.4697 24.0003 17.4697C24.1141 17.4697 24.1542 17.4027 24.1759 17.1803C24.1475 17.1686 24.1057 17.1435 24.0823 17.1167C24.0722 17.289 24.0538 17.3492 24.0104 17.3492C23.9451 17.3492 23.8866 17.2873 23.8381 17.1769C23.9368 17.0983 24.0221 17.0097 24.0873 16.9127L23.9819 16.8641Z" fill="#2B3F53"/>
<path d="M24.3967 16.2419L24.4118 16.3874C24.5924 16.349 25.019 16.3088 25.1979 16.2888C25.0441 16.3807 24.8852 16.5932 24.8852 16.8541C24.8852 17.2271 25.2381 17.3927 25.5475 17.4044L25.596 17.2656C25.3234 17.2556 25.019 17.1518 25.019 16.8257C25.019 16.6266 25.1645 16.3724 25.402 16.2954C25.4873 16.2704 25.6345 16.2687 25.7299 16.2687V16.1349C25.6178 16.1399 25.4606 16.1499 25.2782 16.165C24.9705 16.1901 24.6543 16.2218 24.5456 16.2336C24.5138 16.2369 24.4603 16.2402 24.3967 16.2419ZM25.489 16.4744L25.4037 16.5112C25.4539 16.5798 25.5024 16.6668 25.5408 16.7471L25.6261 16.7069C25.591 16.6333 25.5275 16.5296 25.489 16.4744ZM25.6713 16.4042L25.5893 16.4426C25.6412 16.5129 25.6897 16.5948 25.7299 16.6768L25.8168 16.635C25.7784 16.5614 25.7115 16.4594 25.6713 16.4042Z" fill="#2B3F53"/>
<path d="M26.8104 16.175C26.8137 16.1884 26.8171 16.2034 26.8221 16.2168C26.6615 16.2252 26.4708 16.2202 26.2701 16.1968L26.2785 16.3189C26.4876 16.3373 26.6916 16.3406 26.8539 16.3306C26.8673 16.3707 26.8823 16.4142 26.899 16.461C26.9091 16.4895 26.9208 16.5179 26.9325 16.548C26.7435 16.5647 26.4892 16.5664 26.2383 16.5397L26.245 16.6651C26.5026 16.6835 26.7769 16.6802 26.981 16.6618C27.0178 16.7437 27.0613 16.8257 27.1115 16.9026C27.058 16.8959 26.9492 16.8842 26.8606 16.8742L26.8489 16.9762C26.9643 16.9896 27.1215 17.0047 27.2152 17.0297L27.2838 16.9277C27.2603 16.9043 27.2403 16.8825 27.2219 16.8558C27.1784 16.7922 27.1399 16.7203 27.1048 16.6484C27.2219 16.6316 27.3273 16.6099 27.4075 16.5882L27.3875 16.4627C27.3089 16.4878 27.1918 16.5179 27.0529 16.5346C27.0396 16.5012 27.0262 16.4661 27.0145 16.4343C27.0028 16.3991 26.9894 16.3607 26.9777 16.3189C27.0931 16.3038 27.2118 16.2787 27.3072 16.252L27.2888 16.1315C27.1817 16.1666 27.0646 16.1917 26.9459 16.2068C26.9275 16.1399 26.9124 16.0713 26.9057 16.0077L26.7636 16.0261C26.7803 16.073 26.797 16.1248 26.8104 16.175ZM26.4809 16.8993L26.3504 16.8725C26.3136 16.9461 26.2835 17.0164 26.2852 17.1117C26.2869 17.3258 26.4708 17.4228 26.7987 17.4228C26.9409 17.4228 27.073 17.4128 27.1901 17.3944L27.1951 17.2606C27.0747 17.2857 26.9526 17.2957 26.797 17.2957C26.5344 17.2957 26.4106 17.2271 26.4106 17.0883C26.4106 17.0147 26.4407 16.9578 26.4809 16.8993Z" fill="#2B3F53"/>
<path d="M28.4312 16.0144L28.284 16.0011C28.2807 16.0914 28.2572 16.1968 28.2322 16.2904C28.1669 16.2954 28.1034 16.2988 28.0431 16.2988C27.9729 16.2988 27.901 16.2954 27.8391 16.2871L27.8474 16.4125C27.911 16.4159 27.9813 16.4175 28.0431 16.4175C28.0917 16.4175 28.1418 16.4159 28.192 16.4125C28.1151 16.6082 27.9729 16.8759 27.8341 17.0381L27.9629 17.105C28.0967 16.9244 28.2455 16.635 28.3275 16.3991C28.4379 16.3841 28.5433 16.3623 28.6319 16.3373L28.6286 16.2118C28.5433 16.2402 28.453 16.2603 28.366 16.2737C28.3927 16.1767 28.4162 16.0746 28.4312 16.0144ZM28.3392 17.1753C28.3392 17.0983 28.4228 17.0415 28.5449 17.0415C28.6052 17.0415 28.6637 17.0498 28.7172 17.0665C28.7189 17.095 28.7189 17.1201 28.7189 17.1418C28.7189 17.2338 28.6721 17.3074 28.5332 17.3074C28.4028 17.3074 28.3392 17.2539 28.3392 17.1753ZM28.826 16.5313H28.6955C28.6988 16.65 28.7072 16.8156 28.7139 16.9528C28.662 16.9411 28.6068 16.9361 28.55 16.9361C28.361 16.9361 28.2154 17.0331 28.2154 17.187C28.2154 17.3526 28.366 17.4278 28.55 17.4278C28.7574 17.4278 28.8427 17.3191 28.8427 17.1853C28.8427 17.1652 28.8427 17.1418 28.841 17.115C28.9497 17.1686 29.0401 17.2438 29.112 17.3074L29.1839 17.1937C29.0969 17.1201 28.9798 17.0381 28.836 16.9863C28.8326 16.8825 28.826 16.7738 28.8243 16.7119C28.8226 16.6517 28.8226 16.5999 28.826 16.5313ZM29.1605 16.5764L29.2358 16.4661C29.1571 16.4058 28.9665 16.2971 28.846 16.2436L28.7774 16.3456C28.8895 16.3958 29.0702 16.4995 29.1605 16.5764Z" fill="#2B3F53"/>
<path d="M29.756 16.175L29.5937 16.1717C29.6037 16.2118 29.6054 16.2821 29.6054 16.3205C29.6054 16.4175 29.6088 16.6216 29.6238 16.7671C29.669 17.2004 29.8212 17.3576 29.9801 17.3576C30.0922 17.3576 30.1942 17.2606 30.2946 16.9762L30.1892 16.8575C30.1457 17.0247 30.0671 17.1987 29.9818 17.1987C29.863 17.1987 29.781 17.013 29.7543 16.7337C29.7426 16.5948 29.7409 16.4426 29.7426 16.3373C29.7426 16.2938 29.7493 16.2152 29.756 16.175ZM30.6274 16.2218L30.497 16.267C30.6575 16.4627 30.7579 16.8056 30.788 17.1084L30.9218 17.0532C30.8967 16.7705 30.7763 16.4159 30.6274 16.2218Z" fill="#2B3F53"/>
<rect x="0.330591" y="14.3262" width="51.0163" height="4.75957" rx="0.0522708" stroke="#D9E1E7" stroke-width="0.104542"/>
<rect x="0.330591" y="19.0855" width="51.0163" height="4.72947" rx="0.0522708" fill="#F6FBFF"/>
<path d="M7.65208 22.0037L6.96899 21.3212L7.08126 21.2084L7.76434 21.8914L7.65208 22.0037ZM7.08126 22.0037L6.96899 21.8914L7.65208 21.2084L7.76434 21.3212L7.08126 22.0037Z" fill="#2B3F53"/>
<path d="M9.39962 20.8808C9.39962 20.8992 9.39627 20.961 9.39125 21.0397C9.30427 21.053 9.20559 21.0648 9.15039 21.0681C9.11024 21.0698 9.07846 21.0714 9.04166 21.0698L9.05505 21.2086C9.16042 21.1935 9.30595 21.1735 9.38289 21.1634C9.37787 21.217 9.37453 21.2722 9.37118 21.3257C9.28755 21.4578 9.09519 21.7188 9.00152 21.8359L9.08515 21.9513C9.16544 21.8375 9.27584 21.6786 9.3578 21.5548C9.3578 21.5816 9.35613 21.605 9.35613 21.6218C9.35278 21.8041 9.35278 21.8894 9.35111 22.05C9.35111 22.0767 9.34944 22.1252 9.34609 22.1486H9.49161C9.48827 22.1185 9.48492 22.0767 9.48325 22.0466C9.47489 21.8977 9.47656 21.7957 9.47656 21.6435C9.47656 21.5833 9.47823 21.5164 9.48158 21.4461C9.63379 21.3039 9.81109 21.2069 10.0051 21.2069C10.2259 21.2069 10.3279 21.3759 10.3279 21.5047C10.3296 21.7924 10.0754 21.9245 9.79269 21.9646L9.85458 22.0901C10.2192 22.0198 10.4651 21.8442 10.4634 21.508C10.4618 21.2487 10.256 21.0848 10.0252 21.0848C9.86629 21.0848 9.67561 21.1434 9.49161 21.2956C9.49328 21.2588 9.49663 21.222 9.49998 21.1869C9.52507 21.145 9.5535 21.0999 9.57525 21.0698L9.52507 21.0112C9.52172 21.0129 9.52005 21.0129 9.5167 21.0146C9.52841 20.8975 9.54179 20.8038 9.55016 20.762L9.39292 20.757C9.39962 20.7988 9.39962 20.844 9.39962 20.8808Z" fill="#2B3F53"/>
<path d="M11.3483 20.7804L11.1927 20.7637C11.1927 20.8774 11.176 21.0079 11.1492 21.1283C11.0489 21.1367 10.9502 21.145 10.895 21.1467C10.8415 21.1484 10.798 21.1501 10.7461 21.1467L10.7595 21.2922C10.803 21.2855 10.8716 21.2772 10.91 21.2722C10.9535 21.2671 11.0338 21.2571 11.1225 21.2487C11.0656 21.4729 10.9401 21.8543 10.7695 22.0834L10.9067 22.1369C11.0823 21.8543 11.1961 21.4762 11.2579 21.2354C11.3315 21.2287 11.3985 21.2237 11.4386 21.2237C11.544 21.2237 11.6159 21.2521 11.6159 21.406C11.6159 21.5866 11.5891 21.8041 11.5356 21.9178C11.5022 21.9897 11.452 22.0031 11.3901 22.0031C11.3433 22.0031 11.2546 21.9914 11.1843 21.9697L11.2061 22.1085C11.2596 22.1219 11.3399 22.1336 11.4035 22.1336C11.5122 22.1336 11.5942 22.1052 11.6477 21.9931C11.7179 21.8543 11.7447 21.5883 11.7447 21.3893C11.7447 21.1634 11.6226 21.1066 11.4737 21.1066C11.4336 21.1066 11.3633 21.1116 11.2847 21.1183C11.3031 21.0263 11.3182 20.9276 11.3282 20.8791C11.3349 20.8473 11.3416 20.8105 11.3483 20.7804ZM11.9237 20.9577L11.8016 21.0129C11.9203 21.1517 12.0508 21.4461 12.0993 21.6184L12.2298 21.5565C12.1729 21.401 12.0274 21.0932 11.9237 20.9577Z" fill="#2B3F53"/>
<path d="M12.8821 20.7737L12.8487 20.9008C12.9758 20.936 13.3387 21.0096 13.4976 21.0313L13.5294 20.9025C13.3822 20.8891 13.026 20.8189 12.8821 20.7737ZM12.8453 21.0781L12.7048 21.0597C12.6948 21.2354 12.653 21.5866 12.6195 21.7388L12.7433 21.7689C12.7533 21.7422 12.7684 21.7137 12.7935 21.6853C12.9105 21.5448 13.0912 21.4612 13.312 21.4612C13.4826 21.4612 13.6064 21.5565 13.6064 21.6903C13.6064 21.9195 13.3488 22.0717 12.8202 22.0065L12.8604 22.1436C13.4826 22.1955 13.7469 21.9931 13.7469 21.6937C13.7469 21.498 13.5763 21.3441 13.3203 21.3441C13.1196 21.3441 12.9356 21.4077 12.7751 21.5482C12.7935 21.4411 12.8219 21.1919 12.8453 21.0781Z" fill="#2B3F53"/>
<path d="M14.7823 20.757L14.6351 20.7436C14.6317 20.8339 14.6083 20.9393 14.5832 21.033C14.518 21.038 14.4544 21.0413 14.3942 21.0413C14.3239 21.0413 14.252 21.038 14.1901 21.0296L14.1985 21.1551C14.2621 21.1584 14.3323 21.1601 14.3942 21.1601C14.4427 21.1601 14.4929 21.1584 14.5431 21.1551C14.4661 21.3508 14.3239 21.6184 14.1851 21.7807L14.3139 21.8476C14.4477 21.6669 14.5966 21.3775 14.6785 21.1417C14.7889 21.1266 14.8943 21.1049 14.983 21.0798L14.9796 20.9544C14.8943 20.9828 14.804 21.0029 14.717 21.0162C14.7438 20.9192 14.7672 20.8172 14.7823 20.757ZM14.6903 21.9178C14.6903 21.8409 14.7739 21.784 14.896 21.784C14.9562 21.784 15.0148 21.7924 15.0683 21.8091C15.07 21.8375 15.07 21.8626 15.07 21.8844C15.07 21.9764 15.0231 22.05 14.8843 22.05C14.7538 22.05 14.6903 21.9964 14.6903 21.9178ZM15.177 21.2738H15.0465C15.0499 21.3926 15.0582 21.5582 15.0649 21.6953C15.0131 21.6836 14.9579 21.6786 14.901 21.6786C14.712 21.6786 14.5665 21.7756 14.5665 21.9295C14.5665 22.0951 14.717 22.1704 14.901 22.1704C15.1084 22.1704 15.1937 22.0617 15.1937 21.9279C15.1937 21.9078 15.1937 21.8844 15.1921 21.8576C15.3008 21.9111 15.3911 21.9864 15.463 22.05L15.535 21.9362C15.448 21.8626 15.3309 21.7807 15.187 21.7288C15.1837 21.6251 15.177 21.5164 15.1753 21.4545C15.1737 21.3943 15.1737 21.3424 15.177 21.2738ZM15.5115 21.319L15.5868 21.2086C15.5082 21.1484 15.3175 21.0397 15.1971 20.9861L15.1285 21.0882C15.2406 21.1384 15.4212 21.2421 15.5115 21.319Z" fill="#2B3F53"/>
<path d="M16.107 20.9176L15.9448 20.9142C15.9548 20.9544 15.9565 21.0246 15.9565 21.0631C15.9565 21.1601 15.9598 21.3642 15.9749 21.5097C16.02 21.9429 16.1722 22.1001 16.3311 22.1001C16.4432 22.1001 16.5452 22.0031 16.6456 21.7188L16.5402 21.6C16.4967 21.7673 16.4181 21.9412 16.3328 21.9412C16.2141 21.9412 16.1321 21.7556 16.1053 21.4762C16.0936 21.3374 16.092 21.1852 16.0936 21.0798C16.0936 21.0363 16.1003 20.9577 16.107 20.9176ZM16.9785 20.9644L16.848 21.0096C17.0086 21.2053 17.1089 21.5482 17.139 21.8509L17.2729 21.7957C17.2478 21.513 17.1273 21.1584 16.9785 20.9644Z" fill="#2B3F53"/>
<path d="M17.8332 20.9109V21.048C17.9653 21.0581 18.1075 21.0664 18.2748 21.0664C18.4303 21.0664 18.6127 21.0547 18.7264 21.0464V20.9092C18.606 20.9209 18.4354 20.9326 18.2748 20.9326C18.1075 20.9326 17.9536 20.9259 17.8332 20.9109ZM17.9001 21.585L17.7646 21.5716C17.7496 21.6402 17.7295 21.7188 17.7295 21.8041C17.7295 22.0148 17.9269 22.1269 18.2664 22.1269C18.5039 22.1269 18.7164 22.1018 18.8368 22.0684L18.8351 21.9245C18.7097 21.9663 18.4939 21.9914 18.2631 21.9914C17.9954 21.9914 17.865 21.9028 17.865 21.7756C17.865 21.7137 17.8784 21.6519 17.9001 21.585Z" fill="#2B3F53"/>
<path d="M19.6614 20.7837L19.5293 20.8389C19.6062 21.0213 19.6949 21.217 19.7718 21.3541C19.5928 21.4796 19.4824 21.6151 19.4824 21.7873C19.4824 22.0382 19.7099 22.1319 20.0244 22.1319C20.2335 22.1319 20.4258 22.1118 20.553 22.0901V21.9412C20.4225 21.9747 20.2 21.9981 20.0177 21.9981C19.7534 21.9981 19.6213 21.9111 19.6213 21.7723C19.6213 21.6452 19.7149 21.5348 19.8705 21.4344C20.0344 21.3257 20.2653 21.2153 20.379 21.1568C20.4275 21.1317 20.4693 21.1099 20.5078 21.0865L20.4342 20.9677C20.3991 20.9962 20.3639 21.0179 20.3154 21.0464C20.2234 21.0965 20.0428 21.1852 19.8856 21.2805C19.812 21.1484 19.7283 20.9677 19.6614 20.7837Z" fill="#2B3F53"/>
<path d="M21.6218 20.762L21.4846 20.7503C21.4813 20.8122 21.4662 20.8875 21.4428 20.9594C21.406 20.961 21.3675 20.961 21.3324 20.961C21.2555 20.961 21.1384 20.9544 21.0497 20.9426V21.0681C21.1417 21.0748 21.2521 21.0781 21.3241 21.0781C21.3475 21.0781 21.3726 21.0781 21.3976 21.0781C21.3341 21.2136 21.222 21.3859 21.0113 21.59L21.125 21.6736C21.1819 21.6067 21.2287 21.5448 21.2772 21.4996C21.3525 21.4294 21.4595 21.3775 21.5649 21.3775C21.6402 21.3775 21.7004 21.4093 21.7171 21.4812C21.5214 21.5833 21.3224 21.7071 21.3224 21.9044C21.3224 22.1085 21.5147 22.1604 21.7539 22.1604C21.8994 22.1604 22.0851 22.147 22.2122 22.1302L22.2156 21.9964C22.0684 22.0215 21.8894 22.0366 21.7589 22.0366C21.5867 22.0366 21.4562 22.0165 21.4562 21.886C21.4562 21.7756 21.5649 21.687 21.7205 21.605C21.7205 21.6937 21.7188 21.8024 21.7155 21.866H21.8443C21.8426 21.784 21.8409 21.6418 21.8392 21.5448C21.9664 21.4846 22.0851 21.4361 22.1788 21.401C22.2239 21.3826 22.2842 21.3591 22.3277 21.3474L22.2725 21.222C22.2256 21.2471 22.1855 21.2655 22.1353 21.2872C22.0483 21.3274 21.9463 21.3675 21.8325 21.4227C21.8058 21.3257 21.7171 21.2722 21.6084 21.2722C21.5365 21.2722 21.4395 21.2939 21.3759 21.3341C21.4328 21.2588 21.488 21.1634 21.5264 21.0748C21.7088 21.0681 21.9162 21.0547 22.0818 21.028L22.0834 20.9042C21.9262 20.9326 21.7439 20.9477 21.5733 20.956C21.5984 20.8774 21.6117 20.8122 21.6218 20.762Z" fill="#2B3F53"/>
<path d="M23.0904 21.6786V21.4829H23.2409V21.6786H23.0904ZM22.8495 21.4829H23.0001V21.6786H22.8462C22.8495 21.6335 22.8495 21.5883 22.8495 21.5482V21.4829ZM23.1004 20.9326C23.0804 20.9912 23.0519 21.0564 23.0268 21.1066H22.8345C22.8646 21.053 22.8913 20.9945 22.9181 20.9326H23.1004ZM23.0904 21.2053H23.2409V21.3893H23.0904V21.2053ZM22.8495 21.2053H23.0001V21.3893H22.8495V21.2053ZM24.002 20.8757C23.992 21.0698 23.9769 21.1467 23.9585 21.1685C23.9468 21.1835 23.9334 21.1852 23.9117 21.1835C23.8882 21.1835 23.8264 21.1835 23.7611 21.1768C23.7762 21.2053 23.7862 21.2487 23.7896 21.2805C23.8581 21.2839 23.9267 21.2855 23.9618 21.2822C24.0053 21.2789 24.0304 21.2671 24.0522 21.2404C24.089 21.2002 24.1023 21.0932 24.1157 20.8172C24.1174 20.8021 24.1174 20.7704 24.1174 20.7704H23.3948V20.8757H23.6206C23.5888 21.033 23.5219 21.1651 23.3463 21.2421V21.1066H23.1372C23.1757 21.0346 23.2142 20.9493 23.2426 20.8757L23.169 20.8289L23.1506 20.8339H22.9549C22.9683 20.7938 22.9817 20.752 22.9934 20.7101L22.878 20.6851C22.8278 20.8891 22.7358 21.0865 22.617 21.2136C22.6438 21.2303 22.6923 21.2688 22.7107 21.2889C22.7224 21.2755 22.7341 21.2605 22.7458 21.2437V21.5482C22.7458 21.7355 22.7341 21.983 22.622 22.1587C22.6471 22.1704 22.694 22.1971 22.7107 22.2155C22.7893 22.0951 22.8244 21.9312 22.8395 21.7756H23.2409V22.0767C23.2409 22.0985 23.2326 22.1052 23.2091 22.1068C23.1874 22.1085 23.1121 22.1085 23.0252 22.1052C23.0419 22.1336 23.0603 22.1821 23.0653 22.2105C23.1807 22.2105 23.2476 22.2089 23.2894 22.1905C23.3329 22.1721 23.3463 22.1369 23.3463 22.0767V21.2437C23.3697 21.2638 23.3998 21.3006 23.4132 21.3274C23.6189 21.2337 23.6992 21.0731 23.7344 20.8757H24.002ZM24.1626 21.784H23.8448V21.5783H24.1341V21.4712H23.8448V21.3006H23.726V21.4712H23.5805C23.5939 21.4277 23.6056 21.3826 23.6156 21.3374L23.5102 21.3157C23.4801 21.4578 23.4299 21.595 23.3563 21.6903C23.3848 21.7037 23.4333 21.7271 23.4534 21.7422C23.4851 21.697 23.5152 21.6402 23.5403 21.5783H23.726V21.784H23.3747V21.8911H23.726V22.2038H23.8448V21.8911H24.1626V21.784Z" fill="#2B3F53"/>
<path d="M24.7898 20.8791C24.7263 20.8189 24.5941 20.7453 24.4887 20.7001L24.4218 20.7904C24.5272 20.8389 24.656 20.9192 24.7179 20.9778L24.7898 20.8791ZM24.7079 21.314C24.6409 21.2588 24.5071 21.1885 24.4018 21.1467L24.3332 21.2404C24.4419 21.2855 24.5724 21.3608 24.6376 21.4177L24.7079 21.314ZM24.666 21.5699C24.5791 21.7606 24.462 21.9797 24.38 22.1102L24.4871 22.1888C24.5757 22.0316 24.6811 21.8241 24.7614 21.6468L24.666 21.5699ZM25.3234 21.0681H25.6061V21.4478H25.3167C25.3217 21.3842 25.3234 21.319 25.3234 21.2554V21.0681ZM25.8653 21.5632V21.4478H25.7265V20.9527H25.3234V20.6884H25.2013V20.9527H24.8718V21.0681H25.2013V21.2538C25.2013 21.319 25.1996 21.3842 25.1929 21.4478H24.7815V21.5632H25.1745C25.1294 21.7773 25.0106 21.9747 24.7045 22.1269C24.7346 22.147 24.7798 22.1905 24.8015 22.2155C25.1143 22.055 25.2431 21.8409 25.2933 21.61C25.3836 21.8961 25.5442 22.1085 25.7934 22.2155C25.8101 22.1821 25.8503 22.1336 25.8787 22.1102C25.6412 22.0182 25.484 21.8225 25.402 21.5632H25.8653Z" fill="#2B3F53"/>
<path d="M26.1029 20.9845L26.1179 21.13C26.2986 21.0915 26.7251 21.0514 26.9041 21.0313C26.7502 21.1233 26.5913 21.3357 26.5913 21.5967C26.5913 21.9697 26.9442 22.1353 27.2537 22.147L27.3022 22.0081C27.0295 21.9981 26.7251 21.8944 26.7251 21.5682C26.7251 21.3692 26.8706 21.1149 27.1081 21.038C27.1934 21.0129 27.3406 21.0112 27.436 21.0112V20.8774C27.3239 20.8824 27.1667 20.8925 26.9844 20.9075C26.6766 20.9326 26.3604 20.9644 26.2517 20.9761C26.2199 20.9794 26.1664 20.9828 26.1029 20.9845ZM27.1951 21.217L27.1098 21.2538C27.16 21.3223 27.2085 21.4093 27.247 21.4896L27.3323 21.4495C27.2971 21.3759 27.2336 21.2722 27.1951 21.217ZM27.3774 21.1467L27.2955 21.1852C27.3473 21.2554 27.3958 21.3374 27.436 21.4194L27.523 21.3775C27.4845 21.3039 27.4176 21.2019 27.3774 21.1467Z" fill="#2B3F53"/>
<path d="M28.5165 20.9176C28.5199 20.9309 28.5232 20.946 28.5282 20.9594C28.3676 20.9677 28.177 20.9627 27.9762 20.9393L27.9846 21.0614C28.1937 21.0798 28.3978 21.0832 28.56 21.0731C28.5734 21.1133 28.5884 21.1568 28.6052 21.2036C28.6152 21.232 28.6269 21.2605 28.6386 21.2906C28.4496 21.3073 28.1954 21.309 27.9445 21.2822L27.9512 21.4077C28.2087 21.4261 28.4831 21.4227 28.6871 21.4043C28.7239 21.4863 28.7674 21.5682 28.8176 21.6452C28.7641 21.6385 28.6553 21.6268 28.5667 21.6167L28.555 21.7188C28.6704 21.7321 28.8276 21.7472 28.9213 21.7723L28.9899 21.6703C28.9665 21.6468 28.9464 21.6251 28.928 21.5983C28.8845 21.5348 28.846 21.4628 28.8109 21.3909C28.928 21.3742 29.0334 21.3525 29.1137 21.3307L29.0936 21.2053C29.015 21.2303 28.8979 21.2605 28.7591 21.2772C28.7457 21.2437 28.7323 21.2086 28.7206 21.1768C28.7089 21.1417 28.6955 21.1032 28.6838 21.0614C28.7992 21.0464 28.918 21.0213 29.0133 20.9945L28.9949 20.8741C28.8878 20.9092 28.7708 20.9343 28.652 20.9493C28.6336 20.8824 28.6185 20.8139 28.6119 20.7503L28.4697 20.7687C28.4864 20.8155 28.5031 20.8674 28.5165 20.9176ZM28.187 21.6418L28.0565 21.6151C28.0197 21.6887 27.9896 21.7589 27.9913 21.8543C27.993 22.0684 28.177 22.1654 28.5048 22.1654C28.647 22.1654 28.7791 22.1553 28.8962 22.1369L28.9012 22.0031C28.7808 22.0282 28.6587 22.0382 28.5031 22.0382C28.2405 22.0382 28.1167 21.9697 28.1167 21.8308C28.1167 21.7572 28.1469 21.7004 28.187 21.6418Z" fill="#2B3F53"/>
<path d="M30.3832 20.7787H30.231C30.2343 20.7921 30.2394 20.8406 30.2427 20.8841C30.2444 20.9075 30.2444 20.9477 30.2461 20.9945C29.9968 20.9978 29.6824 21.0079 29.495 21.0112L29.5 21.1417C29.7091 21.1266 29.9918 21.1149 30.2477 21.1116C30.2477 21.1701 30.2494 21.2303 30.2494 21.2805C30.2159 21.2688 30.1791 21.2621 30.1373 21.2621C29.9768 21.2621 29.8413 21.3876 29.8413 21.5532C29.8413 21.7355 29.9751 21.8325 30.1173 21.8325C30.1741 21.8325 30.2226 21.8175 30.2645 21.7873C30.1959 21.9396 30.0403 22.0332 29.8195 22.0834L29.9316 22.1938C30.3196 22.0784 30.43 21.8275 30.43 21.6C30.43 21.5164 30.4116 21.4428 30.3765 21.3859C30.3748 21.3073 30.3732 21.2053 30.3732 21.1099C30.3815 21.1099 30.3882 21.1099 30.3966 21.1099C30.6425 21.1099 30.793 21.1149 30.8867 21.12L30.8884 20.9945C30.8097 20.9945 30.604 20.9928 30.3983 20.9928C30.3899 20.9928 30.3815 20.9928 30.3732 20.9928C30.3732 20.9477 30.3748 20.9092 30.3748 20.8841C30.3765 20.864 30.3815 20.7971 30.3832 20.7787ZM29.9667 21.5515C29.9667 21.4428 30.0487 21.3742 30.1357 21.3742C30.2009 21.3742 30.2594 21.4077 30.2862 21.4812C30.2996 21.6385 30.2343 21.7171 30.1373 21.7171C30.0453 21.7171 29.9667 21.6552 29.9667 21.5515ZM30.614 20.7453L30.522 20.7837C30.5639 20.8423 30.609 20.9226 30.6441 20.9895L30.7395 20.9477C30.706 20.8858 30.6542 20.8005 30.614 20.7453ZM30.8181 20.7018L30.7244 20.7419C30.7679 20.7971 30.8131 20.8757 30.8482 20.9443L30.9436 20.9025C30.9084 20.8373 30.8566 20.7587 30.8181 20.7018Z" fill="#2B3F53"/>
<path d="M32.2081 21.7572H32.5928V21.6452H32.2081V21.4645C32.2315 21.4812 32.2533 21.5013 32.265 21.5147C32.3319 21.4444 32.3871 21.3558 32.4289 21.2521C32.5075 21.3424 32.5911 21.4444 32.638 21.513L32.7082 21.4244C32.658 21.3525 32.556 21.237 32.4674 21.1417C32.4924 21.0564 32.5092 20.961 32.5226 20.859L32.4122 20.8473C32.3837 21.0781 32.3268 21.2772 32.2081 21.4093V20.7018H32.0893V21.3675C32.0475 21.3073 31.9639 21.2086 31.8953 21.1266C31.9137 21.043 31.9288 20.9527 31.9388 20.8573L31.8284 20.8456C31.8033 21.0781 31.7531 21.2855 31.6511 21.4311L31.6411 21.3692L31.4922 21.4311V21.1367H31.6728V21.0213H31.4922V20.6867H31.3734V21.0213H31.1643V21.1367H31.3734V21.4779C31.2898 21.513 31.2129 21.5415 31.151 21.5649L31.1844 21.6836C31.243 21.6602 31.3065 21.6318 31.3734 21.605V22.0566C31.3734 22.0817 31.3651 22.0884 31.345 22.0884C31.3266 22.0884 31.2597 22.0884 31.1878 22.0868C31.2045 22.1219 31.2212 22.1737 31.2246 22.2055C31.3316 22.2072 31.3952 22.2022 31.4353 22.1821C31.4771 22.1604 31.4922 22.1286 31.4922 22.0583V21.5532L31.616 21.4996C31.6444 21.518 31.6795 21.5448 31.6946 21.5615C31.7665 21.4762 31.8217 21.3709 31.8602 21.2471C31.9221 21.3207 31.984 21.4043 32.0191 21.4595L32.0893 21.3759V21.6452H31.7264V21.7572H32.0893V22.0382H31.6076V22.152H32.6948V22.0382H32.2081V21.7572Z" fill="#2B3F53"/>
<path d="M33.4442 21.5164L33.4275 21.401L33.2334 21.4595V21.1367H33.4258V21.0229H33.2334V20.6867H33.1113V21.0229H32.8738V21.1367H33.1113V21.4946C33.0126 21.5231 32.9223 21.5482 32.8504 21.5666L32.8838 21.687L33.1113 21.6184V22.0667C33.1113 22.0918 33.103 22.0985 33.0812 22.0985C33.0595 22.1001 32.9909 22.1001 32.9156 22.0985C32.9324 22.1286 32.9474 22.1804 32.9524 22.2105C33.0645 22.2122 33.1314 22.2089 33.1749 22.1905C33.2167 22.1704 33.2334 22.1353 33.2334 22.0667V21.5816L33.4442 21.5164ZM34.3976 21.2471H33.6667V20.941C33.8941 20.9092 34.1567 20.864 34.3324 20.8021L34.2404 20.7051C34.1032 20.7536 33.8741 20.8005 33.6633 20.8339L33.5429 20.8122V21.3441C33.5429 21.5883 33.5211 21.8944 33.3187 22.1152C33.3488 22.1319 33.394 22.1754 33.4107 22.2022C33.6315 21.963 33.665 21.6218 33.6667 21.3658H33.9962V22.2105H34.1183V21.3658H34.3976V21.2471Z" fill="#2B3F53"/>
<path d="M35.5501 20.7603H35.3979C35.3995 20.7737 35.4062 20.8222 35.4079 20.8657C35.4096 20.8891 35.4112 20.9293 35.4112 20.9761C35.162 20.9794 34.8476 20.9895 34.6619 20.9928L34.6652 21.1216C34.8743 21.1066 35.1587 21.0949 35.4129 21.0932C35.4146 21.1517 35.4146 21.2119 35.4146 21.2621C35.3811 21.2504 35.3443 21.2437 35.3025 21.2437C35.1436 21.2437 35.0081 21.3692 35.0081 21.5348C35.0081 21.7171 35.1419 21.8141 35.2825 21.8141C35.3393 21.8141 35.3878 21.7991 35.428 21.7689C35.3611 21.9212 35.2072 22.0148 34.9847 22.065L35.0968 22.1754C35.4865 22.0583 35.5969 21.8074 35.5969 21.5816C35.5969 21.498 35.5785 21.4244 35.5434 21.3675C35.5417 21.2906 35.54 21.1869 35.54 21.0915C35.5484 21.0915 35.5551 21.0915 35.5635 21.0915C35.8077 21.0915 35.9599 21.0949 36.0535 21.0999L36.0552 20.9761C35.9749 20.9761 35.7692 20.9744 35.5651 20.9744C35.5568 20.9744 35.5484 20.9744 35.54 20.9744C35.54 20.9293 35.5417 20.8908 35.5417 20.8657C35.5434 20.844 35.5467 20.7787 35.5501 20.7603ZM35.1336 21.5331C35.1336 21.4244 35.2155 21.3558 35.3025 21.3558C35.3678 21.3558 35.4246 21.3876 35.4514 21.4612C35.4664 21.6201 35.4029 21.6987 35.3042 21.6987C35.2105 21.6987 35.1336 21.6368 35.1336 21.5331Z" fill="#2B3F53"/>
<path d="M36.8196 21.9095C36.8196 21.8509 36.8782 21.8024 36.9534 21.8024C37.0806 21.8024 37.1642 21.8977 37.1776 22.0299C37.1358 22.0366 37.0906 22.0399 37.0421 22.0399C36.9116 22.0399 36.8196 21.9897 36.8196 21.9095ZM36.6055 20.8523L36.6105 20.9912C36.6457 20.9861 36.6841 20.9828 36.7209 20.9811C36.8096 20.9761 37.1441 20.961 37.2328 20.9577C37.1475 21.033 36.9384 21.2086 36.8447 21.2855C36.7477 21.3675 36.5336 21.5465 36.3948 21.6602L36.4901 21.7589C36.7025 21.5431 36.8514 21.4244 37.1307 21.4244C37.3482 21.4244 37.5054 21.5482 37.5054 21.7121C37.5054 21.8492 37.4302 21.9462 37.2963 21.9981C37.2763 21.8392 37.1642 21.702 36.9551 21.702C36.7996 21.702 36.6975 21.8041 36.6975 21.9195C36.6975 22.0583 36.8364 22.157 37.0638 22.157C37.4184 22.157 37.6392 21.983 37.6392 21.7137C37.6392 21.4879 37.4402 21.3207 37.1625 21.3207C37.0873 21.3207 37.007 21.329 36.93 21.3558C37.0605 21.2471 37.288 21.053 37.3716 20.9895C37.4017 20.9644 37.4352 20.9426 37.4653 20.9209L37.3883 20.8239C37.3716 20.8289 37.3482 20.8339 37.298 20.8373C37.2094 20.8456 36.8113 20.859 36.7243 20.859C36.6908 20.859 36.644 20.8573 36.6055 20.8523Z" fill="#2B3F53"/>
<rect x="0.330591" y="19.0855" width="51.0163" height="4.72947" rx="0.0522708" stroke="#D9E1E7" stroke-width="0.104542"/>
<rect x="0.27832" y="23.7627" width="51.1209" height="5.29608" rx="0.104542" fill="#2B3F53"/>
<path d="M8.88608 25.8453C8.85931 25.8971 8.82419 25.9506 8.78739 26.0058C8.74223 25.9473 8.6887 25.8921 8.62179 25.8386L8.48464 25.9439C8.56325 26.0109 8.62514 26.0794 8.6703 26.1514C8.60507 26.2216 8.53482 26.2868 8.46289 26.3387C8.50638 26.3705 8.56994 26.429 8.60005 26.4692C8.6519 26.429 8.70375 26.3839 8.75226 26.3354C8.76899 26.3872 8.77902 26.4407 8.78739 26.4976C8.70877 26.6297 8.5783 26.7686 8.46289 26.8422C8.50973 26.8756 8.56325 26.9425 8.59503 26.9877C8.66194 26.9342 8.73219 26.8606 8.7991 26.7803C8.79575 26.9576 8.78237 27.1014 8.74892 27.1433C8.73554 27.1617 8.72048 27.17 8.69706 27.1734C8.66194 27.1767 8.60172 27.1784 8.51976 27.1717C8.55321 27.2286 8.57161 27.2988 8.57329 27.3624C8.6519 27.3657 8.72215 27.364 8.78739 27.349C8.83088 27.339 8.86768 27.3155 8.89277 27.2821C8.96971 27.1801 8.98811 26.9559 8.98811 26.7251C8.98811 26.5344 8.97305 26.3521 8.89277 26.1781C8.95633 26.0995 9.0132 26.0175 9.06003 25.9322L8.88608 25.8453ZM9.26744 26.6147V26.2885H9.41296V26.6147H9.26744ZM9.75252 26.2885V26.6147H9.61368V26.2885H9.75252ZM10.0519 27.3038C10.0168 27.175 9.93149 26.971 9.86124 26.8154L9.67725 26.8673C9.69899 26.9258 9.72575 26.9877 9.74917 27.0529L9.61368 27.0663V26.7853H9.9616V26.1179H9.61368V25.8135H9.41296V26.1179H9.07174V26.7853H9.41296V27.0864C9.25239 27.1014 9.10352 27.1131 8.98811 27.1232L9.01989 27.3339C9.23566 27.3105 9.53172 27.2771 9.81775 27.2436C9.83113 27.2888 9.84451 27.3323 9.85288 27.3691L10.0519 27.3038Z" fill="white"/>
<path d="M10.4316 26.2484H11.4988V26.4792H11.6945V26.0727H11.472C11.5172 26.0142 11.5674 25.9473 11.6125 25.8837L11.3967 25.8185C11.365 25.8971 11.3081 25.9941 11.2529 26.0727H11.0003L11.0806 26.041C11.0589 25.9741 11.0037 25.872 10.9501 25.8001L10.7745 25.8637C10.8147 25.9272 10.8565 26.0075 10.8799 26.0727H10.6173L10.6775 26.0443C10.6507 25.9791 10.5838 25.8904 10.5253 25.8252L10.3563 25.9005C10.3965 25.9523 10.4417 26.0175 10.4718 26.0727H10.2443V26.4792H10.4316V26.2484ZM11.7112 26.7518H11.0789C11.2161 26.6732 11.3466 26.5662 11.4419 26.4641L11.3165 26.3671L11.273 26.3772H10.5219V26.5495H11.089C11.0488 26.5829 11.0037 26.6147 10.9602 26.6415H10.8648V26.7518H10.2225V26.9342H10.8648V27.1516C10.8648 27.175 10.8565 27.1817 10.8213 27.1817C10.7879 27.1834 10.6641 27.1834 10.5571 27.1784C10.5872 27.2319 10.6256 27.3155 10.639 27.3724C10.7812 27.3724 10.8849 27.3691 10.9635 27.3406C11.0455 27.3122 11.0672 27.2603 11.0672 27.1566V26.9342H11.7112V26.7518Z" fill="white"/>
<path d="M12.6278 27.0078C12.6278 26.9442 12.6914 26.9041 12.7867 26.9041C12.8319 26.9041 12.8771 26.9108 12.9205 26.9225C12.9205 26.9342 12.9205 26.9442 12.9205 26.9526C12.9205 27.0513 12.8854 27.1048 12.7834 27.1048C12.6947 27.1048 12.6278 27.0763 12.6278 27.0078ZM13.1246 25.9155H12.8854C12.8921 25.949 12.8971 26.0008 12.8971 26.0259C12.8971 26.061 12.8988 26.1296 12.8988 26.2116C12.8603 26.2132 12.8202 26.2132 12.7817 26.2132C12.6814 26.2132 12.5843 26.2082 12.489 26.1982V26.3972C12.5877 26.4039 12.683 26.4073 12.7817 26.4073C12.8202 26.4073 12.8603 26.4073 12.9005 26.4056C12.9021 26.5244 12.9088 26.6465 12.9122 26.7502C12.8787 26.7452 12.8419 26.7435 12.8035 26.7435C12.576 26.7435 12.4321 26.8606 12.4321 27.0295C12.4321 27.2051 12.576 27.3022 12.8068 27.3022C13.0326 27.3022 13.1229 27.1884 13.133 27.0278C13.1999 27.073 13.2668 27.1315 13.337 27.1968L13.4525 27.0211C13.3722 26.9476 13.2668 26.8622 13.128 26.8054C13.1213 26.6916 13.1129 26.5578 13.1096 26.3956C13.2016 26.3889 13.2885 26.3788 13.3688 26.3671V26.1581C13.2885 26.1748 13.2016 26.1882 13.1096 26.1965C13.1112 26.1229 13.1129 26.061 13.1146 26.0242C13.1162 25.9874 13.1196 25.9473 13.1246 25.9155ZM12.3083 25.9339L12.0775 25.9138C12.0758 25.9674 12.0675 26.0309 12.0608 26.0778C12.0424 26.2066 11.9922 26.5227 11.9922 26.7753C11.9922 27.0027 12.024 27.1934 12.0591 27.3105L12.2481 27.2955C12.2465 27.272 12.2448 27.2436 12.2448 27.2269C12.2448 27.2085 12.2481 27.1717 12.2532 27.1483C12.2732 27.0579 12.3267 26.8873 12.3736 26.7502L12.2716 26.6665C12.2465 26.7234 12.218 26.7803 12.1963 26.8388C12.1913 26.8054 12.1896 26.7636 12.1896 26.7301C12.1896 26.5628 12.2448 26.1948 12.2699 26.0828C12.2749 26.0527 12.295 25.9674 12.3083 25.9339Z" fill="white"/>
<path d="M13.9697 26.5352C13.8986 26.7192 13.7753 26.945 13.6456 27.1165L13.9384 27.2398C14.0471 27.083 14.1704 26.8447 14.2457 26.6419C14.3189 26.4474 14.3942 26.161 14.4234 26.0125C14.4318 25.9665 14.4569 25.8641 14.4736 25.8034L14.1684 25.7407C14.1433 26.0063 14.0638 26.3032 13.9697 26.5352ZM15.0026 26.4913C15.0862 26.7171 15.1615 26.9827 15.22 27.2294L15.5295 27.129C15.4709 26.922 15.3601 26.5896 15.2869 26.3993C15.2075 26.1986 15.0632 25.8766 14.9775 25.7135L14.6994 25.8034C14.7872 25.9644 14.9231 26.2718 15.0026 26.4913Z" fill="white"/>
<path d="M15.8661 26.2572V26.5854C15.9435 26.5791 16.0836 26.575 16.2027 26.575H17.3255C17.4133 26.575 17.52 26.5833 17.5701 26.5854V26.2572C17.5158 26.2613 17.4238 26.2697 17.3255 26.2697H16.2027C16.094 26.2697 15.9414 26.2634 15.8661 26.2572Z" fill="white"/>
<path d="M19.2324 25.6696L19.0567 25.7428C19.1341 25.8515 19.1801 25.9352 19.2407 26.0669L19.4226 25.9853C19.3745 25.8913 19.2909 25.7574 19.2324 25.6696ZM19.5062 25.5546L19.3327 25.6362C19.4101 25.7407 19.4603 25.8181 19.5272 25.9498L19.7028 25.8641C19.6547 25.77 19.5669 25.6383 19.5062 25.5546ZM18.3981 27.0559C18.3981 27.1374 18.3897 27.2649 18.3772 27.3465H18.7055C18.695 27.2608 18.6846 27.1144 18.6846 27.0559V26.4641C18.9104 26.5394 19.224 26.6607 19.4414 26.7757L19.5585 26.4851C19.3662 26.391 18.9626 26.2425 18.6846 26.1589V25.8536C18.6846 25.7658 18.695 25.6738 18.7034 25.6006H18.3772C18.3918 25.6759 18.3981 25.7784 18.3981 25.8536V27.0559Z" fill="white"/>
<path d="M20.9907 27.1792L21.1664 27.3235C21.1852 27.3068 21.2103 27.2858 21.2563 27.2608C21.4904 27.1416 21.7915 26.9158 21.9651 26.69L21.8041 26.46C21.664 26.6628 21.457 26.828 21.2876 26.9011V25.8076C21.2876 25.7135 21.3002 25.632 21.3023 25.6257H20.9907C20.9928 25.632 21.0075 25.7114 21.0075 25.8055V27.0245C21.0075 27.0809 20.9991 27.1395 20.9907 27.1792ZM20.0227 27.1479L20.2778 27.3172C20.4555 27.1583 20.5872 26.9534 20.6499 26.7171C20.7064 26.506 20.7127 26.0648 20.7127 25.8181C20.7127 25.7303 20.7252 25.6383 20.7273 25.6278H20.4199C20.4325 25.6801 20.4388 25.7365 20.4388 25.8202C20.4388 26.0732 20.4367 26.4683 20.3781 26.6481C20.3196 26.8259 20.2067 27.0182 20.0227 27.1479Z" fill="white"/>
<path d="M23.023 25.5881L22.7115 25.5567C22.7157 25.6885 22.6969 25.8411 22.6676 25.9979C22.561 26.0083 22.4627 26.0146 22.3979 26.0167C22.3205 26.0188 22.2515 26.023 22.1742 26.0167L22.1992 26.3011C22.2641 26.2906 22.3728 26.276 22.4334 26.2655C22.4711 26.2613 22.538 26.253 22.6132 26.2446C22.5359 26.5311 22.3916 26.9534 22.1888 27.2273L22.4606 27.336C22.653 27.0287 22.8077 26.5331 22.8871 26.2153C22.9478 26.2112 23 26.207 23.0335 26.207C23.1631 26.207 23.2363 26.23 23.2363 26.3972C23.2363 26.6042 23.207 26.8572 23.1506 26.9764C23.1171 27.0454 23.0648 27.0663 22.9938 27.0663C22.9394 27.0663 22.8181 27.0454 22.7387 27.0224L22.7826 27.2984C22.8537 27.313 22.954 27.3277 23.0335 27.3277C23.1924 27.3277 23.3074 27.2817 23.3764 27.1353C23.4663 26.9534 23.4956 26.6147 23.4956 26.368C23.4956 26.0669 23.3387 25.9686 23.1171 25.9686C23.0732 25.9686 23.0126 25.9728 22.9415 25.977C22.9561 25.9017 22.9728 25.8244 22.9854 25.7616C22.9958 25.7094 23.0105 25.6425 23.023 25.5881ZM23.9534 25.4146L23.7862 25.4815C23.8447 25.5609 23.9116 25.6843 23.9555 25.77L24.1207 25.6989C24.0852 25.6257 24.0078 25.494 23.9534 25.4146ZM23.7046 25.5086L23.5395 25.5776C23.5876 25.6445 23.6398 25.7449 23.6816 25.8244L23.4935 25.9059C23.6419 26.0899 23.7904 26.4579 23.8447 26.69L24.1103 26.5687C24.0517 26.3826 23.8949 26.0334 23.7695 25.839L23.8719 25.7951C23.8322 25.7177 23.7569 25.586 23.7046 25.5086Z" fill="white"/>
<path d="M25.4275 27.0684H25.0658V26.9325H25.4275V27.0684ZM26.0966 26.4662H24.4197V27.4071H24.6622V26.6732H25.8457V27.1395C25.8457 27.1646 25.8373 27.1709 25.8059 27.1729C25.7829 27.175 25.7181 27.175 25.647 27.1729V26.7673H24.8483V27.3298H25.0658V27.2357H25.6052C25.6282 27.29 25.647 27.3548 25.6533 27.4029C25.8038 27.4029 25.9147 27.4008 25.992 27.3632C26.0736 27.3256 26.0966 27.2587 26.0966 27.1437V26.4662ZM25.5676 26.2112H24.9152V26.0836H25.5676V26.2112ZM24.679 25.9184V26.3784H25.8206V25.9184H24.679ZM25.3627 25.6278V25.4522H25.1097V25.6278H24.3361V25.839H26.1635V25.6278H25.3627Z" fill="white"/>
<path d="M27.8717 25.7177L27.627 25.5024C27.5936 25.5525 27.5267 25.6195 27.466 25.6801C27.326 25.816 27.0395 26.0481 26.8743 26.1819C26.6653 26.3575 26.6485 26.4683 26.8576 26.6461C27.0479 26.8091 27.3552 27.0705 27.4828 27.2022C27.5455 27.2649 27.6061 27.3318 27.6647 27.3967L27.9093 27.1729C27.696 26.9659 27.2988 26.6523 27.142 26.5206C27.0291 26.4223 27.027 26.3993 27.1378 26.3032C27.2779 26.184 27.5539 25.9707 27.6898 25.862C27.7379 25.8223 27.8069 25.7679 27.8717 25.7177Z" fill="white"/>
<path d="M29.0028 27.3695L29.2265 27.1771C29.122 27.0475 28.9192 26.8405 28.7707 26.7192L28.5533 26.9074C28.6975 27.0329 28.8753 27.2127 29.0028 27.3695Z" fill="white"/>
<path d="M32.0533 26.853H32.4987V26.6335H32.0533V26.4412C32.0889 26.4683 32.1244 26.4976 32.1391 26.5185C32.2081 26.4453 32.2645 26.3554 32.3084 26.2551C32.3858 26.3533 32.4652 26.4558 32.5112 26.529L32.6492 26.3533C32.5928 26.2697 32.4799 26.138 32.3837 26.0251C32.4088 25.9184 32.4276 25.7993 32.4401 25.6738L32.2206 25.6508C32.1997 25.8954 32.1516 26.1087 32.0533 26.2676V25.4731H31.8192V26.2028C31.769 26.1401 31.7083 26.0669 31.6519 26C31.6707 25.8975 31.6853 25.7867 31.6958 25.6717L31.4763 25.6529C31.4574 25.931 31.4094 26.1777 31.2985 26.3533L31.2944 26.322L31.1396 26.368V26.0794H31.332V25.8494H31.1396V25.4564H30.9055V25.8494H30.6817V26.0794H30.9055V26.4412C30.8114 26.4683 30.7277 26.4913 30.6567 26.5101L30.711 26.7464L30.9055 26.6858V27.1144C30.9055 27.1416 30.895 27.1499 30.8699 27.1499C30.8448 27.152 30.7717 27.152 30.6985 27.1499C30.7277 27.2189 30.757 27.3214 30.7633 27.3862C30.8992 27.3883 30.9912 27.3778 31.056 27.3381C31.1208 27.2963 31.1396 27.2336 31.1396 27.1165V26.6084C31.2024 26.5875 31.2651 26.5645 31.3278 26.5436L31.3195 26.4892C31.3571 26.5185 31.3926 26.5499 31.4135 26.5708C31.4888 26.483 31.5453 26.3722 31.5871 26.2446C31.6456 26.322 31.7042 26.3972 31.7355 26.4537L31.8192 26.3492V26.6335H31.401V26.853H31.8192V27.106H31.2505V27.3298H32.6283V27.106H32.0533V26.853Z" fill="white"/>
<path d="M33.5357 26.3324C33.4646 26.3512 33.3936 26.3701 33.3225 26.3868V26.0773H33.5336V25.8474H33.3225V25.4564H33.0778V25.8474H32.8186V26.0773H33.0778V26.4474C32.9691 26.4746 32.8667 26.4976 32.783 26.5143L32.8437 26.7527L33.0778 26.6921V27.1395C33.0778 27.1688 33.0674 27.1771 33.0402 27.1792C33.013 27.1792 32.9273 27.1792 32.8479 27.175C32.875 27.2398 32.9085 27.3402 32.9148 27.4029C33.0611 27.4029 33.1615 27.3967 33.2326 27.359C33.3016 27.3214 33.3225 27.2608 33.3225 27.1374V26.6272C33.404 26.6063 33.4856 26.5833 33.565 26.5603L33.5357 26.3324ZM34.7526 26.1526H33.9142V25.8474C34.1797 25.8055 34.4766 25.7428 34.7024 25.6613L34.5142 25.4626C34.3574 25.5275 34.1212 25.5902 33.8891 25.6362L33.6675 25.6111V26.299C33.6675 26.5938 33.6445 26.9639 33.4019 27.2231C33.4626 27.2566 33.5525 27.3423 33.5859 27.3988C33.8535 27.1269 33.9058 26.7046 33.9142 26.3889H34.2132V27.405H34.4599V26.3889H34.7526V26.1526Z" fill="white"/>
<path d="M35.6433 25.5672L35.3067 25.563C35.3255 25.6466 35.3339 25.747 35.3339 25.8453C35.3339 26.0251 35.3129 26.575 35.3129 26.8551C35.3129 27.2127 35.5346 27.3632 35.8775 27.3632C36.3542 27.3632 36.6511 27.083 36.7849 26.8823L36.5946 26.6523C36.4441 26.8802 36.2245 27.0789 35.8796 27.0789C35.7165 27.0789 35.591 27.0099 35.591 26.7987C35.591 26.5394 35.6078 26.0711 35.6161 25.8453C35.6203 25.7616 35.6308 25.655 35.6433 25.5672Z" fill="white"/>
<path d="M37.0593 26.2843L37.1826 26.5499C37.2725 26.5101 37.4043 26.4391 37.5548 26.3638C37.5736 26.4056 37.5924 26.4495 37.6113 26.4934C37.7179 26.7464 37.8266 27.0998 37.8914 27.3632L38.1779 27.2879C38.1089 27.0538 37.9479 26.6063 37.8496 26.3784C37.8308 26.3366 37.812 26.2927 37.7911 26.2488C38.0148 26.1463 38.2427 26.0606 38.4058 26.0606C38.5626 26.0606 38.6567 26.1463 38.6567 26.253C38.6567 26.4035 38.5417 26.4892 38.3849 26.4892C38.2929 26.4892 38.1883 26.4579 38.0942 26.4182L38.088 26.6816C38.1674 26.7109 38.297 26.7401 38.41 26.7401C38.7299 26.7401 38.9306 26.5541 38.9306 26.2613C38.9306 26.0188 38.7361 25.8223 38.412 25.8223C38.318 25.8223 38.2155 25.8411 38.111 25.8724L38.2761 25.7512C38.2051 25.6759 38.0482 25.54 37.973 25.4835L37.7806 25.6174C37.8601 25.678 37.9939 25.8076 38.0691 25.885C37.9479 25.9247 37.8203 25.977 37.6928 26.0334C37.6593 25.9623 37.6259 25.8954 37.5945 25.8348C37.5715 25.7951 37.5297 25.7094 37.5109 25.6717L37.2391 25.7763C37.2809 25.8306 37.3332 25.908 37.3624 25.9603C37.3938 26.0146 37.4252 26.0753 37.4544 26.138C37.3917 26.1652 37.3269 26.1923 37.2663 26.2174C37.2328 26.2321 37.1408 26.2634 37.0593 26.2843Z" fill="white"/>
<path d="M40.4778 25.54H40.1746C40.1809 25.5651 40.1893 25.6362 40.1955 25.7219C40.1976 25.7386 40.1976 25.7595 40.1997 25.7867C39.9154 25.7909 39.5348 25.7993 39.2965 25.7993L39.3027 26.0523C39.5599 26.0376 39.8861 26.0251 40.2018 26.0209C40.2039 26.0669 40.2039 26.115 40.2039 26.161C40.1767 26.1568 40.1495 26.1547 40.1203 26.1547C39.8924 26.1547 39.7021 26.3094 39.7021 26.5457C39.7021 26.8008 39.9007 26.9304 40.0617 26.9304C40.0952 26.9304 40.1265 26.9262 40.1558 26.92C40.0408 27.0454 39.8568 27.1144 39.6456 27.1583L39.8694 27.3799C40.3795 27.2378 40.5384 26.8907 40.5384 26.6189C40.5384 26.5101 40.5133 26.4119 40.4632 26.3324C40.4632 26.2404 40.4611 26.1254 40.4611 26.0188C40.7454 26.0188 40.9399 26.023 41.0653 26.0293L41.0674 25.7825C40.9587 25.7804 40.6722 25.7846 40.4611 25.7846C40.4632 25.7595 40.4632 25.7365 40.4632 25.7198C40.4652 25.6864 40.4736 25.5735 40.4778 25.54ZM39.953 26.5415C39.953 26.4307 40.0324 26.3742 40.114 26.3742C40.1704 26.3742 40.2206 26.3993 40.2499 26.4474C40.2792 26.6314 40.2018 26.6983 40.114 26.6983C40.0303 26.6983 39.953 26.6377 39.953 26.5415Z" fill="white"/>
<path d="M41.7887 25.7303L41.4668 25.7261C41.4793 25.7909 41.4835 25.8808 41.4835 25.9394C41.4835 26.0669 41.4856 26.3115 41.5065 26.5039C41.565 27.0642 41.7637 27.2712 41.9936 27.2712C42.1609 27.2712 42.2926 27.1437 42.4306 26.7799L42.2215 26.5248C42.1818 26.6921 42.0982 26.9367 41.9999 26.9367C41.8682 26.9367 41.8055 26.7297 41.7762 26.4286C41.7637 26.2781 41.7616 26.1213 41.7637 25.9853C41.7637 25.9268 41.7741 25.8055 41.7887 25.7303ZM42.8342 25.7784L42.5686 25.8641C42.7965 26.1233 42.9073 26.6314 42.9408 26.968L43.2147 26.8614C43.1917 26.5415 43.0328 26.0188 42.8342 25.7784Z" fill="white"/>
<path d="M25.8387 30.4023L24.3332 29.0049L27.3442 29.0049L25.8387 30.4023Z" fill="#2B3F53"/>
<path opacity="0.16" d="M9.38281 33.2021H42.2946V35.2475H9.38281V33.2021Z" fill="#1C362A"/>
<path d="M11.3898 33.696L11.1176 33.671C11.0994 33.7595 11.079 33.8684 11.079 33.975C11.079 34.2041 11.2854 34.3357 11.6666 34.3357C11.8481 34.3357 12.0001 34.3198 12.1294 34.3017L12.1407 34.0136C11.9774 34.0431 11.8208 34.0589 11.6688 34.0589C11.4261 34.0589 11.358 33.9841 11.358 33.8842C11.358 33.8343 11.3716 33.7617 11.3898 33.696ZM11.1334 32.4391L10.7863 32.4119C10.7931 32.4663 10.7886 32.5594 10.7795 32.6433C10.775 32.6796 10.7682 32.7227 10.7591 32.7726C10.6888 32.7771 10.6207 32.7794 10.5549 32.7794C10.4597 32.7794 10.3848 32.7749 10.2691 32.7613L10.2759 33.0448C10.3553 33.0494 10.4392 33.0539 10.5504 33.0539C10.598 33.0539 10.6479 33.0517 10.7001 33.0494C10.6842 33.1129 10.6684 33.1787 10.6525 33.24C10.5685 33.5576 10.3961 34.0317 10.26 34.2608L10.5754 34.3675C10.7024 34.0975 10.8521 33.6347 10.9361 33.3171C10.961 33.2241 10.9837 33.122 11.0041 33.0244C11.1561 33.0063 11.3104 32.9813 11.4465 32.9496V32.666C11.3217 32.6955 11.1924 32.7204 11.0654 32.7386C11.0722 32.7091 11.079 32.6796 11.0835 32.6546C11.0926 32.6047 11.1153 32.5026 11.1334 32.4391ZM11.2673 33.1265V33.392C11.4102 33.3738 11.5486 33.367 11.7051 33.367C11.8435 33.367 11.9819 33.3829 12.0953 33.3965L12.1022 33.1243C11.9683 33.1106 11.8322 33.1038 11.7029 33.1038C11.5554 33.1038 11.3943 33.1129 11.2673 33.1265ZM11.8594 32.5049L11.6802 32.5798C11.7414 32.666 11.8118 32.8021 11.8571 32.8951L12.0386 32.8157C11.9978 32.7318 11.9161 32.5888 11.8594 32.5049ZM12.1271 32.4028L11.9479 32.4754C12.0114 32.5616 12.084 32.6932 12.1316 32.7885L12.3109 32.7114C12.2723 32.632 12.1884 32.4868 12.1271 32.4028Z" fill="#2B3F53"/>
<path d="M13.4883 32.4323L13.1503 32.3983C13.1525 32.5412 13.1344 32.7068 13.1026 32.8792C12.9869 32.8883 12.8803 32.8951 12.81 32.8974C12.726 32.8997 12.6489 32.9042 12.5672 32.8974L12.5945 33.2059C12.6625 33.1946 12.7827 33.1787 12.8463 33.1674C12.8894 33.1628 12.9597 33.1537 13.0414 33.1447C12.9597 33.4555 12.8032 33.9137 12.5831 34.2109L12.878 34.3289C13.0867 33.9954 13.2546 33.4577 13.3408 33.1129C13.4044 33.1084 13.4611 33.1038 13.4974 33.1038C13.6403 33.1038 13.7174 33.1288 13.7174 33.3103C13.7174 33.5349 13.6879 33.8094 13.6267 33.9387C13.5904 34.0136 13.5314 34.0362 13.4565 34.0362C13.3953 34.0362 13.266 34.0136 13.1775 33.9886L13.2274 34.2881C13.3045 34.304 13.4112 34.3198 13.4996 34.3198C13.6698 34.3198 13.7968 34.2699 13.8717 34.1111C13.9693 33.9137 14.001 33.5462 14.001 33.2785C14.001 32.9518 13.8309 32.8452 13.5904 32.8452C13.5427 32.8452 13.4747 32.8497 13.3998 32.8543C13.4157 32.7726 13.4316 32.6887 13.4475 32.6206C13.4588 32.5639 13.4747 32.4913 13.4883 32.4323ZM14.2687 32.6456L13.9987 32.7613C14.1598 32.9609 14.3209 33.3715 14.3799 33.6234L14.668 33.4895C14.5999 33.274 14.4094 32.8407 14.2687 32.6456Z" fill="#2B3F53"/>
<path d="M15.5119 32.3983L15.4393 32.6705C15.6163 32.7159 16.1222 32.8225 16.3513 32.852L16.4194 32.5752C16.222 32.5526 15.7275 32.4663 15.5119 32.3983ZM15.5255 32.8543L15.2215 32.8112C15.2057 33.0925 15.1535 33.5371 15.1081 33.7595L15.369 33.8253C15.3894 33.7799 15.4121 33.7436 15.4529 33.6937C15.5959 33.5213 15.8273 33.426 16.0836 33.426C16.281 33.426 16.4217 33.5349 16.4217 33.6823C16.4217 33.9705 16.0609 34.1361 15.3804 34.0431L15.4666 34.3402C16.4103 34.4197 16.737 34.102 16.737 33.6891C16.737 33.4146 16.5056 33.1696 16.1086 33.1696C15.8704 33.1696 15.6458 33.2354 15.4393 33.3851C15.4552 33.2558 15.4961 32.9791 15.5255 32.8543Z" fill="#2B3F53"/>
<path d="M19.7171 32.0711L19.4567 31.8774C19.3931 31.8996 19.2661 31.9187 19.1295 31.9187H18.0084C17.9131 31.9187 17.7193 31.9092 17.6336 31.8965V32.3475C17.7003 32.3443 17.875 32.3252 18.0084 32.3252H19.0851C19.0152 32.5507 18.8214 32.8652 18.6118 33.1034C18.3133 33.4369 17.821 33.8244 17.3096 34.0149L17.6368 34.3579C18.0719 34.1515 18.4943 33.8212 18.831 33.4655C19.1295 33.7545 19.4249 34.0784 19.6313 34.3643L19.9934 34.0499C19.806 33.8212 19.4217 33.4146 19.1073 33.1415C19.3201 32.8556 19.498 32.5158 19.6059 32.2681C19.6345 32.2045 19.6917 32.1061 19.7171 32.0711Z" fill="#2B3F53"/>
<path d="M22.1278 31.7472L21.6641 31.5947C21.6355 31.7027 21.5688 31.8488 21.5211 31.9282C21.3623 32.2014 21.086 32.6111 20.5302 32.9509L20.8859 33.2145C21.1972 33.0017 21.4735 32.7222 21.6863 32.4459H22.5788C22.528 32.6841 22.3437 33.0653 22.1278 33.313C21.8514 33.6274 21.4989 33.9038 20.8478 34.0975L21.2226 34.4342C21.8197 34.1991 22.204 33.9069 22.5057 33.5385C22.7916 33.1828 22.9726 32.7604 23.0584 32.4777C23.0838 32.3983 23.1282 32.3094 23.1632 32.249L22.8392 32.0489C22.7662 32.0711 22.6614 32.087 22.5629 32.087H21.9245C21.9277 32.0807 21.9309 32.0775 21.934 32.0711C21.9721 32.0013 22.0547 31.8583 22.1278 31.7472Z" fill="#2B3F53"/>
<path d="M23.8397 32.754V33.2527C23.9572 33.2431 24.17 33.2368 24.351 33.2368H26.0566C26.19 33.2368 26.352 33.2495 26.4282 33.2527V32.754C26.3456 32.7604 26.2059 32.7731 26.0566 32.7731H24.351C24.1859 32.7731 23.954 32.7635 23.8397 32.754Z" fill="#2B3F53"/>
<path d="M28.3847 34.1547L28.6515 34.3738C28.6801 34.3484 28.7182 34.3167 28.7881 34.2785C29.1438 34.0975 29.6012 33.7545 29.8648 33.4115L29.6202 33.0621C29.4074 33.3702 29.093 33.6211 28.8357 33.7322V32.0711C28.8357 31.9282 28.8548 31.8044 28.8579 31.7948H28.3847C28.3879 31.8044 28.4101 31.925 28.4101 32.068V33.9196C28.4101 34.0054 28.3974 34.0943 28.3847 34.1547ZM26.9142 34.107L27.3017 34.3643C27.5716 34.1229 27.7717 33.8117 27.867 33.4528C27.9528 33.132 27.9623 32.4618 27.9623 32.087C27.9623 31.9536 27.9813 31.8139 27.9845 31.798H27.5176C27.5367 31.8774 27.5462 31.9632 27.5462 32.0902C27.5462 32.4745 27.543 33.0748 27.4541 33.3479C27.3652 33.6179 27.1937 33.9101 26.9142 34.107Z" fill="#2B3F53"/>
<path d="M31.059 32.4482L30.721 32.4142C30.7255 32.5571 30.7051 32.7227 30.6733 32.8928C30.5576 32.9042 30.451 32.911 30.3807 32.9133C30.2967 32.9155 30.2219 32.9201 30.1379 32.9133L30.1651 33.2218C30.2355 33.2105 30.3534 33.1946 30.4192 33.1832C30.4601 33.1787 30.5327 33.1696 30.6143 33.1605C30.5304 33.4714 30.3739 33.9296 30.1538 34.2268L30.4487 34.3448C30.6574 34.0113 30.8253 33.4736 30.9115 33.1288C30.9773 33.1243 31.034 33.1197 31.0703 33.1197C31.211 33.1197 31.2904 33.1447 31.2904 33.3262C31.2904 33.5508 31.2586 33.8253 31.1974 33.9546C31.1611 34.0294 31.1044 34.0521 31.0272 34.0521C30.9682 34.0521 30.8367 34.0294 30.7505 34.0045L30.7981 34.304C30.8752 34.3198 30.9841 34.3357 31.0703 34.3357C31.2428 34.3357 31.3675 34.2858 31.4424 34.127C31.5399 33.9296 31.5717 33.5621 31.5717 33.2944C31.5717 32.9677 31.4016 32.8611 31.1611 32.8611C31.1134 32.8611 31.0476 32.8656 30.9705 32.8702C30.9864 32.7885 31.0045 32.7046 31.0182 32.6365C31.0295 32.5798 31.0454 32.5072 31.059 32.4482ZM32.0685 32.2599L31.887 32.3325C31.9506 32.4187 32.0232 32.5526 32.0708 32.6456L32.25 32.5684C32.2115 32.489 32.1275 32.3461 32.0685 32.2599ZM31.7986 32.362L31.6193 32.4368C31.6715 32.5094 31.7282 32.6183 31.7736 32.7046L31.5694 32.793C31.7305 32.9927 31.8916 33.392 31.9506 33.6438L32.2387 33.5122C32.1752 33.3103 32.005 32.9314 31.8689 32.7204L31.9801 32.6728C31.937 32.5888 31.8553 32.4459 31.7986 32.362Z" fill="#2B3F53"/>
<path d="M34.1897 32.6365H33.7927V32.8566C33.7927 33.038 33.8449 33.0902 34.0491 33.0902H34.2918C34.4347 33.0902 34.4937 33.0471 34.5164 32.8906C34.4574 32.8792 34.369 32.852 34.3281 32.8225C34.319 32.8997 34.31 32.9133 34.2646 32.9133H34.0808C34.0241 32.9133 34.0128 32.9042 34.0128 32.8543V32.8089H34.4189V32.3711H33.7496V32.5412H34.1897V32.6365ZM33.4456 32.6365H33.0486V32.8566C33.0486 33.038 33.1053 33.0902 33.305 33.0902H33.5432C33.6793 33.0902 33.7405 33.0471 33.7632 32.8928C33.702 32.8815 33.6158 32.8543 33.5772 32.8248C33.5681 32.8997 33.559 32.9133 33.5137 32.9133H33.339C33.28 32.9133 33.2709 32.9042 33.2709 32.8566V32.8089H33.6725V32.3711H33.0168V32.5412H33.4456V32.6365ZM32.9465 32.7295C32.8898 32.6161 32.7469 32.4641 32.6289 32.3552L32.4156 32.4913C32.5313 32.6047 32.6675 32.7681 32.7174 32.8792L32.9465 32.7295ZM33.6067 33.4237H33.8698V33.5734H33.6067V33.4237ZM33.4774 33.7731H34.006L33.8335 33.8706C33.9833 33.9432 34.1421 34.0476 34.2283 34.1179L34.5028 34.0181C34.4007 33.9455 34.2215 33.848 34.065 33.7731H34.5073V33.5734H34.1262V33.4237H34.437V33.2263H34.1262V33.1061H33.8698V33.2263H33.6067V33.1061H33.3571V33.2263H33.0531V33.4237H33.3571V33.5734H32.9873V33.7731H33.4184C33.3231 33.8457 33.1643 33.9092 33.0168 33.9546C33.0713 33.9909 33.162 34.068 33.2074 34.1134C33.0758 34.0816 32.976 34.0158 32.9147 33.9092V33.1832H32.4315V33.4305H32.6652V33.9319C32.579 34.009 32.4792 34.0839 32.3975 34.1429L32.5245 34.3992C32.6334 34.3017 32.7219 34.2132 32.8081 34.1225C32.9442 34.2994 33.1303 34.3652 33.4025 34.3765C33.6861 34.3902 34.1875 34.3856 34.4756 34.3697C34.4869 34.2971 34.5255 34.1792 34.555 34.1179C34.2374 34.1451 33.6816 34.152 33.4025 34.1383C33.3344 34.1361 33.2732 34.1293 33.2165 34.1157C33.3707 34.0521 33.5613 33.9478 33.6747 33.8411L33.4774 33.7731Z" fill="#2B3F53"/>
<path d="M35.6666 33.9546C35.6666 33.8684 35.7551 33.8162 35.8821 33.8162C35.9457 33.8162 36.0046 33.8253 36.0659 33.8434C36.0659 33.857 36.0659 33.8706 36.0659 33.882C36.0659 34.0158 36.0183 34.0884 35.8776 34.0884C35.7574 34.0884 35.6666 34.0476 35.6666 33.9546ZM36.3404 32.4754H36.016C36.0251 32.5185 36.0319 32.5888 36.0319 32.6251C36.0341 32.6728 36.0341 32.7635 36.0341 32.8747C35.982 32.877 35.9275 32.877 35.8753 32.877C35.7392 32.877 35.6076 32.8702 35.4783 32.8588L35.4806 33.1288C35.6122 33.1379 35.7438 33.1424 35.8753 33.1424C35.9275 33.1424 35.982 33.1401 36.0364 33.1401C36.0387 33.3012 36.0478 33.4668 36.0546 33.6052C36.0069 33.5984 35.957 33.5961 35.9048 33.5961C35.5963 33.5961 35.4012 33.7549 35.4012 33.9863C35.4012 34.2245 35.5963 34.3561 35.9094 34.3561C36.2179 34.3561 36.3404 34.2019 36.3518 33.9841C36.4425 34.0453 36.5355 34.1225 36.6308 34.2109L36.7828 33.9727C36.6762 33.8752 36.5332 33.7572 36.3427 33.6801C36.3336 33.5258 36.3223 33.3443 36.3177 33.1243C36.4425 33.1152 36.5627 33.1016 36.6739 33.0857V32.8066C36.5627 32.8293 36.4425 32.8452 36.32 32.8566C36.32 32.7567 36.3245 32.6705 36.3268 32.6206C36.3291 32.573 36.3336 32.5185 36.3404 32.4754ZM35.2333 32.4981L34.9202 32.4731C34.918 32.5457 34.9066 32.632 34.8998 32.6955C34.8726 32.8702 34.8045 33.2989 34.8045 33.6415C34.8045 33.9478 34.8476 34.2087 34.8953 34.3652L35.1494 34.3471C35.1471 34.3153 35.1471 34.2767 35.1471 34.2518C35.1448 34.2291 35.1516 34.1792 35.1584 34.1474C35.1834 34.0226 35.2583 33.7935 35.3218 33.6052L35.1811 33.4963C35.1494 33.5712 35.1108 33.6483 35.0813 33.7277C35.0745 33.6823 35.0722 33.6234 35.0722 33.5803C35.0722 33.3534 35.1448 32.8543 35.1789 32.7023C35.1879 32.6614 35.2152 32.5457 35.2333 32.4981ZM36.5264 32.3847L36.3722 32.4323C36.4175 32.5231 36.4561 32.6478 36.4879 32.7454L36.6467 32.6932C36.6195 32.6047 36.5695 32.4731 36.5264 32.3847ZM36.7601 32.3121L36.6058 32.3597C36.6512 32.4505 36.6943 32.573 36.7283 32.6705L36.8849 32.6206C36.8554 32.5344 36.8032 32.4006 36.7601 32.3121Z" fill="#2B3F53"/>
<path d="M37.5859 32.5888C37.5859 32.6138 37.5814 32.6773 37.5768 32.7635C37.4793 32.7771 37.3794 32.7885 37.3137 32.793C37.2343 32.7976 37.1821 32.7976 37.1163 32.7953L37.1458 33.0857C37.2728 33.0675 37.4475 33.0448 37.5587 33.0312C37.5564 33.0857 37.5519 33.1401 37.5473 33.1923C37.418 33.3829 37.1911 33.6823 37.0618 33.8411L37.2411 34.0884C37.3205 33.9818 37.4316 33.8162 37.5269 33.6733C37.5246 33.8638 37.5224 33.9954 37.5178 34.1724C37.5178 34.2087 37.5156 34.2881 37.511 34.3402H37.8241C37.8173 34.2881 37.8105 34.2064 37.8082 34.1656C37.7946 33.9523 37.7946 33.7617 37.7946 33.5757C37.7946 33.5167 37.7969 33.4555 37.7991 33.392C37.9852 33.1878 38.2302 32.9791 38.3981 32.9791C38.4934 32.9791 38.5523 33.0358 38.5523 33.1469C38.5523 33.3534 38.4707 33.6869 38.4707 33.9319C38.4707 34.152 38.5841 34.2745 38.7542 34.2745C38.938 34.2745 39.0764 34.2041 39.1808 34.1066L39.1445 33.7867C39.0401 33.8911 38.9335 33.95 38.8495 33.95C38.7928 33.95 38.7633 33.9069 38.7633 33.848C38.7633 33.6143 38.8382 33.2808 38.8382 33.0448C38.8382 32.8543 38.727 32.7091 38.482 32.7091C38.262 32.7091 38.0011 32.8928 37.8218 33.0494C37.8241 33.0312 37.8241 33.0154 37.8264 32.9995C37.8649 32.9405 37.9103 32.8656 37.9421 32.8248L37.8581 32.7159C37.874 32.5752 37.8944 32.4595 37.908 32.396L37.5768 32.3847C37.5882 32.455 37.5859 32.5231 37.5859 32.5888Z" fill="#2B3F53"/>
<path d="M40.1676 33.9568C40.1676 33.9001 40.2221 33.848 40.3083 33.848C40.4308 33.848 40.5147 33.9432 40.5283 34.0907C40.4875 34.0952 40.4444 34.0975 40.3968 34.0975C40.2606 34.0975 40.1676 34.0408 40.1676 33.9568ZM39.7819 32.4958L39.791 32.7908C39.8432 32.784 39.9158 32.7771 39.9771 32.7726C40.0973 32.7658 40.4104 32.7522 40.5261 32.7499C40.4149 32.8475 40.179 33.038 40.0519 33.1424C39.9181 33.2536 39.6436 33.485 39.4825 33.6143L39.6889 33.8275C39.9317 33.5508 40.1585 33.367 40.5056 33.367C40.7733 33.367 40.9775 33.5054 40.9775 33.7096C40.9775 33.848 40.914 33.9523 40.7892 34.0181C40.7575 33.8026 40.5873 33.6302 40.306 33.6302C40.0655 33.6302 39.8999 33.8003 39.8999 33.9841C39.8999 34.2109 40.1381 34.3561 40.4535 34.3561C41.0025 34.3561 41.2747 34.0725 41.2747 33.7141C41.2747 33.3829 40.9821 33.1424 40.5964 33.1424C40.5238 33.1424 40.4557 33.1492 40.3809 33.1674C40.5238 33.0539 40.762 32.8543 40.8845 32.7681C40.9367 32.7295 40.9911 32.6977 41.0433 32.6637L40.8959 32.4618C40.8686 32.4709 40.8165 32.4777 40.7234 32.4868C40.5941 32.4981 40.1086 32.5072 39.9884 32.5072C39.9249 32.5072 39.8455 32.5049 39.7819 32.4958Z" fill="#2B3F53"/>
<defs>
<linearGradient id="paint0_linear_242_3681" x1="0.27832" y1="9.63073" x2="43.1259" y2="-12.2398" gradientUnits="userSpaceOnUse">
<stop stop-color="#C83467"/>
<stop offset="1" stop-color="#FE315C"/>
</linearGradient>
</defs>
</svg>
