<?xml version="1.0" encoding="UTF-8" standalone="no"?><svg width="44" height="36" viewBox="0 0 44 36" fill="none" xmlns="http://www.w3.org/2000/svg">
<path fill-rule="evenodd" clip-rule="evenodd" d="M2.69283 33.6075H2.48682V33.5044H2.69283V33.6075ZM3.31089 33.6075H2.89885V33.5044H3.31089V33.6075ZM3.92894 33.6075H3.51691V33.5044H3.92894V33.6075ZM4.54699 33.6075H4.13496V33.5044H4.54699V33.6075ZM5.16505 33.6075H4.75301V33.5044H5.16505V33.6075ZM5.7831 33.6075H5.37107V33.5044H5.7831V33.6075ZM6.40116 33.6075H5.98912V33.5044H6.40116V33.6075ZM7.01921 33.6075H6.60717V33.5044H7.01921V33.6075ZM7.63726 33.6075H7.22523V33.5044H7.63726V33.6075ZM8.25532 33.6075H7.84328V33.5044H8.25532V33.6075ZM8.87337 33.6075H8.46133V33.5044H8.87337V33.6075ZM9.49142 33.6075H9.07939V33.5044H9.49142V33.6075ZM10.1095 33.6075H9.69744V33.5044H10.1095V33.6075ZM10.7275 33.6075H10.3155V33.5044H10.7275V33.6075ZM11.3456 33.6075H10.9335V33.5044H11.3456V33.6075ZM11.9636 33.6075H11.5516V33.5044H11.9636V33.6075ZM12.5817 33.6075H12.1697V33.5044H12.5817V33.6075ZM13.1997 33.6075H12.7877V33.5044H13.1997V33.6075ZM13.8178 33.6075H13.4058V33.5044H13.8178V33.6075ZM14.4359 33.6075H14.0238V33.5044H14.4359V33.6075ZM15.0539 33.6075H14.6419V33.5044H15.0539V33.6075ZM15.672 33.6075H15.2599V33.5044H15.672V33.6075ZM16.29 33.6075H15.878V33.5044H16.29V33.6075ZM16.9081 33.6075H16.496V33.5044H16.9081V33.6075ZM17.5261 33.6075H17.1141V33.5044H17.5261V33.6075ZM18.1442 33.6075H17.7321V33.5044H18.1442V33.6075ZM18.7622 33.6075H18.3502V33.5044H18.7622V33.6075ZM19.3803 33.6075H18.9682V33.5044H19.3803V33.6075ZM19.9983 33.6075H19.5863V33.5044H19.9983V33.6075ZM20.6164 33.6075H20.2043V33.5044H20.6164V33.6075ZM21.2344 33.6075H20.8224V33.5044H21.2344V33.6075ZM21.8525 33.6075H21.4405V33.5044H21.8525V33.6075ZM22.4705 33.6075H22.0585V33.5044H22.4705V33.6075ZM23.0886 33.6075H22.6766V33.5044H23.0886V33.6075ZM23.7067 33.6075H23.2946V33.5044H23.7067V33.6075ZM24.3247 33.6075H23.9127V33.5044H24.3247V33.6075ZM24.9428 33.6075H24.5307V33.5044H24.9428V33.6075ZM25.5608 33.6075H25.1488V33.5044H25.5608V33.6075ZM26.1789 33.6075H25.7668V33.5044H26.1789V33.6075ZM26.7969 33.6075H26.3849V33.5044H26.7969V33.6075ZM27.415 33.6075H27.0029V33.5044H27.415V33.6075ZM28.033 33.6075H27.621V33.5044H28.033V33.6075ZM28.6511 33.6075H28.239V33.5044H28.6511V33.6075ZM29.2691 33.6075H28.8571V33.5044H29.2691V33.6075ZM29.8872 33.6075H29.4752V33.5044H29.8872V33.6075ZM30.5052 33.6075H30.0932V33.5044H30.5052V33.6075ZM31.1233 33.6075H30.7113V33.5044H31.1233V33.6075ZM31.7413 33.6075H31.3293V33.5044H31.7413V33.6075ZM32.3594 33.6075H31.9474V33.5044H32.3594V33.6075ZM32.9774 33.6075H32.5654V33.5044H32.9774V33.6075ZM33.5955 33.6075H33.1835V33.5044H33.5955V33.6075ZM34.2135 33.6075H33.8015V33.5044H34.2135V33.6075ZM34.8316 33.6075H34.4196V33.5044H34.8316V33.6075ZM35.4497 33.6075H35.0376V33.5044H35.4497V33.6075ZM36.0677 33.6075H35.6557V33.5044H36.0677V33.6075ZM36.6858 33.6075H36.2737V33.5044H36.6858V33.6075ZM37.3038 33.6075H36.8918V33.5044H37.3038V33.6075ZM37.9219 33.6075H37.5098V33.5044H37.9219V33.6075ZM38.5399 33.6075H38.1279V33.5044H38.5399V33.6075ZM39.158 33.6075H38.7459V33.5044H39.158V33.6075ZM39.776 33.6075H39.364V33.5044H39.776V33.6075ZM40.3941 33.6075H39.982V33.5044H40.3941V33.6075ZM41.0121 33.6075H40.6001V33.5044H41.0121V33.6075ZM41.6302 33.6075H41.2181V33.5044H41.6302V33.6075ZM42.2482 33.6075H41.8362V33.5044H42.2482V33.6075ZM42.8663 33.6075H42.4542V33.5044H42.8663V33.6075ZM43.2783 33.6075H43.0723V33.5044H43.2783V33.6075Z" fill="#C2CAD3"/>
<path fill-rule="evenodd" clip-rule="evenodd" d="M2.69283 26.4502H2.48682V26.3472H2.69283V26.4502ZM3.31089 26.4502H2.89885V26.3472H3.31089V26.4502ZM3.92894 26.4502H3.51691V26.3472H3.92894V26.4502ZM4.54699 26.4502H4.13496V26.3472H4.54699V26.4502ZM5.16505 26.4502H4.75301V26.3472H5.16505V26.4502ZM5.7831 26.4502H5.37107V26.3472H5.7831V26.4502ZM6.40116 26.4502H5.98912V26.3472H6.40116V26.4502ZM7.01921 26.4502H6.60717V26.3472H7.01921V26.4502ZM7.63726 26.4502H7.22523V26.3472H7.63726V26.4502ZM8.25532 26.4502H7.84328V26.3472H8.25532V26.4502ZM8.87337 26.4502H8.46133V26.3472H8.87337V26.4502ZM9.49142 26.4502H9.07939V26.3472H9.49142V26.4502ZM10.1095 26.4502H9.69744V26.3472H10.1095V26.4502ZM10.7275 26.4502H10.3155V26.3472H10.7275V26.4502ZM11.3456 26.4502H10.9335V26.3472H11.3456V26.4502ZM11.9636 26.4502H11.5516V26.3472H11.9636V26.4502ZM12.5817 26.4502H12.1697V26.3472H12.5817V26.4502ZM13.1997 26.4502H12.7877V26.3472H13.1997V26.4502ZM13.8178 26.4502H13.4058V26.3472H13.8178V26.4502ZM14.4359 26.4502H14.0238V26.3472H14.4359V26.4502ZM15.0539 26.4502H14.6419V26.3472H15.0539V26.4502ZM15.672 26.4502H15.2599V26.3472H15.672V26.4502ZM16.29 26.4502H15.878V26.3472H16.29V26.4502ZM16.9081 26.4502H16.496V26.3472H16.9081V26.4502ZM17.5261 26.4502H17.1141V26.3472H17.5261V26.4502ZM18.1442 26.4502H17.7321V26.3472H18.1442V26.4502ZM18.7622 26.4502H18.3502V26.3472H18.7622V26.4502ZM19.3803 26.4502H18.9682V26.3472H19.3803V26.4502ZM19.9983 26.4502H19.5863V26.3472H19.9983V26.4502ZM20.6164 26.4502H20.2043V26.3472H20.6164V26.4502ZM21.2344 26.4502H20.8224V26.3472H21.2344V26.4502ZM21.8525 26.4502H21.4405V26.3472H21.8525V26.4502ZM22.4705 26.4502H22.0585V26.3472H22.4705V26.4502ZM23.0886 26.4502H22.6766V26.3472H23.0886V26.4502ZM23.7067 26.4502H23.2946V26.3472H23.7067V26.4502ZM24.3247 26.4502H23.9127V26.3472H24.3247V26.4502ZM24.9428 26.4502H24.5307V26.3472H24.9428V26.4502ZM25.5608 26.4502H25.1488V26.3472H25.5608V26.4502ZM26.1789 26.4502H25.7668V26.3472H26.1789V26.4502ZM26.7969 26.4502H26.3849V26.3472H26.7969V26.4502ZM27.415 26.4502H27.0029V26.3472H27.415V26.4502ZM28.033 26.4502H27.621V26.3472H28.033V26.4502ZM28.6511 26.4502H28.239V26.3472H28.6511V26.4502ZM29.2691 26.4502H28.8571V26.3472H29.2691V26.4502ZM29.8872 26.4502H29.4752V26.3472H29.8872V26.4502ZM30.5052 26.4502H30.0932V26.3472H30.5052V26.4502ZM31.1233 26.4502H30.7113V26.3472H31.1233V26.4502ZM31.7413 26.4502H31.3293V26.3472H31.7413V26.4502ZM32.3594 26.4502H31.9474V26.3472H32.3594V26.4502ZM32.9774 26.4502H32.5654V26.3472H32.9774V26.4502ZM33.5955 26.4502H33.1835V26.3472H33.5955V26.4502ZM34.2135 26.4502H33.8015V26.3472H34.2135V26.4502ZM34.8316 26.4502H34.4196V26.3472H34.8316V26.4502ZM35.4497 26.4502H35.0376V26.3472H35.4497V26.4502ZM36.0677 26.4502H35.6557V26.3472H36.0677V26.4502ZM36.6858 26.4502H36.2737V26.3472H36.6858V26.4502ZM37.3038 26.4502H36.8918V26.3472H37.3038V26.4502ZM37.9219 26.4502H37.5098V26.3472H37.9219V26.4502ZM38.5399 26.4502H38.1279V26.3472H38.5399V26.4502ZM39.158 26.4502H38.7459V26.3472H39.158V26.4502ZM39.776 26.4502H39.364V26.3472H39.776V26.4502ZM40.3941 26.4502H39.982V26.3472H40.3941V26.4502ZM41.0121 26.4502H40.6001V26.3472H41.0121V26.4502ZM41.6302 26.4502H41.2181V26.3472H41.6302V26.4502ZM42.2482 26.4502H41.8362V26.3472H42.2482V26.4502ZM42.8663 26.4502H42.4542V26.3472H42.8663V26.4502ZM43.2783 26.4502H43.0723V26.3472H43.2783V26.4502Z" fill="#C2CAD3"/>
<path fill-rule="evenodd" clip-rule="evenodd" d="M2.69283 19.2935H2.48682V19.1904H2.69283V19.2935ZM3.31089 19.2935H2.89885V19.1904H3.31089V19.2935ZM3.92894 19.2935H3.51691V19.1904H3.92894V19.2935ZM4.54699 19.2935H4.13496V19.1904H4.54699V19.2935ZM5.16505 19.2935H4.75301V19.1904H5.16505V19.2935ZM5.7831 19.2935H5.37107V19.1904H5.7831V19.2935ZM6.40116 19.2935H5.98912V19.1904H6.40116V19.2935ZM7.01921 19.2935H6.60717V19.1904H7.01921V19.2935ZM7.63726 19.2935H7.22523V19.1904H7.63726V19.2935ZM8.25532 19.2935H7.84328V19.1904H8.25532V19.2935ZM8.87337 19.2935H8.46133V19.1904H8.87337V19.2935ZM9.49142 19.2935H9.07939V19.1904H9.49142V19.2935ZM10.1095 19.2935H9.69744V19.1904H10.1095V19.2935ZM10.7275 19.2935H10.3155V19.1904H10.7275V19.2935ZM11.3456 19.2935H10.9335V19.1904H11.3456V19.2935ZM11.9636 19.2935H11.5516V19.1904H11.9636V19.2935ZM12.5817 19.2935H12.1697V19.1904H12.5817V19.2935ZM13.1997 19.2935H12.7877V19.1904H13.1997V19.2935ZM13.8178 19.2935H13.4058V19.1904H13.8178V19.2935ZM14.4359 19.2935H14.0238V19.1904H14.4359V19.2935ZM15.0539 19.2935H14.6419V19.1904H15.0539V19.2935ZM15.672 19.2935H15.2599V19.1904H15.672V19.2935ZM16.29 19.2935H15.878V19.1904H16.29V19.2935ZM16.9081 19.2935H16.496V19.1904H16.9081V19.2935ZM17.5261 19.2935H17.1141V19.1904H17.5261V19.2935ZM18.1442 19.2935H17.7321V19.1904H18.1442V19.2935ZM18.7622 19.2935H18.3502V19.1904H18.7622V19.2935ZM19.3803 19.2935H18.9682V19.1904H19.3803V19.2935ZM19.9983 19.2935H19.5863V19.1904H19.9983V19.2935ZM20.6164 19.2935H20.2043V19.1904H20.6164V19.2935ZM21.2344 19.2935H20.8224V19.1904H21.2344V19.2935ZM21.8525 19.2935H21.4405V19.1904H21.8525V19.2935ZM22.4705 19.2935H22.0585V19.1904H22.4705V19.2935ZM23.0886 19.2935H22.6766V19.1904H23.0886V19.2935ZM23.7067 19.2935H23.2946V19.1904H23.7067V19.2935ZM24.3247 19.2935H23.9127V19.1904H24.3247V19.2935ZM24.9428 19.2935H24.5307V19.1904H24.9428V19.2935ZM25.5608 19.2935H25.1488V19.1904H25.5608V19.2935ZM26.1789 19.2935H25.7668V19.1904H26.1789V19.2935ZM26.7969 19.2935H26.3849V19.1904H26.7969V19.2935ZM27.415 19.2935H27.0029V19.1904H27.415V19.2935ZM28.033 19.2935H27.621V19.1904H28.033V19.2935ZM28.6511 19.2935H28.239V19.1904H28.6511V19.2935ZM29.2691 19.2935H28.8571V19.1904H29.2691V19.2935ZM29.8872 19.2935H29.4752V19.1904H29.8872V19.2935ZM30.5052 19.2935H30.0932V19.1904H30.5052V19.2935ZM31.1233 19.2935H30.7113V19.1904H31.1233V19.2935ZM31.7413 19.2935H31.3293V19.1904H31.7413V19.2935ZM32.3594 19.2935H31.9474V19.1904H32.3594V19.2935ZM32.9774 19.2935H32.5654V19.1904H32.9774V19.2935ZM33.5955 19.2935H33.1835V19.1904H33.5955V19.2935ZM34.2135 19.2935H33.8015V19.1904H34.2135V19.2935ZM34.8316 19.2935H34.4196V19.1904H34.8316V19.2935ZM35.4497 19.2935H35.0376V19.1904H35.4497V19.2935ZM36.0677 19.2935H35.6557V19.1904H36.0677V19.2935ZM36.6858 19.2935H36.2737V19.1904H36.6858V19.2935ZM37.3038 19.2935H36.8918V19.1904H37.3038V19.2935ZM37.9219 19.2935H37.5098V19.1904H37.9219V19.2935ZM38.5399 19.2935H38.1279V19.1904H38.5399V19.2935ZM39.158 19.2935H38.7459V19.1904H39.158V19.2935ZM39.776 19.2935H39.364V19.1904H39.776V19.2935ZM40.3941 19.2935H39.982V19.1904H40.3941V19.2935ZM41.0121 19.2935H40.6001V19.1904H41.0121V19.2935ZM41.6302 19.2935H41.2181V19.1904H41.6302V19.2935ZM42.2482 19.2935H41.8362V19.1904H42.2482V19.2935ZM42.8663 19.2935H42.4542V19.1904H42.8663V19.2935ZM43.2783 19.2935H43.0723V19.1904H43.2783V19.2935Z" fill="#C2CAD3"/>
<path fill-rule="evenodd" clip-rule="evenodd" d="M2.69283 12.1363H2.48682V12.0332H2.69283V12.1363ZM3.31089 12.1363H2.89885V12.0332H3.31089V12.1363ZM3.92894 12.1363H3.51691V12.0332H3.92894V12.1363ZM4.54699 12.1363H4.13496V12.0332H4.54699V12.1363ZM5.16505 12.1363H4.75301V12.0332H5.16505V12.1363ZM5.7831 12.1363H5.37107V12.0332H5.7831V12.1363ZM6.40116 12.1363H5.98912V12.0332H6.40116V12.1363ZM7.01921 12.1363H6.60717V12.0332H7.01921V12.1363ZM7.63726 12.1363H7.22523V12.0332H7.63726V12.1363ZM8.25532 12.1363H7.84328V12.0332H8.25532V12.1363ZM8.87337 12.1363H8.46133V12.0332H8.87337V12.1363ZM9.49142 12.1363H9.07939V12.0332H9.49142V12.1363ZM10.1095 12.1363H9.69744V12.0332H10.1095V12.1363ZM10.7275 12.1363H10.3155V12.0332H10.7275V12.1363ZM11.3456 12.1363H10.9335V12.0332H11.3456V12.1363ZM11.9636 12.1363H11.5516V12.0332H11.9636V12.1363ZM12.5817 12.1363H12.1697V12.0332H12.5817V12.1363ZM13.1997 12.1363H12.7877V12.0332H13.1997V12.1363ZM13.8178 12.1363H13.4058V12.0332H13.8178V12.1363ZM14.4359 12.1363H14.0238V12.0332H14.4359V12.1363ZM15.0539 12.1363H14.6419V12.0332H15.0539V12.1363ZM15.672 12.1363H15.2599V12.0332H15.672V12.1363ZM16.29 12.1363H15.878V12.0332H16.29V12.1363ZM16.9081 12.1363H16.496V12.0332H16.9081V12.1363ZM17.5261 12.1363H17.1141V12.0332H17.5261V12.1363ZM18.1442 12.1363H17.7321V12.0332H18.1442V12.1363ZM18.7622 12.1363H18.3502V12.0332H18.7622V12.1363ZM19.3803 12.1363H18.9682V12.0332H19.3803V12.1363ZM19.9983 12.1363H19.5863V12.0332H19.9983V12.1363ZM20.6164 12.1363H20.2043V12.0332H20.6164V12.1363ZM21.2344 12.1363H20.8224V12.0332H21.2344V12.1363ZM21.8525 12.1363H21.4405V12.0332H21.8525V12.1363ZM22.4705 12.1363H22.0585V12.0332H22.4705V12.1363ZM23.0886 12.1363H22.6766V12.0332H23.0886V12.1363ZM23.7067 12.1363H23.2946V12.0332H23.7067V12.1363ZM24.3247 12.1363H23.9127V12.0332H24.3247V12.1363ZM24.9428 12.1363H24.5307V12.0332H24.9428V12.1363ZM25.5608 12.1363H25.1488V12.0332H25.5608V12.1363ZM26.1789 12.1363H25.7668V12.0332H26.1789V12.1363ZM26.7969 12.1363H26.3849V12.0332H26.7969V12.1363ZM27.415 12.1363H27.0029V12.0332H27.415V12.1363ZM28.033 12.1363H27.621V12.0332H28.033V12.1363ZM28.6511 12.1363H28.239V12.0332H28.6511V12.1363ZM29.2691 12.1363H28.8571V12.0332H29.2691V12.1363ZM29.8872 12.1363H29.4752V12.0332H29.8872V12.1363ZM30.5052 12.1363H30.0932V12.0332H30.5052V12.1363ZM31.1233 12.1363H30.7113V12.0332H31.1233V12.1363ZM31.7413 12.1363H31.3293V12.0332H31.7413V12.1363ZM32.3594 12.1363H31.9474V12.0332H32.3594V12.1363ZM32.9774 12.1363H32.5654V12.0332H32.9774V12.1363ZM33.5955 12.1363H33.1835V12.0332H33.5955V12.1363ZM34.2135 12.1363H33.8015V12.0332H34.2135V12.1363ZM34.8316 12.1363H34.4196V12.0332H34.8316V12.1363ZM35.4497 12.1363H35.0376V12.0332H35.4497V12.1363ZM36.0677 12.1363H35.6557V12.0332H36.0677V12.1363ZM36.6858 12.1363H36.2737V12.0332H36.6858V12.1363ZM37.3038 12.1363H36.8918V12.0332H37.3038V12.1363ZM37.9219 12.1363H37.5098V12.0332H37.9219V12.1363ZM38.5399 12.1363H38.1279V12.0332H38.5399V12.1363ZM39.158 12.1363H38.7459V12.0332H39.158V12.1363ZM39.776 12.1363H39.364V12.0332H39.776V12.1363ZM40.3941 12.1363H39.982V12.0332H40.3941V12.1363ZM41.0121 12.1363H40.6001V12.0332H41.0121V12.1363ZM41.6302 12.1363H41.2181V12.0332H41.6302V12.1363ZM42.2482 12.1363H41.8362V12.0332H42.2482V12.1363ZM42.8663 12.1363H42.4542V12.0332H42.8663V12.1363ZM43.2783 12.1363H43.0723V12.0332H43.2783V12.1363Z" fill="#C2CAD3"/>
<path fill-rule="evenodd" clip-rule="evenodd" d="M2.69283 4.97905H2.48682V4.87598H2.69283V4.97905ZM3.31089 4.97905H2.89885V4.87598H3.31089V4.97905ZM3.92894 4.97905H3.51691V4.87598H3.92894V4.97905ZM4.54699 4.97905H4.13496V4.87598H4.54699V4.97905ZM5.16505 4.97905H4.75301V4.87598H5.16505V4.97905ZM5.7831 4.97905H5.37107V4.87598H5.7831V4.97905ZM6.40116 4.97905H5.98912V4.87598H6.40116V4.97905ZM7.01921 4.97905H6.60717V4.87598H7.01921V4.97905ZM7.63726 4.97905H7.22523V4.87598H7.63726V4.97905ZM8.25532 4.97905H7.84328V4.87598H8.25532V4.97905ZM8.87337 4.97905H8.46133V4.87598H8.87337V4.97905ZM9.49142 4.97905H9.07939V4.87598H9.49142V4.97905ZM10.1095 4.97905H9.69744V4.87598H10.1095V4.97905ZM10.7275 4.97905H10.3155V4.87598H10.7275V4.97905ZM11.3456 4.97905H10.9335V4.87598H11.3456V4.97905ZM11.9636 4.97905H11.5516V4.87598H11.9636V4.97905ZM12.5817 4.97905H12.1697V4.87598H12.5817V4.97905ZM13.1997 4.97905H12.7877V4.87598H13.1997V4.97905ZM13.8178 4.97905H13.4058V4.87598H13.8178V4.97905ZM14.4359 4.97905H14.0238V4.87598H14.4359V4.97905ZM15.0539 4.97905H14.6419V4.87598H15.0539V4.97905ZM15.672 4.97905H15.2599V4.87598H15.672V4.97905ZM16.29 4.97905H15.878V4.87598H16.29V4.97905ZM16.9081 4.97905H16.496V4.87598H16.9081V4.97905ZM17.5261 4.97905H17.1141V4.87598H17.5261V4.97905ZM18.1442 4.97905H17.7321V4.87598H18.1442V4.97905ZM18.7622 4.97905H18.3502V4.87598H18.7622V4.97905ZM19.3803 4.97905H18.9682V4.87598H19.3803V4.97905ZM19.9983 4.97905H19.5863V4.87598H19.9983V4.97905ZM20.6164 4.97905H20.2043V4.87598H20.6164V4.97905ZM21.2344 4.97905H20.8224V4.87598H21.2344V4.97905ZM21.8525 4.97905H21.4405V4.87598H21.8525V4.97905ZM22.4705 4.97905H22.0585V4.87598H22.4705V4.97905ZM23.0886 4.97905H22.6766V4.87598H23.0886V4.97905ZM23.7067 4.97905H23.2946V4.87598H23.7067V4.97905ZM24.3247 4.97905H23.9127V4.87598H24.3247V4.97905ZM24.9428 4.97905H24.5307V4.87598H24.9428V4.97905ZM25.5608 4.97905H25.1488V4.87598H25.5608V4.97905ZM26.1789 4.97905H25.7668V4.87598H26.1789V4.97905ZM26.7969 4.97905H26.3849V4.87598H26.7969V4.97905ZM27.415 4.97905H27.0029V4.87598H27.415V4.97905ZM28.033 4.97905H27.621V4.87598H28.033V4.97905ZM28.6511 4.97905H28.239V4.87598H28.6511V4.97905ZM29.2691 4.97905H28.8571V4.87598H29.2691V4.97905ZM29.8872 4.97905H29.4752V4.87598H29.8872V4.97905ZM30.5052 4.97905H30.0932V4.87598H30.5052V4.97905ZM31.1233 4.97905H30.7113V4.87598H31.1233V4.97905ZM31.7413 4.97905H31.3293V4.87598H31.7413V4.97905ZM32.3594 4.97905H31.9474V4.87598H32.3594V4.97905ZM32.9774 4.97905H32.5654V4.87598H32.9774V4.97905ZM33.5955 4.97905H33.1835V4.87598H33.5955V4.97905ZM34.2135 4.97905H33.8015V4.87598H34.2135V4.97905ZM34.8316 4.97905H34.4196V4.87598H34.8316V4.97905ZM35.4497 4.97905H35.0376V4.87598H35.4497V4.97905ZM36.0677 4.97905H35.6557V4.87598H36.0677V4.97905ZM36.6858 4.97905H36.2737V4.87598H36.6858V4.97905ZM37.3038 4.97905H36.8918V4.87598H37.3038V4.97905ZM37.9219 4.97905H37.5098V4.87598H37.9219V4.97905ZM38.5399 4.97905H38.1279V4.87598H38.5399V4.97905ZM39.158 4.97905H38.7459V4.87598H39.158V4.97905ZM39.776 4.97905H39.364V4.87598H39.776V4.97905ZM40.3941 4.97905H39.982V4.87598H40.3941V4.97905ZM41.0121 4.97905H40.6001V4.87598H41.0121V4.97905ZM41.6302 4.97905H41.2181V4.87598H41.6302V4.97905ZM42.2482 4.97905H41.8362V4.87598H42.2482V4.97905ZM42.8663 4.97905H42.4542V4.87598H42.8663V4.97905ZM43.2783 4.97905H43.0723V4.87598H43.2783V4.97905Z" fill="#C2CAD3"/>
<path fill-rule="evenodd" clip-rule="evenodd" d="M2.48682 5.08418V4.87598H2.58989V5.08418H2.48682ZM2.48682 5.70877V5.29237H2.58989V5.70877H2.48682ZM2.48682 6.33337V5.91697H2.58989V6.33337H2.48682ZM2.48682 6.95797V6.54157H2.58989V6.95797H2.48682ZM2.48682 7.58256V7.16617H2.58989V7.58256H2.48682ZM2.48682 8.20716V7.79076H2.58989V8.20716H2.48682ZM2.48682 8.83176V8.41536H2.58989V8.83176H2.48682ZM2.48682 9.45636V9.03996H2.58989V9.45636H2.48682ZM2.48682 10.081V9.66456H2.58989V10.081H2.48682ZM2.48682 10.7056V10.2892H2.58989V10.7056H2.48682ZM2.48682 11.3301V10.9137H2.58989V11.3301H2.48682ZM2.48682 11.9547V11.5383H2.58989V11.9547H2.48682ZM2.48682 12.5793V12.1629H2.58989V12.5793H2.48682ZM2.48682 13.2039V12.7875H2.58989V13.2039H2.48682ZM2.48682 13.8285V13.4121H2.58989V13.8285H2.48682ZM2.48682 14.4531V14.0367H2.58989V14.4531H2.48682ZM2.48682 15.0777V14.6613H2.58989V15.0777H2.48682ZM2.48682 15.7023V15.2859H2.58989V15.7023H2.48682ZM2.48682 16.3269V15.9105H2.58989V16.3269H2.48682ZM2.48682 16.9515V16.5351H2.58989V16.9515H2.48682ZM2.48682 17.5761V17.1597H2.58989V17.5761H2.48682ZM2.48682 18.2007V17.7843H2.58989V18.2007H2.48682ZM2.48682 18.8253V18.4089H2.58989V18.8253H2.48682ZM2.48682 19.4499V19.0335H2.58989V19.4499H2.48682ZM2.48682 20.0745V19.6581H2.58989V20.0745H2.48682ZM2.48682 20.6991V20.2827H2.58989V20.6991H2.48682ZM2.48682 21.3237V20.9073H2.58989V21.3237H2.48682ZM2.48682 21.9483V21.5319H2.58989V21.9483H2.48682ZM2.48682 22.5729V22.1565H2.58989V22.5729H2.48682ZM2.48682 23.1975V22.7811H2.58989V23.1975H2.48682ZM2.48682 23.8221V23.4057H2.58989V23.8221H2.48682ZM2.48682 24.4467V24.0303H2.58989V24.4467H2.48682ZM2.48682 25.0713V24.6549H2.58989V25.0713H2.48682ZM2.48682 25.6959V25.2795H2.58989V25.6959H2.48682ZM2.48682 26.3205V25.9041H2.58989V26.3205H2.48682ZM2.48682 26.9451V26.5287H2.58989V26.9451H2.48682ZM2.48682 27.5697V27.1533H2.58989V27.5697H2.48682ZM2.48682 28.1943V27.7779H2.58989V28.1943H2.48682ZM2.48682 28.8189V28.4025H2.58989V28.8189H2.48682ZM2.48682 29.4435V29.0271H2.58989V29.4435H2.48682ZM2.48682 30.0681V29.6517H2.58989V30.0681H2.48682ZM2.48682 30.6927V30.2763H2.58989V30.6927H2.48682ZM2.48682 31.3173V30.9009H2.58989V31.3173H2.48682ZM2.48682 31.9419V31.5255H2.58989V31.9419H2.48682ZM2.48682 32.5665V32.1501H2.58989V32.5665H2.48682ZM2.48682 33.1911V32.7747H2.58989V33.1911H2.48682ZM2.48682 33.6074V33.3993H2.58989V33.6074H2.48682Z" fill="#C2CAD3"/>
<path fill-rule="evenodd" clip-rule="evenodd" d="M12.6587 5.08418V4.87598H12.7618V5.08418H12.6587ZM12.6587 5.70877V5.29237H12.7618V5.70877H12.6587ZM12.6587 6.33337V5.91697H12.7618V6.33337H12.6587ZM12.6587 6.95797V6.54157H12.7618V6.95797H12.6587ZM12.6587 7.58256V7.16617H12.7618V7.58256H12.6587ZM12.6587 8.20716V7.79076H12.7618V8.20716H12.6587ZM12.6587 8.83176V8.41536H12.7618V8.83176H12.6587ZM12.6587 9.45636V9.03996H12.7618V9.45636H12.6587ZM12.6587 10.081V9.66456H12.7618V10.081H12.6587ZM12.6587 10.7056V10.2892H12.7618V10.7056H12.6587ZM12.6587 11.3301V10.9137H12.7618V11.3301H12.6587ZM12.6587 11.9547V11.5383H12.7618V11.9547H12.6587ZM12.6587 12.5793V12.1629H12.7618V12.5793H12.6587ZM12.6587 13.2039V12.7875H12.7618V13.2039H12.6587ZM12.6587 13.8285V13.4121H12.7618V13.8285H12.6587ZM12.6587 14.4531V14.0367H12.7618V14.4531H12.6587ZM12.6587 15.0777V14.6613H12.7618V15.0777H12.6587ZM12.6587 15.7023V15.2859H12.7618V15.7023H12.6587ZM12.6587 16.3269V15.9105H12.7618V16.3269H12.6587ZM12.6587 16.9515V16.5351H12.7618V16.9515H12.6587ZM12.6587 17.5761V17.1597H12.7618V17.5761H12.6587ZM12.6587 18.2007V17.7843H12.7618V18.2007H12.6587ZM12.6587 18.8253V18.4089H12.7618V18.8253H12.6587ZM12.6587 19.4499V19.0335H12.7618V19.4499H12.6587ZM12.6587 20.0745V19.6581H12.7618V20.0745H12.6587ZM12.6587 20.6991V20.2827H12.7618V20.6991H12.6587ZM12.6587 21.3237V20.9073H12.7618V21.3237H12.6587ZM12.6587 21.9483V21.5319H12.7618V21.9483H12.6587ZM12.6587 22.5729V22.1565H12.7618V22.5729H12.6587ZM12.6587 23.1975V22.7811H12.7618V23.1975H12.6587ZM12.6587 23.8221V23.4057H12.7618V23.8221H12.6587ZM12.6587 24.4467V24.0303H12.7618V24.4467H12.6587ZM12.6587 25.0713V24.6549H12.7618V25.0713H12.6587ZM12.6587 25.6959V25.2795H12.7618V25.6959H12.6587ZM12.6587 26.3205V25.9041H12.7618V26.3205H12.6587ZM12.6587 26.9451V26.5287H12.7618V26.9451H12.6587ZM12.6587 27.5697V27.1533H12.7618V27.5697H12.6587ZM12.6587 28.1943V27.7779H12.7618V28.1943H12.6587ZM12.6587 28.8189V28.4025H12.7618V28.8189H12.6587ZM12.6587 29.4435V29.0271H12.7618V29.4435H12.6587ZM12.6587 30.0681V29.6517H12.7618V30.0681H12.6587ZM12.6587 30.6927V30.2763H12.7618V30.6927H12.6587ZM12.6587 31.3173V30.9009H12.7618V31.3173H12.6587ZM12.6587 31.9419V31.5255H12.7618V31.9419H12.6587ZM12.6587 32.5665V32.1501H12.7618V32.5665H12.6587ZM12.6587 33.1911V32.7747H12.7618V33.1911H12.6587ZM12.6587 33.6074V33.3993H12.7618V33.6074H12.6587Z" fill="#C2CAD3"/>
<path fill-rule="evenodd" clip-rule="evenodd" d="M22.8311 5.08418V4.87598H22.9341V5.08418H22.8311ZM22.8311 5.70877V5.29237H22.9341V5.70877H22.8311ZM22.8311 6.33337V5.91697H22.9341V6.33337H22.8311ZM22.8311 6.95797V6.54157H22.9341V6.95797H22.8311ZM22.8311 7.58256V7.16617H22.9341V7.58256H22.8311ZM22.8311 8.20716V7.79076H22.9341V8.20716H22.8311ZM22.8311 8.83176V8.41536H22.9341V8.83176H22.8311ZM22.8311 9.45636V9.03996H22.9341V9.45636H22.8311ZM22.8311 10.081V9.66456H22.9341V10.081H22.8311ZM22.8311 10.7056V10.2892H22.9341V10.7056H22.8311ZM22.8311 11.3301V10.9137H22.9341V11.3301H22.8311ZM22.8311 11.9547V11.5383H22.9341V11.9547H22.8311ZM22.8311 12.5793V12.1629H22.9341V12.5793H22.8311ZM22.8311 13.2039V12.7875H22.9341V13.2039H22.8311ZM22.8311 13.8285V13.4121H22.9341V13.8285H22.8311ZM22.8311 14.4531V14.0367H22.9341V14.4531H22.8311ZM22.8311 15.0777V14.6613H22.9341V15.0777H22.8311ZM22.8311 15.7023V15.2859H22.9341V15.7023H22.8311ZM22.8311 16.3269V15.9105H22.9341V16.3269H22.8311ZM22.8311 16.9515V16.5351H22.9341V16.9515H22.8311ZM22.8311 17.5761V17.1597H22.9341V17.5761H22.8311ZM22.8311 18.2007V17.7843H22.9341V18.2007H22.8311ZM22.8311 18.8253V18.4089H22.9341V18.8253H22.8311ZM22.8311 19.4499V19.0335H22.9341V19.4499H22.8311ZM22.8311 20.0745V19.6581H22.9341V20.0745H22.8311ZM22.8311 20.6991V20.2827H22.9341V20.6991H22.8311ZM22.8311 21.3237V20.9073H22.9341V21.3237H22.8311ZM22.8311 21.9483V21.5319H22.9341V21.9483H22.8311ZM22.8311 22.5729V22.1565H22.9341V22.5729H22.8311ZM22.8311 23.1975V22.7811H22.9341V23.1975H22.8311ZM22.8311 23.8221V23.4057H22.9341V23.8221H22.8311ZM22.8311 24.4467V24.0303H22.9341V24.4467H22.8311ZM22.8311 25.0713V24.6549H22.9341V25.0713H22.8311ZM22.8311 25.6959V25.2795H22.9341V25.6959H22.8311ZM22.8311 26.3205V25.9041H22.9341V26.3205H22.8311ZM22.8311 26.9451V26.5287H22.9341V26.9451H22.8311ZM22.8311 27.5697V27.1533H22.9341V27.5697H22.8311ZM22.8311 28.1943V27.7779H22.9341V28.1943H22.8311ZM22.8311 28.8189V28.4025H22.9341V28.8189H22.8311ZM22.8311 29.4435V29.0271H22.9341V29.4435H22.8311ZM22.8311 30.0681V29.6517H22.9341V30.0681H22.8311ZM22.8311 30.6927V30.2763H22.9341V30.6927H22.8311ZM22.8311 31.3173V30.9009H22.9341V31.3173H22.8311ZM22.8311 31.9419V31.5255H22.9341V31.9419H22.8311ZM22.8311 32.5665V32.1501H22.9341V32.5665H22.8311ZM22.8311 33.1911V32.7747H22.9341V33.1911H22.8311ZM22.8311 33.6074V33.3993H22.9341V33.6074H22.8311Z" fill="#C2CAD3"/>
<path fill-rule="evenodd" clip-rule="evenodd" d="M33.0029 5.08418V4.87598H33.106V5.08418H33.0029ZM33.0029 5.70877V5.29237H33.106V5.70877H33.0029ZM33.0029 6.33337V5.91697H33.106V6.33337H33.0029ZM33.0029 6.95797V6.54157H33.106V6.95797H33.0029ZM33.0029 7.58256V7.16617H33.106V7.58256H33.0029ZM33.0029 8.20716V7.79076H33.106V8.20716H33.0029ZM33.0029 8.83176V8.41536H33.106V8.83176H33.0029ZM33.0029 9.45636V9.03996H33.106V9.45636H33.0029ZM33.0029 10.081V9.66456H33.106V10.081H33.0029ZM33.0029 10.7056V10.2892H33.106V10.7056H33.0029ZM33.0029 11.3301V10.9137H33.106V11.3301H33.0029ZM33.0029 11.9547V11.5383H33.106V11.9547H33.0029ZM33.0029 12.5793V12.1629H33.106V12.5793H33.0029ZM33.0029 13.2039V12.7875H33.106V13.2039H33.0029ZM33.0029 13.8285V13.4121H33.106V13.8285H33.0029ZM33.0029 14.4531V14.0367H33.106V14.4531H33.0029ZM33.0029 15.0777V14.6613H33.106V15.0777H33.0029ZM33.0029 15.7023V15.2859H33.106V15.7023H33.0029ZM33.0029 16.3269V15.9105H33.106V16.3269H33.0029ZM33.0029 16.9515V16.5351H33.106V16.9515H33.0029ZM33.0029 17.5761V17.1597H33.106V17.5761H33.0029ZM33.0029 18.2007V17.7843H33.106V18.2007H33.0029ZM33.0029 18.8253V18.4089H33.106V18.8253H33.0029ZM33.0029 19.4499V19.0335H33.106V19.4499H33.0029ZM33.0029 20.0745V19.6581H33.106V20.0745H33.0029ZM33.0029 20.6991V20.2827H33.106V20.6991H33.0029ZM33.0029 21.3237V20.9073H33.106V21.3237H33.0029ZM33.0029 21.9483V21.5319H33.106V21.9483H33.0029ZM33.0029 22.5729V22.1565H33.106V22.5729H33.0029ZM33.0029 23.1975V22.7811H33.106V23.1975H33.0029ZM33.0029 23.8221V23.4057H33.106V23.8221H33.0029ZM33.0029 24.4467V24.0303H33.106V24.4467H33.0029ZM33.0029 25.0713V24.6549H33.106V25.0713H33.0029ZM33.0029 25.6959V25.2795H33.106V25.6959H33.0029ZM33.0029 26.3205V25.9041H33.106V26.3205H33.0029ZM33.0029 26.9451V26.5287H33.106V26.9451H33.0029ZM33.0029 27.5697V27.1533H33.106V27.5697H33.0029ZM33.0029 28.1943V27.7779H33.106V28.1943H33.0029ZM33.0029 28.8189V28.4025H33.106V28.8189H33.0029ZM33.0029 29.4435V29.0271H33.106V29.4435H33.0029ZM33.0029 30.0681V29.6517H33.106V30.0681H33.0029ZM33.0029 30.6927V30.2763H33.106V30.6927H33.0029ZM33.0029 31.3173V30.9009H33.106V31.3173H33.0029ZM33.0029 31.9419V31.5255H33.106V31.9419H33.0029ZM33.0029 32.5665V32.1501H33.106V32.5665H33.0029ZM33.0029 33.1911V32.7747H33.106V33.1911H33.0029ZM33.0029 33.6074V33.3993H33.106V33.6074H33.0029Z" fill="#C2CAD3"/>
<path fill-rule="evenodd" clip-rule="evenodd" d="M43.1753 5.08418V4.87598H43.2784V5.08418H43.1753ZM43.1753 5.70877V5.29237H43.2784V5.70877H43.1753ZM43.1753 6.33337V5.91697H43.2784V6.33337H43.1753ZM43.1753 6.95797V6.54157H43.2784V6.95797H43.1753ZM43.1753 7.58256V7.16617H43.2784V7.58256H43.1753ZM43.1753 8.20716V7.79076H43.2784V8.20716H43.1753ZM43.1753 8.83176V8.41536H43.2784V8.83176H43.1753ZM43.1753 9.45636V9.03996H43.2784V9.45636H43.1753ZM43.1753 10.081V9.66456H43.2784V10.081H43.1753ZM43.1753 10.7056V10.2892H43.2784V10.7056H43.1753ZM43.1753 11.3301V10.9137H43.2784V11.3301H43.1753ZM43.1753 11.9547V11.5383H43.2784V11.9547H43.1753ZM43.1753 12.5793V12.1629H43.2784V12.5793H43.1753ZM43.1753 13.2039V12.7875H43.2784V13.2039H43.1753ZM43.1753 13.8285V13.4121H43.2784V13.8285H43.1753ZM43.1753 14.4531V14.0367H43.2784V14.4531H43.1753ZM43.1753 15.0777V14.6613H43.2784V15.0777H43.1753ZM43.1753 15.7023V15.2859H43.2784V15.7023H43.1753ZM43.1753 16.3269V15.9105H43.2784V16.3269H43.1753ZM43.1753 16.9515V16.5351H43.2784V16.9515H43.1753ZM43.1753 17.5761V17.1597H43.2784V17.5761H43.1753ZM43.1753 18.2007V17.7843H43.2784V18.2007H43.1753ZM43.1753 18.8253V18.4089H43.2784V18.8253H43.1753ZM43.1753 19.4499V19.0335H43.2784V19.4499H43.1753ZM43.1753 20.0745V19.6581H43.2784V20.0745H43.1753ZM43.1753 20.6991V20.2827H43.2784V20.6991H43.1753ZM43.1753 21.3237V20.9073H43.2784V21.3237H43.1753ZM43.1753 21.9483V21.5319H43.2784V21.9483H43.1753ZM43.1753 22.5729V22.1565H43.2784V22.5729H43.1753ZM43.1753 23.1975V22.7811H43.2784V23.1975H43.1753ZM43.1753 23.8221V23.4057H43.2784V23.8221H43.1753ZM43.1753 24.4467V24.0303H43.2784V24.4467H43.1753ZM43.1753 25.0713V24.6549H43.2784V25.0713H43.1753ZM43.1753 25.6959V25.2795H43.2784V25.6959H43.1753ZM43.1753 26.3205V25.9041H43.2784V26.3205H43.1753ZM43.1753 26.9451V26.5287H43.2784V26.9451H43.1753ZM43.1753 27.5697V27.1533H43.2784V27.5697H43.1753ZM43.1753 28.1943V27.7779H43.2784V28.1943H43.1753ZM43.1753 28.8189V28.4025H43.2784V28.8189H43.1753ZM43.1753 29.4435V29.0271H43.2784V29.4435H43.1753ZM43.1753 30.0681V29.6517H43.2784V30.0681H43.1753ZM43.1753 30.6927V30.2763H43.2784V30.6927H43.1753ZM43.1753 31.3173V30.9009H43.2784V31.3173H43.1753ZM43.1753 31.9419V31.5255H43.2784V31.9419H43.1753ZM43.1753 32.5665V32.1501H43.2784V32.5665H43.1753ZM43.1753 33.1911V32.7747H43.2784V33.1911H43.1753ZM43.1753 33.6074V33.3993H43.2784V33.6074H43.1753Z" fill="#C2CAD3"/>
<path d="M1.35921 6.01689L1.26397 5.93896C1.24418 5.94639 1.21078 5.9501 1.1712 5.9501H0.477298C0.43648 5.9501 0.380819 5.94515 0.34866 5.9402V6.07874C0.372161 6.07626 0.429058 6.07131 0.477298 6.07131H1.15265C1.09328 6.17521 0.967112 6.3323 0.808788 6.45228C0.729626 6.38178 0.639332 6.30756 0.593567 6.27417L0.494614 6.35457C0.561407 6.4028 0.692519 6.5166 0.76426 6.58958C0.840948 6.6675 0.938663 6.77635 0.986903 6.84067L1.09699 6.75161C1.04875 6.69348 0.970823 6.6106 0.900319 6.5401C1.08462 6.39415 1.23799 6.19995 1.32458 6.05894C1.33324 6.04658 1.3456 6.03173 1.35921 6.01689Z" fill="#333333"/>
<path d="M0.753127 8.06553C0.753127 8.1113 0.753127 8.19046 0.744469 8.25478H0.896608C0.886713 8.19046 0.886713 8.1014 0.886713 8.06553C0.886713 7.99626 0.88795 7.52129 0.88795 7.42976C0.88795 7.39265 0.88795 7.32586 0.896608 7.27886H0.745706C0.754364 7.32586 0.754364 7.39265 0.754364 7.431C0.754364 7.52129 0.753127 7.99626 0.753127 8.06553Z" fill="#333333"/>
<path d="M0.744469 8.76718L0.598514 8.73873C0.596041 8.77213 0.588619 8.81171 0.57625 8.84634C0.562644 8.89334 0.541617 8.95395 0.50822 9.01332C0.464929 9.0863 0.383293 9.20381 0.29671 9.26565L0.416689 9.33863C0.487193 9.27678 0.565118 9.17165 0.614594 9.08259H0.897845C0.879292 9.36337 0.763023 9.51551 0.641806 9.60828C0.614594 9.63178 0.575013 9.65404 0.536669 9.66888L0.665307 9.75547C0.876818 9.62188 1.00669 9.41532 1.02772 9.08259H1.21573C1.24294 9.08259 1.29242 9.08383 1.33324 9.0863V8.95643C1.29613 8.96261 1.24542 8.96385 1.21573 8.96385H0.670255C0.685098 8.9255 0.698704 8.8884 0.709836 8.85747C0.718494 8.83274 0.7321 8.79563 0.744469 8.76718Z" fill="#333333"/>
<path d="M0.48843 10.2629L0.48843 10.3879C0.520589 10.3854 0.566355 10.3829 0.605936 10.3829H1.08957C1.12667 10.3829 1.1712 10.3854 1.20955 10.3879V10.2629C1.1712 10.2679 1.12667 10.2703 1.08957 10.2703H0.604699C0.566355 10.2703 0.5243 10.2679 0.48843 10.2629ZM0.346186 10.5672V10.6921C0.379582 10.6897 0.419163 10.6884 0.455033 10.6884H0.813736C0.807551 10.796 0.785287 10.8925 0.733337 10.9717C0.681387 11.0521 0.597277 11.1139 0.50822 11.1498L0.619542 11.2327C0.723442 11.1782 0.811262 11.0966 0.861975 11.0075C0.907741 10.921 0.937426 10.8158 0.944848 10.6884H1.24047C1.27263 10.6884 1.31345 10.6897 1.34189 10.6921V10.5672C1.31097 10.5721 1.26644 10.5734 1.24047 10.5734H0.455033C0.417926 10.5734 0.380819 10.5709 0.346186 10.5672Z" fill="#333333"/>
<path d="M0.546564 12.1631L0.600988 12.2695C0.717257 12.2336 0.847132 12.178 0.944848 12.1285V12.4563C0.944848 12.4922 0.942374 12.5466 0.938663 12.5664H1.07472C1.06854 12.5466 1.06854 12.4922 1.06854 12.4563V12.0543C1.16873 11.9875 1.26892 11.9059 1.32581 11.844L1.23552 11.755C1.17491 11.8304 1.06606 11.9256 0.95598 11.9949C0.863212 12.0518 0.697467 12.1285 0.546564 12.1631Z" fill="#333333"/>
<path d="M0.511931 13.2L0.424111 13.2952C0.511931 13.3558 0.662833 13.4857 0.723442 13.55L0.818683 13.4511C0.751891 13.3818 0.596041 13.2569 0.511931 13.2ZM0.388241 14.004L0.467402 14.1289C0.655412 14.0955 0.807551 14.0238 0.928768 13.9496C1.11554 13.8345 1.26397 13.67 1.34932 13.5154L1.2751 13.383C1.20212 13.5377 1.0537 13.717 0.859501 13.8358C0.743232 13.9075 0.588619 13.9743 0.388241 14.004Z" fill="#333333"/>
<path d="M1.16131 14.5844L1.08338 14.6166C1.11554 14.6623 1.15512 14.7341 1.17862 14.7823L1.25778 14.7489C1.23428 14.7019 1.19099 14.6277 1.16131 14.5844ZM1.29737 14.5337L1.22068 14.5659C1.25284 14.6104 1.29242 14.6796 1.31839 14.7304L1.39632 14.697C1.37405 14.6524 1.32953 14.5782 1.29737 14.5337ZM0.855791 14.6487L0.71602 14.603C0.707362 14.6388 0.685098 14.6883 0.670255 14.7118C0.614594 14.8182 0.503273 14.9839 0.294236 15.1101L0.401847 15.188C0.526774 15.1039 0.6282 14.9988 0.704888 14.8949H1.07967C1.05741 14.9951 0.985665 15.146 0.897845 15.2486C0.790235 15.3736 0.647991 15.4787 0.415452 15.548L0.528011 15.6481C0.751891 15.5616 0.897845 15.4527 1.00793 15.3167C1.11554 15.1843 1.18728 15.0235 1.21944 14.9085C1.2281 14.8837 1.2417 14.8541 1.25284 14.8343L1.15388 14.7749C1.13162 14.7823 1.09822 14.786 1.06483 14.786H0.775392C0.781576 14.7761 0.787761 14.765 0.792708 14.7551C0.806314 14.7316 0.832289 14.6858 0.855791 14.6487Z" fill="#333333"/>
<path d="M1.20955 16.2125L1.13162 16.1531C1.11059 16.1605 1.07225 16.1655 1.02648 16.1655H0.57625C0.54038 16.1655 0.469876 16.1605 0.446375 16.1581V16.2917C0.464929 16.2892 0.530485 16.2842 0.57625 16.2842H1.02277C0.993087 16.377 0.912688 16.5118 0.832289 16.6034C0.71231 16.7357 0.531722 16.8817 0.337527 16.9546L0.435243 17.0573C0.607173 16.9769 0.769207 16.8495 0.896608 16.7122C1.01535 16.8211 1.13533 16.9546 1.21449 17.0623L1.3221 16.9682C1.24789 16.878 1.1007 16.7233 0.978244 16.6182C1.06112 16.5094 1.13286 16.3733 1.17368 16.2743C1.18357 16.2546 1.20089 16.2236 1.20955 16.2125Z" fill="#333333"/>
<path d="M0.896608 17.5474L0.756838 17.5004C0.746943 17.5363 0.725916 17.5858 0.711073 17.6093C0.655412 17.7144 0.542854 17.8814 0.335054 18.0076L0.442664 18.0855C0.567592 18.0014 0.670255 17.895 0.745706 17.7924H1.12049C1.09699 17.8925 1.02648 18.0434 0.938663 18.1461C0.831052 18.271 0.687572 18.3762 0.45627 18.4454L0.567592 18.5456C0.792708 18.4603 0.937426 18.3502 1.04875 18.2141C1.15636 18.0818 1.2281 17.921 1.26026 17.806C1.26768 17.7812 1.28252 17.7515 1.29365 17.7317L1.1947 17.6724C1.17244 17.6798 1.13904 17.6847 1.10565 17.6847H0.817446C0.823631 17.6748 0.829816 17.6637 0.834763 17.6538C0.847132 17.6291 0.873107 17.5833 0.896608 17.5474Z" fill="#333333"/>
<path d="M0.753127 19.7742C0.753127 19.82 0.753127 19.8991 0.744469 19.9634H0.896608C0.886713 19.8991 0.886713 19.8101 0.886713 19.7742C0.886713 19.7049 0.88795 19.23 0.88795 19.1384C0.88795 19.1013 0.88795 19.0345 0.896608 18.9875H0.745706C0.754364 19.0345 0.754364 19.1013 0.754364 19.1397C0.754364 19.23 0.753127 19.7049 0.753127 19.7742Z" fill="#333333"/>
<path d="M0.863212 21.3874L0.943611 21.4542C0.953506 21.4456 0.967112 21.4345 0.989376 21.4233C1.12667 21.3541 1.29613 21.2279 1.39879 21.0931L1.32458 20.9892C1.23923 21.1153 1.10317 21.218 0.998035 21.265L0.998035 20.6008C0.998035 20.5525 1.00422 20.5117 1.00546 20.5055H0.864449C0.865686 20.5117 0.873107 20.5513 0.873107 20.6008L0.873107 21.312C0.873107 21.3392 0.869396 21.3677 0.863212 21.3874ZM0.311552 21.3776L0.426585 21.4542C0.528011 21.3664 0.604699 21.2489 0.640569 21.1178C0.675202 20.9929 0.677676 20.7418 0.677676 20.6045C0.677676 20.5637 0.682624 20.5179 0.683861 20.508H0.542854C0.549038 20.5352 0.551512 20.5649 0.551512 20.6057C0.551512 20.7443 0.551512 20.978 0.518116 21.0856C0.482245 21.1957 0.414216 21.3033 0.311552 21.3776Z" fill="#333333"/>
<path d="M0.594804 21.9221L0.473587 21.9716C0.529248 22.1027 0.591093 22.2388 0.646754 22.3402C0.5243 22.4292 0.440191 22.5282 0.440191 22.6568C0.440191 22.851 0.614594 22.9178 0.848369 22.9178C1.00175 22.9178 1.13657 22.9055 1.23305 22.8881L1.23428 22.7496C1.13409 22.7743 0.97206 22.7929 0.843422 22.7929C0.661597 22.7929 0.571302 22.7372 0.571302 22.6432C0.571302 22.5542 0.638095 22.48 0.745706 22.4095C0.860738 22.334 1.02277 22.2573 1.10193 22.2177C1.14275 22.1967 1.17615 22.1794 1.20707 22.1608L1.14028 22.0495C1.11183 22.0718 1.08338 22.0891 1.04256 22.1126C0.979481 22.1485 0.860738 22.2078 0.753127 22.2709C0.702414 22.1769 0.643043 22.052 0.594804 21.9221Z" fill="#333333"/>
<path d="M0.814973 24.0289V23.8829H0.973297V23.9745C0.973297 23.993 0.973296 24.0103 0.970823 24.0289H0.814973ZM1.2417 23.8829V24.0289H1.07596C1.0772 24.0116 1.0772 23.9943 1.0772 23.9769V23.8829H1.2417ZM0.850843 23.5984C0.922583 23.5416 0.985666 23.476 1.02648 23.4141C1.07101 23.4772 1.1378 23.5428 1.21078 23.5984H0.850843ZM1.3456 24.1192V23.7926H1.0772V23.6949H1.25902V23.6331C1.29365 23.6566 1.32829 23.6776 1.36168 23.6949C1.37653 23.6628 1.40003 23.6219 1.42229 23.5935C1.29365 23.5416 1.16131 23.4339 1.07472 23.314H0.970823C0.910214 23.4129 0.797656 23.5205 0.673966 23.5861V23.5712H0.550275L0.550275 23.3127H0.442664L0.442664 23.5712H0.279393V23.6776H0.434006C0.398136 23.8359 0.327632 24.019 0.253418 24.1217C0.270735 24.1464 0.29671 24.1909 0.309079 24.2218C0.358555 24.1513 0.405557 24.0425 0.442664 23.9262L0.442664 24.447H0.550275L0.550275 23.8928C0.582435 23.951 0.615831 24.0165 0.631911 24.0549L0.693756 23.9646C0.675202 23.9336 0.583672 23.7988 0.550275 23.7555V23.6776H0.673966V23.6479C0.683861 23.6652 0.692519 23.6826 0.698704 23.6974C0.733337 23.6801 0.766733 23.6591 0.80013 23.6356V23.6949H0.973297V23.7926H0.714783V24.1192H0.953506C0.92011 24.2144 0.836 24.3035 0.631911 24.3678C0.651701 24.3864 0.683861 24.4309 0.694993 24.4544C0.891661 24.3901 0.989376 24.2948 1.03762 24.1909C1.11183 24.3344 1.21202 24.4012 1.34684 24.4531C1.35921 24.4198 1.38766 24.3802 1.41363 24.3567C1.28129 24.3146 1.18604 24.259 1.11554 24.1192H1.3456Z" fill="#333333"/>
<path d="M0.561407 25.6409C0.492141 25.7102 0.375872 25.777 0.269498 25.8203C0.29671 25.8376 0.338764 25.8784 0.358555 25.8994C0.463692 25.8487 0.588619 25.7658 0.671492 25.6817L0.561407 25.6409ZM1.21944 25.6013C1.24665 25.6236 1.27015 25.6446 1.28747 25.6632L1.36911 25.5951C1.30231 25.5321 1.16873 25.4381 1.06606 25.375L0.989376 25.4356C1.02772 25.4591 1.06854 25.4863 1.10812 25.516C0.986902 25.5172 0.864449 25.5197 0.749417 25.5209C0.869396 25.4479 0.996798 25.3601 1.09946 25.2797L0.994324 25.2228C0.928768 25.2822 0.836 25.3527 0.741995 25.417C0.714783 25.396 0.681387 25.3737 0.645517 25.3515C0.706125 25.3082 0.776629 25.25 0.836 25.1944L0.796419 25.1758H1.24789V25.3193H1.36168V25.0781H0.884239V24.9792H1.34808V24.8777H0.884239V24.7751H0.770444V24.8777H0.311552V24.9792H0.770444V25.0781H0.305368V25.3193H0.414216V25.1758H0.702414C0.661596 25.2179 0.609647 25.2661 0.561407 25.3045C0.54038 25.2933 0.520589 25.2834 0.502036 25.2748L0.427822 25.3391C0.500799 25.3774 0.587382 25.4319 0.647991 25.4789C0.623252 25.4937 0.599751 25.5086 0.57625 25.5222C0.471113 25.5234 0.375872 25.5234 0.297947 25.5234L0.304131 25.6285C0.430295 25.6261 0.593567 25.6223 0.770444 25.6162V25.913H0.885476L0.885476 25.6125L1.21944 25.6013ZM0.981955 25.6978C1.08709 25.7535 1.21944 25.8376 1.28129 25.8957L1.37653 25.8301C1.30602 25.772 1.1712 25.6904 1.07101 25.6397L0.981955 25.6978Z" fill="#333333"/>
<path d="M0.654175 26.3166L0.498325 26.3153C0.50822 26.3549 0.511931 26.4056 0.511931 26.4563C0.511931 26.5726 0.499562 26.8856 0.499562 27.0575C0.499562 27.2591 0.623252 27.3383 0.808788 27.3383C1.07967 27.3383 1.24294 27.1812 1.32334 27.0661L1.23552 26.9598C1.14894 27.0884 1.02277 27.2096 0.810025 27.2096C0.704888 27.2096 0.625726 27.1651 0.625726 27.0365C0.625726 26.8682 0.635621 26.5899 0.640569 26.4563C0.643043 26.4118 0.647991 26.3611 0.654175 26.3166Z" fill="#333333"/>
<path d="M0.908977 28.437L0.792708 28.4271C0.782813 28.4765 0.772918 28.5273 0.772918 28.578C0.772918 28.6992 0.880529 28.7635 1.0772 28.7635C1.16996 28.7635 1.2516 28.7561 1.31716 28.7462L1.3221 28.6225C1.2417 28.6373 1.16007 28.6472 1.07843 28.6472C0.925057 28.6472 0.891661 28.5978 0.891661 28.5433C0.891661 28.5136 0.897845 28.4753 0.908977 28.437ZM0.770444 27.7703L0.623252 27.7579C0.625726 27.7839 0.623252 27.8296 0.618305 27.868C0.615831 27.8902 0.609647 27.9224 0.603462 27.9583C0.561407 27.962 0.520589 27.9632 0.483482 27.9632C0.43648 27.9632 0.394425 27.9607 0.333817 27.9533L0.337527 28.0745C0.380819 28.077 0.425348 28.0795 0.481008 28.0795C0.510694 28.0795 0.544091 28.0783 0.578724 28.0758C0.570066 28.1154 0.56017 28.1562 0.550275 28.1921C0.50451 28.3627 0.415452 28.6114 0.342475 28.7363L0.478535 28.7808C0.542854 28.6435 0.625726 28.3949 0.669018 28.2242C0.682624 28.1723 0.694993 28.1178 0.707362 28.0646C0.790235 28.056 0.875581 28.0411 0.951032 28.0238V27.9039C0.880529 27.9212 0.806314 27.9348 0.7321 27.9447C0.738285 27.9187 0.743232 27.894 0.746943 27.8729C0.751891 27.8494 0.761786 27.8 0.770444 27.7703ZM0.864449 28.1376V28.2514C0.9399 28.2428 1.01535 28.2391 1.09328 28.2391C1.16625 28.2391 1.23799 28.2452 1.29984 28.2539L1.30355 28.1364C1.23552 28.1302 1.16131 28.1265 1.0908 28.1265C1.01411 28.1265 0.930005 28.1314 0.864449 28.1376Z" fill="#333333"/>
<path d="M0.750654 29.2005C0.741995 29.3637 0.749417 29.9376 0.254655 30.2011C0.291762 30.2258 0.328869 30.2617 0.349897 30.2914C0.636858 30.1269 0.766733 29.8597 0.826105 29.6235C0.890424 29.8622 1.02772 30.1454 1.32705 30.2902C1.3456 30.2592 1.379 30.2209 1.41487 30.1937C0.952269 29.9809 0.88795 29.4256 0.876818 29.2611C0.879292 29.2388 0.879292 29.2178 0.880529 29.2005H0.750654Z" fill="#333333"/>
<path d="M1.34189 31.2231C1.34189 30.9696 1.1576 30.7655 0.865686 30.7655C0.562644 30.7655 0.325158 30.9992 0.325158 31.2689C0.325158 31.4717 0.434006 31.6066 0.553986 31.6066C0.675202 31.6066 0.774155 31.4693 0.847132 31.2219C0.881766 31.1068 0.902793 30.9893 0.917636 30.8793C1.10688 30.9028 1.21449 31.0438 1.21449 31.2182C1.21449 31.4148 1.07596 31.5286 0.92011 31.5645C0.890424 31.5707 0.854554 31.5769 0.812499 31.5818L0.884239 31.6944C1.17986 31.6523 1.34189 31.473 1.34189 31.2231ZM0.446375 31.2578C0.446375 31.1081 0.573776 30.9176 0.792708 30.883C0.779103 30.9893 0.758075 31.0994 0.728389 31.1959C0.671492 31.3827 0.613357 31.4618 0.557697 31.4618C0.506983 31.4618 0.446375 31.3975 0.446375 31.2578Z" fill="#333333"/>
<path d="M0.746943 32.114C0.727153 32.1623 0.688808 32.2303 0.659123 32.2736L0.735811 32.3082C0.766733 32.2699 0.806314 32.2105 0.845895 32.1548L0.746943 32.114ZM1.20707 32.4257C1.18852 32.5593 1.16007 32.6756 1.11801 32.7745C1.07472 32.6706 1.04504 32.5519 1.02277 32.4257H1.20707ZM0.659123 32.8351C0.64428 32.892 0.624489 32.939 0.594804 32.9774C0.552749 32.9563 0.50822 32.9378 0.464929 32.9205C0.479772 32.8933 0.494614 32.8636 0.510694 32.8351H0.659123ZM1.39879 32.4257V32.3169H1.0537C1.07101 32.2501 1.08462 32.1808 1.09699 32.1103L0.980718 32.093C0.948558 32.3107 0.885476 32.5185 0.782813 32.6471C0.808788 32.6657 0.857027 32.7065 0.874344 32.7275C0.902793 32.6904 0.927531 32.6471 0.951032 32.6014C0.977007 32.7102 1.00793 32.8104 1.04998 32.8982C0.990613 32.9836 0.915162 33.0528 0.81621 33.106C0.781576 33.0813 0.738285 33.0541 0.691282 33.0281C0.728389 32.9761 0.753127 32.9118 0.769207 32.8351H0.870633V32.7399H0.558933C0.571302 32.7139 0.583672 32.6892 0.594804 32.6657L0.561407 32.6583H0.623252V32.4888C0.678913 32.5309 0.744469 32.5828 0.774155 32.6113L0.836 32.5309C0.805078 32.5086 0.685098 32.4344 0.629437 32.4035H0.865686V32.3107H0.623252V32.093H0.516879V32.3107H0.393188L0.474824 32.2748C0.462455 32.2315 0.430295 32.1672 0.395662 32.1202L0.312789 32.1548C0.342475 32.2031 0.373398 32.2674 0.383293 32.3107H0.271972L0.271972 32.4035H0.485956C0.426585 32.4777 0.337527 32.5469 0.254655 32.5803C0.275682 32.6026 0.301657 32.6409 0.315263 32.6669C0.38453 32.6273 0.457507 32.5692 0.516879 32.5049V32.6484L0.487193 32.6422C0.473587 32.6731 0.458744 32.7065 0.441427 32.7399H0.262076V32.8351H0.394425C0.361029 32.897 0.328869 32.9563 0.301657 33.0021L0.401847 33.033L0.417926 33.0046C0.451323 33.0194 0.483482 33.0355 0.515642 33.0516C0.455033 33.0924 0.373398 33.1184 0.265787 33.1345C0.286814 33.1567 0.307842 33.1988 0.315263 33.2297C0.446375 33.2025 0.544091 33.1641 0.615831 33.1072C0.670255 33.1394 0.718494 33.1716 0.753127 33.2025L0.793945 33.1604C0.811262 33.1852 0.828579 33.2149 0.837237 33.2334C0.951032 33.1753 1.04133 33.1023 1.11183 33.012C1.16996 33.1023 1.2417 33.1753 1.33076 33.2285C1.34808 33.1963 1.38519 33.1518 1.41116 33.1295C1.31592 33.08 1.24047 33.0021 1.18233 32.9044C1.25407 32.7758 1.29737 32.6174 1.32581 32.4257H1.39879Z" fill="#333333"/>
<path d="M6.28115 35.2727V35.1743L6.58555 34.859C6.61805 34.8247 6.64484 34.7947 6.66593 34.7689C6.6873 34.7429 6.70326 34.7181 6.71381 34.6947C6.72435 34.6713 6.72962 34.6464 6.72962 34.62C6.72962 34.5901 6.72259 34.5644 6.70853 34.5427C6.69448 34.5207 6.6753 34.5039 6.65099 34.4922C6.62669 34.4802 6.59931 34.4742 6.56886 34.4742C6.53664 34.4742 6.50853 34.4808 6.48452 34.4939C6.46051 34.5071 6.44206 34.5257 6.42918 34.5497C6.41629 34.5737 6.40985 34.6019 6.40985 34.6341H6.28027C6.28027 34.5793 6.29287 34.5314 6.31805 34.4904C6.34323 34.4494 6.37779 34.4177 6.42171 34.3951C6.46563 34.3723 6.51556 34.3609 6.57149 34.3609C6.62801 34.3609 6.67779 34.3721 6.72083 34.3947C6.76417 34.4169 6.79799 34.4474 6.8223 34.486C6.8466 34.5244 6.85875 34.5677 6.85875 34.6161C6.85875 34.6494 6.85246 34.6821 6.83987 34.714C6.82757 34.7459 6.80605 34.7815 6.7753 34.8207C6.74455 34.8597 6.7018 34.907 6.64704 34.9626L6.46827 35.1497V35.1563H6.87325V35.2727H6.28115Z" fill="#333333"/>
<path d="M7.3529 35.2877C7.2835 35.2874 7.2242 35.2691 7.17501 35.2328C7.12581 35.1964 7.08819 35.1436 7.06212 35.0742C7.03606 35.0048 7.02303 34.9212 7.02303 34.8234C7.02303 34.7259 7.03606 34.6426 7.06212 34.5735C7.08848 34.5043 7.12625 34.4516 7.17545 34.4153C7.22494 34.379 7.28409 34.3609 7.3529 34.3609C7.42172 34.3609 7.48072 34.3792 7.52992 34.4158C7.57911 34.4521 7.61674 34.5048 7.6428 34.5739C7.66916 34.6427 7.68233 34.7259 7.68233 34.8234C7.68233 34.9215 7.6693 35.0052 7.64324 35.0746C7.61718 35.1437 7.57955 35.1966 7.53036 35.2332C7.48116 35.2695 7.42201 35.2877 7.3529 35.2877ZM7.3529 35.1704C7.41381 35.1704 7.46139 35.1407 7.49566 35.0812C7.53021 35.0218 7.54749 34.9358 7.54749 34.8234C7.54749 34.7487 7.53958 34.6856 7.52377 34.6341C7.50825 34.5822 7.48585 34.543 7.45656 34.5164C7.42757 34.4894 7.39302 34.4759 7.3529 34.4759C7.29229 34.4759 7.2447 34.5058 7.21015 34.5655C7.17559 34.6253 7.15817 34.7112 7.15788 34.8234C7.15788 34.8983 7.16564 34.9617 7.18116 35.0136C7.19697 35.0651 7.21937 35.1042 7.24836 35.1308C7.27735 35.1572 7.3122 35.1704 7.3529 35.1704Z" fill="#333333"/>
<path d="M8.17944 34.3732V35.2727H8.04328V34.5093H8.03801L7.82278 34.6499V34.5199L8.04723 34.3732H8.17944Z" fill="#333333"/>
<path d="M8.72191 34.3609C8.76203 34.3612 8.80156 34.3685 8.8405 34.3828C8.87945 34.3972 8.91459 34.4206 8.94592 34.4531C8.97755 34.4856 9.00273 34.5295 9.02147 34.5849C9.04051 34.6399 9.05017 34.7084 9.05046 34.7904C9.05046 34.8692 9.04255 34.9393 9.02674 35.0008C9.01093 35.062 8.98824 35.1137 8.95866 35.1559C8.92938 35.1981 8.8938 35.2301 8.85192 35.2521C8.81005 35.274 8.7629 35.285 8.71049 35.285C8.6569 35.285 8.60932 35.2745 8.56773 35.2534C8.52615 35.2323 8.49233 35.2032 8.46627 35.166C8.44021 35.1285 8.42396 35.0855 8.41751 35.0369H8.55148C8.56027 35.0755 8.57813 35.1068 8.60507 35.1308C8.6323 35.1546 8.66744 35.1664 8.71049 35.1664C8.77637 35.1664 8.82777 35.1377 8.86466 35.0803C8.90156 35.0226 8.92015 34.9421 8.92045 34.8388H8.91342C8.89819 34.8639 8.87916 34.8856 8.85632 34.9038C8.83377 34.9219 8.80844 34.936 8.78033 34.9459C8.75222 34.9559 8.7222 34.9609 8.69028 34.9609C8.63845 34.9609 8.59131 34.9481 8.54885 34.9226C8.50639 34.8972 8.47257 34.8622 8.44738 34.8177C8.4222 34.7732 8.40961 34.7224 8.40961 34.6653C8.40961 34.6084 8.42249 34.5569 8.44826 34.5106C8.47432 34.4644 8.51063 34.4278 8.55719 34.4008C8.60405 34.3736 8.65895 34.3603 8.72191 34.3609ZM8.72235 34.4751C8.68809 34.4751 8.65719 34.4836 8.62967 34.5005C8.60243 34.5172 8.58091 34.5399 8.5651 34.5686C8.54929 34.597 8.54138 34.6286 8.54138 34.6635C8.54138 34.6983 8.54899 34.73 8.56422 34.7584C8.57974 34.7865 8.60082 34.8089 8.62747 34.8256C8.65441 34.842 8.68516 34.8502 8.71971 34.8502C8.74548 34.8502 8.76949 34.8452 8.79175 34.8352C8.814 34.8253 8.83348 34.8115 8.85017 34.794C8.86686 34.7761 8.87989 34.7559 8.88926 34.7333C8.89863 34.7108 8.90332 34.6871 8.90332 34.6622C8.90332 34.6291 8.89541 34.5983 8.8796 34.5699C8.86408 34.5415 8.8427 34.5187 8.81547 34.5014C8.78823 34.4838 8.75719 34.4751 8.72235 34.4751Z" fill="#333333"/>
<path d="M16.3354 35.2727V35.1743L16.6397 34.8589C16.6722 34.8247 16.699 34.7947 16.7201 34.7689C16.7415 34.7428 16.7575 34.7181 16.768 34.6947C16.7785 34.6712 16.7838 34.6463 16.7838 34.62C16.7838 34.5901 16.7768 34.5644 16.7627 34.5427C16.7487 34.5207 16.7295 34.5039 16.7052 34.4922C16.6809 34.4802 16.6535 34.4742 16.6231 34.4742C16.5908 34.4742 16.5627 34.4808 16.5387 34.4939C16.5147 34.5071 16.4963 34.5257 16.4834 34.5497C16.4705 34.5737 16.464 34.6018 16.464 34.634H16.3345C16.3345 34.5793 16.3471 34.5314 16.3722 34.4904C16.3974 34.4494 16.432 34.4176 16.4759 34.3951C16.5198 34.3723 16.5698 34.3608 16.6257 34.3608C16.6822 34.3608 16.732 34.3721 16.775 34.3947C16.8184 34.4169 16.8522 34.4474 16.8765 34.486C16.9008 34.5244 16.913 34.5677 16.913 34.616C16.913 34.6494 16.9067 34.6821 16.8941 34.714C16.8818 34.7459 16.8602 34.7815 16.8295 34.8207C16.7988 34.8597 16.756 34.907 16.7012 34.9626L16.5225 35.1497V35.1563H16.9274V35.2727H16.3354Z" fill="#333333"/>
<path d="M17.4071 35.2876C17.3377 35.2873 17.2784 35.269 17.2292 35.2327C17.18 35.1964 17.1424 35.1436 17.1163 35.0742C17.0903 35.0048 17.0772 34.9212 17.0772 34.8234C17.0772 34.7258 17.0903 34.6425 17.1163 34.5734C17.1427 34.5043 17.1805 34.4516 17.2296 34.4153C17.2791 34.379 17.3383 34.3608 17.4071 34.3608C17.4759 34.3608 17.5349 34.3791 17.5841 34.4157C17.6333 34.4521 17.6709 34.5048 17.697 34.5739C17.7234 34.6427 17.7365 34.7258 17.7365 34.8234C17.7365 34.9215 17.7235 35.0052 17.6974 35.0746C17.6714 35.1437 17.6337 35.1966 17.5846 35.2332C17.5354 35.2695 17.4762 35.2876 17.4071 35.2876ZM17.4071 35.1704C17.468 35.1704 17.5156 35.1406 17.5499 35.0812C17.5844 35.0218 17.6017 34.9358 17.6017 34.8234C17.6017 34.7487 17.5938 34.6856 17.578 34.634C17.5624 34.5822 17.54 34.543 17.5108 34.5163C17.4818 34.4894 17.4472 34.4759 17.4071 34.4759C17.3465 34.4759 17.2989 34.5058 17.2643 34.5655C17.2298 34.6253 17.2124 34.7112 17.2121 34.8234C17.2121 34.8983 17.2198 34.9617 17.2354 35.0136C17.2512 35.0651 17.2736 35.1042 17.3026 35.1308C17.3316 35.1572 17.3664 35.1704 17.4071 35.1704Z" fill="#333333"/>
<path d="M17.8924 35.2727V35.1743L18.1967 34.8589C18.2293 34.8247 18.256 34.7947 18.2771 34.7689C18.2985 34.7428 18.3145 34.7181 18.325 34.6947C18.3355 34.6712 18.3408 34.6463 18.3408 34.62C18.3408 34.5901 18.3338 34.5644 18.3197 34.5427C18.3057 34.5207 18.2865 34.5039 18.2622 34.4922C18.2379 34.4802 18.2105 34.4742 18.1801 34.4742C18.1478 34.4742 18.1197 34.4808 18.0957 34.4939C18.0717 34.5071 18.0533 34.5257 18.0404 34.5497C18.0275 34.5737 18.0211 34.6018 18.0211 34.634H17.8915C17.8915 34.5793 17.9041 34.5314 17.9292 34.4904C17.9544 34.4494 17.989 34.4176 18.0329 34.3951C18.0768 34.3723 18.1268 34.3608 18.1827 34.3608C18.2392 34.3608 18.289 34.3721 18.332 34.3947C18.3754 34.4169 18.4092 34.4474 18.4335 34.486C18.4578 34.5244 18.47 34.5677 18.47 34.616C18.47 34.6494 18.4637 34.6821 18.4511 34.714C18.4388 34.7459 18.4172 34.7815 18.3865 34.8207C18.3558 34.8597 18.313 34.907 18.2582 34.9626L18.0795 35.1497V35.1563H18.4845V35.2727H17.8924Z" fill="#333333"/>
<path d="M18.9641 35.2876C18.8947 35.2873 18.8354 35.269 18.7862 35.2327C18.737 35.1964 18.6994 35.1436 18.6733 35.0742C18.6473 35.0048 18.6342 34.9212 18.6342 34.8234C18.6342 34.7258 18.6473 34.6425 18.6733 34.5734C18.6997 34.5043 18.7375 34.4516 18.7866 34.4153C18.8361 34.379 18.8953 34.3608 18.9641 34.3608C19.0329 34.3608 19.0919 34.3791 19.1411 34.4157C19.1903 34.4521 19.2279 34.5048 19.254 34.5739C19.2804 34.6427 19.2935 34.7258 19.2935 34.8234C19.2935 34.9215 19.2805 35.0052 19.2544 35.0746C19.2284 35.1437 19.1908 35.1966 19.1416 35.2332C19.0924 35.2695 19.0332 35.2876 18.9641 35.2876ZM18.9641 35.1704C19.025 35.1704 19.0726 35.1406 19.1069 35.0812C19.1414 35.0218 19.1587 34.9358 19.1587 34.8234C19.1587 34.7487 19.1508 34.6856 19.135 34.634C19.1194 34.5822 19.097 34.543 19.0678 34.5163C19.0388 34.4894 19.0042 34.4759 18.9641 34.4759C18.9035 34.4759 18.8559 34.5058 18.8213 34.5655C18.7868 34.6253 18.7694 34.7112 18.7691 34.8234C18.7691 34.8983 18.7768 34.9617 18.7924 35.0136C18.8082 35.0651 18.8306 35.1042 18.8596 35.1308C18.8886 35.1572 18.9234 35.1704 18.9641 35.1704Z" fill="#333333"/>
<path d="M26.6283 35.2727V35.1743L26.9327 34.8589C26.9652 34.8247 26.992 34.7947 27.0131 34.7689C27.0345 34.7428 27.0504 34.7181 27.061 34.6947C27.0715 34.6712 27.0768 34.6463 27.0768 34.62C27.0768 34.5901 27.0698 34.5644 27.0557 34.5427C27.0416 34.5207 27.0225 34.5039 26.9982 34.4922C26.9739 34.4802 26.9465 34.4742 26.916 34.4742C26.8838 34.4742 26.8557 34.4808 26.8317 34.4939C26.8077 34.5071 26.7892 34.5257 26.7763 34.5497C26.7635 34.5737 26.757 34.6018 26.757 34.634H26.6274C26.6274 34.5793 26.64 34.5314 26.6652 34.4904C26.6904 34.4494 26.725 34.4176 26.7689 34.3951C26.8128 34.3723 26.8627 34.3608 26.9187 34.3608C26.9752 34.3608 27.025 34.3721 27.068 34.3947C27.1113 34.4169 27.1452 34.4474 27.1695 34.486C27.1938 34.5244 27.2059 34.5677 27.2059 34.616C27.2059 34.6494 27.1996 34.6821 27.187 34.714C27.1747 34.7459 27.1532 34.7815 27.1225 34.8207C27.0917 34.8597 27.049 34.907 26.9942 34.9626L26.8154 35.1497V35.1563H27.2204V35.2727H26.6283Z" fill="#333333"/>
<path d="M27.7001 35.2876C27.6307 35.2873 27.5714 35.269 27.5222 35.2327C27.473 35.1964 27.4354 35.1436 27.4093 35.0742C27.3832 35.0048 27.3702 34.9212 27.3702 34.8234C27.3702 34.7258 27.3832 34.6425 27.4093 34.5734C27.4356 34.5043 27.4734 34.4516 27.5226 34.4153C27.5721 34.379 27.6313 34.3608 27.7001 34.3608C27.7689 34.3608 27.8279 34.3791 27.8771 34.4157C27.9263 34.4521 27.9639 34.5048 27.99 34.5739C28.0163 34.6427 28.0295 34.7258 28.0295 34.8234C28.0295 34.9215 28.0165 35.0052 27.9904 35.0746C27.9643 35.1437 27.9267 35.1966 27.8775 35.2332C27.8283 35.2695 27.7692 35.2876 27.7001 35.2876ZM27.7001 35.1704C27.761 35.1704 27.8086 35.1406 27.8428 35.0812C27.8774 35.0218 27.8947 34.9358 27.8947 34.8234C27.8947 34.7487 27.8867 34.6856 27.8709 34.634C27.8554 34.5822 27.833 34.543 27.8037 34.5163C27.7747 34.4894 27.7402 34.4759 27.7001 34.4759C27.6395 34.4759 27.5919 34.5058 27.5573 34.5655C27.5228 34.6253 27.5053 34.7112 27.505 34.8234C27.505 34.8983 27.5128 34.9617 27.5283 35.0136C27.5441 35.0651 27.5665 35.1042 27.5955 35.1308C27.6245 35.1572 27.6594 35.1704 27.7001 35.1704Z" fill="#333333"/>
<path d="M28.1853 35.2727V35.1743L28.4897 34.8589C28.5222 34.8247 28.549 34.7947 28.5701 34.7689C28.5915 34.7428 28.6074 34.7181 28.618 34.6947C28.6285 34.6712 28.6338 34.6463 28.6338 34.62C28.6338 34.5901 28.6268 34.5644 28.6127 34.5427C28.5986 34.5207 28.5795 34.5039 28.5552 34.4922C28.5309 34.4802 28.5035 34.4742 28.473 34.4742C28.4408 34.4742 28.4127 34.4808 28.3887 34.4939C28.3647 34.5071 28.3462 34.5257 28.3333 34.5497C28.3205 34.5737 28.314 34.6018 28.314 34.634H28.1844C28.1844 34.5793 28.197 34.5314 28.2222 34.4904C28.2474 34.4494 28.282 34.4176 28.3259 34.3951C28.3698 34.3723 28.4197 34.3608 28.4757 34.3608C28.5322 34.3608 28.582 34.3721 28.625 34.3947C28.6683 34.4169 28.7022 34.4474 28.7265 34.486C28.7508 34.5244 28.7629 34.5677 28.7629 34.616C28.7629 34.6494 28.7566 34.6821 28.744 34.714C28.7317 34.7459 28.7102 34.7815 28.6795 34.8207C28.6487 34.8597 28.606 34.907 28.5512 34.9626L28.3724 35.1497V35.1563H28.7774V35.2727H28.1853Z" fill="#333333"/>
<path d="M29.2852 34.3731V35.2727H29.149V34.5093H29.1437L28.9285 34.6499V34.5198L29.153 34.3731H29.2852Z" fill="#333333"/>
<path d="M36.1367 35.4849V35.2506L36.5841 34.8805C36.6138 34.8559 36.6392 34.8328 36.6603 34.8114C36.6818 34.7895 36.6982 34.767 36.7095 34.744C36.7212 34.721 36.727 34.6954 36.727 34.6673C36.727 34.6364 36.7204 34.6101 36.7071 34.5882C36.6943 34.5664 36.6763 34.5496 36.6533 34.5379C36.6302 34.5258 36.6037 34.5197 36.5736 34.5197C36.5435 34.5197 36.517 34.5258 36.494 34.5379C36.4713 34.55 36.4537 34.5677 36.4412 34.5912C36.4288 34.6146 36.4225 34.6431 36.4225 34.6767H36.1133C36.1133 34.5923 36.1322 34.5197 36.1701 34.4588C36.208 34.3979 36.2615 34.351 36.3306 34.3182C36.3997 34.2854 36.4807 34.269 36.5736 34.269C36.6697 34.269 36.7528 34.2845 36.8231 34.3153C36.8938 34.3458 36.9482 34.3887 36.9865 34.4442C37.0251 34.4996 37.0445 34.5646 37.0445 34.6392C37.0445 34.6852 37.0349 34.7311 37.0158 34.7768C36.9966 34.8221 36.9623 34.8723 36.9127 34.9273C36.8631 34.9824 36.7926 35.048 36.7013 35.1241L36.5888 35.2178V35.2248H37.0574V35.4849H36.1367Z" fill="#333333"/>
<path d="M37.7253 35.5177C37.6164 35.5173 37.5223 35.4921 37.443 35.4421C37.3638 35.3921 37.3027 35.3201 37.2597 35.226C37.2168 35.1319 37.1955 35.0191 37.1959 34.8875C37.1963 34.7555 37.2177 34.6435 37.2603 34.5513C37.3032 34.4592 37.3641 34.3891 37.443 34.3411C37.5223 34.2931 37.6164 34.269 37.7253 34.269C37.8342 34.269 37.9283 34.2933 38.0076 34.3417C38.0868 34.3897 38.1479 34.4598 38.1909 34.5519C38.2338 34.6441 38.2551 34.7559 38.2547 34.8875C38.2547 35.0199 38.2333 35.1331 38.1903 35.2272C38.1474 35.3213 38.0863 35.3933 38.007 35.4433C37.9281 35.4929 37.8342 35.5177 37.7253 35.5177ZM37.7253 35.2529C37.7815 35.2529 37.8276 35.2237 37.8635 35.1651C37.8998 35.1061 37.9178 35.0136 37.9174 34.8875C37.9174 34.8051 37.9092 34.7378 37.8928 34.6854C37.8764 34.6331 37.8538 34.5945 37.8249 34.5695C37.796 34.5441 37.7628 34.5314 37.7253 34.5314C37.6691 34.5314 37.6232 34.5599 37.5877 34.6169C37.5521 34.6739 37.534 34.7641 37.5332 34.8875C37.5328 34.9714 37.5408 35.0405 37.5572 35.0948C37.5736 35.1487 37.5963 35.1885 37.6252 35.2143C37.6544 35.2401 37.6878 35.2529 37.7253 35.2529Z" fill="#333333"/>
<path d="M38.4076 35.4849V35.2506L38.855 34.8805C38.8847 34.8559 38.9101 34.8328 38.9312 34.8114C38.9526 34.7895 38.969 34.767 38.9804 34.744C38.9921 34.721 38.9979 34.6954 38.9979 34.6673C38.9979 34.6364 38.9913 34.6101 38.978 34.5882C38.9651 34.5664 38.9472 34.5496 38.9241 34.5379C38.9011 34.5258 38.8746 34.5197 38.8445 34.5197C38.8144 34.5197 38.7879 34.5258 38.7648 34.5379C38.7422 34.55 38.7246 34.5677 38.7121 34.5912C38.6996 34.6146 38.6934 34.6431 38.6934 34.6767H38.3842C38.3842 34.5923 38.4031 34.5197 38.441 34.4588C38.4788 34.3979 38.5323 34.351 38.6014 34.3182C38.6705 34.2854 38.7516 34.269 38.8445 34.269C38.9405 34.269 39.0237 34.2845 39.094 34.3153C39.1646 34.3458 39.2191 34.3887 39.2574 34.4442C39.296 34.4996 39.3154 34.5646 39.3154 34.6392C39.3154 34.6852 39.3058 34.7311 39.2867 34.7768C39.2675 34.8221 39.2332 34.8723 39.1836 34.9273C39.134 34.9824 39.0635 35.048 38.9722 35.1241L38.8597 35.2178V35.2248H39.3282V35.4849H38.4076Z" fill="#333333"/>
<path d="M39.4738 35.4849V35.2506L39.9212 34.8805C39.9509 34.8559 39.9763 34.8328 39.9973 34.8114C40.0188 34.7895 40.0352 34.767 40.0465 34.744C40.0583 34.721 40.0641 34.6954 40.0641 34.6673C40.0641 34.6364 40.0575 34.6101 40.0442 34.5882C40.0313 34.5664 40.0134 34.5496 39.9903 34.5379C39.9673 34.5258 39.9407 34.5197 39.9107 34.5197C39.8806 34.5197 39.8541 34.5258 39.831 34.5379C39.8084 34.55 39.7908 34.5677 39.7783 34.5912C39.7658 34.6146 39.7596 34.6431 39.7596 34.6767H39.4503C39.4503 34.5923 39.4693 34.5197 39.5072 34.4588C39.545 34.3979 39.5985 34.351 39.6676 34.3182C39.7367 34.2854 39.8177 34.269 39.9107 34.269C40.0067 34.269 40.0899 34.2845 40.1602 34.3153C40.2308 34.3458 40.2853 34.3887 40.3236 34.4442C40.3622 34.4996 40.3815 34.5646 40.3815 34.6392C40.3815 34.6852 40.372 34.7311 40.3528 34.7768C40.3337 34.8221 40.2994 34.8723 40.2498 34.9273C40.2002 34.9824 40.1297 35.048 40.0383 35.1241L39.9259 35.2178V35.2248H40.3944V35.4849H39.4738Z" fill="#333333"/>
<path d="M3.49072 24.8614C3.49072 24.7476 3.58302 24.6553 3.69687 24.6553H11.5306C11.6445 24.6553 11.7368 24.7476 11.7368 24.8614V33.4013C11.7368 33.5152 11.6445 33.6075 11.5306 33.6075H3.69687C3.58302 33.6075 3.49072 33.5152 3.49072 33.4013V24.8614Z" fill="#D4E2F0"/>
<path d="M13.6953 16.6603C13.6953 16.5464 13.7876 16.4541 13.9015 16.4541H21.7352C21.849 16.4541 21.9413 16.5464 21.9413 16.6603V33.4014C21.9413 33.5152 21.849 33.6075 21.7352 33.6075H13.9015C13.7876 33.6075 13.6953 33.5152 13.6953 33.4014V16.6603Z" fill="#D4E2F0"/>
<path d="M23.8999 12.087C23.8999 11.9732 23.9922 11.8809 24.1061 11.8809H31.9398C32.0536 11.8809 32.1459 11.9732 32.1459 12.087V33.4015C32.1459 33.5153 32.0536 33.6076 31.9398 33.6076H24.1061C23.9922 33.6076 23.8999 33.5153 23.8999 33.4015V12.087Z" fill="#D4E2F0"/>
<path d="M34.104 10.2047C34.104 10.0908 34.1963 9.99854 34.3102 9.99854H42.1439C42.2577 9.99854 42.35 10.0908 42.35 10.2047V33.4013C42.35 33.5152 42.2577 33.6075 42.1439 33.6075H34.3102C34.1963 33.6075 34.104 33.5152 34.104 33.4013V10.2047Z" fill="url(#paint0_linear_242_3682)"/>
<g filter="url(#filter0_b_242_3682)">
<path d="M9.9668 1.19111C9.9668 0.963402 10.1514 0.778809 10.3791 0.778809H37.3549C37.5826 0.778809 37.7672 0.963402 37.7672 1.19111V6.81627C37.7672 7.04398 37.5826 7.22857 37.3549 7.22857H36.1804C36.1234 7.22857 36.0773 7.27472 36.0773 7.33165V8.71016C36.0773 8.8039 35.9623 8.84898 35.8986 8.7802L34.4921 7.26161C34.4725 7.24055 34.4451 7.22857 34.4164 7.22857H32.462H27.1569H10.3791C10.1514 7.22857 9.9668 7.04398 9.9668 6.81627V1.19111Z" fill="url(#paint1_linear_242_3682)"/>
</g>
<path d="M24.189 2.37226C24.189 2.14455 24.3736 1.95996 24.6013 1.95996H30.5305C30.7582 1.95996 30.9428 2.14455 30.9428 2.37226V5.31837C30.9428 5.54608 30.7582 5.73067 30.5305 5.73067H24.6013C24.3736 5.73067 24.189 5.54608 24.189 5.31837V2.37226Z" fill="white"/>
<path d="M10.9485 5.0776V4.79622L11.486 4.35164C11.5216 4.32209 11.5521 4.29443 11.5774 4.26863C11.6032 4.24237 11.6229 4.2154 11.6365 4.18774C11.6506 4.16007 11.6576 4.12935 11.6576 4.09558C11.6576 4.05854 11.6497 4.02688 11.6337 4.00062C11.6182 3.97436 11.5967 3.95419 11.569 3.94012C11.5413 3.92558 11.5094 3.91832 11.4733 3.91832C11.4372 3.91832 11.4053 3.92558 11.3777 3.94012C11.3505 3.95466 11.3293 3.976 11.3143 4.00414C11.2993 4.03227 11.2918 4.06651 11.2918 4.10684H10.9204C10.9204 4.00554 10.9432 3.91832 10.9886 3.84516C11.0341 3.772 11.0984 3.71572 11.1814 3.67633C11.2644 3.63694 11.3617 3.61724 11.4733 3.61724C11.5887 3.61724 11.6886 3.63576 11.773 3.67281C11.8579 3.70939 11.9233 3.76098 11.9692 3.82757C12.0157 3.89416 12.0389 3.97225 12.0389 4.06182C12.0389 4.11716 12.0274 4.17226 12.0044 4.22713C11.9814 4.28153 11.9402 4.34179 11.8806 4.40792C11.8211 4.47404 11.7364 4.55283 11.6267 4.64427L11.4916 4.75683V4.76527H12.0544V5.0776H10.9485Z" fill="white"/>
<path d="M12.8566 5.11699C12.7258 5.11652 12.6128 5.08627 12.5176 5.02625C12.4224 4.96622 12.349 4.87969 12.2974 4.76667C12.2458 4.65365 12.2203 4.51812 12.2207 4.36008C12.2212 4.20157 12.247 4.06698 12.2981 3.9563C12.3497 3.84563 12.4229 3.76145 12.5176 3.70376C12.6128 3.64608 12.7258 3.61724 12.8566 3.61724C12.9875 3.61724 13.1005 3.64632 13.1957 3.70447C13.2909 3.76215 13.3643 3.84633 13.4159 3.95701C13.4675 4.06768 13.493 4.20204 13.4926 4.36008C13.4926 4.51906 13.4668 4.65506 13.4152 4.76808C13.3636 4.8811 13.2902 4.96762 13.195 5.02765C13.1003 5.08721 12.9875 5.11699 12.8566 5.11699ZM12.8566 4.79903C12.9242 4.79903 12.9795 4.76386 13.0227 4.69351C13.0663 4.6227 13.0878 4.51156 13.0874 4.36008C13.0874 4.26113 13.0775 4.18023 13.0578 4.11739C13.0381 4.05455 13.0109 4.00812 12.9762 3.97811C12.9415 3.94763 12.9017 3.93238 12.8566 3.93238C12.7891 3.93238 12.734 3.96662 12.6913 4.03509C12.6487 4.10356 12.6269 4.21189 12.6259 4.36008C12.6254 4.46091 12.6351 4.54392 12.6548 4.6091C12.6745 4.67382 12.7017 4.72165 12.7364 4.7526C12.7715 4.78356 12.8116 4.79903 12.8566 4.79903Z" fill="white"/>
<path d="M14.3824 3.63694V5.0776H13.9913V3.9971H13.9829L13.6677 4.18563V3.8536L14.0223 3.63694H14.3824Z" fill="white"/>
<path d="M15.241 3.61724C15.3249 3.61724 15.4044 3.63061 15.4795 3.65734C15.5545 3.6836 15.6208 3.7251 15.6785 3.78185C15.7367 3.83859 15.7822 3.91269 15.815 4.00414C15.8483 4.09512 15.8652 4.20532 15.8656 4.33476C15.8661 4.45294 15.8513 4.55916 15.8213 4.65342C15.7918 4.74721 15.7493 4.82717 15.694 4.89329C15.6391 4.95942 15.573 5.01007 15.4956 5.04524C15.4187 5.07994 15.3329 5.09729 15.2382 5.09729C15.1317 5.09729 15.0382 5.07689 14.9575 5.03609C14.8768 4.99529 14.8126 4.94042 14.7647 4.87149C14.7169 4.80255 14.689 4.72587 14.681 4.64146H15.0665C15.0759 4.68507 15.0965 4.71673 15.1284 4.73643C15.1603 4.75565 15.1969 4.76527 15.2382 4.76527C15.3207 4.76527 15.381 4.72963 15.419 4.65834C15.4574 4.58659 15.4769 4.49092 15.4773 4.37134H15.4689C15.4506 4.41542 15.4229 4.45317 15.3859 4.48459C15.3488 4.51601 15.3057 4.54016 15.2565 4.55705C15.2072 4.57393 15.1552 4.58237 15.1003 4.58237C15.0135 4.58237 14.9376 4.56291 14.8724 4.52398C14.8072 4.48459 14.7563 4.43089 14.7197 4.36289C14.6831 4.29443 14.6646 4.21658 14.6642 4.12935C14.6637 4.02712 14.6878 3.93754 14.7366 3.86063C14.7854 3.78372 14.8531 3.72393 14.9399 3.68125C15.0267 3.63858 15.127 3.61724 15.241 3.61724ZM15.2438 3.91269C15.2049 3.91269 15.1702 3.9216 15.1397 3.93942C15.1097 3.95724 15.086 3.98139 15.0686 4.01187C15.0518 4.04236 15.0435 4.07683 15.044 4.11528C15.0445 4.15374 15.0532 4.18821 15.07 4.21869C15.0874 4.24917 15.1108 4.27332 15.1404 4.29114C15.1704 4.30896 15.2049 4.31787 15.2438 4.31787C15.2724 4.31787 15.2989 4.31295 15.3233 4.3031C15.3477 4.29278 15.3688 4.27848 15.3866 4.26019C15.4049 4.24143 15.419 4.21986 15.4288 4.19547C15.4391 4.17062 15.444 4.14389 15.4436 4.11528C15.4431 4.07683 15.4342 4.04236 15.4168 4.01187C15.3995 3.98139 15.3758 3.95724 15.3458 3.93942C15.3158 3.9216 15.2818 3.91269 15.2438 3.91269Z" fill="white"/>
<path d="M16.5725 4.60218V4.30108H16.9152V4.60218H16.5725ZM17.8363 4.60218H17.1589V4.30108H17.6818V4.0812H17.1589V3.84547H17.7274V3.61767H16.6082C16.6339 3.56418 16.6557 3.5107 16.6735 3.45523L16.4339 3.39383C16.3487 3.64936 16.1961 3.90292 16.0179 4.05347C16.0753 4.08714 16.1763 4.16638 16.2219 4.206C16.315 4.11289 16.4101 3.98612 16.4913 3.84547H16.9152V4.0812H16.3368V4.60218H16.0238V4.828H16.9152V5.25192H17.1589V4.828H17.8363V4.60218Z" fill="white"/>
<path d="M18.8347 3.51268L18.5396 3.48297C18.5415 3.60776 18.5257 3.75237 18.498 3.90292C18.3969 3.91084 18.3038 3.91678 18.2424 3.91877C18.1691 3.92075 18.1018 3.92471 18.0305 3.91877L18.0542 4.18817C18.1137 4.17826 18.2186 4.1644 18.2741 4.15449C18.3118 4.15053 18.3732 4.14261 18.4445 4.13468C18.3732 4.40607 18.2365 4.80621 18.0443 5.06571L18.3018 5.16872C18.4841 4.87753 18.6307 4.40805 18.706 4.10695C18.7614 4.10299 18.8109 4.09903 18.8426 4.09903C18.9674 4.09903 19.0348 4.12082 19.0348 4.27929C19.0348 4.4754 19.009 4.71509 18.9555 4.828C18.9239 4.89337 18.8723 4.91318 18.807 4.91318C18.7535 4.91318 18.6406 4.89337 18.5633 4.87158L18.6069 5.13306C18.6743 5.14693 18.7674 5.1608 18.8446 5.1608C18.9932 5.1608 19.1041 5.11722 19.1695 4.97855C19.2547 4.80621 19.2824 4.48531 19.2824 4.25156C19.2824 3.96631 19.1338 3.8732 18.9239 3.8732C18.8823 3.8732 18.8228 3.87717 18.7575 3.88113C18.7713 3.80982 18.7852 3.73652 18.7991 3.6771C18.809 3.62757 18.8228 3.56418 18.8347 3.51268ZM19.5161 3.69889L19.2804 3.79991C19.4211 3.97423 19.5617 4.33278 19.6132 4.55266L19.8648 4.43578C19.8054 4.2476 19.639 3.86924 19.5161 3.69889Z" fill="white"/>
<path d="M20.5621 3.48297L20.4987 3.72068C20.6532 3.76029 21.0949 3.8534 21.295 3.87915L21.3544 3.63748C21.1821 3.61767 20.7502 3.54239 20.5621 3.48297ZM20.5739 3.88113L20.3085 3.84349C20.2946 4.08912 20.2491 4.47738 20.2095 4.67151L20.4373 4.72896C20.4551 4.68934 20.4749 4.65764 20.5106 4.61406C20.6354 4.46352 20.8374 4.38032 21.0613 4.38032C21.2336 4.38032 21.3564 4.4754 21.3564 4.60416C21.3564 4.85574 21.0414 5.00034 20.4472 4.91912L20.5224 5.17862C21.3465 5.24796 21.6318 4.97063 21.6318 4.6101C21.6318 4.37041 21.4297 4.15647 21.083 4.15647C20.875 4.15647 20.6789 4.21392 20.4987 4.34466C20.5125 4.23175 20.5482 3.99008 20.5739 3.88113Z" fill="white"/>
<path d="M22.022 4.5586C22.0061 4.725 21.9744 4.9013 21.917 5.01817C21.9685 5.036 22.0557 5.0776 22.0973 5.10335C22.1547 4.97657 22.1963 4.77848 22.2161 4.59227L22.022 4.5586ZM22.4637 4.60218C22.5133 4.72301 22.5648 4.88347 22.5806 4.98449L22.7668 4.91912C22.743 4.8181 22.6915 4.66359 22.6381 4.54671L22.4637 4.60218ZM23.0818 3.73454C23.1194 3.64342 23.1531 3.54834 23.1788 3.45127L22.9372 3.39977C22.8738 3.64936 22.7569 3.90292 22.6103 4.05941L22.5965 4.03564L22.4301 4.10893C22.4538 4.15053 22.4776 4.19807 22.4994 4.24562L22.2993 4.25354C22.4281 4.09309 22.5667 3.89103 22.6777 3.71671L22.4776 3.63352C22.4301 3.73256 22.3667 3.84745 22.2954 3.95838C22.2755 3.93263 22.2518 3.90292 22.226 3.87519C22.2973 3.76426 22.3786 3.61173 22.4499 3.47504L22.2419 3.40175C22.2082 3.50476 22.1527 3.63748 22.0973 3.74643C22.0814 3.73256 22.0656 3.71869 22.0497 3.70483L21.9388 3.86726C22.022 3.9465 22.1191 4.05347 22.1765 4.13865C22.1468 4.18223 22.1151 4.22383 22.0854 4.26146L21.9388 4.26741L21.9586 4.47342L22.2518 4.45361V5.25192H22.4598V4.43776L22.5727 4.42984C22.5846 4.46946 22.5945 4.50511 22.6004 4.53681L22.7787 4.45361C22.7569 4.35457 22.6935 4.20798 22.6242 4.08318C22.6836 4.11884 22.7708 4.17826 22.8104 4.21392C22.8698 4.14261 22.9253 4.05545 22.9788 3.95838H23.5255C23.5037 4.63387 23.474 4.92309 23.4146 4.98449C23.3908 5.01025 23.369 5.01817 23.3314 5.01817C23.2779 5.01817 23.165 5.01817 23.0402 5.00628C23.0838 5.07364 23.1155 5.17664 23.1194 5.24399C23.2343 5.24796 23.3571 5.24994 23.4284 5.23805C23.5116 5.22617 23.5631 5.20438 23.6186 5.1291C23.7018 5.02411 23.7295 4.71113 23.7553 3.84349C23.7573 3.81378 23.7573 3.73454 23.7573 3.73454H23.0818ZM23.3056 4.63982C23.264 4.51502 23.1511 4.33278 23.0481 4.19609L22.8599 4.29118C22.9609 4.4338 23.0639 4.62397 23.1016 4.74877L23.3056 4.63982Z" fill="white"/>
<path d="M24.8189 5.0776V4.58518L25.7595 3.80717C25.8218 3.75547 25.8752 3.70705 25.9195 3.66191C25.9646 3.61595 25.9991 3.56876 26.0229 3.52034C26.0475 3.47192 26.0598 3.41816 26.0598 3.35908C26.0598 3.29424 26.0459 3.23884 26.018 3.19289C25.9909 3.14693 25.9531 3.11164 25.9047 3.08702C25.8563 3.06158 25.8005 3.04885 25.7373 3.04885C25.6741 3.04885 25.6183 3.06158 25.5699 3.08702C25.5223 3.11246 25.4853 3.1498 25.4591 3.19904C25.4328 3.24828 25.4197 3.30819 25.4197 3.37877H24.7697C24.7697 3.2015 24.8095 3.04885 24.8891 2.92083C24.9687 2.7928 25.0812 2.69432 25.2264 2.62538C25.3717 2.55644 25.542 2.52197 25.7373 2.52197C25.9392 2.52197 26.114 2.55439 26.2617 2.61922C26.4103 2.68324 26.5247 2.77351 26.6052 2.89005C26.6864 3.00659 26.727 3.14323 26.727 3.29999C26.727 3.39683 26.7069 3.49326 26.6667 3.58928C26.6265 3.68448 26.5543 3.78994 26.4501 3.90565C26.3458 4.02137 26.1977 4.15925 26.0057 4.31928L25.7693 4.51625V4.53102H26.7541V5.0776H24.8189Z" fill="white"/>
<path d="M27.4343 5.11699C27.3391 5.11699 27.2574 5.08375 27.1893 5.01728C27.122 4.94998 27.0888 4.86832 27.0896 4.7723C27.0888 4.67874 27.122 4.59873 27.1893 4.53225C27.2574 4.46577 27.3391 4.43254 27.4343 4.43254C27.5245 4.43254 27.6042 4.46577 27.6731 4.53225C27.7428 4.59873 27.7781 4.67874 27.779 4.7723C27.7781 4.83631 27.7613 4.89458 27.7285 4.94711C27.6965 4.99881 27.6546 5.04026 27.6029 5.07144C27.5512 5.10181 27.495 5.11699 27.4343 5.11699Z" fill="white"/>
<path d="M29.0854 5.11207C28.9385 5.11207 28.799 5.08909 28.6668 5.04313C28.5355 4.99635 28.419 4.9229 28.3172 4.82277C28.2155 4.72265 28.1354 4.59216 28.0772 4.4313C28.0197 4.27045 27.9914 4.07554 27.9922 3.84656C27.9931 3.64221 28.0193 3.45838 28.071 3.29506C28.1235 3.13174 28.1978 2.99264 28.2938 2.87774C28.3907 2.76284 28.5064 2.67503 28.641 2.6143C28.7756 2.55275 28.9254 2.52197 29.0903 2.52197C29.2758 2.52197 29.4391 2.55767 29.5803 2.62907C29.7214 2.70047 29.8339 2.79608 29.9176 2.9159C30.0021 3.0349 30.0513 3.16621 30.0653 3.30983H29.3907C29.3751 3.23843 29.339 3.18632 29.2824 3.15349C29.2265 3.11984 29.1625 3.10302 29.0903 3.10302C28.9467 3.10302 28.8412 3.16539 28.7739 3.29014C28.7075 3.41488 28.6734 3.57902 28.6718 3.78255H28.6865C28.7185 3.70541 28.767 3.63934 28.8318 3.58435C28.8966 3.52937 28.9721 3.4871 29.0583 3.45756C29.1445 3.42801 29.2356 3.41324 29.3316 3.41324C29.4842 3.41324 29.6176 3.44771 29.7317 3.51665C29.8466 3.58559 29.936 3.67996 30 3.79978C30.0641 3.91961 30.0957 4.05666 30.0948 4.21095C30.0957 4.3915 30.053 4.54948 29.9668 4.6849C29.8815 4.82031 29.7629 4.92536 29.611 5.00004C29.4592 5.07472 29.284 5.11207 29.0854 5.11207ZM29.0805 4.59503C29.1486 4.59503 29.2089 4.57944 29.2614 4.54825C29.3148 4.51707 29.3562 4.47439 29.3858 4.42023C29.4161 4.36606 29.4309 4.30451 29.4301 4.23557C29.4309 4.16581 29.4161 4.10426 29.3858 4.05092C29.3562 3.99675 29.3148 3.95407 29.2614 3.92289C29.2089 3.8917 29.1486 3.87611 29.0805 3.87611C29.0304 3.87611 28.984 3.88514 28.9414 3.90319C28.8995 3.92043 28.863 3.94546 28.8318 3.97828C28.8006 4.01029 28.776 4.04845 28.7579 4.09277C28.7407 4.13627 28.7317 4.18387 28.7309 4.23557C28.7317 4.30451 28.7473 4.36606 28.7776 4.42023C28.808 4.47439 28.8494 4.51707 28.902 4.54825C28.9545 4.57944 29.014 4.59503 29.0805 4.59503Z" fill="white"/>
<path d="M31.8947 3.40571C31.7936 3.68898 31.6233 3.97027 31.445 4.14855C31.4846 4.20402 31.548 4.33476 31.5698 4.3922C31.6154 4.34466 31.6609 4.29118 31.7045 4.23373V5.24597H31.9283V3.88509C32.0016 3.75237 32.067 3.61371 32.1185 3.47702L31.8947 3.40571ZM32.9842 4.6834V4.94884H32.4156V4.6834H32.9842ZM32.1859 5.24994H32.4156V5.16674H32.9842V5.24003H33.2239V4.46946H32.1859V5.24994ZM32.9029 3.80784C32.8831 3.895 32.8435 4.00989 32.8118 4.08912L32.9168 4.10893H32.4434L32.5484 4.0812C32.5365 4.00791 32.5028 3.89698 32.4612 3.80784H32.9029ZM33.0297 4.10893C33.0634 4.03762 33.101 3.93857 33.1407 3.83557L32.9842 3.80784H33.3051V3.59786H32.8098V3.40175H32.5682V3.59786H32.0967V3.80784H32.376L32.2473 3.83755C32.2849 3.92273 32.3146 4.0297 32.3265 4.10893H32.0234V4.32485H33.3447V4.10893H33.0297Z" fill="white"/>
<path d="M34.2896 3.69294V3.9465C34.5392 3.97027 34.8977 3.96829 35.1414 3.9465V3.69096C34.9274 3.71671 34.5332 3.72662 34.2896 3.69294ZM34.4481 4.53879L34.2203 4.517C34.1985 4.61803 34.1866 4.69726 34.1866 4.77452C34.1866 4.97855 34.351 5.09939 34.6917 5.09939C34.9155 5.09939 35.074 5.08552 35.2028 5.06175L35.1988 4.79433C35.0245 4.82998 34.8779 4.84583 34.7016 4.84583C34.4996 4.84583 34.4243 4.79235 34.4243 4.70519C34.4243 4.6517 34.4322 4.60416 34.4481 4.53879ZM33.9845 3.56022L33.7072 3.53645C33.7052 3.59984 33.6933 3.67511 33.6874 3.73058C33.6656 3.88311 33.6042 4.21788 33.6042 4.51502C33.6042 4.78442 33.6418 5.02609 33.6814 5.16278L33.9112 5.14693C33.9092 5.1192 33.9073 5.0875 33.9073 5.06571C33.9073 5.0459 33.9112 5.00232 33.9172 4.97261C33.939 4.86762 34.0043 4.6517 34.0598 4.48729L33.937 4.39022C33.9092 4.45559 33.8776 4.52492 33.8478 4.59227C33.8419 4.55266 33.8399 4.50115 33.8399 4.46352C33.8399 4.26542 33.9092 3.86924 33.935 3.73652C33.9429 3.70087 33.9687 3.60182 33.9845 3.56022Z" fill="white"/>
<path d="M36.2725 4.5685H36.4745L36.528 3.89103L36.5379 3.59588H36.2091L36.219 3.89103L36.2725 4.5685ZM36.3735 5.09543C36.4725 5.09543 36.5478 5.02411 36.5478 4.92111C36.5478 4.81612 36.4725 4.7448 36.3735 4.7448C36.2745 4.7448 36.1992 4.81612 36.1992 4.92111C36.1992 5.02411 36.2725 5.09543 36.3735 5.09543Z" fill="white"/>
<path d="M24.8188 5.0776V4.58518L25.7593 3.80717C25.8217 3.75547 25.875 3.70705 25.9193 3.66191C25.9645 3.61595 25.9989 3.56876 26.0227 3.52034C26.0473 3.47192 26.0597 3.41816 26.0597 3.35908C26.0597 3.29424 26.0457 3.23884 26.0178 3.19289C25.9907 3.14693 25.953 3.11164 25.9045 3.08702C25.8561 3.06158 25.8003 3.04885 25.7371 3.04885C25.6739 3.04885 25.6181 3.06158 25.5697 3.08702C25.5221 3.11246 25.4852 3.1498 25.4589 3.19904C25.4326 3.24828 25.4195 3.30819 25.4195 3.37877H24.7695C24.7695 3.2015 24.8093 3.04885 24.8889 2.92083C24.9685 2.7928 25.081 2.69432 25.2262 2.62538C25.3715 2.55644 25.5418 2.52197 25.7371 2.52197C25.939 2.52197 26.1138 2.55439 26.2615 2.61922C26.4101 2.68324 26.5246 2.77351 26.605 2.89005C26.6862 3.00659 26.7269 3.14323 26.7269 3.29999C26.7269 3.39683 26.7068 3.49326 26.6666 3.58928C26.6263 3.68448 26.5541 3.78994 26.4499 3.90565C26.3457 4.02137 26.1975 4.15925 26.0055 4.31928L25.7691 4.51625V4.53102H26.754V5.0776H24.8188Z" fill="url(#paint2_linear_242_3682)"/>
<path d="M27.4341 5.11699C27.3389 5.11699 27.2572 5.08375 27.1891 5.01728C27.1218 4.94998 27.0886 4.86832 27.0894 4.7723C27.0886 4.67874 27.1218 4.59873 27.1891 4.53225C27.2572 4.46577 27.3389 4.43254 27.4341 4.43254C27.5244 4.43254 27.604 4.46577 27.6729 4.53225C27.7427 4.59873 27.778 4.67874 27.7788 4.7723C27.778 4.83631 27.7611 4.89458 27.7283 4.94711C27.6963 4.99881 27.6545 5.04026 27.6028 5.07144C27.551 5.10181 27.4948 5.11699 27.4341 5.11699Z" fill="url(#paint3_linear_242_3682)"/>
<path d="M29.0852 5.11207C28.9383 5.11207 28.7988 5.08909 28.6667 5.04313C28.5354 4.99635 28.4188 4.9229 28.3171 4.82277C28.2153 4.72265 28.1353 4.59216 28.077 4.4313C28.0196 4.27045 27.9912 4.07554 27.9921 3.84656C27.9929 3.64221 28.0191 3.45838 28.0708 3.29506C28.1234 3.13174 28.1976 2.99264 28.2937 2.87774C28.3905 2.76284 28.5062 2.67503 28.6408 2.6143C28.7754 2.55275 28.9252 2.52197 29.0901 2.52197C29.2756 2.52197 29.4389 2.55767 29.5801 2.62907C29.7213 2.70047 29.8337 2.79608 29.9174 2.9159C30.0019 3.0349 30.0512 3.16621 30.0651 3.30983H29.3905C29.3749 3.23843 29.3388 3.18632 29.2822 3.15349C29.2264 3.11984 29.1624 3.10302 29.0901 3.10302C28.9465 3.10302 28.8411 3.16539 28.7738 3.29014C28.7073 3.41488 28.6732 3.57902 28.6716 3.78255H28.6864C28.7184 3.70541 28.7668 3.63934 28.8316 3.58435C28.8965 3.52937 28.972 3.4871 29.0581 3.45756C29.1443 3.42801 29.2354 3.41324 29.3314 3.41324C29.4841 3.41324 29.6174 3.44771 29.7315 3.51665C29.8464 3.58559 29.9359 3.67996 29.9999 3.79978C30.0639 3.91961 30.0955 4.05666 30.0947 4.21095C30.0955 4.3915 30.0528 4.54948 29.9666 4.6849C29.8813 4.82031 29.7627 4.92536 29.6109 5.00004C29.459 5.07472 29.2838 5.11207 29.0852 5.11207ZM29.0803 4.59503C29.1484 4.59503 29.2087 4.57944 29.2613 4.54825C29.3146 4.51707 29.356 4.47439 29.3856 4.42023C29.416 4.36606 29.4307 4.30451 29.4299 4.23557C29.4307 4.16581 29.416 4.10426 29.3856 4.05092C29.356 3.99675 29.3146 3.95407 29.2613 3.92289C29.2087 3.8917 29.1484 3.87611 29.0803 3.87611C29.0302 3.87611 28.9839 3.88514 28.9412 3.90319C28.8993 3.92043 28.8628 3.94546 28.8316 3.97828C28.8004 4.01029 28.7758 4.04845 28.7578 4.09277C28.7405 4.13627 28.7315 4.18387 28.7307 4.23557C28.7315 4.30451 28.7471 4.36606 28.7775 4.42023C28.8078 4.47439 28.8493 4.51707 28.9018 4.54825C28.9543 4.57944 29.0138 4.59503 29.0803 4.59503Z" fill="url(#paint4_linear_242_3682)"/>
<defs>
<filter id="filter0_b_242_3682" x="9.5545" y="0.366507" width="28.6249" height="8.85927" filterUnits="userSpaceOnUse" color-interpolation-filters="sRGB">
<feFlood flood-opacity="0" result="BackgroundImageFix"/>
<feGaussianBlur in="BackgroundImageFix" stdDeviation="0.206151"/>
<feComposite in2="SourceAlpha" operator="in" result="effect1_backgroundBlur_242_3682"/>
<feBlend mode="normal" in="SourceGraphic" in2="effect1_backgroundBlur_242_3682" result="shape"/>
</filter>
<linearGradient id="paint0_linear_242_3682" x1="42.35" y1="32.7675" x2="48.7837" y2="27.3128" gradientUnits="userSpaceOnUse">
<stop stop-color="#C83467"/>
<stop offset="1" stop-color="#FE315C"/>
</linearGradient>
<linearGradient id="paint1_linear_242_3682" x1="9.9668" y1="8.81344" x2="38.2564" y2="3.27975" gradientUnits="userSpaceOnUse">
<stop stop-color="#C83467"/>
<stop offset="1" stop-color="#FE315C"/>
</linearGradient>
<linearGradient id="paint2_linear_242_3682" x1="24.7695" y1="5.11699" x2="30.321" y2="4.47296" gradientUnits="userSpaceOnUse">
<stop stop-color="#C83467"/>
<stop offset="1" stop-color="#FE315C"/>
</linearGradient>
<linearGradient id="paint3_linear_242_3682" x1="24.7695" y1="5.11699" x2="30.321" y2="4.47296" gradientUnits="userSpaceOnUse">
<stop stop-color="#C83467"/>
<stop offset="1" stop-color="#FE315C"/>
</linearGradient>
<linearGradient id="paint4_linear_242_3682" x1="24.7695" y1="5.11699" x2="30.321" y2="4.47296" gradientUnits="userSpaceOnUse">
<stop stop-color="#C83467"/>
<stop offset="1" stop-color="#FE315C"/>
</linearGradient>
</defs>
</svg>
