<?xml version="1.0" encoding="UTF-8" standalone="no"?><svg width="16" height="16" viewBox="0 0 16 16" fill="none" xmlns="http://www.w3.org/2000/svg">
<rect width="16" height="16" rx="0.8" fill="#2B3F53"/>
<g clip-path="url(#clip0_246_560)">
<path d="M11.8428 7.26677C12.1993 7.61541 12.4206 8.10165 12.4206 8.63973C12.4206 9.70005 11.5609 10.5597 10.5006 10.5597C9.44025 10.5597 8.58057 9.70005 8.58057 8.63973C8.58057 7.57941 9.44025 6.71973 10.5006 6.71973C10.8319 6.71973 11.1438 6.80373 11.4158 6.95141" stroke="url(#paint0_linear_246_560)" stroke-width="0.32" stroke-miterlimit="10"/>
<path d="M11.7802 10.0703V12.3193L10.5002 11.4818L9.22021 12.3193V10.0703" stroke="url(#paint1_linear_246_560)" stroke-width="0.32" stroke-miterlimit="10"/>
<path d="M8.74007 9.4073C8.33351 9.82202 7.76695 10.0793 7.14039 10.0793C5.90327 10.0793 4.90039 9.07642 4.90039 7.8393V5.2793H9.38039V7.07962" stroke="url(#paint2_linear_246_560)" stroke-width="0.32" stroke-miterlimit="10"/>
<path d="M7.14014 10.0801V11.5201" stroke="url(#paint3_linear_246_560)" stroke-width="0.32" stroke-miterlimit="10"/>
<path d="M6.02051 11.5195H8.26051" stroke="url(#paint4_linear_246_560)" stroke-width="0.32" stroke-miterlimit="10"/>
<path d="M6.3211 9.21451C6.22558 9.15739 6.13646 9.09067 6.05518 9.01562" stroke="url(#paint5_linear_246_560)" stroke-width="0.32" stroke-miterlimit="10"/>
<path d="M5.74069 8.61489C5.61317 8.38513 5.54053 8.12081 5.54053 7.83953V7.51953" stroke="url(#paint6_linear_246_560)" stroke-width="0.32" stroke-miterlimit="10"/>
<path d="M4.90027 5.27965V4.79965C4.90027 4.71133 4.82859 4.63965 4.74027 4.63965H3.94027C3.85195 4.63965 3.78027 4.71133 3.78027 4.79965V6.55965C3.78027 7.00141 4.13851 7.35965 4.58027 7.35965H4.90027" stroke="url(#paint7_linear_246_560)" stroke-width="0.32" stroke-miterlimit="10"/>
<path d="M9.38037 5.27965V4.79965C9.38037 4.71133 9.45205 4.63965 9.54037 4.63965H10.3404C10.4287 4.63965 10.5004 4.71133 10.5004 4.79965V6.55965C10.5004 6.61437 10.4949 6.66797 10.4844 6.71965" stroke="url(#paint8_linear_246_560)" stroke-width="0.32" stroke-miterlimit="10"/>
<path d="M7.14014 3.67969V4.47969" stroke="url(#paint9_linear_246_560)" stroke-width="0.32" stroke-miterlimit="10"/>
<path d="M7.84424 4.73595L8.35656 4.22363" stroke="url(#paint10_linear_246_560)" stroke-width="0.32" stroke-miterlimit="10"/>
<path d="M6.43664 4.73595L5.92432 4.22363" stroke="url(#paint11_linear_246_560)" stroke-width="0.32" stroke-miterlimit="10"/>
</g>
<defs>
<linearGradient id="paint0_linear_246_560" x1="8.58057" y1="10.5597" x2="12.4206" y2="10.5597" gradientUnits="userSpaceOnUse">
<stop stop-color="#FFF8D8"/>
<stop offset="0.263792" stop-color="#FFD158"/>
<stop offset="0.520833" stop-color="#DFA400"/>
<stop offset="0.739583" stop-color="#D89400"/>
<stop offset="1" stop-color="#DB8D02"/>
</linearGradient>
<linearGradient id="paint1_linear_246_560" x1="9.22021" y1="12.3193" x2="11.7802" y2="12.3193" gradientUnits="userSpaceOnUse">
<stop stop-color="#FFF8D8"/>
<stop offset="0.263792" stop-color="#FFD158"/>
<stop offset="0.520833" stop-color="#DFA400"/>
<stop offset="0.739583" stop-color="#D89400"/>
<stop offset="1" stop-color="#DB8D02"/>
</linearGradient>
<linearGradient id="paint2_linear_246_560" x1="4.90039" y1="10.0793" x2="9.38039" y2="10.0793" gradientUnits="userSpaceOnUse">
<stop stop-color="#FFF8D8"/>
<stop offset="0.263792" stop-color="#FFD158"/>
<stop offset="0.520833" stop-color="#DFA400"/>
<stop offset="0.739583" stop-color="#D89400"/>
<stop offset="1" stop-color="#DB8D02"/>
</linearGradient>
<linearGradient id="paint3_linear_246_560" x1="7.14014" y1="11.5201" x2="8.14014" y2="11.5201" gradientUnits="userSpaceOnUse">
<stop stop-color="#FFF8D8"/>
<stop offset="0.263792" stop-color="#FFD158"/>
<stop offset="0.520833" stop-color="#DFA400"/>
<stop offset="0.739583" stop-color="#D89400"/>
<stop offset="1" stop-color="#DB8D02"/>
</linearGradient>
<linearGradient id="paint4_linear_246_560" x1="6.02051" y1="12.5195" x2="8.26051" y2="12.5195" gradientUnits="userSpaceOnUse">
<stop stop-color="#FFF8D8"/>
<stop offset="0.263792" stop-color="#FFD158"/>
<stop offset="0.520833" stop-color="#DFA400"/>
<stop offset="0.739583" stop-color="#D89400"/>
<stop offset="1" stop-color="#DB8D02"/>
</linearGradient>
<linearGradient id="paint5_linear_246_560" x1="6.05518" y1="9.21451" x2="6.3211" y2="9.21451" gradientUnits="userSpaceOnUse">
<stop stop-color="#FFF8D8"/>
<stop offset="0.263792" stop-color="#FFD158"/>
<stop offset="0.520833" stop-color="#DFA400"/>
<stop offset="0.739583" stop-color="#D89400"/>
<stop offset="1" stop-color="#DB8D02"/>
</linearGradient>
<linearGradient id="paint6_linear_246_560" x1="5.54053" y1="8.61489" x2="5.74069" y2="8.61489" gradientUnits="userSpaceOnUse">
<stop stop-color="#FFF8D8"/>
<stop offset="0.263792" stop-color="#FFD158"/>
<stop offset="0.520833" stop-color="#DFA400"/>
<stop offset="0.739583" stop-color="#D89400"/>
<stop offset="1" stop-color="#DB8D02"/>
</linearGradient>
<linearGradient id="paint7_linear_246_560" x1="3.78027" y1="7.35965" x2="4.90027" y2="7.35965" gradientUnits="userSpaceOnUse">
<stop stop-color="#FFF8D8"/>
<stop offset="0.263792" stop-color="#FFD158"/>
<stop offset="0.520833" stop-color="#DFA400"/>
<stop offset="0.739583" stop-color="#D89400"/>
<stop offset="1" stop-color="#DB8D02"/>
</linearGradient>
<linearGradient id="paint8_linear_246_560" x1="9.38037" y1="6.71965" x2="10.5004" y2="6.71965" gradientUnits="userSpaceOnUse">
<stop stop-color="#FFF8D8"/>
<stop offset="0.263792" stop-color="#FFD158"/>
<stop offset="0.520833" stop-color="#DFA400"/>
<stop offset="0.739583" stop-color="#D89400"/>
<stop offset="1" stop-color="#DB8D02"/>
</linearGradient>
<linearGradient id="paint9_linear_246_560" x1="7.14014" y1="4.47969" x2="8.14014" y2="4.47969" gradientUnits="userSpaceOnUse">
<stop stop-color="#FFF8D8"/>
<stop offset="0.263792" stop-color="#FFD158"/>
<stop offset="0.520833" stop-color="#DFA400"/>
<stop offset="0.739583" stop-color="#D89400"/>
<stop offset="1" stop-color="#DB8D02"/>
</linearGradient>
<linearGradient id="paint10_linear_246_560" x1="7.84424" y1="4.73595" x2="8.35656" y2="4.73595" gradientUnits="userSpaceOnUse">
<stop stop-color="#FFF8D8"/>
<stop offset="0.263792" stop-color="#FFD158"/>
<stop offset="0.520833" stop-color="#DFA400"/>
<stop offset="0.739583" stop-color="#D89400"/>
<stop offset="1" stop-color="#DB8D02"/>
</linearGradient>
<linearGradient id="paint11_linear_246_560" x1="5.92432" y1="4.73595" x2="6.43664" y2="4.73595" gradientUnits="userSpaceOnUse">
<stop stop-color="#FFF8D8"/>
<stop offset="0.263792" stop-color="#FFD158"/>
<stop offset="0.520833" stop-color="#DFA400"/>
<stop offset="0.739583" stop-color="#D89400"/>
<stop offset="1" stop-color="#DB8D02"/>
</linearGradient>
<clipPath id="clip0_246_560">
<rect width="9.6" height="9.6" fill="white" transform="translate(3.2998 3.19922)"/>
</clipPath>
</defs>
</svg>
