<?xml version="1.0" encoding="UTF-8" standalone="no"?><svg width="16" height="16" viewBox="0 0 16 16" fill="none" xmlns="http://www.w3.org/2000/svg">
<rect width="16" height="16" rx="0.8" fill="#2B3F53"/>
<g clip-path="url(#clip0_246_576)">
<path d="M6.475 6.98926L3.50684 8.53646" stroke="url(#paint0_linear_246_576)" stroke-width="0.32" stroke-miterlimit="10"/>
<path d="M7.10699 6.66016L6.85547 6.7912" stroke="url(#paint1_linear_246_576)" stroke-width="0.32" stroke-miterlimit="10"/>
<path d="M8.97644 10.3498L10.6699 7.10176C10.6904 7.06224 10.7292 7.03984 10.7696 7.03984C10.7996 7.03984 10.8302 7.04992 10.8536 7.07344L11.548 7.76768C11.5942 7.81392 11.6568 7.83984 11.7224 7.83984C11.8467 7.83984 11.9518 7.7472 11.9672 7.62368L12.4188 4.02016C12.4196 4.0136 12.4201 4.00672 12.4201 3.99984C12.4201 3.91136 12.3486 3.83984 12.2601 3.83984C12.2532 3.83984 12.2464 3.84032 12.2398 3.84112L8.63628 4.2928C8.5126 4.30832 8.42012 4.41328 8.42012 4.5376C8.42012 4.60304 8.44604 4.66576 8.49228 4.712L9.18652 5.40624C9.21004 5.42976 9.22012 5.46048 9.22012 5.4904C9.22012 5.53072 9.19756 5.56944 9.1582 5.58992L7.49756 6.45584" stroke="url(#paint2_linear_246_576)" stroke-width="0.32" stroke-miterlimit="10"/>
<path d="M8.10043 8.95996H4.26043C4.08379 8.95996 3.94043 9.10332 3.94043 9.27996V11.84C3.94043 12.0166 4.08379 12.16 4.26043 12.16H8.10043C8.27707 12.16 8.42043 12.0166 8.42043 11.84V9.27996C8.42043 9.10332 8.27707 8.95996 8.10043 8.95996Z" stroke="url(#paint3_linear_246_576)" stroke-width="0.32" stroke-miterlimit="10"/>
<path d="M6.5002 9.91992H5.8602C5.77172 9.91992 5.7002 9.99144 5.7002 10.0799V10.7199C5.7002 10.8084 5.77172 10.8799 5.8602 10.8799H6.5002C6.58868 10.8799 6.6602 10.8084 6.6602 10.7199V10.0799C6.6602 9.99144 6.58868 9.91992 6.5002 9.91992Z" stroke="url(#paint4_linear_246_576)" stroke-width="0.32" stroke-miterlimit="10"/>
<path d="M6.98037 8.96031V8.48031C6.98037 8.39183 6.90885 8.32031 6.82037 8.32031H5.54037C5.45189 8.32031 5.38037 8.39183 5.38037 8.48031V8.96031" stroke="url(#paint5_linear_246_576)" stroke-width="0.32" stroke-miterlimit="10"/>
<path d="M4.02637 9.0625L4.80573 10.2551C4.86477 10.3455 4.96557 10.4001 5.07357 10.4001H5.70045" stroke="url(#paint6_linear_246_576)" stroke-width="0.32" stroke-miterlimit="10"/>
<path d="M8.33424 9.0625L7.55488 10.2551C7.49584 10.3455 7.3952 10.4001 7.28704 10.4001H6.66016" stroke="url(#paint7_linear_246_576)" stroke-width="0.32" stroke-miterlimit="10"/>
<path d="M4.16797 4.22754L4.83357 4.89314" stroke="url(#paint8_linear_246_576)" stroke-width="0.32" stroke-miterlimit="10"/>
<path d="M3.78027 5.75977H4.58027" stroke="url(#paint9_linear_246_576)" stroke-width="0.32" stroke-miterlimit="10"/>
<path d="M5.7002 3.83984V4.63984" stroke="url(#paint10_linear_246_576)" stroke-width="0.32" stroke-miterlimit="10"/>
<path d="M12.0328 12.0924L11.3672 11.4268" stroke="url(#paint11_linear_246_576)" stroke-width="0.32" stroke-miterlimit="10"/>
<path d="M12.4201 10.5596H11.6201" stroke="url(#paint12_linear_246_576)" stroke-width="0.32" stroke-miterlimit="10"/>
<path d="M10.5 12.4797V11.6797" stroke="url(#paint13_linear_246_576)" stroke-width="0.32" stroke-miterlimit="10"/>
</g>
<defs>
<linearGradient id="paint0_linear_246_576" x1="3.50684" y1="8.53646" x2="6.475" y2="8.53646" gradientUnits="userSpaceOnUse">
<stop stop-color="#FFF8D8"/>
<stop offset="0.263792" stop-color="#FFD158"/>
<stop offset="0.520833" stop-color="#DFA400"/>
<stop offset="0.739583" stop-color="#D89400"/>
<stop offset="1" stop-color="#DB8D02"/>
</linearGradient>
<linearGradient id="paint1_linear_246_576" x1="6.85547" y1="6.7912" x2="7.10699" y2="6.7912" gradientUnits="userSpaceOnUse">
<stop stop-color="#FFF8D8"/>
<stop offset="0.263792" stop-color="#FFD158"/>
<stop offset="0.520833" stop-color="#DFA400"/>
<stop offset="0.739583" stop-color="#D89400"/>
<stop offset="1" stop-color="#DB8D02"/>
</linearGradient>
<linearGradient id="paint2_linear_246_576" x1="7.49756" y1="10.3498" x2="12.4201" y2="10.3498" gradientUnits="userSpaceOnUse">
<stop stop-color="#FFF8D8"/>
<stop offset="0.263792" stop-color="#FFD158"/>
<stop offset="0.520833" stop-color="#DFA400"/>
<stop offset="0.739583" stop-color="#D89400"/>
<stop offset="1" stop-color="#DB8D02"/>
</linearGradient>
<linearGradient id="paint3_linear_246_576" x1="3.94043" y1="12.16" x2="8.42043" y2="12.16" gradientUnits="userSpaceOnUse">
<stop stop-color="#FFF8D8"/>
<stop offset="0.263792" stop-color="#FFD158"/>
<stop offset="0.520833" stop-color="#DFA400"/>
<stop offset="0.739583" stop-color="#D89400"/>
<stop offset="1" stop-color="#DB8D02"/>
</linearGradient>
<linearGradient id="paint4_linear_246_576" x1="5.7002" y1="10.8799" x2="6.6602" y2="10.8799" gradientUnits="userSpaceOnUse">
<stop stop-color="#FFF8D8"/>
<stop offset="0.263792" stop-color="#FFD158"/>
<stop offset="0.520833" stop-color="#DFA400"/>
<stop offset="0.739583" stop-color="#D89400"/>
<stop offset="1" stop-color="#DB8D02"/>
</linearGradient>
<linearGradient id="paint5_linear_246_576" x1="5.38037" y1="8.96031" x2="6.98037" y2="8.96031" gradientUnits="userSpaceOnUse">
<stop stop-color="#FFF8D8"/>
<stop offset="0.263792" stop-color="#FFD158"/>
<stop offset="0.520833" stop-color="#DFA400"/>
<stop offset="0.739583" stop-color="#D89400"/>
<stop offset="1" stop-color="#DB8D02"/>
</linearGradient>
<linearGradient id="paint6_linear_246_576" x1="4.02637" y1="10.4001" x2="5.70045" y2="10.4001" gradientUnits="userSpaceOnUse">
<stop stop-color="#FFF8D8"/>
<stop offset="0.263792" stop-color="#FFD158"/>
<stop offset="0.520833" stop-color="#DFA400"/>
<stop offset="0.739583" stop-color="#D89400"/>
<stop offset="1" stop-color="#DB8D02"/>
</linearGradient>
<linearGradient id="paint7_linear_246_576" x1="6.66016" y1="10.4001" x2="8.33424" y2="10.4001" gradientUnits="userSpaceOnUse">
<stop stop-color="#FFF8D8"/>
<stop offset="0.263792" stop-color="#FFD158"/>
<stop offset="0.520833" stop-color="#DFA400"/>
<stop offset="0.739583" stop-color="#D89400"/>
<stop offset="1" stop-color="#DB8D02"/>
</linearGradient>
<linearGradient id="paint8_linear_246_576" x1="4.16797" y1="4.89314" x2="4.83357" y2="4.89314" gradientUnits="userSpaceOnUse">
<stop stop-color="#FFF8D8"/>
<stop offset="0.263792" stop-color="#FFD158"/>
<stop offset="0.520833" stop-color="#DFA400"/>
<stop offset="0.739583" stop-color="#D89400"/>
<stop offset="1" stop-color="#DB8D02"/>
</linearGradient>
<linearGradient id="paint9_linear_246_576" x1="3.78027" y1="6.75977" x2="4.58027" y2="6.75977" gradientUnits="userSpaceOnUse">
<stop stop-color="#FFF8D8"/>
<stop offset="0.263792" stop-color="#FFD158"/>
<stop offset="0.520833" stop-color="#DFA400"/>
<stop offset="0.739583" stop-color="#D89400"/>
<stop offset="1" stop-color="#DB8D02"/>
</linearGradient>
<linearGradient id="paint10_linear_246_576" x1="5.7002" y1="4.63984" x2="6.7002" y2="4.63984" gradientUnits="userSpaceOnUse">
<stop stop-color="#FFF8D8"/>
<stop offset="0.263792" stop-color="#FFD158"/>
<stop offset="0.520833" stop-color="#DFA400"/>
<stop offset="0.739583" stop-color="#D89400"/>
<stop offset="1" stop-color="#DB8D02"/>
</linearGradient>
<linearGradient id="paint11_linear_246_576" x1="11.3672" y1="12.0924" x2="12.0328" y2="12.0924" gradientUnits="userSpaceOnUse">
<stop stop-color="#FFF8D8"/>
<stop offset="0.263792" stop-color="#FFD158"/>
<stop offset="0.520833" stop-color="#DFA400"/>
<stop offset="0.739583" stop-color="#D89400"/>
<stop offset="1" stop-color="#DB8D02"/>
</linearGradient>
<linearGradient id="paint12_linear_246_576" x1="11.6201" y1="11.5596" x2="12.4201" y2="11.5596" gradientUnits="userSpaceOnUse">
<stop stop-color="#FFF8D8"/>
<stop offset="0.263792" stop-color="#FFD158"/>
<stop offset="0.520833" stop-color="#DFA400"/>
<stop offset="0.739583" stop-color="#D89400"/>
<stop offset="1" stop-color="#DB8D02"/>
</linearGradient>
<linearGradient id="paint13_linear_246_576" x1="10.5" y1="12.4797" x2="11.5" y2="12.4797" gradientUnits="userSpaceOnUse">
<stop stop-color="#FFF8D8"/>
<stop offset="0.263792" stop-color="#FFD158"/>
<stop offset="0.520833" stop-color="#DFA400"/>
<stop offset="0.739583" stop-color="#D89400"/>
<stop offset="1" stop-color="#DB8D02"/>
</linearGradient>
<clipPath id="clip0_246_576">
<rect width="9.6" height="9.6" fill="white" transform="translate(3.2998 3.19922)"/>
</clipPath>
</defs>
</svg>
