<?xml version="1.0" encoding="UTF-8" standalone="no"?><svg width="16" height="16" viewBox="0 0 16 16" fill="none" xmlns="http://www.w3.org/2000/svg">
<rect width="16" height="16" rx="0.8" fill="#2B3F53"/>
<g clip-path="url(#clip0_246_594)">
<path d="M4.09963 5.91996C4.36473 5.91996 4.57963 5.70506 4.57963 5.43996C4.57963 5.17486 4.36473 4.95996 4.09963 4.95996C3.83453 4.95996 3.61963 5.17486 3.61963 5.43996C3.61963 5.70506 3.83453 5.91996 4.09963 5.91996Z" stroke="url(#paint0_linear_246_594)" stroke-width="0.32" stroke-miterlimit="10"/>
<path d="M5.06008 4.63969C5.32517 4.63969 5.54008 4.42478 5.54008 4.15969C5.54008 3.89459 5.32517 3.67969 5.06008 3.67969C4.79498 3.67969 4.58008 3.89459 4.58008 4.15969C4.58008 4.42478 4.79498 4.63969 5.06008 4.63969Z" stroke="url(#paint1_linear_246_594)" stroke-width="0.32" stroke-miterlimit="10"/>
<path d="M6.98 4.63969C7.2451 4.63969 7.46 4.42478 7.46 4.15969C7.46 3.89459 7.2451 3.67969 6.98 3.67969C6.7149 3.67969 6.5 3.89459 6.5 4.15969C6.5 4.42478 6.7149 4.63969 6.98 4.63969Z" stroke="url(#paint2_linear_246_594)" stroke-width="0.32" stroke-miterlimit="10"/>
<path d="M9.21975 4.63969C9.48484 4.63969 9.69975 4.42478 9.69975 4.15969C9.69975 3.89459 9.48484 3.67969 9.21975 3.67969C8.95465 3.67969 8.73975 3.89459 8.73975 4.15969C8.73975 4.42478 8.95465 4.63969 9.21975 4.63969Z" stroke="url(#paint3_linear_246_594)" stroke-width="0.32" stroke-miterlimit="10"/>
<path d="M11.1397 4.63969C11.4048 4.63969 11.6197 4.42478 11.6197 4.15969C11.6197 3.89459 11.4048 3.67969 11.1397 3.67969C10.8746 3.67969 10.6597 3.89459 10.6597 4.15969C10.6597 4.42478 10.8746 4.63969 11.1397 4.63969Z" stroke="url(#paint4_linear_246_594)" stroke-width="0.32" stroke-miterlimit="10"/>
<path d="M6.02004 5.91996C6.28514 5.91996 6.50004 5.70506 6.50004 5.43996C6.50004 5.17486 6.28514 4.95996 6.02004 4.95996C5.75494 4.95996 5.54004 5.17486 5.54004 5.43996C5.54004 5.70506 5.75494 5.91996 6.02004 5.91996Z" stroke="url(#paint5_linear_246_594)" stroke-width="0.32" stroke-miterlimit="10"/>
<path d="M6.6598 7.67969H3.2998" stroke="url(#paint6_linear_246_594)" stroke-width="0.32" stroke-miterlimit="10"/>
<path d="M3.63184 6.46021C3.77024 6.42149 3.92992 6.39941 4.09984 6.39941C4.63008 6.39941 5.05984 6.61429 5.05984 6.87941V7.67941" stroke="url(#paint7_linear_246_594)" stroke-width="0.32" stroke-miterlimit="10"/>
<path d="M6.48757 6.46021C6.34917 6.42149 6.18949 6.39941 6.01957 6.39941C5.48933 6.39941 5.05957 6.61429 5.05957 6.87941" stroke="url(#paint8_linear_246_594)" stroke-width="0.32" stroke-miterlimit="10"/>
<path d="M10.3399 5.91996C10.605 5.91996 10.8199 5.70506 10.8199 5.43996C10.8199 5.17486 10.605 4.95996 10.3399 4.95996C10.0748 4.95996 9.85986 5.17486 9.85986 5.43996C9.85986 5.70506 10.0748 5.91996 10.3399 5.91996Z" stroke="url(#paint9_linear_246_594)" stroke-width="0.32" stroke-miterlimit="10"/>
<path d="M12.2598 5.91996C12.5249 5.91996 12.7398 5.70506 12.7398 5.43996C12.7398 5.17486 12.5249 4.95996 12.2598 4.95996C11.9947 4.95996 11.7798 5.17486 11.7798 5.43996C11.7798 5.70506 11.9947 5.91996 12.2598 5.91996Z" stroke="url(#paint10_linear_246_594)" stroke-width="0.32" stroke-miterlimit="10"/>
<path d="M12.9 7.67969H9.54004" stroke="url(#paint11_linear_246_594)" stroke-width="0.32" stroke-miterlimit="10"/>
<path d="M9.87207 6.46021C10.0105 6.42149 10.1702 6.39941 10.3401 6.39941C10.8703 6.39941 11.3001 6.61429 11.3001 6.87941V7.67941" stroke="url(#paint12_linear_246_594)" stroke-width="0.32" stroke-miterlimit="10"/>
<path d="M12.7278 6.46021C12.5894 6.42149 12.4297 6.39941 12.2598 6.39941C11.7296 6.39941 11.2998 6.61429 11.2998 6.87941" stroke="url(#paint13_linear_246_594)" stroke-width="0.32" stroke-miterlimit="10"/>
<path d="M6.99805 5.1254C7.04429 5.12188 7.09181 5.12012 7.13997 5.12012C7.67021 5.12012 8.09997 5.335 8.09997 5.60012" stroke="url(#paint14_linear_246_594)" stroke-width="0.32" stroke-miterlimit="10"/>
<path d="M9.20153 5.1254C9.15529 5.12188 9.10777 5.12012 9.05961 5.12012C8.52937 5.12012 8.09961 5.335 8.09961 5.60012" stroke="url(#paint15_linear_246_594)" stroke-width="0.32" stroke-miterlimit="10"/>
<path d="M8.09965 8.32008C8.62984 8.32008 9.05965 7.81864 9.05965 7.20008C9.05965 6.58152 8.62984 6.08008 8.09965 6.08008C7.56946 6.08008 7.13965 6.58152 7.13965 7.20008C7.13965 7.81864 7.56946 8.32008 8.09965 8.32008Z" stroke="url(#paint16_linear_246_594)" stroke-width="0.32" stroke-miterlimit="10"/>
<path d="M6.97971 11.1992H6.01971C5.84291 11.1992 5.69971 11.3424 5.69971 11.5192V12.4792" stroke="url(#paint17_linear_246_594)" stroke-width="0.32" stroke-miterlimit="10"/>
<path d="M9.21973 11.1992H10.1797C10.3565 11.1992 10.4997 11.3424 10.4997 11.5192V12.4792" stroke="url(#paint18_linear_246_594)" stroke-width="0.32" stroke-miterlimit="10"/>
<path d="M9.21961 12.4798V10.0076L10.5274 10.3814C10.5695 10.3934 10.6138 10.3998 10.6596 10.3998C10.758 10.3998 10.8494 10.3702 10.9255 10.3195L11.8855 9.67948C12.0146 9.5934 12.0996 9.44652 12.0996 9.2798C12.0996 9.01468 11.8847 8.7998 11.6196 8.7998C11.5212 8.7998 11.4298 8.8294 11.3537 8.88012L10.5782 9.39708L9.24121 9.01516C9.11257 8.97852 8.97929 8.9598 8.84553 8.9598H7.35369C7.21993 8.9598 7.08681 8.97852 6.95817 9.01516L5.62121 9.39708L4.84569 8.88012C4.76937 8.8294 4.67801 8.7998 4.57961 8.7998C4.31449 8.7998 4.09961 9.01468 4.09961 9.2798C4.09961 9.44652 4.18457 9.5934 4.31369 9.67948L5.27369 10.3195C5.34985 10.3702 5.44121 10.3998 5.53961 10.3998C5.58537 10.3998 5.62969 10.3934 5.67177 10.3814L6.97961 10.0076V12.4798" stroke="url(#paint19_linear_246_594)" stroke-width="0.32" stroke-miterlimit="10"/>
</g>
<defs>
<linearGradient id="paint0_linear_246_594" x1="3.61963" y1="5.91996" x2="4.57963" y2="5.91996" gradientUnits="userSpaceOnUse">
<stop stop-color="#FFF8D8"/>
<stop offset="0.263792" stop-color="#FFD158"/>
<stop offset="0.520833" stop-color="#DFA400"/>
<stop offset="0.739583" stop-color="#D89400"/>
<stop offset="1" stop-color="#DB8D02"/>
</linearGradient>
<linearGradient id="paint1_linear_246_594" x1="4.58008" y1="4.63969" x2="5.54008" y2="4.63969" gradientUnits="userSpaceOnUse">
<stop stop-color="#FFF8D8"/>
<stop offset="0.263792" stop-color="#FFD158"/>
<stop offset="0.520833" stop-color="#DFA400"/>
<stop offset="0.739583" stop-color="#D89400"/>
<stop offset="1" stop-color="#DB8D02"/>
</linearGradient>
<linearGradient id="paint2_linear_246_594" x1="6.5" y1="4.63969" x2="7.46" y2="4.63969" gradientUnits="userSpaceOnUse">
<stop stop-color="#FFF8D8"/>
<stop offset="0.263792" stop-color="#FFD158"/>
<stop offset="0.520833" stop-color="#DFA400"/>
<stop offset="0.739583" stop-color="#D89400"/>
<stop offset="1" stop-color="#DB8D02"/>
</linearGradient>
<linearGradient id="paint3_linear_246_594" x1="8.73975" y1="4.63969" x2="9.69975" y2="4.63969" gradientUnits="userSpaceOnUse">
<stop stop-color="#FFF8D8"/>
<stop offset="0.263792" stop-color="#FFD158"/>
<stop offset="0.520833" stop-color="#DFA400"/>
<stop offset="0.739583" stop-color="#D89400"/>
<stop offset="1" stop-color="#DB8D02"/>
</linearGradient>
<linearGradient id="paint4_linear_246_594" x1="10.6597" y1="4.63969" x2="11.6197" y2="4.63969" gradientUnits="userSpaceOnUse">
<stop stop-color="#FFF8D8"/>
<stop offset="0.263792" stop-color="#FFD158"/>
<stop offset="0.520833" stop-color="#DFA400"/>
<stop offset="0.739583" stop-color="#D89400"/>
<stop offset="1" stop-color="#DB8D02"/>
</linearGradient>
<linearGradient id="paint5_linear_246_594" x1="5.54004" y1="5.91996" x2="6.50004" y2="5.91996" gradientUnits="userSpaceOnUse">
<stop stop-color="#FFF8D8"/>
<stop offset="0.263792" stop-color="#FFD158"/>
<stop offset="0.520833" stop-color="#DFA400"/>
<stop offset="0.739583" stop-color="#D89400"/>
<stop offset="1" stop-color="#DB8D02"/>
</linearGradient>
<linearGradient id="paint6_linear_246_594" x1="3.2998" y1="8.67969" x2="6.6598" y2="8.67969" gradientUnits="userSpaceOnUse">
<stop stop-color="#FFF8D8"/>
<stop offset="0.263792" stop-color="#FFD158"/>
<stop offset="0.520833" stop-color="#DFA400"/>
<stop offset="0.739583" stop-color="#D89400"/>
<stop offset="1" stop-color="#DB8D02"/>
</linearGradient>
<linearGradient id="paint7_linear_246_594" x1="3.63184" y1="7.67941" x2="5.05984" y2="7.67941" gradientUnits="userSpaceOnUse">
<stop stop-color="#FFF8D8"/>
<stop offset="0.263792" stop-color="#FFD158"/>
<stop offset="0.520833" stop-color="#DFA400"/>
<stop offset="0.739583" stop-color="#D89400"/>
<stop offset="1" stop-color="#DB8D02"/>
</linearGradient>
<linearGradient id="paint8_linear_246_594" x1="5.05957" y1="6.87941" x2="6.48757" y2="6.87941" gradientUnits="userSpaceOnUse">
<stop stop-color="#FFF8D8"/>
<stop offset="0.263792" stop-color="#FFD158"/>
<stop offset="0.520833" stop-color="#DFA400"/>
<stop offset="0.739583" stop-color="#D89400"/>
<stop offset="1" stop-color="#DB8D02"/>
</linearGradient>
<linearGradient id="paint9_linear_246_594" x1="9.85986" y1="5.91996" x2="10.8199" y2="5.91996" gradientUnits="userSpaceOnUse">
<stop stop-color="#FFF8D8"/>
<stop offset="0.263792" stop-color="#FFD158"/>
<stop offset="0.520833" stop-color="#DFA400"/>
<stop offset="0.739583" stop-color="#D89400"/>
<stop offset="1" stop-color="#DB8D02"/>
</linearGradient>
<linearGradient id="paint10_linear_246_594" x1="11.7798" y1="5.91996" x2="12.7398" y2="5.91996" gradientUnits="userSpaceOnUse">
<stop stop-color="#FFF8D8"/>
<stop offset="0.263792" stop-color="#FFD158"/>
<stop offset="0.520833" stop-color="#DFA400"/>
<stop offset="0.739583" stop-color="#D89400"/>
<stop offset="1" stop-color="#DB8D02"/>
</linearGradient>
<linearGradient id="paint11_linear_246_594" x1="9.54004" y1="8.67969" x2="12.9" y2="8.67969" gradientUnits="userSpaceOnUse">
<stop stop-color="#FFF8D8"/>
<stop offset="0.263792" stop-color="#FFD158"/>
<stop offset="0.520833" stop-color="#DFA400"/>
<stop offset="0.739583" stop-color="#D89400"/>
<stop offset="1" stop-color="#DB8D02"/>
</linearGradient>
<linearGradient id="paint12_linear_246_594" x1="9.87207" y1="7.67941" x2="11.3001" y2="7.67941" gradientUnits="userSpaceOnUse">
<stop stop-color="#FFF8D8"/>
<stop offset="0.263792" stop-color="#FFD158"/>
<stop offset="0.520833" stop-color="#DFA400"/>
<stop offset="0.739583" stop-color="#D89400"/>
<stop offset="1" stop-color="#DB8D02"/>
</linearGradient>
<linearGradient id="paint13_linear_246_594" x1="11.2998" y1="6.87941" x2="12.7278" y2="6.87941" gradientUnits="userSpaceOnUse">
<stop stop-color="#FFF8D8"/>
<stop offset="0.263792" stop-color="#FFD158"/>
<stop offset="0.520833" stop-color="#DFA400"/>
<stop offset="0.739583" stop-color="#D89400"/>
<stop offset="1" stop-color="#DB8D02"/>
</linearGradient>
<linearGradient id="paint14_linear_246_594" x1="6.99805" y1="5.60012" x2="8.09997" y2="5.60012" gradientUnits="userSpaceOnUse">
<stop stop-color="#FFF8D8"/>
<stop offset="0.263792" stop-color="#FFD158"/>
<stop offset="0.520833" stop-color="#DFA400"/>
<stop offset="0.739583" stop-color="#D89400"/>
<stop offset="1" stop-color="#DB8D02"/>
</linearGradient>
<linearGradient id="paint15_linear_246_594" x1="8.09961" y1="5.60012" x2="9.20153" y2="5.60012" gradientUnits="userSpaceOnUse">
<stop stop-color="#FFF8D8"/>
<stop offset="0.263792" stop-color="#FFD158"/>
<stop offset="0.520833" stop-color="#DFA400"/>
<stop offset="0.739583" stop-color="#D89400"/>
<stop offset="1" stop-color="#DB8D02"/>
</linearGradient>
<linearGradient id="paint16_linear_246_594" x1="7.13965" y1="8.32008" x2="9.05965" y2="8.32008" gradientUnits="userSpaceOnUse">
<stop stop-color="#FFF8D8"/>
<stop offset="0.263792" stop-color="#FFD158"/>
<stop offset="0.520833" stop-color="#DFA400"/>
<stop offset="0.739583" stop-color="#D89400"/>
<stop offset="1" stop-color="#DB8D02"/>
</linearGradient>
<linearGradient id="paint17_linear_246_594" x1="5.69971" y1="12.4792" x2="6.97971" y2="12.4792" gradientUnits="userSpaceOnUse">
<stop stop-color="#FFF8D8"/>
<stop offset="0.263792" stop-color="#FFD158"/>
<stop offset="0.520833" stop-color="#DFA400"/>
<stop offset="0.739583" stop-color="#D89400"/>
<stop offset="1" stop-color="#DB8D02"/>
</linearGradient>
<linearGradient id="paint18_linear_246_594" x1="9.21973" y1="12.4792" x2="10.4997" y2="12.4792" gradientUnits="userSpaceOnUse">
<stop stop-color="#FFF8D8"/>
<stop offset="0.263792" stop-color="#FFD158"/>
<stop offset="0.520833" stop-color="#DFA400"/>
<stop offset="0.739583" stop-color="#D89400"/>
<stop offset="1" stop-color="#DB8D02"/>
</linearGradient>
<linearGradient id="paint19_linear_246_594" x1="4.09961" y1="12.4798" x2="12.0996" y2="12.4798" gradientUnits="userSpaceOnUse">
<stop stop-color="#FFF8D8"/>
<stop offset="0.263792" stop-color="#FFD158"/>
<stop offset="0.520833" stop-color="#DFA400"/>
<stop offset="0.739583" stop-color="#D89400"/>
<stop offset="1" stop-color="#DB8D02"/>
</linearGradient>
<clipPath id="clip0_246_594">
<rect width="9.6" height="9.6" fill="white" transform="translate(3.2998 3.19922)"/>
</clipPath>
</defs>
</svg>
