<?xml version="1.0" encoding="UTF-8" standalone="no"?><svg width="60" height="60" viewBox="0 0 60 60" fill="none" xmlns="http://www.w3.org/2000/svg">
<g clip-path="url(#clip0_243_264)">
<path d="M59 50V52" stroke="url(#paint0_linear_243_264)" stroke-width="2" stroke-miterlimit="10"/>
<path d="M59 46V48" stroke="url(#paint1_linear_243_264)" stroke-width="2" stroke-miterlimit="10"/>
<path d="M59 42V44" stroke="url(#paint2_linear_243_264)" stroke-width="2" stroke-miterlimit="10"/>
<path d="M22 22V8.5C22 7.762 22.533 7.149 23.234 7.023L57.234 1.023C57.321 1.008 57.409 1 57.5 1C58.328 1 59 1.672 59 2.5V40" stroke="url(#paint3_linear_243_264)" stroke-width="2" stroke-miterlimit="10"/>
<path d="M59 54V57.5C59 58.328 58.328 59 57.5 59C57.409 59 57.321 58.992 57.234 58.977L23.234 52.977C22.533 52.851 22 52.238 22 51.5V38" stroke="url(#paint4_linear_243_264)" stroke-width="2" stroke-miterlimit="10"/>
<path d="M10 34H33V41C33 41.552 33.448 42 34 42C34.261 42 34.498 41.9 34.676 41.737L46.676 30.737C46.875 30.554 47 30.292 47 30C47 29.708 46.875 29.445 46.675 29.262L34.677 18.264C34.499 18.1 34.261 18 34 18C33.448 18 33 18.448 33 19V26H12" stroke="url(#paint5_linear_243_264)" stroke-width="2" stroke-miterlimit="10"/>
<path d="M0 26H2" stroke="url(#paint6_linear_243_264)" stroke-width="2" stroke-miterlimit="10"/>
<path d="M4 26H6" stroke="url(#paint7_linear_243_264)" stroke-width="2" stroke-miterlimit="10"/>
<path d="M8 26H10" stroke="url(#paint8_linear_243_264)" stroke-width="2" stroke-miterlimit="10"/>
<path d="M19 14H17V16H19V14Z" fill="url(#paint9_linear_243_264)"/>
<path d="M15 14H13V16H15V14Z" fill="url(#paint10_linear_243_264)"/>
<path d="M11 14H9V16H11V14Z" fill="url(#paint11_linear_243_264)"/>
<path d="M19 44H17V46H19V44Z" fill="url(#paint12_linear_243_264)"/>
<path d="M15 44H13V46H15V44Z" fill="url(#paint13_linear_243_264)"/>
<path d="M11 44H9V46H11V44Z" fill="url(#paint14_linear_243_264)"/>
<path d="M50 17H48V19H50V17Z" fill="url(#paint15_linear_243_264)"/>
<path d="M46 17H44V19H46V17Z" fill="url(#paint16_linear_243_264)"/>
<path d="M42 17H40V19H42V17Z" fill="url(#paint17_linear_243_264)"/>
<path d="M51 36H49V38H51V36Z" fill="url(#paint18_linear_243_264)"/>
<path d="M47 36H45V38H47V36Z" fill="url(#paint19_linear_243_264)"/>
</g>
<defs>
<linearGradient id="paint0_linear_243_264" x1="59" y1="52" x2="60.023" y2="51.9882" gradientUnits="userSpaceOnUse">
<stop stop-color="#377DC5"/>
<stop offset="1" stop-color="#013792"/>
</linearGradient>
<linearGradient id="paint1_linear_243_264" x1="59" y1="48" x2="60.023" y2="47.9882" gradientUnits="userSpaceOnUse">
<stop stop-color="#377DC5"/>
<stop offset="1" stop-color="#013792"/>
</linearGradient>
<linearGradient id="paint2_linear_243_264" x1="59" y1="44" x2="60.023" y2="43.9882" gradientUnits="userSpaceOnUse">
<stop stop-color="#377DC5"/>
<stop offset="1" stop-color="#013792"/>
</linearGradient>
<linearGradient id="paint3_linear_243_264" x1="22" y1="40" x2="59.8369" y2="39.1704" gradientUnits="userSpaceOnUse">
<stop stop-color="#377DC5"/>
<stop offset="1" stop-color="#013792"/>
</linearGradient>
<linearGradient id="paint4_linear_243_264" x1="22" y1="59" x2="59.7924" y2="57.4612" gradientUnits="userSpaceOnUse">
<stop stop-color="#377DC5"/>
<stop offset="1" stop-color="#013792"/>
</linearGradient>
<linearGradient id="paint5_linear_243_264" x1="10" y1="42" x2="47.8071" y2="40.653" gradientUnits="userSpaceOnUse">
<stop stop-color="#377DC5"/>
<stop offset="1" stop-color="#013792"/>
</linearGradient>
<linearGradient id="paint6_linear_243_264" x1="-7.45058e-09" y1="27" x2="2.04186" y2="26.9056" gradientUnits="userSpaceOnUse">
<stop stop-color="#377DC5"/>
<stop offset="1" stop-color="#013792"/>
</linearGradient>
<linearGradient id="paint7_linear_243_264" x1="4" y1="27" x2="6.04186" y2="26.9056" gradientUnits="userSpaceOnUse">
<stop stop-color="#377DC5"/>
<stop offset="1" stop-color="#013792"/>
</linearGradient>
<linearGradient id="paint8_linear_243_264" x1="8" y1="27" x2="10.0419" y2="26.9056" gradientUnits="userSpaceOnUse">
<stop stop-color="#377DC5"/>
<stop offset="1" stop-color="#013792"/>
</linearGradient>
<linearGradient id="paint9_linear_243_264" x1="17" y1="16" x2="19.0451" y2="15.9527" gradientUnits="userSpaceOnUse">
<stop stop-color="#377DC5"/>
<stop offset="1" stop-color="#013792"/>
</linearGradient>
<linearGradient id="paint10_linear_243_264" x1="13" y1="16" x2="15.0451" y2="15.9527" gradientUnits="userSpaceOnUse">
<stop stop-color="#377DC5"/>
<stop offset="1" stop-color="#013792"/>
</linearGradient>
<linearGradient id="paint11_linear_243_264" x1="9" y1="16" x2="11.0451" y2="15.9527" gradientUnits="userSpaceOnUse">
<stop stop-color="#377DC5"/>
<stop offset="1" stop-color="#013792"/>
</linearGradient>
<linearGradient id="paint12_linear_243_264" x1="17" y1="46" x2="19.0451" y2="45.9527" gradientUnits="userSpaceOnUse">
<stop stop-color="#377DC5"/>
<stop offset="1" stop-color="#013792"/>
</linearGradient>
<linearGradient id="paint13_linear_243_264" x1="13" y1="46" x2="15.0451" y2="45.9527" gradientUnits="userSpaceOnUse">
<stop stop-color="#377DC5"/>
<stop offset="1" stop-color="#013792"/>
</linearGradient>
<linearGradient id="paint14_linear_243_264" x1="9" y1="46" x2="11.0451" y2="45.9527" gradientUnits="userSpaceOnUse">
<stop stop-color="#377DC5"/>
<stop offset="1" stop-color="#013792"/>
</linearGradient>
<linearGradient id="paint15_linear_243_264" x1="48" y1="19" x2="50.0451" y2="18.9527" gradientUnits="userSpaceOnUse">
<stop stop-color="#377DC5"/>
<stop offset="1" stop-color="#013792"/>
</linearGradient>
<linearGradient id="paint16_linear_243_264" x1="44" y1="19" x2="46.0451" y2="18.9527" gradientUnits="userSpaceOnUse">
<stop stop-color="#377DC5"/>
<stop offset="1" stop-color="#013792"/>
</linearGradient>
<linearGradient id="paint17_linear_243_264" x1="40" y1="19" x2="42.0451" y2="18.9527" gradientUnits="userSpaceOnUse">
<stop stop-color="#377DC5"/>
<stop offset="1" stop-color="#013792"/>
</linearGradient>
<linearGradient id="paint18_linear_243_264" x1="49" y1="38" x2="51.0451" y2="37.9527" gradientUnits="userSpaceOnUse">
<stop stop-color="#377DC5"/>
<stop offset="1" stop-color="#013792"/>
</linearGradient>
<linearGradient id="paint19_linear_243_264" x1="45" y1="38" x2="47.0451" y2="37.9527" gradientUnits="userSpaceOnUse">
<stop stop-color="#377DC5"/>
<stop offset="1" stop-color="#013792"/>
</linearGradient>
<clipPath id="clip0_243_264">
<rect width="60" height="60" fill="white"/>
</clipPath>
</defs>
</svg>
