<?xml version="1.0" encoding="UTF-8" standalone="no"?><svg width="101" height="7" viewBox="0 0 101 7" fill="none" xmlns="http://www.w3.org/2000/svg">
<path d="M3.3447 0.47805L6.38863 3.52197L3.3447 6.5659L0.300781 3.52197L3.3447 0.47805Z" fill="#D9D9D9"/>
<path d="M3.3447 0.47805L0.300781 3.52197L3.3447 3.52197L3.3447 0.47805Z" fill="#377DC5"/>
<path d="M3.3447 0.47805L6.38863 3.52197L3.3447 3.52197L3.3447 0.47805Z" fill="#0472C1"/>
<path d="M3.3447 6.5659L0.300781 3.52197L3.3447 3.52197L3.3447 6.5659Z" fill="#0156AD"/>
<path d="M3.3447 6.5659L6.38863 3.52197L3.3447 3.52197L3.3447 6.5659Z" fill="#013792"/>
<path d="M11.9576 4.46366C11.7803 4.84707 11.5125 5.03877 11.1541 5.03877C11.0039 5.03877 10.8748 5.00698 10.7669 4.9434C10.6571 4.88946 10.5684 4.81913 10.501 4.73243C10.4181 4.64188 10.3632 4.52339 10.3363 4.37696C10.3054 4.23053 10.29 3.9502 10.29 3.53597C10.29 3.12173 10.3054 2.83948 10.3363 2.68919C10.3632 2.54662 10.4181 2.43006 10.501 2.3395C10.5684 2.2528 10.6571 2.18055 10.7669 2.12275C10.8748 2.06688 11.0039 2.03702 11.1541 2.03316C11.3584 2.03702 11.5318 2.09578 11.6743 2.20945C11.8111 2.32891 11.9055 2.47341 11.9576 2.64295H12.6338C12.5664 2.29037 12.4045 1.99463 12.1483 1.75572C11.892 1.51874 11.5607 1.39832 11.1541 1.39447C10.8227 1.39832 10.5463 1.47732 10.3247 1.63145C10.0993 1.78366 9.93551 1.95706 9.8334 2.15165C9.76982 2.25377 9.72261 2.38767 9.69179 2.55336C9.66289 2.71906 9.64844 3.04659 9.64844 3.53597C9.64844 4.01764 9.66289 4.34324 9.69179 4.51279C9.7072 4.60334 9.72647 4.67849 9.74959 4.73821C9.77463 4.79601 9.80257 4.8567 9.8334 4.92028C9.93551 5.11488 10.0993 5.28635 10.3247 5.4347C10.5463 5.58884 10.8227 5.66976 11.1541 5.67747C11.5202 5.67747 11.8371 5.57343 12.1049 5.36534C12.365 5.15534 12.5413 4.85478 12.6338 4.46366H11.9576Z" fill="#2B3F53"/>
<path d="M13.6014 4.21512C13.6052 4.65826 13.7517 5.00987 14.0407 5.26997C14.3239 5.53778 14.6765 5.67361 15.0984 5.67747C15.5281 5.67361 15.8835 5.53778 16.1648 5.26997C16.4442 5.00987 16.5877 4.65826 16.5954 4.21512V1.42915H15.9567V4.14576C15.9529 4.43283 15.872 4.65151 15.714 4.80179C15.5521 4.95978 15.347 5.03877 15.0984 5.03877C14.8499 5.03877 14.6466 4.95978 14.4886 4.80179C14.3268 4.65151 14.2439 4.43283 14.2401 4.14576V1.42915H13.6014V4.21512Z" fill="#2B3F53"/>
<path d="M17.9994 5.64279H20.69V5.03877H18.6381V3.80185H20.3894V3.23541H18.6381V2.03316H20.69V1.42915H17.9994V5.64279Z" fill="#2B3F53"/>
<path d="M21.8859 5.64279H23.6604C23.9917 5.64279 24.2682 5.532 24.4898 5.31043C24.7133 5.0985 24.827 4.81046 24.8308 4.44632C24.8308 4.22668 24.7759 4.02342 24.6661 3.83653C24.5486 3.65542 24.3752 3.535 24.1459 3.47528V3.46372C24.2673 3.40592 24.3694 3.34137 24.4522 3.27009C24.5351 3.20265 24.5986 3.13137 24.643 3.05623C24.7297 2.89824 24.7711 2.73254 24.7672 2.55914C24.7672 2.22005 24.6622 1.94743 24.4522 1.74127C24.2441 1.53704 23.933 1.433 23.5187 1.42915H21.8859V5.64279ZM23.5072 3.77295C23.7442 3.7768 23.9176 3.83942 24.0274 3.9608C24.1372 4.08411 24.1921 4.23246 24.1921 4.40586C24.1921 4.57541 24.1372 4.72184 24.0274 4.84514C23.9176 4.97038 23.7442 5.03492 23.5072 5.03877H22.5246V3.77295H23.5072ZM23.4465 1.99848C23.6796 2.00234 23.8511 2.05917 23.9609 2.16899C24.0727 2.28652 24.1285 2.43006 24.1285 2.5996C24.1285 2.76915 24.0727 2.9098 23.9609 3.02155C23.8511 3.14293 23.6796 3.20362 23.4465 3.20362H22.5246V1.99848H23.4465Z" fill="#2B3F53"/>
<path d="M26.0527 5.64279H26.6567V2.64295H26.0527V5.64279ZM26.0527 2.03316H26.6567V1.42915H26.0527V2.03316Z" fill="#2B3F53"/>
<path d="M30.2687 4.46366C30.0914 4.84707 29.8236 5.03877 29.4652 5.03877C29.3149 5.03877 29.1859 5.00698 29.078 4.9434C28.9681 4.88946 28.8795 4.81913 28.8121 4.73243C28.7292 4.64188 28.6743 4.52339 28.6474 4.37696C28.6165 4.23053 28.6011 3.9502 28.6011 3.53597C28.6011 3.12173 28.6165 2.83948 28.6474 2.68919C28.6743 2.54662 28.7292 2.43006 28.8121 2.3395C28.8795 2.2528 28.9681 2.18055 29.078 2.12275C29.1859 2.06688 29.3149 2.03702 29.4652 2.03316C29.6695 2.03702 29.8429 2.09578 29.9854 2.20945C30.1222 2.32891 30.2166 2.47341 30.2687 2.64295H30.9449C30.8775 2.29037 30.7156 1.99463 30.4594 1.75572C30.2031 1.51874 29.8718 1.39832 29.4652 1.39447C29.1338 1.39832 28.8574 1.47732 28.6358 1.63145C28.4104 1.78366 28.2466 1.95706 28.1445 2.15165C28.0809 2.25377 28.0337 2.38767 28.0029 2.55336C27.974 2.71906 27.9595 3.04659 27.9595 3.53597C27.9595 4.01764 27.974 4.34324 28.0029 4.51279C28.0183 4.60334 28.0376 4.67849 28.0607 4.73821C28.0857 4.79601 28.1137 4.8567 28.1445 4.92028C28.2466 5.11488 28.4104 5.28635 28.6358 5.4347C28.8574 5.58884 29.1338 5.66976 29.4652 5.67747C29.8313 5.67747 30.1482 5.57343 30.416 5.36534C30.6761 5.15534 30.8524 4.85478 30.9449 4.46366H30.2687Z" fill="#2B3F53"/>
<path d="M34.0043 5.64279H34.643V3.01577H34.6545L35.536 5.03877H36.0677L36.9492 3.01577H36.9636V5.64279H37.6023V1.42915H36.9983L35.8134 4.17466L34.6054 1.42915H34.0043V5.64279Z" fill="#2B3F53"/>
<path d="M39.8271 4.1342L40.4369 2.29326H40.4484L41.0582 4.1342H39.8271ZM41.5669 5.64279H42.2402L40.7085 1.42915H40.1739L38.6422 5.64279H39.3184L39.6421 4.70064H41.2403L41.5669 5.64279Z" fill="#2B3F53"/>
<path d="M43.9245 1.99848H44.9245C45.1287 1.99848 45.2848 2.04183 45.3926 2.12853C45.5294 2.22679 45.5998 2.38574 45.6036 2.60538C45.6036 2.78842 45.5449 2.94255 45.4273 3.06779C45.3079 3.20265 45.1287 3.27201 44.8898 3.27587H43.9245V1.99848ZM43.2858 5.64279H43.9245V3.84231H44.7395L45.6094 5.64279H46.3695L45.3926 3.77295C45.9283 3.56679 46.1999 3.17761 46.2076 2.60538C46.1961 2.2162 46.0564 1.9166 45.7886 1.70659C45.567 1.52163 45.2809 1.42915 44.9302 1.42915H43.2858V5.64279Z" fill="#2B3F53"/>
<path d="M47.4902 5.64279H48.1289V4.35962L48.8687 3.58221L50.0161 5.64279H50.7733L49.282 3.09091L50.6317 1.42915H49.8745L48.1405 3.59955H48.1289V1.42915H47.4902V5.64279Z" fill="#2B3F53"/>
<path d="M51.8102 5.64279H54.5008V5.03877H52.4489V3.80185H54.2002V3.23541H52.4489V2.03316H54.5008V1.42915H51.8102V5.64279Z" fill="#2B3F53"/>
<path d="M56.4105 5.64279H57.0521V1.99848H58.2052V1.42915H55.2574V1.99848H56.4105V5.64279Z" fill="#2B3F53"/>
<path d="M59.2479 5.64279H59.8866V1.42915H59.2479V5.64279Z" fill="#2B3F53"/>
<path d="M61.3657 5.64279H62.0044V2.64873H62.016L63.9205 5.64279H64.5245V1.42915H63.8858V4.4232H63.8743L61.9668 1.42915H61.3657V5.64279Z" fill="#2B3F53"/>
<path d="M67.3764 3.92612H68.2347V4.14576C68.2308 4.40971 68.148 4.62261 67.9862 4.78445C67.8243 4.954 67.6191 5.03877 67.3706 5.03877C67.2203 5.03877 67.0912 5.00698 66.9833 4.9434C66.8735 4.88946 66.7849 4.81913 66.7174 4.73243C66.6346 4.64188 66.5797 4.52339 66.5527 4.37696C66.5219 4.23053 66.5065 3.9502 66.5065 3.53597C66.5065 3.12173 66.5219 2.83948 66.5527 2.68919C66.5797 2.54662 66.6346 2.43006 66.7174 2.3395C66.7849 2.2528 66.8735 2.18055 66.9833 2.12275C67.0912 2.06688 67.2203 2.03702 67.3706 2.03316C67.5748 2.03702 67.7482 2.09578 67.8908 2.20945C68.0276 2.32891 68.122 2.47341 68.174 2.64295H68.8503C68.7828 2.29037 68.621 1.99463 68.3648 1.75572C68.1085 1.51874 67.7771 1.39832 67.3706 1.39447C67.0392 1.39832 66.7627 1.47732 66.5412 1.63145C66.3157 1.78366 66.152 1.95706 66.0499 2.15165C65.9863 2.25377 65.9391 2.38767 65.9082 2.55336C65.8793 2.71906 65.8649 3.04659 65.8649 3.53597C65.8649 4.01764 65.8793 4.34324 65.9082 4.51279C65.9237 4.60334 65.9429 4.67849 65.966 4.73821C65.9911 4.79601 66.019 4.8567 66.0499 4.92028C66.152 5.11488 66.3157 5.28635 66.5412 5.4347C66.7627 5.58884 67.0392 5.66976 67.3706 5.67747C67.8002 5.66976 68.1567 5.52429 68.4399 5.24107C68.7212 4.95593 68.8657 4.60238 68.8734 4.18044V3.32211H67.3764V3.92612Z" fill="#2B3F53"/>
<path d="M72.9732 4.1342L73.583 2.29326H73.5945L74.2043 4.1342H72.9732ZM74.7129 5.64279H75.3863L73.8546 1.42915H73.32L71.7883 5.64279H72.4645L72.7882 4.70064H74.3864L74.7129 5.64279Z" fill="#2B3F53"/>
<path d="M78.4867 4.46366C78.3095 4.84707 78.0417 5.03877 77.6833 5.03877C77.533 5.03877 77.4039 5.00698 77.296 4.9434C77.1862 4.88946 77.0976 4.81913 77.0302 4.73243C76.9473 4.64188 76.8924 4.52339 76.8654 4.37696C76.8346 4.23053 76.8192 3.9502 76.8192 3.53597C76.8192 3.12173 76.8346 2.83948 76.8654 2.68919C76.8924 2.54662 76.9473 2.43006 77.0302 2.3395C77.0976 2.2528 77.1862 2.18055 77.296 2.12275C77.4039 2.06688 77.533 2.03702 77.6833 2.03316C77.8875 2.03702 78.0609 2.09578 78.2035 2.20945C78.3403 2.32891 78.4347 2.47341 78.4867 2.64295H79.163C79.0955 2.29037 78.9337 1.99463 78.6775 1.75572C78.4212 1.51874 78.0898 1.39832 77.6833 1.39447C77.3519 1.39832 77.0754 1.47732 76.8539 1.63145C76.6284 1.78366 76.4647 1.95706 76.3626 2.15165C76.299 2.25377 76.2518 2.38767 76.221 2.55336C76.1921 2.71906 76.1776 3.04659 76.1776 3.53597C76.1776 4.01764 76.1921 4.34324 76.221 4.51279C76.2364 4.60334 76.2556 4.67849 76.2788 4.73821C76.3038 4.79601 76.3317 4.8567 76.3626 4.92028C76.4647 5.11488 76.6284 5.28635 76.8539 5.4347C77.0754 5.58884 77.3519 5.66976 77.6833 5.67747C78.0494 5.67747 78.3663 5.57343 78.6341 5.36534C78.8942 5.15534 79.0705 4.85478 79.163 4.46366H78.4867Z" fill="#2B3F53"/>
<path d="M80.9542 4.1342L81.564 2.29326H81.5756L82.1854 4.1342H80.9542ZM82.694 5.64279H83.3674L81.8357 1.42915H81.301L79.7693 5.64279H80.4456L80.7693 4.70064H82.3674L82.694 5.64279Z" fill="#2B3F53"/>
<path d="M84.413 5.64279H85.8435C86.1595 5.64279 86.4264 5.57342 86.6441 5.4347C86.8637 5.30562 87.0352 5.14185 87.1585 4.9434C87.2047 4.86826 87.2442 4.79601 87.277 4.72665C87.3078 4.65537 87.3309 4.57444 87.3463 4.48389C87.3791 4.30471 87.3955 3.98874 87.3955 3.53597C87.3955 3.11017 87.3849 2.81058 87.3637 2.63717C87.3367 2.46377 87.2722 2.29808 87.17 2.14009C86.8849 1.66998 86.4572 1.433 85.8869 1.42915H84.413V5.64279ZM85.0517 2.03316H85.8146C86.1383 2.02546 86.3888 2.14395 86.566 2.38863C86.6527 2.48689 86.7076 2.61502 86.7308 2.77301C86.7481 2.93099 86.7568 3.19302 86.7568 3.55909C86.7568 3.93479 86.7481 4.19104 86.7308 4.32783C86.7115 4.46655 86.6662 4.58119 86.5949 4.67174C86.4331 4.91643 86.173 5.03877 85.8146 5.03877H85.0517V2.03316Z" fill="#2B3F53"/>
<path d="M88.733 5.64279H91.4236V5.03877H89.3716V3.80185H91.123V3.23541H89.3716V2.03316H91.4236V1.42915H88.733V5.64279Z" fill="#2B3F53"/>
<path d="M92.6194 5.64279H93.2581V3.01577H93.2697L94.1512 5.03877H94.6829L95.5644 3.01577H95.5788V5.64279H96.2175V1.42915H95.6135L94.4286 4.17466L93.2206 1.42915H92.6194V5.64279Z" fill="#2B3F53"/>
<path d="M98.4307 5.64279H99.0318V3.90878L100.301 1.42915H99.6243L98.7312 3.29899L97.8382 1.42915H97.162L98.4307 3.90878V5.64279Z" fill="#2B3F53"/>
</svg>
