<?xml version="1.0" encoding="UTF-8" standalone="no"?><svg width="48" height="48" viewBox="0 0 48 48" fill="none" xmlns="http://www.w3.org/2000/svg">
<path d="M43.6 37.4999L42.7432 34.9023C42.5184 34.2191 42.4 33.5103 42.4 32.7999C42.4 32.0783 42.4872 31.3735 42.6992 30.6839C43.0312 29.6007 43.2008 28.4743 43.2 27.3415V22.3999" stroke="url(#paint0_linear_245_537)" stroke-width="1.6" stroke-miterlimit="10"/>
<path d="M34.4 39.1998L33.2032 37.479C32.2608 36.123 31.664 35.4862 30.1368 34.3998C27.9608 32.8526 27.3184 31.1526 26.7248 29.0862L24.1088 19.9838C24.0384 19.7382 24 19.4742 24 19.1998C24 17.8742 24.8952 16.7998 26 16.7998C26.6904 16.7998 27.2992 17.2198 27.6584 17.8582L31.1272 24.0422C31.4056 24.5382 31.8112 24.9518 32.3024 25.239L35.012 26.8238" stroke="url(#paint1_linear_245_537)" stroke-width="1.6" stroke-miterlimit="10"/>
<path d="M24.1136 18.3999H20L18 20.3999L20 22.3999H24.8032" stroke="url(#paint2_linear_245_537)" stroke-width="1.6" stroke-miterlimit="10"/>
<path d="M30.2064 22.3999H45.2C46.3048 22.3999 47.2 21.5047 47.2 20.3999C47.2 19.2951 46.3048 18.3999 45.2 18.3999H27.9624" stroke="url(#paint3_linear_245_537)" stroke-width="1.6" stroke-miterlimit="10"/>
<path d="M31.9248 43.8856L31.22 40.764C31.1224 40.3328 31.3928 39.9048 31.824 39.8072L45.0536 36.8192C45.4848 36.7216 45.9128 36.992 46.0104 37.4232L46.74 40.6544" stroke="url(#paint4_linear_245_537)" stroke-width="1.6" stroke-miterlimit="10"/>
<path d="M36 41.6001H34.4V43.2001H36V41.6001Z" fill="url(#paint5_linear_245_537)"/>
<path d="M4.79995 23.2002H3.19995V24.8002H4.79995V23.2002Z" fill="url(#paint6_linear_245_537)"/>
<path d="M4.79995 20H3.19995V21.6H4.79995V20Z" fill="url(#paint7_linear_245_537)"/>
<path d="M4.79995 16.7998H3.19995V18.3998H4.79995V16.7998Z" fill="url(#paint8_linear_245_537)"/>
<path d="M0.800049 42.4002V27.2002H5.60005V42.4002" stroke="url(#paint9_linear_245_537)" stroke-width="1.6" stroke-miterlimit="10"/>
<path d="M8.80005 39.9999V18.3999H13.6V39.9999" stroke="url(#paint10_linear_245_537)" stroke-width="1.6" stroke-miterlimit="10"/>
<path d="M21.6 24.7998V37.5998" stroke="url(#paint11_linear_245_537)" stroke-width="1.6" stroke-miterlimit="10"/>
<path d="M16.8 16.7998V8.7998H21.6V11.9998" stroke="url(#paint12_linear_245_537)" stroke-width="1.6" stroke-miterlimit="10"/>
<path d="M16.8 37.6002V23.2002" stroke="url(#paint13_linear_245_537)" stroke-width="1.6" stroke-miterlimit="10"/>
<path d="M12.8 12H11.2V13.6H12.8V12Z" fill="url(#paint14_linear_245_537)"/>
<path d="M12.8 8.7998H11.2V10.3998H12.8V8.7998Z" fill="url(#paint15_linear_245_537)"/>
<path d="M12.8 5.6001H11.2V7.2001H12.8V5.6001Z" fill="url(#paint16_linear_245_537)"/>
<path d="M28.8 9.6001H27.2V11.2001H28.8V9.6001Z" fill="url(#paint17_linear_245_537)"/>
<path d="M28.8 6.3999H27.2V7.9999H28.8V6.3999Z" fill="url(#paint18_linear_245_537)"/>
<path d="M28.8 3.2002H27.2V4.8002H28.8V3.2002Z" fill="url(#paint19_linear_245_537)"/>
<path d="M22.2112 18.3998C21.8312 17.9758 21.6 17.415 21.6 16.7998C21.6 15.583 22.5056 14.5774 23.6792 14.4214L35.42 12.8278C35.5528 12.8094 35.6872 12.7998 35.8208 12.7998C36.7176 12.8006 37.5656 13.2086 38.1256 13.9086L41.7248 18.3998" stroke="url(#paint20_linear_245_537)" stroke-width="1.6" stroke-miterlimit="10"/>
<defs>
<linearGradient id="paint0_linear_245_537" x1="42.4" y1="37.4999" x2="43.6278" y2="37.4976" gradientUnits="userSpaceOnUse">
<stop stop-color="#377DC5"/>
<stop offset="1" stop-color="#013792"/>
</linearGradient>
<linearGradient id="paint1_linear_245_537" x1="24" y1="39.1998" x2="35.265" y2="39.0718" gradientUnits="userSpaceOnUse">
<stop stop-color="#377DC5"/>
<stop offset="1" stop-color="#013792"/>
</linearGradient>
<linearGradient id="paint2_linear_245_537" x1="18" y1="22.3999" x2="24.9497" y2="22.1267" gradientUnits="userSpaceOnUse">
<stop stop-color="#377DC5"/>
<stop offset="1" stop-color="#013792"/>
</linearGradient>
<linearGradient id="paint3_linear_245_537" x1="27.9624" y1="22.3999" x2="47.4044" y2="20.239" gradientUnits="userSpaceOnUse">
<stop stop-color="#377DC5"/>
<stop offset="1" stop-color="#013792"/>
</linearGradient>
<linearGradient id="paint4_linear_245_537" x1="31.2001" y1="43.8856" x2="47.0584" y2="43.082" gradientUnits="userSpaceOnUse">
<stop stop-color="#377DC5"/>
<stop offset="1" stop-color="#013792"/>
</linearGradient>
<linearGradient id="paint5_linear_245_537" x1="34.4" y1="43.2001" x2="36.0361" y2="43.1623" gradientUnits="userSpaceOnUse">
<stop stop-color="#377DC5"/>
<stop offset="1" stop-color="#013792"/>
</linearGradient>
<linearGradient id="paint6_linear_245_537" x1="3.19995" y1="24.8002" x2="4.83605" y2="24.7624" gradientUnits="userSpaceOnUse">
<stop stop-color="#377DC5"/>
<stop offset="1" stop-color="#013792"/>
</linearGradient>
<linearGradient id="paint7_linear_245_537" x1="3.19995" y1="21.6" x2="4.83605" y2="21.5622" gradientUnits="userSpaceOnUse">
<stop stop-color="#377DC5"/>
<stop offset="1" stop-color="#013792"/>
</linearGradient>
<linearGradient id="paint8_linear_245_537" x1="3.19995" y1="18.3998" x2="4.83605" y2="18.362" gradientUnits="userSpaceOnUse">
<stop stop-color="#377DC5"/>
<stop offset="1" stop-color="#013792"/>
</linearGradient>
<linearGradient id="paint9_linear_245_537" x1="0.800049" y1="42.4002" x2="5.71071" y2="42.3644" gradientUnits="userSpaceOnUse">
<stop stop-color="#377DC5"/>
<stop offset="1" stop-color="#013792"/>
</linearGradient>
<linearGradient id="paint10_linear_245_537" x1="8.80005" y1="39.9999" x2="13.7108" y2="39.9747" gradientUnits="userSpaceOnUse">
<stop stop-color="#377DC5"/>
<stop offset="1" stop-color="#013792"/>
</linearGradient>
<linearGradient id="paint11_linear_245_537" x1="21.6" y1="37.5998" x2="22.6231" y2="37.598" gradientUnits="userSpaceOnUse">
<stop stop-color="#377DC5"/>
<stop offset="1" stop-color="#013792"/>
</linearGradient>
<linearGradient id="paint12_linear_245_537" x1="16.8" y1="16.7998" x2="21.71" y2="16.7317" gradientUnits="userSpaceOnUse">
<stop stop-color="#377DC5"/>
<stop offset="1" stop-color="#013792"/>
</linearGradient>
<linearGradient id="paint13_linear_245_537" x1="16.8" y1="37.6002" x2="17.8232" y2="37.5986" gradientUnits="userSpaceOnUse">
<stop stop-color="#377DC5"/>
<stop offset="1" stop-color="#013792"/>
</linearGradient>
<linearGradient id="paint14_linear_245_537" x1="11.2" y1="13.6" x2="12.8361" y2="13.5622" gradientUnits="userSpaceOnUse">
<stop stop-color="#377DC5"/>
<stop offset="1" stop-color="#013792"/>
</linearGradient>
<linearGradient id="paint15_linear_245_537" x1="11.2" y1="10.3998" x2="12.8361" y2="10.362" gradientUnits="userSpaceOnUse">
<stop stop-color="#377DC5"/>
<stop offset="1" stop-color="#013792"/>
</linearGradient>
<linearGradient id="paint16_linear_245_537" x1="11.2" y1="7.2001" x2="12.8361" y2="7.16229" gradientUnits="userSpaceOnUse">
<stop stop-color="#377DC5"/>
<stop offset="1" stop-color="#013792"/>
</linearGradient>
<linearGradient id="paint17_linear_245_537" x1="27.2" y1="11.2001" x2="28.8361" y2="11.1623" gradientUnits="userSpaceOnUse">
<stop stop-color="#377DC5"/>
<stop offset="1" stop-color="#013792"/>
</linearGradient>
<linearGradient id="paint18_linear_245_537" x1="27.2" y1="7.9999" x2="28.8361" y2="7.96209" gradientUnits="userSpaceOnUse">
<stop stop-color="#377DC5"/>
<stop offset="1" stop-color="#013792"/>
</linearGradient>
<linearGradient id="paint19_linear_245_537" x1="27.2" y1="4.8002" x2="28.8361" y2="4.76239" gradientUnits="userSpaceOnUse">
<stop stop-color="#377DC5"/>
<stop offset="1" stop-color="#013792"/>
</linearGradient>
<linearGradient id="paint20_linear_245_537" x1="21.6" y1="18.3998" x2="42.0488" y2="16.7015" gradientUnits="userSpaceOnUse">
<stop stop-color="#377DC5"/>
<stop offset="1" stop-color="#013792"/>
</linearGradient>
</defs>
</svg>
