<?xml version="1.0" encoding="UTF-8" standalone="no"?><svg width="10" height="10" viewBox="0 0 10 10" fill="none" xmlns="http://www.w3.org/2000/svg">
<g clip-path="url(#clip0_243_230)">
<path d="M4.49984 2.16683H0.333171C0.241171 2.16683 0.166504 2.09216 0.166504 2.00016V1.50016C0.166504 1.40816 0.241171 1.3335 0.333171 1.3335H4.33317" stroke="white" stroke-width="0.333333" stroke-miterlimit="10"/>
<path d="M0.5 2.1665V5.99984C0.5 6.09184 0.574667 6.1665 0.666667 6.1665H3.83333" stroke="white" stroke-width="0.333333" stroke-miterlimit="10"/>
<path d="M1 2.8335H1.83333" stroke="white" stroke-width="0.333333" stroke-miterlimit="10"/>
<path d="M1 3.5H2.33333" stroke="white" stroke-width="0.333333" stroke-miterlimit="10"/>
<path d="M4.5 4.3335V3.3335H3.5" stroke="white" stroke-width="0.333333" stroke-miterlimit="10"/>
<path d="M1.06641 5.43366L2.33324 4.16683L2.99991 4.8335L4.49991 3.3335" stroke="white" stroke-width="0.333333" stroke-miterlimit="10"/>
<path d="M0.666829 6.6665H0.333496V6.99984H0.666829V6.6665Z" fill="white"/>
<path d="M1.33333 6.6665H1V6.99984H1.33333V6.6665Z" fill="white"/>
<path d="M1.99984 6.6665H1.6665V6.99984H1.99984V6.6665Z" fill="white"/>
<path d="M9 9.33317H9.675C9.7625 9.33317 9.83333 9.2585 9.83333 9.1665V8.33317C9.83333 8.24117 9.7625 8.1665 9.675 8.1665H3.65833C3.57083 8.1665 3.5 8.24117 3.5 8.33317V9.1665C3.5 9.2585 3.57083 9.33317 3.65833 9.33317H7.33333" stroke="white" stroke-width="0.333333" stroke-miterlimit="10"/>
<path d="M8.66683 9.33301H8.3335" stroke="white" stroke-width="0.333333" stroke-miterlimit="10"/>
<path d="M7.99984 9.33301H7.6665" stroke="white" stroke-width="0.333333" stroke-miterlimit="10"/>
<path d="M6.16683 4.3877V5.00003L5.702 5.08453C4.9095 5.2287 4.3335 5.91886 4.3335 6.72436V7.6667" stroke="white" stroke-width="0.333333" stroke-miterlimit="10"/>
<path d="M7.1665 4.3877V5.00003L7.63134 5.08453C8.42384 5.2287 8.99984 5.91886 8.99984 6.72436V7.6667" stroke="white" stroke-width="0.333333" stroke-miterlimit="10"/>
<path d="M7.8514 5.14014L6.94274 6.0488C6.86724 6.1243 6.77324 6.16664 6.66657 6.16664C6.5599 6.16664 6.44924 6.1243 6.37374 6.0488L5.46924 5.1443" stroke="white" stroke-width="0.333333" stroke-miterlimit="10"/>
<path d="M4.8335 6.6665H5.8335" stroke="white" stroke-width="0.333333" stroke-miterlimit="10"/>
<path d="M5.5 3.16651V2.24951" stroke="white" stroke-width="0.333333" stroke-miterlimit="10"/>
<path d="M6.83333 6.6665H6.5V6.99984H6.83333V6.6665Z" fill="white"/>
<path d="M6.83333 7.3335H6.5V7.66683H6.83333V7.3335Z" fill="white"/>
<path d="M6.33333 2.33317H5.87283C5.39083 2.33317 5 1.94234 5 1.46034C5 1.26034 5.09867 0.924171 5.17333 0.750504C5.195 0.700171 5.23717 0.666504 5.28733 0.666504C5.307 0.666504 5.327 0.671837 5.3455 0.682837C5.975 1.05367 6.10117 1.1665 6.40317 1.1665C6.869 1.1665 6.96433 0.999837 7.43017 0.999837C7.837 0.999837 8.16667 1.3295 8.16667 1.73634C8.16667 2.01184 8.02817 2.30517 7.83333 2.49984V3.33317C7.83333 3.9775 7.311 4.49984 6.66667 4.49984C6.02233 4.49984 5.5 3.9775 5.5 3.33317V2.99984" stroke="white" stroke-width="0.333333" stroke-miterlimit="10"/>
</g>
<defs>
<clipPath id="clip0_243_230">
<rect width="10" height="10" fill="white"/>
</clipPath>
</defs>
</svg>
