<?xml version="1.0" encoding="UTF-8" standalone="no"?><svg width="11" height="10" viewBox="0 0 11 10" fill="none" xmlns="http://www.w3.org/2000/svg">
<g clip-path="url(#clip0_156_4241)">
<path d="M2.90928 3.35278C2.87861 3.56478 2.86328 3.78145 2.86328 3.99995C2.86328 4.84312 3.14795 5.61995 3.62645 6.23928" stroke="url(#paint0_linear_156_4241)" stroke-width="0.333333" stroke-miterlimit="10"/>
<path d="M3.06571 2.67993C3.03504 2.77426 3.00804 2.87043 2.98438 2.96793" stroke="url(#paint1_linear_156_4241)" stroke-width="0.333333" stroke-miterlimit="10"/>
<path d="M7.48279 6.64724C7.51346 6.43524 7.52879 6.21858 7.52879 6.00008C7.52879 5.15691 7.24413 4.38008 6.76562 3.76074" stroke="url(#paint2_linear_156_4241)" stroke-width="0.333333" stroke-miterlimit="10"/>
<path d="M7.32812 7.31998C7.35863 7.22565 7.38579 7.12948 7.40929 7.03198" stroke="url(#paint3_linear_156_4241)" stroke-width="0.333333" stroke-miterlimit="10"/>
<path d="M9.53255 2.66675H9.19922V3.00008H9.53255V2.66675Z" fill="url(#paint4_linear_156_4241)"/>
<path d="M9.86458 3.5H9.53125V3.83333H9.86458V3.5Z" fill="url(#paint5_linear_156_4241)"/>
<path d="M10.0326 4.33325H9.69922V4.66659H10.0326V4.33325Z" fill="url(#paint6_linear_156_4241)"/>
<path d="M6.56908 8.51759C8.08875 8.06992 9.19792 6.66442 9.19792 4.99992C9.19792 3.94492 8.75175 2.99475 8.03858 2.32592L8.62875 1.73575C8.67292 1.69159 8.69775 1.63159 8.69775 1.56909C8.69792 1.43875 8.59242 1.33325 8.46225 1.33325H5.86458C5.68042 1.33325 5.53125 1.48242 5.53125 1.66659V4.26425C5.53125 4.39442 5.63675 4.49992 5.76692 4.49992C5.82942 4.49992 5.88942 4.47509 5.93358 4.43092L6.29892 4.06559" stroke="url(#paint7_linear_156_4241)" stroke-width="0.333333" stroke-miterlimit="10"/>
<path d="M1.20052 7H0.867188V7.33333H1.20052V7Z" fill="url(#paint8_linear_156_4241)"/>
<path d="M0.864583 6.16675H0.53125V6.50008H0.864583V6.16675Z" fill="url(#paint9_linear_156_4241)"/>
<path d="M0.700521 5.33325H0.367188V5.66659H0.700521V5.33325Z" fill="url(#paint10_linear_156_4241)"/>
<path d="M3.82805 1.48218C2.30855 1.92968 1.19922 3.33518 1.19922 4.99984C1.19922 6.05484 1.64539 7.00501 2.35855 7.67384L1.76839 8.26401C1.72405 8.30834 1.69922 8.36834 1.69922 8.43084C1.69922 8.56101 1.80472 8.66651 1.93489 8.66651H4.53255C4.71672 8.66651 4.86589 8.51734 4.86589 8.33318V5.73551C4.86589 5.60534 4.76039 5.49984 4.63022 5.49984C4.56772 5.49984 4.50772 5.52468 4.46355 5.56884L4.09822 5.93418" stroke="url(#paint11_linear_156_4241)" stroke-width="0.333333" stroke-miterlimit="10"/>
</g>
<defs>
<linearGradient id="paint0_linear_156_4241" x1="2.86328" y1="6.23928" x2="3.66941" y2="6.22723" gradientUnits="userSpaceOnUse">
<stop stop-color="#C83467"/>
<stop offset="1" stop-color="#FE315C"/>
</linearGradient>
<linearGradient id="paint1_linear_156_4241" x1="2.98437" y1="2.96793" x2="3.07028" y2="2.96656" gradientUnits="userSpaceOnUse">
<stop stop-color="#C83467"/>
<stop offset="1" stop-color="#FE315C"/>
</linearGradient>
<linearGradient id="paint2_linear_156_4241" x1="6.76562" y1="6.64724" x2="7.57176" y2="6.63519" gradientUnits="userSpaceOnUse">
<stop stop-color="#C83467"/>
<stop offset="1" stop-color="#FE315C"/>
</linearGradient>
<linearGradient id="paint3_linear_156_4241" x1="7.32812" y1="7.31998" x2="7.41386" y2="7.31862" gradientUnits="userSpaceOnUse">
<stop stop-color="#C83467"/>
<stop offset="1" stop-color="#FE315C"/>
</linearGradient>
<linearGradient id="paint4_linear_156_4241" x1="9.19922" y1="3.00008" x2="9.55027" y2="2.98023" gradientUnits="userSpaceOnUse">
<stop stop-color="#C83467"/>
<stop offset="1" stop-color="#FE315C"/>
</linearGradient>
<linearGradient id="paint5_linear_156_4241" x1="9.53125" y1="3.83333" x2="9.88231" y2="3.81349" gradientUnits="userSpaceOnUse">
<stop stop-color="#C83467"/>
<stop offset="1" stop-color="#FE315C"/>
</linearGradient>
<linearGradient id="paint6_linear_156_4241" x1="9.69922" y1="4.66659" x2="10.0503" y2="4.64674" gradientUnits="userSpaceOnUse">
<stop stop-color="#C83467"/>
<stop offset="1" stop-color="#FE315C"/>
</linearGradient>
<linearGradient id="paint7_linear_156_4241" x1="5.53125" y1="8.51758" x2="9.40198" y2="8.4059" gradientUnits="userSpaceOnUse">
<stop stop-color="#C83467"/>
<stop offset="1" stop-color="#FE315C"/>
</linearGradient>
<linearGradient id="paint8_linear_156_4241" x1="0.867187" y1="7.33333" x2="1.21824" y2="7.31349" gradientUnits="userSpaceOnUse">
<stop stop-color="#C83467"/>
<stop offset="1" stop-color="#FE315C"/>
</linearGradient>
<linearGradient id="paint9_linear_156_4241" x1="0.53125" y1="6.50008" x2="0.882306" y2="6.48023" gradientUnits="userSpaceOnUse">
<stop stop-color="#C83467"/>
<stop offset="1" stop-color="#FE315C"/>
</linearGradient>
<linearGradient id="paint10_linear_156_4241" x1="0.367187" y1="5.66659" x2="0.718243" y2="5.64674" gradientUnits="userSpaceOnUse">
<stop stop-color="#C83467"/>
<stop offset="1" stop-color="#FE315C"/>
</linearGradient>
<linearGradient id="paint11_linear_156_4241" x1="1.19922" y1="8.66651" x2="5.06995" y2="8.55483" gradientUnits="userSpaceOnUse">
<stop stop-color="#C83467"/>
<stop offset="1" stop-color="#FE315C"/>
</linearGradient>
<clipPath id="clip0_156_4241">
<rect width="10" height="10" fill="white" transform="translate(0.199219)"/>
</clipPath>
</defs>
</svg>
