<?xml version="1.0" encoding="UTF-8" standalone="no"?><svg width="80" height="81" viewBox="0 0 80 81" fill="none" xmlns="http://www.w3.org/2000/svg">
<path d="M63.9974 53.6029C69.1521 53.6029 73.3307 48.8272 73.3307 42.9362C73.3307 37.0452 69.1521 32.2695 63.9974 32.2695C58.8427 32.2695 54.6641 37.0452 54.6641 42.9362C54.6641 48.8272 58.8427 53.6029 63.9974 53.6029Z" stroke="url(#paint0_linear_156_3690)" stroke-width="2.66667" stroke-miterlimit="10"/>
<path d="M50.6641 78.9355V65.6022C50.6641 61.9209 53.6494 58.9355 57.3307 58.9355H70.6641C74.3454 58.9355 77.3307 61.9209 77.3307 65.6022V78.9355" stroke="url(#paint1_linear_156_3690)" stroke-width="2.66667" stroke-miterlimit="10"/>
<path d="M8 45.6022V42.9355C8 40.7262 9.79067 38.9355 12 38.9355H20C22.2093 38.9355 24 40.7262 24 42.9355V45.6022" stroke="url(#paint2_linear_156_3690)" stroke-width="2.66667" stroke-miterlimit="10"/>
<path d="M15.9974 33.6025C18.9429 33.6025 21.3307 30.9162 21.3307 27.6025C21.3307 24.2888 18.9429 21.6025 15.9974 21.6025C13.0519 21.6025 10.6641 24.2888 10.6641 27.6025C10.6641 30.9162 13.0519 33.6025 15.9974 33.6025Z" stroke="url(#paint3_linear_156_3690)" stroke-width="2.66667" stroke-miterlimit="10"/>
<path d="M59.6133 13.6025H62.6666C64.8759 13.6025 66.6666 15.3932 66.6666 17.6025V28.2692" stroke="url(#paint4_linear_156_3690)" stroke-width="2.66667" stroke-miterlimit="10"/>
<path d="M46.6641 61.6025H6.66406C4.45473 61.6025 2.66406 59.8119 2.66406 57.6025V17.6025C2.66406 15.3932 4.45473 13.6025 6.66406 13.6025H29.3307" stroke="url(#paint5_linear_156_3690)" stroke-width="2.66667" stroke-miterlimit="10"/>
<path d="M35.9987 54.9355H33.332V57.6022H35.9987V54.9355Z" fill="url(#paint6_linear_156_3690)"/>
<path d="M41.3307 54.9355H38.6641V57.6022H41.3307V54.9355Z" fill="url(#paint7_linear_156_3690)"/>
<path d="M30.6667 54.9355H28V57.6022H30.6667V54.9355Z" fill="url(#paint8_linear_156_3690)"/>
<path d="M30.2812 61.6035L25.7266 70.9368" stroke="url(#paint9_linear_156_3690)" stroke-width="2.66667" stroke-miterlimit="10"/>
<path d="M39.0586 61.6035L43.6133 70.9368" stroke="url(#paint10_linear_156_3690)" stroke-width="2.66667" stroke-miterlimit="10"/>
<path d="M46.6693 70.9365H21.3359" stroke="url(#paint11_linear_156_3690)" stroke-width="2.66667" stroke-miterlimit="10"/>
<path d="M18.6667 70.9365H16" stroke="url(#paint12_linear_156_3690)" stroke-width="2.66667" stroke-miterlimit="10"/>
<path d="M2.66797 50.9365H52.0013" stroke="url(#paint13_linear_156_3690)" stroke-width="2.66667" stroke-miterlimit="10"/>
<path d="M48.0026 17.6032H36.5653L29.3359 21.2699V4.26986C29.3359 3.53386 29.9333 2.93652 30.6693 2.93652H48.0026C48.7386 2.93652 49.3359 3.53386 49.3359 4.26986V16.2699C49.3359 17.0059 48.7386 17.6032 48.0026 17.6032Z" stroke="url(#paint14_linear_156_3690)" stroke-width="2.66667" stroke-miterlimit="10"/>
<path d="M40 17.6029V21.6029C40 22.3389 40.5973 22.9362 41.3333 22.9362H52.7707L60 26.6029V9.60286C60 8.86686 59.4027 8.26953 58.6667 8.26953H49.328" stroke="url(#paint15_linear_156_3690)" stroke-width="2.66667" stroke-miterlimit="10"/>
<defs>
<linearGradient id="paint0_linear_156_3690" x1="54.6641" y1="53.6029" x2="73.7543" y2="53.2168" gradientUnits="userSpaceOnUse">
<stop stop-color="#377DC5"/>
<stop offset="1" stop-color="#013792"/>
</linearGradient>
<linearGradient id="paint1_linear_156_3690" x1="50.6641" y1="78.9355" x2="77.9211" y2="78.0957" gradientUnits="userSpaceOnUse">
<stop stop-color="#377DC5"/>
<stop offset="1" stop-color="#013792"/>
</linearGradient>
<linearGradient id="paint2_linear_156_3690" x1="8" y1="45.6022" x2="24.3196" y2="44.6971" gradientUnits="userSpaceOnUse">
<stop stop-color="#377DC5"/>
<stop offset="1" stop-color="#013792"/>
</linearGradient>
<linearGradient id="paint3_linear_156_3690" x1="10.6641" y1="33.6025" x2="21.5726" y2="33.3785" gradientUnits="userSpaceOnUse">
<stop stop-color="#377DC5"/>
<stop offset="1" stop-color="#013792"/>
</linearGradient>
<linearGradient id="paint4_linear_156_3690" x1="59.6133" y1="28.2692" x2="66.8287" y2="28.189" gradientUnits="userSpaceOnUse">
<stop stop-color="#377DC5"/>
<stop offset="1" stop-color="#013792"/>
</linearGradient>
<linearGradient id="paint5_linear_156_3690" x1="2.66406" y1="61.6025" x2="47.6607" y2="60.6493" gradientUnits="userSpaceOnUse">
<stop stop-color="#377DC5"/>
<stop offset="1" stop-color="#013792"/>
</linearGradient>
<linearGradient id="paint6_linear_156_3690" x1="33.332" y1="57.6022" x2="36.0589" y2="57.5392" gradientUnits="userSpaceOnUse">
<stop stop-color="#377DC5"/>
<stop offset="1" stop-color="#013792"/>
</linearGradient>
<linearGradient id="paint7_linear_156_3690" x1="38.6641" y1="57.6022" x2="41.3909" y2="57.5392" gradientUnits="userSpaceOnUse">
<stop stop-color="#377DC5"/>
<stop offset="1" stop-color="#013792"/>
</linearGradient>
<linearGradient id="paint8_linear_156_3690" x1="28" y1="57.6022" x2="30.7268" y2="57.5392" gradientUnits="userSpaceOnUse">
<stop stop-color="#377DC5"/>
<stop offset="1" stop-color="#013792"/>
</linearGradient>
<linearGradient id="paint9_linear_156_3690" x1="25.7266" y1="70.9368" x2="30.3859" y2="70.8843" gradientUnits="userSpaceOnUse">
<stop stop-color="#377DC5"/>
<stop offset="1" stop-color="#013792"/>
</linearGradient>
<linearGradient id="paint10_linear_156_3690" x1="39.0586" y1="70.9368" x2="43.7179" y2="70.8843" gradientUnits="userSpaceOnUse">
<stop stop-color="#377DC5"/>
<stop offset="1" stop-color="#013792"/>
</linearGradient>
<linearGradient id="paint11_linear_156_3690" x1="21.3359" y1="71.9365" x2="40.6387" y2="60.6358" gradientUnits="userSpaceOnUse">
<stop stop-color="#377DC5"/>
<stop offset="1" stop-color="#013792"/>
</linearGradient>
<linearGradient id="paint12_linear_156_3690" x1="16" y1="71.9365" x2="18.718" y2="71.769" gradientUnits="userSpaceOnUse">
<stop stop-color="#377DC5"/>
<stop offset="1" stop-color="#013792"/>
</linearGradient>
<linearGradient id="paint13_linear_156_3690" x1="2.66797" y1="51.9365" x2="24.615" y2="26.9151" gradientUnits="userSpaceOnUse">
<stop stop-color="#377DC5"/>
<stop offset="1" stop-color="#013792"/>
</linearGradient>
<linearGradient id="paint14_linear_156_3690" x1="29.3359" y1="21.2699" x2="49.7851" y2="20.7543" gradientUnits="userSpaceOnUse">
<stop stop-color="#377DC5"/>
<stop offset="1" stop-color="#013792"/>
</linearGradient>
<linearGradient id="paint15_linear_156_3690" x1="40" y1="26.6029" x2="60.4492" y2="26.0873" gradientUnits="userSpaceOnUse">
<stop stop-color="#377DC5"/>
<stop offset="1" stop-color="#013792"/>
</linearGradient>
</defs>
</svg>
