<?xml version="1.0" encoding="UTF-8" standalone="no"?><svg width="201" height="47" viewBox="0 0 201 47" fill="none" xmlns="http://www.w3.org/2000/svg">
<path d="M49.4628 5.092C49.6689 5.22472 49.5103 5.12204 49.7107 5.26236C50.7402 5.97806 51.7042 6.78427 52.588 7.66844C56.4007 11.4812 58.7581 16.7482 58.7581 22.5662C58.7581 28.3838 56.4007 33.6508 52.588 37.4635C49.3917 40.6598 45.1724 42.8332 40.4641 43.4519C40.0834 43.5025 39.7438 43.6048 39.3806 43.7344C38.765 43.9531 38.1786 44.244 37.6342 44.5977C36.8355 45.1183 36.1261 45.7751 35.5419 46.5444L35.1797 46.2706C35.7963 45.4568 36.5444 44.7646 37.3863 44.217C37.9728 43.8356 38.6045 43.5241 39.2685 43.291C39.6544 43.1553 39.9746 43.0564 40.3679 43.0043C44.9895 42.405 49.1297 40.2761 52.2655 37.1403C55.9954 33.4104 58.3022 28.2579 58.3022 22.5662C58.3022 13.7386 53.9236 9.13672 49.4628 5.092" fill="white"/>
<path fill-rule="evenodd" clip-rule="evenodd" d="M44.1936 42.6264C45.1767 41.8932 46.4294 41.6236 47.6269 41.8879C48.8244 42.1518 49.8485 42.9238 50.4319 44.0019C46.8777 44.1407 44.7983 43.6825 44.1936 42.6264ZM44.1244 42.3644C45.1854 41.751 45.9281 40.7052 46.1574 39.5012C46.3883 38.2961 46.0833 37.051 45.3231 36.0893C43.7924 39.3008 43.3928 41.392 44.1244 42.3644Z" fill="white"/>
<path fill-rule="evenodd" clip-rule="evenodd" d="M47.969 40.9367C48.7886 40.072 49.9431 39.6054 51.1342 39.6594C52.3241 39.713 53.4326 40.2823 54.1707 41.217C50.7904 41.9415 48.7239 41.8475 47.969 40.9367V40.9367ZM47.8591 40.6972C48.7733 39.9332 49.3114 38.8098 49.3308 37.6176C49.351 36.4262 48.8532 35.2849 47.9649 34.4901C47.0324 37.818 46.9978 39.8879 47.8591 40.6972Z" fill="white"/>
<path fill-rule="evenodd" clip-rule="evenodd" d="M51.3553 38.5561C51.9988 37.5936 53.0294 36.9596 54.1775 36.8163C55.3267 36.674 56.4801 37.0383 57.3392 37.8134C54.2204 39.0573 52.2262 39.3041 51.3553 38.5561ZM51.2108 38.3435C51.9623 37.4631 52.2931 36.2998 52.1186 35.1552C51.944 34.0113 51.2797 32.9989 50.3012 32.3836C49.9506 35.7222 50.2537 37.7099 51.2108 38.3435" fill="white"/>
<path fill-rule="evenodd" clip-rule="evenodd" d="M54.1503 35.6007C54.6109 34.5754 55.4935 33.8004 56.5693 33.4772C57.6463 33.1535 58.8096 33.3144 59.758 33.9168C56.9759 35.6147 55.1068 36.1764 54.1503 35.6007V35.6007ZM53.9781 35.4219C54.5538 34.4572 54.682 33.2885 54.3283 32.2222C53.9746 31.1551 53.1749 30.2949 52.1367 29.8637C52.3447 33.117 52.9581 34.9702 53.9781 35.4219" fill="white"/>
<path fill-rule="evenodd" clip-rule="evenodd" d="M56.3794 32.1601C56.6509 31.1037 57.3681 30.2165 58.3447 29.7293C59.3213 29.2429 60.4606 29.2042 61.4676 29.6248C59.0851 31.7083 57.3883 32.5537 56.3794 32.1601ZM56.1854 32.0168C56.5779 30.9991 56.5068 29.8609 55.9934 28.898C55.4792 27.9355 54.5726 27.2445 53.5078 27.0031C54.2429 30.0819 55.1354 31.7525 56.1854 32.0168Z" fill="white"/>
<path fill-rule="evenodd" clip-rule="evenodd" d="M57.8108 28.3296C57.8938 27.2731 58.4306 26.3053 59.2822 25.6767C60.135 25.0484 61.2181 24.821 62.251 25.0549C60.3216 27.4447 58.8414 28.5368 57.8108 28.3296V28.3296ZM57.6016 28.225C57.8055 27.1861 57.5475 26.1102 56.8955 25.2759C56.2435 24.4415 55.2602 23.9315 54.2031 23.8798C55.4211 26.6997 56.5538 28.1485 57.6016 28.225Z" fill="white"/>
<path fill-rule="evenodd" clip-rule="evenodd" d="M58.4932 24.805C58.3943 23.7821 58.7445 22.7667 59.453 22.0229C60.1622 21.2792 61.1591 20.8791 62.1856 20.9286C60.7433 23.5374 59.512 24.829 58.4932 24.805V24.805ZM58.2754 24.7404C58.2949 23.7132 57.868 22.7279 57.1051 22.0402C56.3406 21.3524 55.3164 21.031 54.2969 21.1583C55.9344 23.6484 57.26 24.8427 58.2754 24.7404Z" fill="white"/>
<path fill-rule="evenodd" clip-rule="evenodd" d="M58.5406 20.604C58.2774 19.6427 58.4447 18.6144 58.9996 17.7853C59.5548 16.9574 60.442 16.411 61.4315 16.2889C60.4831 19.0205 59.5194 20.4599 58.5406 20.604ZM58.3215 20.5782C58.1717 19.5932 57.6005 18.7208 56.7563 18.1896C55.9135 17.6579 54.8795 17.5191 53.9258 17.8101C55.9025 19.9206 57.3678 20.8447 58.3215 20.5782Z" fill="white"/>
<path fill-rule="evenodd" clip-rule="evenodd" d="M57.7327 16.4704C57.3284 15.5916 57.3254 14.5797 57.7243 13.6989C58.124 12.817 58.8861 12.1531 59.8144 11.8781C59.3409 14.6455 58.6469 16.1761 57.7327 16.4704V16.4704ZM57.5193 16.48C57.2185 15.5604 56.534 14.8166 55.6415 14.4428C54.7489 14.0674 53.7389 14.0997 52.8711 14.5287C55.1003 16.2354 56.6492 16.8865 57.5193 16.48Z" fill="white"/>
<path fill-rule="evenodd" clip-rule="evenodd" d="M56.3864 13.1019C55.9015 12.298 55.7893 11.3233 56.0802 10.4297C56.3704 9.53714 57.0344 8.81384 57.8999 8.44952C57.7417 11.1693 57.2371 12.7205 56.3864 13.1019V13.1019ZM56.1818 13.1354C55.7924 12.2805 55.0519 11.6371 54.1507 11.3709C53.2498 11.1054 52.2785 11.2458 51.4883 11.7535C53.821 13.159 55.3862 13.6207 56.1818 13.1354Z" fill="white"/>
<path fill-rule="evenodd" clip-rule="evenodd" d="M54.4316 9.98776C53.8464 9.28918 53.5919 8.37078 53.7361 7.4695C53.8817 6.56937 54.4099 5.77723 55.1861 5.29731C55.4417 7.93003 55.1895 9.49301 54.4316 9.98776V9.98776ZM54.2407 10.0494C53.7395 9.28803 52.9322 8.78149 52.0278 8.66284C51.1231 8.54343 50.2123 8.82256 49.5312 9.42836C51.9803 10.4278 53.5497 10.6346 54.2407 10.0494" fill="white"/>
<path fill-rule="evenodd" clip-rule="evenodd" d="M52.0698 7.31987C51.4036 6.73689 51.0229 5.89266 51.0282 5.00659C51.0339 4.12166 51.4241 3.28199 52.0964 2.70623C52.7327 5.19521 52.7239 6.73347 52.0698 7.31987V7.31987ZM51.8949 7.40848C51.3009 6.75172 50.4506 6.38551 49.5645 6.40566C48.6796 6.42506 47.8464 6.82854 47.2812 7.51078C49.7813 8.10668 51.3184 8.07246 51.8949 7.40848" fill="white"/>
<path fill-rule="evenodd" clip-rule="evenodd" d="M49.7933 5.21489C49.067 4.75474 48.5753 3.99987 48.4482 3.14841C48.3209 2.29695 48.5699 1.43218 49.1316 0.778845C50.1135 3.07502 50.3345 4.55395 49.7933 5.21489ZM49.6393 5.32593C48.97 4.78364 48.0988 4.55965 47.2515 4.71063C46.4031 4.86122 45.6638 5.37346 45.2227 6.11388C47.7132 6.31239 49.1845 6.05038 49.6393 5.32593Z" fill="white"/>
<path fill-rule="evenodd" clip-rule="evenodd" d="M48.5477 4.26657C48.237 3.4634 47.5924 2.83479 46.782 2.54501C45.9712 2.25599 45.0745 2.33243 44.3242 2.75493C46.3861 4.16503 47.794 4.66853 48.5477 4.26657" fill="white"/>
<path d="M13.1849 5.092C12.9801 5.22472 13.1386 5.12204 12.9381 5.26236C11.9075 5.97806 10.9449 6.78427 10.061 7.66844C6.24817 11.4812 3.89062 16.7482 3.89062 22.5662C3.89062 28.3838 6.24817 33.6508 10.061 37.4635C13.2572 40.6598 17.4764 42.8332 22.185 43.4519C22.5655 43.5025 22.9051 43.6048 23.2673 43.7344C23.8839 43.9531 24.4703 44.244 25.0146 44.5977C25.8136 45.1183 26.5228 45.7751 27.1069 46.5444L27.4682 46.2706C26.8525 45.4568 26.1045 44.7646 25.2625 44.217C24.6762 43.8356 24.0445 43.5241 23.3805 43.291C22.9935 43.1553 22.6744 43.0564 22.2809 43.0043C17.6596 42.405 13.5191 40.2761 10.3833 37.1403C6.65348 33.4104 4.34659 28.2579 4.34659 22.5662C4.34659 13.7386 8.72536 9.13672 13.1849 5.092" fill="white"/>
<path fill-rule="evenodd" clip-rule="evenodd" d="M18.4542 42.6264C17.4711 41.8932 16.2184 41.6236 15.0208 41.8879C13.8232 42.1518 12.7991 42.9238 12.2148 44.0019C15.77 44.1407 17.8494 43.6825 18.4542 42.6264ZM18.5232 42.3644C17.4614 41.751 16.7197 40.7052 16.4901 39.5012C16.2594 38.2961 16.5645 37.051 17.3245 36.0893C18.8552 39.3008 19.2551 41.392 18.5232 42.3644Z" fill="white"/>
<path fill-rule="evenodd" clip-rule="evenodd" d="M14.6782 40.9367C13.8589 40.072 12.7033 39.6054 11.5132 39.6594C10.3232 39.713 9.21496 40.2823 8.47656 41.217C11.8571 41.9415 13.9236 41.8475 14.6782 40.9367V40.9367ZM14.7881 40.6972C13.874 39.9332 13.3361 38.8098 13.3167 37.6176C13.2962 36.4262 13.7942 35.2849 14.6825 34.4901C15.6149 37.818 15.6495 39.8879 14.7881 40.6972" fill="white"/>
<path fill-rule="evenodd" clip-rule="evenodd" d="M11.2924 38.5561C10.6489 37.5936 9.61834 36.9596 8.4703 36.8163C7.32115 36.674 6.16774 37.0383 5.30859 37.8134C8.42717 39.0573 10.4214 39.3041 11.2924 38.5561V38.5561ZM11.4358 38.3435C10.6855 37.4631 10.3546 36.2998 10.5292 35.1552C10.7039 34.0113 11.3668 32.9989 12.3467 32.3836C12.697 35.7222 12.3931 37.7099 11.4358 38.3435" fill="white"/>
<path fill-rule="evenodd" clip-rule="evenodd" d="M8.49932 35.6007C8.03902 34.5754 7.15619 33.8004 6.08036 33.4772C5.00346 33.1535 3.84031 33.3144 2.89062 33.9168C5.67394 35.6147 7.54317 36.1764 8.49932 35.6007V35.6007ZM8.67072 35.4219C8.09508 34.4572 7.96787 33.2885 8.32146 32.2222C8.67501 31.1551 9.47491 30.2949 10.513 29.8637C10.3049 33.117 9.69049 34.9702 8.67072 35.4219Z" fill="white"/>
<path fill-rule="evenodd" clip-rule="evenodd" d="M6.26667 32.1601C5.99609 31.1037 5.27921 30.2165 4.30256 29.7293C3.32595 29.2429 2.1865 29.2042 1.17969 29.6248C3.56199 31.7083 5.25765 32.5537 6.26667 32.1601V32.1601ZM6.46069 32.0168C6.06937 30.9991 6.13946 29.8609 6.65365 28.898C7.16783 27.9355 8.0744 27.2445 9.13836 27.0031C8.4043 30.0819 7.51172 31.7525 6.46069 32.0168Z" fill="white"/>
<path fill-rule="evenodd" clip-rule="evenodd" d="M4.83863 28.3296C4.75561 27.2731 4.2188 26.3053 3.36718 25.6767C2.5145 25.0485 1.43114 24.8211 0.398438 25.0549C2.32801 27.4447 3.80805 28.5368 4.83863 28.3296ZM5.04775 28.225C4.84403 27.1861 5.10167 26.1102 5.75383 25.2759C6.40602 24.4415 7.3891 23.9316 8.44664 23.8798C7.2285 26.6997 6.09555 28.1486 5.04775 28.225" fill="white"/>
<path fill-rule="evenodd" clip-rule="evenodd" d="M4.15303 24.805C4.2522 23.7821 3.90185 22.7667 3.19254 22.0229C2.48429 21.279 1.48718 20.879 0.460938 20.9288C1.90329 23.5375 3.13325 24.829 4.15303 24.805V24.805ZM4.37074 24.7404C4.35028 23.7132 4.77825 22.7279 5.54145 22.04C6.30575 21.3524 7.32983 21.0311 8.34956 21.1581C6.71213 23.6486 5.38515 24.8427 4.37074 24.7404" fill="white"/>
<path fill-rule="evenodd" clip-rule="evenodd" d="M4.10593 20.604C4.36898 19.6427 4.20188 18.6144 3.64674 17.7853C3.0916 16.9574 2.20443 16.411 1.21484 16.2889C2.16343 19.0205 3.12715 20.4599 4.10593 20.604ZM4.32479 20.5782C4.47462 19.5932 5.04597 18.7208 5.89001 18.1896C6.73299 17.6579 7.76676 17.5191 8.71968 17.8101C6.74375 19.9206 5.27771 20.8447 4.32479 20.5782Z" fill="white"/>
<path fill-rule="evenodd" clip-rule="evenodd" d="M4.91645 16.4704C5.32176 15.5916 5.32499 14.5797 4.92615 13.6989C4.5262 12.817 3.76406 12.1531 2.83594 11.8781C3.30917 14.6455 4.00338 16.1761 4.91645 16.4704V16.4704ZM5.13097 16.48C5.43063 15.5604 6.11621 14.8166 7.00882 14.4428C7.90136 14.0674 8.91144 14.0997 9.77921 14.5287C7.54993 16.2354 6.00087 16.8865 5.13097 16.48Z" fill="white"/>
<path fill-rule="evenodd" clip-rule="evenodd" d="M6.25956 13.1019C6.74465 12.298 6.85676 11.3233 6.56573 10.4297C6.27572 9.53714 5.61064 8.81384 4.74609 8.44952C4.90456 11.1693 5.40905 12.7205 6.25956 13.1019V13.1019ZM6.46438 13.1354C6.85353 12.2805 7.5941 11.6371 8.4953 11.3709C9.39647 11.1054 10.3677 11.2458 11.1579 11.7535C8.82516 13.159 7.25994 13.6207 6.46438 13.1354Z" fill="white"/>
<path fill-rule="evenodd" clip-rule="evenodd" d="M8.21445 9.98776C8.79982 9.28918 9.05423 8.37078 8.9087 7.4695C8.76426 6.56937 8.23601 5.77723 7.45988 5.29731C7.2044 7.93003 7.45558 9.49301 8.21445 9.98776V9.98776ZM8.40527 10.0494C8.90653 9.28803 9.71395 8.78149 10.6184 8.66284C11.5217 8.54343 12.4337 8.82256 13.115 9.42836C10.6658 10.4278 9.09625 10.6346 8.40527 10.0494" fill="white"/>
<path fill-rule="evenodd" clip-rule="evenodd" d="M10.58 7.31987C11.2462 6.73689 11.6257 5.89266 11.6213 5.00659C11.616 4.12166 11.2257 3.28199 10.552 2.70623C9.91599 5.19521 9.92568 6.73347 10.58 7.31987V7.31987ZM10.7547 7.40848C11.3486 6.75172 12.1992 6.38551 13.0842 6.40566C13.9703 6.42506 14.8035 6.82854 15.3674 7.51078C12.8686 8.10668 11.3303 8.07246 10.7547 7.40848Z" fill="white"/>
<path fill-rule="evenodd" clip-rule="evenodd" d="M12.8507 5.21489C13.5773 4.75474 14.0688 3.99987 14.196 3.14841C14.3232 2.29695 14.0731 1.43218 13.5126 0.778845C12.5306 3.07502 12.3096 4.55395 12.8507 5.21489ZM13.0049 5.32593C13.6732 4.78364 14.5453 4.55965 15.3926 4.71063C16.2399 4.86122 16.9805 5.37346 17.4203 6.11388C14.9312 6.31239 13.4587 6.05038 13.0049 5.32593Z" fill="white"/>
<path fill-rule="evenodd" clip-rule="evenodd" d="M14.0977 4.26657C14.4092 3.4634 15.0538 2.83479 15.8645 2.54501C16.6751 2.25599 17.572 2.33243 18.3212 2.75493C16.2601 4.16503 14.8523 4.66853 14.0977 4.26657Z" fill="white"/>
<path d="M25.3171 9.16382V10.1151H29.3822V9.16382H25.3171ZM25.3252 11.1069V12.0338H29.4228V11.1069H25.3252ZM25.2846 13.0338V13.9769H29.3659V13.0338H25.2846ZM24.6504 9.16382V11.8549C24.6504 13.0988 24.5366 14.668 23.3008 15.7168C23.5122 15.8469 23.9105 16.2127 24.0569 16.416C25.4309 15.2615 25.6504 13.2696 25.6504 11.8549V9.16382H24.6504ZM28.9269 9.16382V15.1639C28.9269 15.3346 28.8618 15.3916 28.6749 15.3997C28.4797 15.3997 27.8049 15.4078 27.2277 15.3753C27.3903 15.6355 27.5773 16.107 27.6342 16.3997C28.4797 16.3997 29.057 16.3834 29.4472 16.2127C29.8212 16.0501 29.9594 15.7574 29.9594 15.1802V9.16382H28.9269Z" fill="white"/>
<path d="M32.8131 10.863V11.5216H34.431V10.863H32.8131ZM33.0814 8.80609V10.0744H33.992V8.80609H33.0814ZM32.6668 13.6923V14.4322H34.0245V15.1883H32.6668V15.9282H34.8538V13.6923H32.6668ZM31.7725 9.45651V10.7736H32.553V10.2126H34.5123V10.7736H35.3254V9.45651H31.7725ZM32.2278 13.6923V16.2696H33.0408V13.6923H32.2278ZM34.2684 10.863V11.0012C33.8701 12.1476 32.7643 13.0988 31.5529 13.5135C31.7237 13.6842 31.9513 14.0094 32.057 14.2127C33.3985 13.6598 34.5855 12.6192 35.1221 11.0825L34.5693 10.8305L34.4229 10.863H34.2684ZM33.057 10.2939C32.7643 10.9769 32.2034 11.6029 31.5611 11.9931C31.7399 12.1232 32.0489 12.4159 32.179 12.5704C32.8456 12.0907 33.4879 11.3346 33.8538 10.4972L33.057 10.2939ZM32.3334 12.1557C33.1546 12.7249 34.3172 13.546 34.8701 14.0501L35.4229 13.3671C34.8375 12.8793 33.6424 12.0988 32.8456 11.5704L32.3334 12.1557ZM35.3416 9.09878V9.93619H39.171V9.09878H35.3416ZM36.4636 12.3834H38.0734V12.8793H36.4636V12.3834ZM36.4636 13.5623H38.0734V14.0663H36.4636V13.5623ZM36.4636 11.2045H38.0734V11.7086H36.4636V11.2045ZM35.5937 10.4809V14.7899H39.0002V10.4809H35.5937ZM36.7725 9.54594C36.7319 9.93619 36.6262 10.4809 36.5286 10.863L37.3417 11.0175C37.4799 10.676 37.675 10.1638 37.8376 9.66789L36.7725 9.54594ZM36.2603 14.8224C35.9351 15.1558 35.2684 15.5704 34.6831 15.7899C34.8863 15.9607 35.1628 16.229 35.3091 16.4078C35.9107 16.1721 36.6181 15.733 37.049 15.3184L36.2603 14.8224ZM37.3986 15.3103C37.8457 15.6355 38.4148 16.1233 38.6831 16.4241L39.4392 15.9282C39.1384 15.6192 38.5449 15.1639 38.1059 14.8631L37.3986 15.3103Z" fill="white"/>
<path d="M27.8696 31.4722L26.9337 31.371C26.9401 31.8453 26.8705 32.3828 26.7504 32.9519C26.5733 33.7487 26.099 35.4181 25.3465 36.4298L26.1749 36.7587C26.8326 35.69 27.3448 33.8878 27.5534 32.9962C27.6167 32.6737 27.6989 32.2816 27.7558 31.9971C27.7937 31.839 27.8317 31.6366 27.8696 31.4722ZM30.0512 32.0603L29.2924 32.3828C29.7477 32.9456 30.1967 34.0838 30.3611 34.792L31.1642 34.419C30.9681 33.8119 30.4369 32.6104 30.0512 32.0603ZM25.3086 32.7685L25.3845 33.6222C25.5742 33.5906 25.903 33.5463 26.0864 33.521C26.4342 33.4768 27.5218 33.3376 27.9012 33.3376C28.2933 33.3376 28.5146 33.4135 28.5146 33.9194C28.5146 34.5391 28.4324 35.3106 28.2553 35.6647C28.1542 35.8734 27.9961 35.9366 27.7811 35.9366C27.6167 35.9366 27.2562 35.8734 27.0096 35.8038L27.1424 36.6385C27.3637 36.6891 27.6609 36.727 27.9076 36.727C28.3818 36.727 28.7296 36.5879 28.9446 36.1453C29.2102 35.6015 29.2987 34.577 29.2987 33.8309C29.2987 32.914 28.8245 32.6168 28.1605 32.6168C27.6862 32.6168 26.4911 32.7559 25.9852 32.7685C25.7512 32.7748 25.5362 32.7812 25.3086 32.7685Z" fill="white"/>
<path d="M33.5102 31.371L33.3141 32.1362C33.8074 32.2626 35.2112 32.5535 35.8562 32.6421L36.0459 31.8643C35.4894 31.8074 34.1109 31.5607 33.5102 31.371ZM33.5544 32.6421L32.7008 32.5282C32.6628 33.3123 32.5111 34.5518 32.3846 35.1715L33.1181 35.3485C33.1687 35.222 33.2383 35.1209 33.3521 34.9881C33.7505 34.5075 34.3891 34.2419 35.1037 34.2419C35.6602 34.2419 36.0459 34.5391 36.0459 34.9501C36.0459 35.7595 35.0468 36.2212 33.1434 35.9556L33.39 36.7839C36.0143 37.0116 36.9312 36.1263 36.9312 34.9691C36.9312 34.204 36.2862 33.521 35.1796 33.521C34.5156 33.521 33.8833 33.7107 33.3141 34.1281C33.3584 33.7613 33.4659 32.9962 33.5544 32.6421Z" fill="white"/>
<path d="M14.0659 26.8967V20.7395L14.467 21.2598L12.9276 22.0403L12.6133 20.8045L14.6838 19.7313H15.4643V26.8967H14.0659ZM12.7976 27.4279V26.1271H16.7651V27.4279H12.7976Z" fill="white"/>
<path d="M18.2877 27.4279L21.3989 20.5552L21.6591 21.0864H17.7783V19.818H22.5588L22.7214 20.6094L19.7512 27.4279H18.2877Z" fill="white"/>
<path d="M22.7462 29.4442L22.3018 28.913C22.5692 28.7685 22.7824 28.5987 22.9414 28.4035C23.1076 28.2156 23.1907 28.053 23.1907 27.9157C23.1907 27.8435 23.1726 27.7712 23.1365 27.6989C23.1076 27.6339 23.0317 27.5436 22.9088 27.4279C22.7571 27.2906 22.6559 27.1714 22.6053 27.0702C22.5547 26.969 22.5294 26.857 22.5294 26.7341C22.5294 26.5462 22.5981 26.3945 22.7354 26.2789C22.8727 26.1632 23.0498 26.1054 23.2666 26.1054C23.4617 26.1054 23.6351 26.1596 23.7869 26.268C23.9459 26.3764 24.0687 26.5282 24.1555 26.7233C24.2422 26.9112 24.2856 27.1316 24.2856 27.3846C24.2856 27.6086 24.2458 27.8254 24.1663 28.035C24.094 28.2518 23.9856 28.4505 23.8411 28.6312C23.7038 28.8119 23.5412 28.9709 23.3533 29.1082C23.1726 29.2527 22.9703 29.3647 22.7462 29.4442Z" fill="white"/>
<path d="M27.9757 27.5363C27.3615 27.5363 26.8339 27.3809 26.3931 27.0702C25.9594 26.7522 25.6234 26.3041 25.3849 25.726C25.1536 25.1406 25.038 24.4432 25.038 23.6338C25.038 22.8244 25.1536 22.1306 25.3849 21.5525C25.6234 20.9671 25.9594 20.5191 26.3931 20.2083C26.8339 19.8903 27.3615 19.7313 27.9757 19.7313C28.59 19.7313 29.1176 19.8903 29.5584 20.2083C29.9993 20.5191 30.3353 20.9671 30.5666 21.5525C30.805 22.1306 30.9243 22.8244 30.9243 23.6338C30.9243 24.4432 30.805 25.1406 30.5666 25.726C30.3353 26.3041 29.9993 26.7522 29.5584 27.0702C29.1176 27.3809 28.59 27.5363 27.9757 27.5363ZM27.9757 26.3005C28.4816 26.3005 28.8719 26.0693 29.1465 25.6068C29.4283 25.137 29.5693 24.4794 29.5693 23.6338C29.5693 22.7811 29.4283 22.1198 29.1465 21.6501C28.8719 21.1803 28.4816 20.9454 27.9757 20.9454C27.4699 20.9454 27.076 21.1803 26.7941 21.6501C26.5195 22.1198 26.3822 22.7811 26.3822 23.6338C26.3822 24.4794 26.5195 25.137 26.7941 25.6068C27.076 26.0693 27.4699 26.3005 27.9757 26.3005Z" fill="white"/>
<path d="M34.5976 27.5363C33.9833 27.5363 33.4558 27.3809 33.0149 27.0702C32.5813 26.7522 32.2453 26.3041 32.0068 25.726C31.7755 25.1406 31.6599 24.4432 31.6599 23.6338C31.6599 22.8244 31.7755 22.1306 32.0068 21.5525C32.2453 20.9671 32.5813 20.5191 33.0149 20.2083C33.4558 19.8903 33.9833 19.7313 34.5976 19.7313C35.2119 19.7313 35.7395 19.8903 36.1803 20.2083C36.6211 20.5191 36.9572 20.9671 37.1884 21.5525C37.4269 22.1306 37.5462 22.8244 37.5462 23.6338C37.5462 24.4432 37.4269 25.1406 37.1884 25.726C36.9572 26.3041 36.6211 26.7522 36.1803 27.0702C35.7395 27.3809 35.2119 27.5363 34.5976 27.5363ZM34.5976 26.3005C35.1035 26.3005 35.4938 26.0693 35.7684 25.6068C36.0502 25.137 36.1911 24.4794 36.1911 23.6338C36.1911 22.7811 36.0502 22.1198 35.7684 21.6501C35.4938 21.1803 35.1035 20.9454 34.5976 20.9454C34.0917 20.9454 33.6979 21.1803 33.416 21.6501C33.1414 22.1198 33.0041 22.7811 33.0041 23.6338C33.0041 24.4794 33.1414 25.137 33.416 25.6068C33.6979 26.0693 34.0917 26.3005 34.5976 26.3005Z" fill="white"/>
<path d="M41.2195 27.5363C40.6052 27.5363 40.0777 27.3809 39.6368 27.0702C39.2032 26.7522 38.8672 26.3041 38.6287 25.726C38.3974 25.1406 38.2818 24.4432 38.2818 23.6338C38.2818 22.8244 38.3974 22.1306 38.6287 21.5525C38.8672 20.9671 39.2032 20.5191 39.6368 20.2083C40.0777 19.8903 40.6052 19.7313 41.2195 19.7313C41.8338 19.7313 42.3613 19.8903 42.8022 20.2083C43.243 20.5191 43.5791 20.9671 43.8103 21.5525C44.0488 22.1306 44.1681 22.8244 44.1681 23.6338C44.1681 24.4432 44.0488 25.1406 43.8103 25.726C43.5791 26.3041 43.243 26.7522 42.8022 27.0702C42.3613 27.3809 41.8338 27.5363 41.2195 27.5363ZM41.2195 26.3005C41.7254 26.3005 42.1156 26.0693 42.3903 25.6068C42.6721 25.137 42.813 24.4794 42.813 23.6338C42.813 22.7811 42.6721 22.1198 42.3903 21.6501C42.1156 21.1803 41.7254 20.9454 41.2195 20.9454C40.7136 20.9454 40.3198 21.1803 40.0379 21.6501C39.7633 22.1198 39.626 22.7811 39.626 23.6338C39.626 24.4794 39.7633 25.137 40.0379 25.6068C40.3198 26.0693 40.7136 26.3005 41.2195 26.3005Z" fill="white"/>
<path d="M45.5053 23.1677V27.9157H46.1611V23.8127H49.7601V23.1677H45.5053ZM49.4458 23.1677V27.1461C49.4458 27.2436 49.4132 27.2762 49.3102 27.2762C49.2018 27.2762 48.8495 27.2816 48.5352 27.2653C48.6273 27.4333 48.7411 27.7314 48.7682 27.9157C49.256 27.9157 49.5813 27.8995 49.8035 27.7965C50.0311 27.6881 50.107 27.5038 50.107 27.1515V23.1677H49.4458ZM45.863 25.184V25.829H49.7655V25.184H45.863ZM47.4403 23.52V25.5038H48.0907V23.52H47.4403Z" fill="white"/>
<path d="M118.541 5.092C118.747 5.22472 118.588 5.12204 118.789 5.26236C119.818 5.97806 120.782 6.78427 121.666 7.66844C125.479 11.4812 127.836 16.7482 127.836 22.5662C127.836 28.3838 125.479 33.6508 121.666 37.4635C118.47 40.6598 114.251 42.8332 109.542 43.4519C109.162 43.5025 108.822 43.6048 108.459 43.7344C107.843 43.9531 107.257 44.244 106.712 44.5977C105.914 45.1183 105.204 45.7751 104.62 46.5444L104.258 46.2706C104.874 45.4568 105.623 44.7646 106.464 44.217C107.051 43.8356 107.683 43.5241 108.347 43.291C108.733 43.1553 109.053 43.0564 109.446 43.0043C114.068 42.405 118.208 40.2761 121.344 37.1403C125.073 33.4104 127.38 28.2579 127.38 22.5662C127.38 13.7386 123.002 9.13672 118.541 5.092" fill="white"/>
<path fill-rule="evenodd" clip-rule="evenodd" d="M113.272 42.6264C114.255 41.8932 115.507 41.6236 116.705 41.8879C117.903 42.1518 118.927 42.9238 119.51 44.0019C115.956 44.1407 113.876 43.6825 113.272 42.6264ZM113.203 42.3644C114.264 41.751 115.006 40.7052 115.236 39.5012C115.466 38.2961 115.161 37.051 114.401 36.0893C112.871 39.3008 112.471 41.392 113.203 42.3644Z" fill="white"/>
<path fill-rule="evenodd" clip-rule="evenodd" d="M117.047 40.9367C117.867 40.072 119.021 39.6054 120.212 39.6594C121.402 39.713 122.511 40.2823 123.249 41.217C119.869 41.9415 117.802 41.8475 117.047 40.9367V40.9367ZM116.937 40.6972C117.851 39.9332 118.39 38.8098 118.409 37.6176C118.429 36.4262 117.931 35.2849 117.043 34.4901C116.111 37.818 116.076 39.8879 116.937 40.6972Z" fill="white"/>
<path fill-rule="evenodd" clip-rule="evenodd" d="M120.433 38.5561C121.077 37.5936 122.107 36.9596 123.256 36.8163C124.405 36.674 125.558 37.0383 126.417 37.8134C123.299 39.0573 121.304 39.3041 120.433 38.5561ZM120.289 38.3435C121.04 37.4631 121.371 36.2998 121.197 35.1552C121.022 34.0113 120.358 32.9989 119.379 32.3836C119.029 35.7222 119.332 37.7099 120.289 38.3435" fill="white"/>
<path fill-rule="evenodd" clip-rule="evenodd" d="M123.228 35.6007C123.689 34.5754 124.572 33.8004 125.647 33.4772C126.724 33.1535 127.888 33.3144 128.836 33.9168C126.054 35.6147 124.185 36.1764 123.228 35.6007V35.6007ZM123.056 35.4219C123.632 34.4572 123.76 33.2885 123.406 32.2222C123.053 31.1551 122.253 30.2949 121.215 29.8637C121.423 33.117 122.036 34.9702 123.056 35.4219" fill="white"/>
<path fill-rule="evenodd" clip-rule="evenodd" d="M125.457 32.1601C125.729 31.1037 126.446 30.2165 127.423 29.7293C128.399 29.2429 129.539 29.2042 130.546 29.6248C128.163 31.7083 126.466 32.5537 125.457 32.1601ZM125.264 32.0168C125.656 30.9991 125.585 29.8609 125.071 28.898C124.557 27.9355 123.651 27.2445 122.586 27.0031C123.321 30.0819 124.214 31.7525 125.264 32.0168Z" fill="white"/>
<path fill-rule="evenodd" clip-rule="evenodd" d="M126.889 28.3296C126.972 27.2731 127.509 26.3053 128.36 25.6767C129.213 25.0484 130.296 24.821 131.329 25.0549C129.4 27.4447 127.92 28.5368 126.889 28.3296V28.3296ZM126.68 28.225C126.884 27.1861 126.626 26.1102 125.974 25.2759C125.322 24.4415 124.338 23.9315 123.281 23.8798C124.499 26.6997 125.632 28.1485 126.68 28.225Z" fill="white"/>
<path fill-rule="evenodd" clip-rule="evenodd" d="M127.571 24.805C127.472 23.7821 127.823 22.7667 128.531 22.0229C129.24 21.2792 130.237 20.8791 131.264 20.9286C129.821 23.5374 128.59 24.829 127.571 24.805V24.805ZM127.353 24.7404C127.373 23.7132 126.946 22.7279 126.183 22.0402C125.419 21.3524 124.395 21.031 123.375 21.1583C125.013 23.6484 126.338 24.8427 127.353 24.7404Z" fill="white"/>
<path fill-rule="evenodd" clip-rule="evenodd" d="M127.619 20.604C127.356 19.6427 127.523 18.6144 128.078 17.7853C128.633 16.9574 129.52 16.411 130.51 16.2889C129.561 19.0205 128.598 20.4599 127.619 20.604ZM127.4 20.5782C127.25 19.5932 126.679 18.7208 125.834 18.1896C124.992 17.6579 123.958 17.5191 123.004 17.8101C124.981 19.9206 126.446 20.8447 127.4 20.5782Z" fill="white"/>
<path fill-rule="evenodd" clip-rule="evenodd" d="M126.811 16.4704C126.407 15.5916 126.404 14.5797 126.802 13.6989C127.202 12.817 127.964 12.1531 128.892 11.8781C128.419 14.6455 127.725 16.1761 126.811 16.4704V16.4704ZM126.597 16.48C126.297 15.5604 125.612 14.8166 124.72 14.4428C123.827 14.0674 122.817 14.0997 121.949 14.5287C124.178 16.2354 125.727 16.8865 126.597 16.48Z" fill="white"/>
<path fill-rule="evenodd" clip-rule="evenodd" d="M125.464 13.1019C124.98 12.298 124.867 11.3233 125.158 10.4297C125.449 9.53714 126.113 8.81384 126.978 8.44952C126.82 11.1693 126.315 12.7205 125.464 13.1019V13.1019ZM125.26 13.1354C124.87 12.2805 124.13 11.6371 123.229 11.3709C122.328 11.1054 121.357 11.2458 120.566 11.7535C122.899 13.159 124.464 13.6207 125.26 13.1354Z" fill="white"/>
<path fill-rule="evenodd" clip-rule="evenodd" d="M123.51 9.98776C122.924 9.28918 122.67 8.37078 122.814 7.4695C122.96 6.56937 123.488 5.77723 124.264 5.29731C124.52 7.93003 124.268 9.49301 123.51 9.98776V9.98776ZM123.319 10.0494C122.818 9.28803 122.01 8.78149 121.106 8.66284C120.201 8.54343 119.29 8.82256 118.609 9.42836C121.058 10.4278 122.628 10.6346 123.319 10.0494" fill="white"/>
<path fill-rule="evenodd" clip-rule="evenodd" d="M121.148 7.31987C120.482 6.73689 120.101 5.89266 120.106 5.00659C120.112 4.12166 120.502 3.28199 121.175 2.70623C121.811 5.19521 121.802 6.73347 121.148 7.31987V7.31987ZM120.973 7.40848C120.379 6.75172 119.529 6.38551 118.643 6.40566C117.758 6.42506 116.924 6.82854 116.359 7.51078C118.859 8.10668 120.396 8.07246 120.973 7.40848" fill="white"/>
<path fill-rule="evenodd" clip-rule="evenodd" d="M118.871 5.21489C118.145 4.75474 117.653 3.99987 117.526 3.14841C117.399 2.29695 117.648 1.43218 118.21 0.778845C119.192 3.07502 119.413 4.55395 118.871 5.21489ZM118.717 5.32593C118.048 4.78364 117.177 4.55965 116.33 4.71063C115.481 4.86122 114.742 5.37346 114.301 6.11388C116.791 6.31239 118.263 6.05038 118.717 5.32593Z" fill="white"/>
<path fill-rule="evenodd" clip-rule="evenodd" d="M117.626 4.26657C117.315 3.4634 116.671 2.83479 115.86 2.54501C115.049 2.25599 114.153 2.33243 113.402 2.75493C115.464 4.16503 116.872 4.66853 117.626 4.26657" fill="white"/>
<path d="M82.2631 5.092C82.0582 5.22472 82.2167 5.12204 82.0162 5.26236C80.9856 5.97806 80.023 6.78427 79.1391 7.66844C75.3263 11.4812 72.9688 16.7482 72.9688 22.5662C72.9688 28.3838 75.3263 33.6508 79.1391 37.4635C82.3353 40.6598 86.5545 42.8332 91.2631 43.4519C91.6436 43.5025 91.9832 43.6048 92.3454 43.7344C92.962 43.9531 93.5484 44.244 94.0927 44.5977C94.8917 45.1183 95.6009 45.7751 96.1851 46.5444L96.5463 46.2706C95.9306 45.4568 95.1826 44.7646 94.3407 44.217C93.7543 43.8356 93.1226 43.5241 92.4586 43.291C92.0716 43.1553 91.7525 43.0564 91.359 43.0043C86.7377 42.405 82.5972 40.2761 79.4614 37.1403C75.7316 33.4104 73.4247 28.2579 73.4247 22.5662C73.4247 13.7386 77.8035 9.13672 82.2631 5.092" fill="white"/>
<path fill-rule="evenodd" clip-rule="evenodd" d="M87.5323 42.6264C86.5492 41.8932 85.2965 41.6236 84.099 41.8879C82.9013 42.1518 81.8772 42.9238 81.293 44.0019C84.8481 44.1407 86.9276 43.6825 87.5323 42.6264ZM87.6013 42.3644C86.5395 41.751 85.7978 40.7052 85.5682 39.5012C85.3375 38.2961 85.6426 37.051 86.4026 36.0893C87.9333 39.3008 88.3333 41.392 87.6013 42.3644Z" fill="white"/>
<path fill-rule="evenodd" clip-rule="evenodd" d="M83.7563 40.9367C82.937 40.072 81.7814 39.6054 80.5914 39.6594C79.4013 39.713 78.2931 40.2823 77.5547 41.217C80.9352 41.9415 83.0017 41.8475 83.7563 40.9367V40.9367ZM83.8663 40.6972C82.9521 39.9332 82.4142 38.8098 82.3948 37.6176C82.3743 36.4262 82.8723 35.2849 83.7606 34.4901C84.693 37.818 84.7276 39.8879 83.8663 40.6972" fill="white"/>
<path fill-rule="evenodd" clip-rule="evenodd" d="M80.3706 38.5561C79.727 37.5936 78.6965 36.9596 77.5484 36.8163C76.3993 36.674 75.2459 37.0383 74.3867 37.8134C77.5053 39.0573 79.4996 39.3041 80.3706 38.5561V38.5561ZM80.5139 38.3435C79.7637 37.4631 79.4327 36.2998 79.6073 35.1552C79.782 34.0113 80.4449 32.9989 81.4248 32.3836C81.7752 35.7222 81.4712 37.7099 80.5139 38.3435" fill="white"/>
<path fill-rule="evenodd" clip-rule="evenodd" d="M77.5774 35.6007C77.1171 34.5754 76.2343 33.8004 75.1585 33.4772C74.0816 33.1535 72.9184 33.3144 71.9688 33.9168C74.7521 35.6147 76.6213 36.1764 77.5774 35.6007V35.6007ZM77.7488 35.4219C77.1732 34.4572 77.046 33.2885 77.3996 32.2222C77.7531 31.1551 78.553 30.2949 79.5911 29.8637C79.383 33.117 78.7686 34.9702 77.7488 35.4219Z" fill="white"/>
<path fill-rule="evenodd" clip-rule="evenodd" d="M75.3448 32.1601C75.0742 31.1037 74.3573 30.2165 73.3807 29.7293C72.4041 29.2429 71.2646 29.2042 70.2578 29.6248C72.6401 31.7083 74.3358 32.5537 75.3448 32.1601V32.1601ZM75.5388 32.0168C75.1475 30.9991 75.2176 29.8609 75.7318 28.898C76.246 27.9355 77.1525 27.2445 78.2165 27.0031C77.4824 30.0819 76.5898 31.7525 75.5388 32.0168Z" fill="white"/>
<path fill-rule="evenodd" clip-rule="evenodd" d="M73.9168 28.3296C73.8337 27.2731 73.2969 26.3053 72.4453 25.6767C71.5926 25.0485 70.5093 24.8211 69.4766 25.0549C71.4061 27.4447 72.8862 28.5368 73.9168 28.3296ZM74.1259 28.225C73.9222 27.1861 74.1798 26.1102 74.832 25.2759C75.4841 24.4415 76.4672 23.9316 77.5248 23.8798C76.3066 26.6997 75.1737 28.1486 74.1259 28.225" fill="white"/>
<path fill-rule="evenodd" clip-rule="evenodd" d="M73.2312 24.805C73.3303 23.7821 72.98 22.7667 72.2707 22.0229C71.5624 21.279 70.5653 20.879 69.5391 20.9288C70.9814 23.5375 72.2114 24.829 73.2312 24.805V24.805ZM73.4489 24.7404C73.4284 23.7132 73.8564 22.7279 74.6196 22.04C75.3839 21.3524 76.408 21.0311 77.4277 21.1581C75.7903 23.6486 74.4633 24.8427 73.4489 24.7404" fill="white"/>
<path fill-rule="evenodd" clip-rule="evenodd" d="M73.1841 20.604C73.4471 19.6427 73.28 18.6144 72.7249 17.7853C72.1697 16.9574 71.2826 16.411 70.293 16.2889C71.2416 19.0205 72.2053 20.4599 73.1841 20.604ZM73.4029 20.5782C73.5527 19.5932 74.1241 18.7208 74.9681 18.1896C75.8111 17.6579 76.8449 17.5191 77.7978 17.8101C75.8219 19.9206 74.3558 20.8447 73.4029 20.5782Z" fill="white"/>
<path fill-rule="evenodd" clip-rule="evenodd" d="M73.9946 16.4704C74.3999 15.5916 74.4031 14.5797 74.0043 13.6989C73.6043 12.817 72.8422 12.1531 71.9141 11.8781C72.3873 14.6455 73.0815 16.1761 73.9946 16.4704V16.4704ZM74.2091 16.48C74.5088 15.5604 75.1943 14.8166 76.0869 14.4428C76.9795 14.0674 77.9896 14.0997 78.8573 14.5287C76.6281 16.2354 75.079 16.8865 74.2091 16.48Z" fill="white"/>
<path fill-rule="evenodd" clip-rule="evenodd" d="M75.3377 13.1019C75.8228 12.298 75.9349 11.3233 75.6439 10.4297C75.3538 9.53714 74.6888 8.81384 73.8242 8.44952C73.9827 11.1693 74.4872 12.7205 75.3377 13.1019V13.1019ZM75.5425 13.1354C75.9317 12.2805 76.6722 11.6371 77.5734 11.3709C78.4746 11.1054 79.4458 11.2458 80.236 11.7535C77.9033 13.159 76.3381 13.6207 75.5425 13.1354Z" fill="white"/>
<path fill-rule="evenodd" clip-rule="evenodd" d="M77.2926 9.98776C77.8779 9.28918 78.1324 8.37078 77.9868 7.4695C77.8424 6.56937 77.3141 5.77723 76.538 5.29731C76.2825 7.93003 76.5337 9.49301 77.2926 9.98776V9.98776ZM77.4834 10.0494C77.9847 9.28803 78.7921 8.78149 79.6965 8.66284C80.5998 8.54343 81.5118 8.82256 82.1931 9.42836C79.7439 10.4278 78.1744 10.6346 77.4834 10.0494" fill="white"/>
<path fill-rule="evenodd" clip-rule="evenodd" d="M79.6582 7.31987C80.3244 6.73689 80.7038 5.89266 80.6995 5.00659C80.6941 4.12166 80.3039 3.28199 79.6301 2.70623C78.9941 5.19521 79.0038 6.73347 79.6582 7.31987V7.31987ZM79.8328 7.40848C80.4268 6.75172 81.2773 6.38551 82.1623 6.40566C83.0484 6.42506 83.8817 6.82854 84.4455 7.51078C81.9467 8.10668 80.4084 8.07246 79.8328 7.40848Z" fill="white"/>
<path fill-rule="evenodd" clip-rule="evenodd" d="M81.9289 5.21489C82.6554 4.75474 83.147 3.99987 83.2742 3.14841C83.4014 2.29695 83.1512 1.43218 82.5907 0.778845C81.6087 3.07502 81.3877 4.55395 81.9289 5.21489ZM82.083 5.32593C82.7513 4.78364 83.6234 4.55965 84.4707 4.71063C85.318 4.86122 86.0586 5.37346 86.4984 6.11388C84.0093 6.31239 82.5368 6.05038 82.083 5.32593Z" fill="white"/>
<path fill-rule="evenodd" clip-rule="evenodd" d="M83.1758 4.26657C83.4873 3.4634 84.132 2.83479 84.9426 2.54501C85.7532 2.25599 86.6501 2.33243 87.3993 2.75493C85.3382 4.16503 83.9304 4.66853 83.1758 4.26657Z" fill="white"/>
<path d="M87.9453 16.0321C88.6364 16.9996 90.0022 18.1297 91.2543 18.8207C91.4332 18.5199 91.6527 18.1947 91.8966 17.9427C90.6039 17.3898 89.2786 16.3247 88.4087 15.0727H87.3924C86.7908 16.0808 85.4737 17.3329 84.0753 18.0402C84.2867 18.2435 84.5631 18.6012 84.6932 18.8288C86.0266 18.089 87.2705 16.9914 87.9453 16.0321ZM85.181 19.8451V20.6907H90.7421V19.8451H85.181ZM85.5957 18.0483V18.902H90.3681V18.0483H85.5957ZM84.5306 21.6744V22.5444H91.4738V21.6744H84.5306ZM87.4331 18.4305V22.1622H88.4656V18.4305H87.4331Z" fill="white"/>
<path d="M93.5958 17.1865V17.8451H95.2137V17.1865H93.5958ZM93.8641 15.1296V16.3979H94.7747V15.1296H93.8641ZM93.4494 20.0159V20.7557H94.8072V21.5118H93.4494V22.2517H95.6365V20.0159H93.4494ZM92.5551 15.78V17.0971H93.3356V16.5361H95.295V17.0971H96.108V15.78H92.5551ZM93.0104 20.0159V22.5931H93.8234V20.0159H93.0104ZM95.0511 17.1865V17.3248C94.6527 18.4711 93.547 19.4224 92.3356 19.837C92.5063 20.0077 92.734 20.3329 92.8397 20.5362C94.1812 19.9833 95.3682 18.9427 95.9048 17.4061L95.3519 17.154L95.2056 17.1865H95.0511ZM93.8397 16.6174C93.547 17.3004 92.986 17.9264 92.3437 18.3166C92.5226 18.4467 92.8316 18.7394 92.9616 18.8939C93.6283 18.4142 94.2706 17.6581 94.6365 16.8207L93.8397 16.6174ZM93.1161 18.4793C93.9373 19.0484 95.0999 19.8695 95.6527 20.3736L96.2056 19.6907C95.6202 19.2028 94.4251 18.4223 93.6283 17.8939L93.1161 18.4793ZM96.1243 15.4223V16.2597H99.9536V15.4223H96.1243ZM97.2463 18.7069H98.856V19.2028H97.2463V18.7069ZM97.2463 19.8858H98.856V20.3898H97.2463V19.8858ZM97.2463 17.528H98.856V18.0321H97.2463V17.528ZM96.3763 16.8044V21.1134H99.7829V16.8044H96.3763ZM97.5552 15.8695C97.5146 16.2597 97.4089 16.8044 97.3113 17.1865L98.1243 17.341C98.2625 16.9996 98.4577 16.4873 98.6203 15.9914L97.5552 15.8695ZM97.043 21.146C96.7178 21.4793 96.0511 21.8939 95.4657 22.1135C95.669 22.2842 95.9454 22.5525 96.0918 22.7313C96.6934 22.4956 97.4007 22.0565 97.8316 21.6419L97.043 21.146ZM98.1812 21.6338C98.6284 21.959 99.1975 22.4468 99.4658 22.7476L100.222 22.2517C99.9211 21.9427 99.3276 21.4874 98.8886 21.1866L98.1812 21.6338Z" fill="white"/>
<path d="M102.71 18.276H100.848V19.1784H101.759V21.2679H102.71V18.276ZM102.71 20.8451H101.824C101.45 21.1378 101.035 21.4224 100.669 21.65L101.149 22.6663C101.58 22.3086 101.937 21.9996 102.287 21.6826C102.815 22.3167 103.498 22.5525 104.515 22.5931C105.49 22.6338 107.133 22.6175 108.116 22.5687C108.165 22.2761 108.32 21.8045 108.425 21.5769C107.328 21.6663 105.482 21.6907 104.531 21.65C103.669 21.6175 103.043 21.3899 102.71 20.8451ZM100.856 15.8776C101.336 16.2434 101.905 16.7963 102.141 17.1784L102.921 16.5443C102.645 16.1621 102.059 15.6418 101.58 15.2922L100.856 15.8776ZM104.035 15.4304V16.3329H108.068V15.4304H104.035ZM104.157 17.089V17.9589H107.141V17.089H104.157ZM103.572 15.4304V17.3248C103.572 18.3573 103.498 19.7638 102.734 20.7394C102.962 20.8451 103.385 21.1053 103.547 21.2679C104.376 20.1947 104.507 18.5118 104.507 17.3329V15.4304H103.572ZM106.905 17.089V17.2435C106.555 18.9345 105.458 20.1297 103.986 20.6094C104.181 20.8045 104.425 21.1866 104.539 21.4305C106.238 20.7557 107.433 19.4793 107.881 17.2597L107.263 17.0646L107.084 17.089H106.905ZM105.287 17.715L104.425 17.9183C105.019 19.6825 106.019 20.8939 107.767 21.4549C107.905 21.1947 108.181 20.8045 108.393 20.6094C106.767 20.1866 105.767 19.1378 105.287 17.715Z" fill="white"/>
<path d="M112.824 16.0321C113.523 16.9914 114.881 18.089 116.125 18.7475C116.303 18.4467 116.531 18.1134 116.767 17.8695C115.474 17.341 114.165 16.3166 113.287 15.0808H112.271C111.669 16.0646 110.36 17.2841 108.962 17.967C109.173 18.1703 109.45 18.528 109.572 18.7557C110.905 18.0483 112.149 16.9833 112.824 16.0321ZM110.783 17.5443V18.3979H114.881V17.5443H110.783ZM109.816 19.2028V20.0403H115.84V19.2028H109.816ZM109.401 21.6744V22.5118H116.312V21.6744H109.401ZM112.287 17.8857V22.0891H113.328V17.8857H112.287ZM110.32 20.3492C110.612 20.7801 110.913 21.3736 111.019 21.7476L111.864 21.3817C111.742 20.9996 111.417 20.4386 111.108 20.024L110.32 20.3492ZM114.458 20.0321C114.279 20.4712 113.938 21.0647 113.677 21.4468L114.409 21.7476C114.694 21.4061 115.051 20.8777 115.385 20.3817L114.458 20.0321Z" fill="white"/>
<path d="M83.5896 26.5264C83.6908 27.0386 84.3042 30.2256 84.399 30.7947C84.4433 30.9844 84.4559 31.1994 84.4875 31.4334L85.3981 31.2753C85.3412 31.0666 85.2843 30.839 85.24 30.6556C85.1072 30.0106 84.4812 26.8109 84.418 26.3936C84.3927 26.2418 84.3674 26.0268 84.3547 25.9066L83.4568 26.0521C83.5074 26.1975 83.5517 26.3493 83.5896 26.5264ZM81.8633 27.3358L82.034 28.2084C82.249 28.1515 82.4134 28.1135 82.6095 28.0756C83.0837 27.9934 85.259 27.6456 85.9293 27.5381C86.119 27.5128 86.3783 27.4749 86.5174 27.4686L86.3593 26.6339C86.2075 26.6781 85.9672 26.735 85.7712 26.7666C85.2021 26.8805 82.9889 27.2219 82.4514 27.2852C82.249 27.3105 82.0593 27.3231 81.8633 27.3358ZM81.8696 29.1885L82.0467 30.0359C82.1858 29.9979 82.4071 29.96 82.679 29.9094C83.305 29.7893 85.5815 29.4162 86.3846 29.296C86.6186 29.2581 86.8778 29.2138 87.0485 29.2012L86.8841 28.3665C86.7134 28.4108 86.4794 28.4677 86.2328 28.5119C85.5056 28.651 83.1975 29.0241 82.5209 29.119C82.3249 29.1506 82.034 29.1822 81.8696 29.1885Z" fill="white"/>
<path d="M90.2672 27.0259L89.4135 27.2283C89.4831 27.3611 89.5527 27.5191 89.5969 27.6772C89.7993 28.3349 90.3747 30.5924 90.5328 31.1425C90.5834 31.3196 90.6213 31.5282 90.6466 31.699L91.5003 31.484C91.456 31.3575 91.3675 31.0793 91.3359 30.9654C91.1778 30.4406 90.5834 28.2653 90.3684 27.5065C90.3304 27.3421 90.2862 27.1777 90.2672 27.0259ZM93.3025 28.006L92.7903 27.6456C92.7081 27.6836 92.5816 27.7215 92.4741 27.7468C92.0251 27.848 89.4957 28.3285 89.1543 28.3791C88.9456 28.4171 88.7685 28.436 88.5725 28.455L88.7685 29.2075C89.2871 29.0937 91.8607 28.5562 92.1895 28.4993C92.0188 28.8091 91.5825 29.3403 91.2537 29.6312L91.9556 29.979C92.3982 29.511 93.0306 28.5562 93.3025 28.006Z" fill="white"/>
<path d="M95.7117 26.2355L95.111 26.8741C95.5726 27.1903 96.3694 27.8796 96.6982 28.2337L97.3432 27.5761C96.9701 27.1903 96.1481 26.5327 95.7117 26.2355ZM94.915 30.4469L95.4525 31.2816C96.3378 31.1299 97.1535 30.7821 97.7985 30.3963C98.8166 29.783 99.6576 28.9103 100.132 28.0503L99.645 27.165C99.2402 28.0187 98.4182 28.9799 97.3369 29.6249C96.7235 29.9853 95.9078 30.3078 94.915 30.4469Z" fill="white"/>
<path d="M105.203 27.1713C105.203 26.95 105.387 26.773 105.608 26.773C105.829 26.773 106.006 26.95 106.006 27.1713C106.006 27.3927 105.829 27.5761 105.608 27.5761C105.387 27.5761 105.203 27.3927 105.203 27.1713ZM104.786 27.1713C104.786 27.6266 105.153 27.9934 105.608 27.9934C106.063 27.9934 106.43 27.6266 106.43 27.1713C106.43 26.7161 106.063 26.3493 105.608 26.3493C105.153 26.3493 104.786 26.7161 104.786 27.1713ZM100.859 29.2455L101.618 30.0296C101.732 29.8652 101.877 29.6375 102.023 29.4415C102.282 29.0937 102.724 28.474 102.977 28.1515C103.154 27.9238 103.287 27.9112 103.496 28.1135C103.724 28.3475 104.28 28.9609 104.653 29.3972C105.026 29.8335 105.557 30.4912 105.981 31.016L106.683 30.2635C106.196 29.745 105.545 29.0494 105.121 28.5941C104.742 28.1831 104.261 27.6836 103.831 27.2788C103.344 26.8172 102.971 26.8868 102.592 27.3358C102.155 27.8543 101.662 28.474 101.378 28.7585C101.182 28.9546 101.042 29.0874 100.859 29.2455Z" fill="white"/>
<path d="M107.663 28.1135V29.1127C107.903 29.0937 108.327 29.0747 108.681 29.0747C109.427 29.0747 111.508 29.0747 112.083 29.0747C112.349 29.0747 112.671 29.1063 112.823 29.1127V28.1135C112.652 28.1262 112.374 28.1578 112.077 28.1578C111.514 28.1578 109.427 28.1578 108.681 28.1578C108.352 28.1578 107.897 28.1325 107.663 28.1135Z" fill="white"/>
<path d="M114.747 26.2355L114.146 26.8741C114.608 27.1903 115.404 27.8796 115.733 28.2337L116.378 27.5761C116.005 27.1903 115.183 26.5327 114.747 26.2355ZM113.95 30.4469L114.487 31.2816C115.373 31.1299 116.188 30.7821 116.833 30.3963C117.852 29.783 118.693 28.9103 119.167 28.0503L118.68 27.165C118.275 28.0187 117.453 28.9799 116.372 29.6249C115.758 29.9853 114.943 30.3078 113.95 30.4469Z" fill="white"/>
<path d="M187.615 5.092C187.821 5.22472 187.663 5.12204 187.863 5.26236C188.893 5.97806 189.857 6.78427 190.74 7.66844C194.553 11.4812 196.91 16.7482 196.91 22.5662C196.91 28.3838 194.553 33.6508 190.74 37.4635C187.544 40.6598 183.325 42.8332 178.616 43.4519C178.236 43.5025 177.896 43.6048 177.533 43.7344C176.917 43.9531 176.331 44.244 175.787 44.5977C174.988 45.1183 174.278 45.7751 173.694 46.5444L173.332 46.2706C173.949 45.4568 174.697 44.7646 175.539 44.217C176.125 43.8356 176.757 43.5241 177.421 43.291C177.807 43.1553 178.127 43.0564 178.52 43.0043C183.142 42.405 187.282 40.2761 190.418 37.1403C194.148 33.4104 196.455 28.2579 196.455 22.5662C196.455 13.7386 192.076 9.13672 187.615 5.092" fill="white"/>
<path fill-rule="evenodd" clip-rule="evenodd" d="M182.346 42.6264C183.329 41.8932 184.582 41.6236 185.779 41.8879C186.977 42.1518 188.001 42.9238 188.584 44.0019C185.03 44.1407 182.951 43.6825 182.346 42.6264ZM182.277 42.3644C183.338 41.751 184.08 40.7052 184.31 39.5012C184.541 38.2961 184.236 37.051 183.475 36.0893C181.945 39.3008 181.545 41.392 182.277 42.3644Z" fill="white"/>
<path fill-rule="evenodd" clip-rule="evenodd" d="M186.121 40.9367C186.941 40.072 188.095 39.6054 189.287 39.6594C190.476 39.713 191.585 40.2823 192.323 41.217C188.943 41.9415 186.876 41.8475 186.121 40.9367V40.9367ZM186.011 40.6972C186.926 39.9332 187.464 38.8098 187.483 37.6176C187.503 36.4262 187.006 35.2849 186.117 34.4901C185.185 37.818 185.15 39.8879 186.011 40.6972Z" fill="white"/>
<path fill-rule="evenodd" clip-rule="evenodd" d="M189.508 38.5561C190.151 37.5936 191.182 36.9596 192.33 36.8163C193.479 36.674 194.632 37.0383 195.492 37.8134C192.373 39.0573 190.379 39.3041 189.508 38.5561ZM189.363 38.3435C190.115 37.4631 190.445 36.2998 190.271 35.1552C190.096 34.0113 189.432 32.9989 188.454 32.3836C188.103 35.7222 188.406 37.7099 189.363 38.3435" fill="white"/>
<path fill-rule="evenodd" clip-rule="evenodd" d="M192.303 35.6007C192.763 34.5754 193.646 33.8004 194.722 33.4772C195.799 33.1535 196.962 33.3144 197.91 33.9168C195.128 35.6147 193.259 36.1764 192.303 35.6007V35.6007ZM192.13 35.4219C192.706 34.4572 192.834 33.2885 192.481 32.2222C192.127 31.1551 191.327 30.2949 190.289 29.8637C190.497 33.117 191.11 34.9702 192.13 35.4219" fill="white"/>
<path fill-rule="evenodd" clip-rule="evenodd" d="M194.532 32.1601C194.803 31.1037 195.52 30.2165 196.497 29.7293C197.474 29.2429 198.613 29.2042 199.62 29.6248C197.237 31.7083 195.541 32.5537 194.532 32.1601ZM194.338 32.0168C194.73 30.9991 194.659 29.8609 194.146 28.898C193.632 27.9355 192.725 27.2445 191.66 27.0031C192.395 30.0819 193.288 31.7525 194.338 32.0168Z" fill="white"/>
<path fill-rule="evenodd" clip-rule="evenodd" d="M195.963 28.3296C196.046 27.2731 196.583 26.3053 197.435 25.6767C198.287 25.0484 199.37 24.821 200.403 25.0549C198.474 27.4447 196.994 28.5368 195.963 28.3296V28.3296ZM195.754 28.225C195.958 27.1861 195.7 26.1102 195.048 25.2759C194.396 24.4415 193.413 23.9315 192.355 23.8798C193.573 26.6997 194.706 28.1485 195.754 28.225Z" fill="white"/>
<path fill-rule="evenodd" clip-rule="evenodd" d="M196.646 24.805C196.547 23.7821 196.897 22.7667 197.605 22.0229C198.315 21.2792 199.311 20.8791 200.338 20.9286C198.896 23.5374 197.664 24.829 196.646 24.805V24.805ZM196.428 24.7404C196.447 23.7132 196.02 22.7279 195.257 22.0402C194.493 21.3524 193.469 21.031 192.449 21.1583C194.087 23.6484 195.412 24.8427 196.428 24.7404Z" fill="white"/>
<path fill-rule="evenodd" clip-rule="evenodd" d="M196.693 20.604C196.43 19.6427 196.597 18.6144 197.152 17.7853C197.707 16.9574 198.594 16.411 199.584 16.2889C198.635 19.0205 197.672 20.4599 196.693 20.604ZM196.474 20.5782C196.324 19.5932 195.753 18.7208 194.909 18.1896C194.066 17.6579 193.032 17.5191 192.078 17.8101C194.055 19.9206 195.52 20.8447 196.474 20.5782Z" fill="white"/>
<path fill-rule="evenodd" clip-rule="evenodd" d="M195.885 16.4704C195.481 15.5916 195.478 14.5797 195.877 13.6989C196.276 12.817 197.038 12.1531 197.967 11.8781C197.493 14.6455 196.799 16.1761 195.885 16.4704V16.4704ZM195.672 16.48C195.371 15.5604 194.686 14.8166 193.794 14.4428C192.901 14.0674 191.891 14.0997 191.023 14.5287C193.253 16.2354 194.802 16.8865 195.672 16.48Z" fill="white"/>
<path fill-rule="evenodd" clip-rule="evenodd" d="M194.539 13.1019C194.054 12.298 193.942 11.3233 194.233 10.4297C194.523 9.53714 195.187 8.81384 196.052 8.44952C195.894 11.1693 195.389 12.7205 194.539 13.1019V13.1019ZM194.334 13.1354C193.945 12.2805 193.204 11.6371 192.303 11.3709C191.402 11.1054 190.431 11.2458 189.641 11.7535C191.973 13.159 193.539 13.6207 194.334 13.1354Z" fill="white"/>
<path fill-rule="evenodd" clip-rule="evenodd" d="M192.584 9.98776C191.999 9.28918 191.744 8.37078 191.888 7.4695C192.034 6.56937 192.562 5.77723 193.338 5.29731C193.594 7.93003 193.342 9.49301 192.584 9.98776V9.98776ZM192.393 10.0494C191.892 9.28803 191.084 8.78149 190.18 8.66284C189.275 8.54343 188.365 8.82256 187.684 9.42836C190.133 10.4278 191.702 10.6346 192.393 10.0494" fill="white"/>
<path fill-rule="evenodd" clip-rule="evenodd" d="M190.222 7.31987C189.556 6.73689 189.175 5.89266 189.181 5.00659C189.186 4.12166 189.576 3.28199 190.249 2.70623C190.885 5.19521 190.876 6.73347 190.222 7.31987V7.31987ZM190.047 7.40848C189.453 6.75172 188.603 6.38551 187.717 6.40566C186.832 6.42506 185.999 6.82854 185.434 7.51078C187.934 8.10668 189.471 8.07246 190.047 7.40848" fill="white"/>
<path fill-rule="evenodd" clip-rule="evenodd" d="M187.946 5.21489C187.219 4.75474 186.728 3.99987 186.601 3.14841C186.473 2.29695 186.722 1.43218 187.284 0.778845C188.266 3.07502 188.487 4.55395 187.946 5.21489ZM187.792 5.32593C187.122 4.78364 186.251 4.55965 185.404 4.71063C184.555 4.86122 183.816 5.37346 183.375 6.11388C185.865 6.31239 187.337 6.05038 187.792 5.32593Z" fill="white"/>
<path fill-rule="evenodd" clip-rule="evenodd" d="M186.7 4.26657C186.389 3.4634 185.745 2.83479 184.934 2.54501C184.124 2.25599 183.227 2.33243 182.477 2.75493C184.538 4.16503 185.946 4.66853 186.7 4.26657" fill="white"/>
<path d="M151.341 5.092C151.136 5.22472 151.295 5.12204 151.094 5.26236C150.064 5.97806 149.101 6.78427 148.217 7.66844C144.404 11.4812 142.047 16.7482 142.047 22.5662C142.047 28.3838 144.404 33.6508 148.217 37.4635C151.413 40.6598 155.633 42.8332 160.341 43.4519C160.722 43.5025 161.061 43.6048 161.424 43.7344C162.04 43.9531 162.627 44.244 163.171 44.5977C163.97 45.1183 164.679 45.7751 165.263 46.5444L165.624 46.2706C165.009 45.4568 164.261 44.7646 163.419 44.217C162.832 43.8356 162.201 43.5241 161.537 43.291C161.15 43.1553 160.831 43.0564 160.437 43.0043C155.816 42.405 151.675 40.2761 148.54 37.1403C144.81 33.4104 142.503 28.2579 142.503 22.5662C142.503 13.7386 146.882 9.13672 151.341 5.092" fill="white"/>
<path fill-rule="evenodd" clip-rule="evenodd" d="M156.61 42.6264C155.627 41.8932 154.375 41.6236 153.177 41.8879C151.979 42.1518 150.955 42.9238 150.371 44.0019C153.926 44.1407 156.006 43.6825 156.61 42.6264ZM156.679 42.3644C155.618 41.751 154.876 40.7052 154.646 39.5012C154.416 38.2961 154.721 37.051 155.481 36.0893C157.011 39.3008 157.411 41.392 156.679 42.3644Z" fill="white"/>
<path fill-rule="evenodd" clip-rule="evenodd" d="M152.834 40.9367C152.015 40.072 150.86 39.6054 149.669 39.6594C148.479 39.713 147.371 40.2823 146.633 41.217C150.013 41.9415 152.08 41.8475 152.834 40.9367V40.9367ZM152.944 40.6972C152.03 39.9332 151.492 38.8098 151.473 37.6176C151.452 36.4262 151.95 35.2849 152.839 34.4901C153.771 37.818 153.806 39.8879 152.944 40.6972" fill="white"/>
<path fill-rule="evenodd" clip-rule="evenodd" d="M149.449 38.5561C148.805 37.5936 147.775 36.9596 146.627 36.8163C145.477 36.674 144.324 37.0383 143.465 37.8134C146.583 39.0573 148.578 39.3041 149.449 38.5561V38.5561ZM149.592 38.3435C148.842 37.4631 148.511 36.2998 148.685 35.1552C148.86 34.0113 149.523 32.9989 150.503 32.3836C150.853 35.7222 150.549 37.7099 149.592 38.3435" fill="white"/>
<path fill-rule="evenodd" clip-rule="evenodd" d="M146.656 35.6007C146.195 34.5754 145.312 33.8004 144.237 33.4772C143.16 33.1535 141.997 33.3144 141.047 33.9168C143.83 35.6147 145.699 36.1764 146.656 35.6007V35.6007ZM146.827 35.4219C146.251 34.4572 146.124 33.2885 146.478 32.2222C146.831 31.1551 147.631 30.2949 148.669 29.8637C148.461 33.117 147.847 34.9702 146.827 35.4219Z" fill="white"/>
<path fill-rule="evenodd" clip-rule="evenodd" d="M144.423 32.1601C144.152 31.1037 143.435 30.2165 142.459 29.7293C141.482 29.2429 140.343 29.2042 139.336 29.6248C141.718 31.7083 143.414 32.5537 144.423 32.1601V32.1601ZM144.617 32.0168C144.226 30.9991 144.296 29.8609 144.81 28.898C145.324 27.9355 146.231 27.2445 147.295 27.0031C146.561 30.0819 145.668 31.7525 144.617 32.0168Z" fill="white"/>
<path fill-rule="evenodd" clip-rule="evenodd" d="M142.995 28.3296C142.912 27.2731 142.375 26.3053 141.523 25.6767C140.671 25.0485 139.587 24.8211 138.555 25.0549C140.484 27.4447 141.964 28.5368 142.995 28.3296ZM143.204 28.225C143 27.1861 143.258 26.1102 143.91 25.2759C144.562 24.4415 145.545 23.9316 146.603 23.8798C145.385 26.6997 144.252 28.1486 143.204 28.225" fill="white"/>
<path fill-rule="evenodd" clip-rule="evenodd" d="M142.309 24.805C142.408 23.7821 142.058 22.7667 141.349 22.0229C140.641 21.279 139.643 20.879 138.617 20.9288C140.06 23.5375 141.289 24.829 142.309 24.805V24.805ZM142.527 24.7404C142.507 23.7132 142.935 22.7279 143.698 22.04C144.462 21.3524 145.486 21.0311 146.506 21.1581C144.868 23.6486 143.541 24.8427 142.527 24.7404" fill="white"/>
<path fill-rule="evenodd" clip-rule="evenodd" d="M142.262 20.604C142.525 19.6427 142.358 18.6144 141.803 17.7853C141.248 16.9574 140.361 16.411 139.371 16.2889C140.32 19.0205 141.283 20.4599 142.262 20.604ZM142.481 20.5782C142.631 19.5932 143.202 18.7208 144.046 18.1896C144.889 17.6579 145.923 17.5191 146.876 17.8101C144.9 19.9206 143.434 20.8447 142.481 20.5782Z" fill="white"/>
<path fill-rule="evenodd" clip-rule="evenodd" d="M143.073 16.4704C143.478 15.5916 143.481 14.5797 143.082 13.6989C142.682 12.817 141.92 12.1531 140.992 11.8781C141.465 14.6455 142.16 16.1761 143.073 16.4704V16.4704ZM143.287 16.48C143.587 15.5604 144.272 14.8166 145.165 14.4428C146.058 14.0674 147.068 14.0997 147.935 14.5287C145.706 16.2354 144.157 16.8865 143.287 16.48Z" fill="white"/>
<path fill-rule="evenodd" clip-rule="evenodd" d="M144.416 13.1019C144.901 12.298 145.013 11.3233 144.722 10.4297C144.432 9.53714 143.767 8.81384 142.902 8.44952C143.061 11.1693 143.565 12.7205 144.416 13.1019V13.1019ZM144.621 13.1354C145.01 12.2805 145.75 11.6371 146.652 11.3709C147.553 11.1054 148.524 11.2458 149.314 11.7535C146.981 13.159 145.416 13.6207 144.621 13.1354Z" fill="white"/>
<path fill-rule="evenodd" clip-rule="evenodd" d="M146.371 9.98776C146.956 9.28918 147.21 8.37078 147.065 7.4695C146.921 6.56937 146.392 5.77723 145.616 5.29731C145.361 7.93003 145.612 9.49301 146.371 9.98776V9.98776ZM146.562 10.0494C147.063 9.28803 147.87 8.78149 148.775 8.66284C149.678 8.54343 150.59 8.82256 151.271 9.42836C148.822 10.4278 147.253 10.6346 146.562 10.0494" fill="white"/>
<path fill-rule="evenodd" clip-rule="evenodd" d="M148.736 7.31987C149.402 6.73689 149.782 5.89266 149.778 5.00659C149.772 4.12166 149.382 3.28199 148.708 2.70623C148.072 5.19521 148.082 6.73347 148.736 7.31987V7.31987ZM148.911 7.40848C149.505 6.75172 150.355 6.38551 151.24 6.40566C152.127 6.42506 152.96 6.82854 153.524 7.51078C151.025 8.10668 149.487 8.07246 148.911 7.40848Z" fill="white"/>
<path fill-rule="evenodd" clip-rule="evenodd" d="M151.007 5.21489C151.734 4.75474 152.225 3.99987 152.352 3.14841C152.479 2.29695 152.229 1.43218 151.669 0.778845C150.687 3.07502 150.466 4.55395 151.007 5.21489ZM151.161 5.32593C151.829 4.78364 152.702 4.55965 153.549 4.71063C154.396 4.86122 155.137 5.37346 155.577 6.11388C153.087 6.31239 151.615 6.05038 151.161 5.32593Z" fill="white"/>
<path fill-rule="evenodd" clip-rule="evenodd" d="M152.254 4.26657C152.565 3.4634 153.21 2.83479 154.021 2.54501C154.831 2.25599 155.728 2.33243 156.477 2.75493C154.416 4.16503 153.009 4.66853 152.254 4.26657Z" fill="white"/>
<path d="M157.852 12.9968V16.2597H158.617V13.6102H161.261V12.9968H157.852ZM161.027 12.9968V15.5388C161.027 15.6274 160.989 15.659 160.881 15.659C160.78 15.6653 160.369 15.6653 160.065 15.6526C160.154 15.8234 160.255 16.0763 160.293 16.2597C160.812 16.2597 161.185 16.2534 161.444 16.1585C161.71 16.0637 161.798 15.8993 161.798 15.5451V12.9968H161.027ZM158.32 13.9074V14.4259H161.305V13.9074H158.32ZM156.992 10.8531V11.5171H162.626V10.8531H156.992ZM158.573 11.2515C158.415 11.574 158.143 12.0166 157.909 12.3138L158.516 12.5288C158.775 12.2633 159.123 11.8649 159.427 11.4728L158.573 11.2515ZM160.483 11.7005C161.02 12.0862 161.672 12.6553 161.969 13.0347L162.633 12.6047C162.298 12.219 161.621 11.6815 161.102 11.3274L160.483 11.7005ZM157.214 12.0672L157.239 12.7502C158.415 12.7249 160.217 12.6743 161.88 12.611L161.918 11.9977C160.223 12.0293 158.383 12.0609 157.214 12.0672ZM158.32 14.7294V15.2479H161.298V14.7294H158.32ZM159.414 10.3093V11.1883H160.198V10.3093H159.414Z" fill="white"/>
<path d="M164.252 12.6932V13.3888H165.712V12.6932H164.252ZM165.421 12.6932V12.8071C165.409 14.0338 165.383 14.4765 165.308 14.5777C165.257 14.6409 165.2 14.6535 165.112 14.6535C165.01 14.6535 164.795 14.6535 164.568 14.6282C164.682 14.8179 164.764 15.1151 164.776 15.3365C165.074 15.3428 165.346 15.3428 165.516 15.3175C165.7 15.2859 165.826 15.229 165.953 15.0709C166.098 14.8749 166.13 14.3121 166.155 12.9715C166.155 12.883 166.161 12.6932 166.161 12.6932H165.421ZM167.325 10.714C167.679 10.9163 168.128 11.2262 168.337 11.4475L168.823 10.9353C168.596 10.7266 168.128 10.4358 167.78 10.2524L167.325 10.714ZM168.071 12.3391C167.635 13.8062 166.787 14.9507 165.573 15.6021C165.731 15.7538 166.009 16.07 166.123 16.2281C167.375 15.4566 168.305 14.1729 168.836 12.5225L168.071 12.3391ZM164.296 11.2641V12.0103H169.171V11.2641H164.296ZM163.79 11.2641V13.1169C163.79 13.9453 163.746 15.0519 163.259 15.8107C163.436 15.8993 163.777 16.1775 163.904 16.3293C164.479 15.4756 164.587 14.0718 164.587 13.1232V11.2641H163.79ZM166.357 10.3219C166.376 13.2055 166.888 16.2091 168.267 16.2091C168.861 16.2091 169.114 15.9246 169.234 14.7484C169.032 14.6725 168.76 14.4954 168.589 14.3184C168.552 15.1151 168.476 15.4376 168.33 15.4376C167.692 15.4376 167.11 12.9019 167.154 10.3219H166.357Z" fill="white"/>
<path d="M172.32 10.3219V11.3337H173.098V10.3219H172.32ZM170.006 10.8721V12.2316H170.758V11.5361H174.641V12.2316H175.425V10.8721H170.006ZM170.569 12.0356V12.649H174.913V12.0356H170.569ZM169.955 14.0402V14.6978H175.514V14.0402H169.955ZM170.67 13.0284V13.6418H174.787V13.0284H170.67ZM173.092 14.1729L172.409 14.3121C172.896 15.4376 173.705 16.0384 175.153 16.2723C175.248 16.07 175.444 15.7665 175.602 15.6084C174.287 15.4693 173.465 15.0076 173.092 14.1729ZM172.301 11.6752V13.4268C172.301 14.2741 172.023 15.1404 169.835 15.64C170 15.7981 170.221 16.089 170.303 16.2534C172.605 15.6337 173.067 14.546 173.067 13.4331V11.6752H172.301Z" fill="white"/>
<path d="M179.896 10.3156V12.3391H180.648V10.3156H179.896ZM178.619 10.6065V11.0681H181.97V10.6065H178.619ZM178.77 11.2831V11.7194H181.825V11.2831H178.77ZM178.46 11.9344V12.4087H182.096V11.9344H178.46ZM179.535 13.7872H181.072V14.0591H179.535V13.7872ZM179.535 14.4891H181.072V14.761H179.535V14.4891ZM179.535 13.0916H181.072V13.3509H179.535V13.0916ZM178.853 12.6237V15.229H181.787V12.6237H178.853ZM180.484 15.5199C180.857 15.7538 181.293 16.07 181.534 16.2597L182.191 15.9056C181.907 15.7032 181.401 15.3997 180.99 15.1531L180.484 15.5199ZM179.561 15.1215C179.257 15.3681 178.656 15.6653 178.151 15.8107C178.296 15.9372 178.505 16.1459 178.619 16.285C179.131 16.1206 179.763 15.8107 180.149 15.5135L179.561 15.1215ZM177.139 10.3219C176.993 10.7583 176.721 11.3716 176.5 11.751L177.006 11.9597C177.246 11.6056 177.537 11.0428 177.796 10.5496L177.139 10.3219ZM177.853 11.0681C177.518 11.7447 176.943 12.668 176.469 13.2371L176.905 13.4837C177.392 12.9399 178.005 12.0609 178.467 11.3527L177.853 11.0681ZM176.159 11.7953C176.475 12.1178 176.848 12.5668 176.987 12.8766L177.398 12.2949C177.246 11.9977 176.861 11.5866 176.532 11.2894L176.159 11.7953ZM177.676 12.5668C177.904 13.0031 178.119 13.5785 178.189 13.939L178.758 13.686C178.688 13.3256 178.448 12.7755 178.208 12.3518L177.676 12.5668ZM176.14 13.0916L176.19 13.743C176.791 13.6987 177.569 13.6481 178.321 13.5785L178.315 12.9652C177.525 13.0157 176.709 13.06 176.14 13.0916ZM177.828 14.1477C177.967 14.5081 178.087 14.9824 178.113 15.2859L178.675 15.1025C178.638 14.799 178.505 14.3374 178.353 13.9832L177.828 14.1477ZM176.412 14.0338C176.361 14.565 176.266 15.1341 176.089 15.5072C176.235 15.5704 176.513 15.6906 176.639 15.7728C176.823 15.3681 176.955 14.7421 177.019 14.135L176.412 14.0338ZM177.107 13.4268V16.2534H177.759V13.4268H177.107Z" fill="white"/>
<path d="M158.385 32.0124L157.766 31.9944C157.721 32.4686 157.622 32.988 157.491 33.4126C157.301 34.0224 157.129 34.3115 156.935 34.3115C156.763 34.3115 156.583 34.0901 156.583 33.6339C156.583 33.0648 157.107 32.2834 158.064 32.2834C158.846 32.2834 159.288 32.7893 159.288 33.4984C159.288 34.1624 158.837 34.5734 158.263 34.7135C158.141 34.7406 158.014 34.7631 157.838 34.7857L158.182 35.3187C159.32 35.1426 159.903 34.4696 159.903 33.521C159.903 32.5319 159.193 31.755 158.078 31.755C156.908 31.755 156 32.6493 156 33.6881C156 34.4515 156.416 35.0071 156.921 35.0071C157.414 35.0071 157.802 34.447 158.073 33.5346C158.231 33.0016 158.322 32.4731 158.385 32.0124Z" fill="white"/>
<path d="M160.738 34.849L160.81 35.3774C161.623 35.3458 162.816 35.2916 163.922 35.2284L163.941 34.7315C162.802 34.7812 161.547 34.8264 160.738 34.849ZM160.716 33.503V34.0088H164.473V33.503H160.716ZM161.52 32.6357V33.1326H163.638V32.6357H161.52ZM161.822 33.8327C161.709 34.2121 161.492 34.7135 161.307 35.0432L161.781 35.2013C161.985 34.8986 162.229 34.4289 162.441 34.0043L161.822 33.8327ZM162.942 34.2979C163.331 34.6593 163.764 35.1742 163.954 35.5174L164.455 35.2148C164.248 34.8715 163.828 34.3973 163.421 34.0495L162.942 34.2979ZM162.576 31.8001C162.96 32.3241 163.724 32.8932 164.401 33.2094C164.501 33.0468 164.623 32.8525 164.754 32.717C164.035 32.4596 163.317 31.9447 162.838 31.2807H162.265C161.931 31.8137 161.208 32.4596 160.435 32.7983C160.548 32.9158 160.693 33.119 160.756 33.25C161.506 32.8932 162.211 32.315 162.576 31.8001Z" fill="white"/>
<path d="M166.777 34.8535V35.3865H169.352V34.8535H166.777ZM166.962 32.6719V33.1913H169.243V32.6719H166.962ZM167.825 31.3168V35.1109H168.381V31.3168H167.825ZM165.156 32.1073V32.5996H166.637V32.1073H165.156ZM165.801 33.652V35.5174H166.339V33.0106L165.801 33.652ZM165.801 31.2762V32.3376H166.339V31.2762H165.801ZM166.285 33.1642L165.987 33.4262C166.19 33.6249 166.569 34.0405 166.745 34.2753L167.075 33.8372C166.953 33.7243 166.443 33.2726 166.285 33.1642ZM166.438 32.1073V32.2066C166.199 32.8706 165.603 33.5346 164.988 33.8688C165.07 33.9727 165.196 34.2392 165.246 34.3837C165.919 33.9592 166.601 33.1687 166.944 32.2879L166.642 32.0892L166.547 32.1073H166.438Z" fill="white"/>
<path d="M171.587 31.5743L170.919 31.502C170.923 31.8408 170.874 32.2247 170.788 32.6312C170.661 33.2003 170.323 34.3928 169.785 35.1155L170.377 35.3503C170.851 34.587 171.213 33.2997 171.362 32.6628C171.411 32.4325 171.465 32.1524 171.511 31.9492C171.533 31.8363 171.56 31.6917 171.587 31.5743ZM173.146 32.026L172.604 32.2563C172.929 32.6583 173.25 33.4533 173.367 33.9546L173.941 33.6881C173.801 33.2591 173.421 32.4189 173.146 32.026ZM169.758 32.5002L169.812 33.11C169.948 33.0874 170.183 33.0558 170.314 33.0377C170.562 33.0061 171.344 32.9067 171.61 32.9067C171.895 32.9067 172.048 32.9609 172.048 33.3223C172.048 33.7649 171.989 34.316 171.863 34.5689C171.795 34.718 171.678 34.7631 171.524 34.7631C171.407 34.7631 171.149 34.718 170.973 34.6683L171.073 35.2645C171.226 35.3006 171.438 35.3277 171.615 35.3277C171.953 35.3277 172.206 35.2284 172.355 34.9122C172.545 34.5238 172.613 33.792 172.613 33.2591C172.613 32.6041 172.274 32.3918 171.795 32.3918C171.461 32.3918 170.603 32.4912 170.241 32.5002C170.074 32.5048 169.921 32.5093 169.758 32.5002ZM173.064 31.4027L172.703 31.5472C172.825 31.7233 172.965 31.9898 173.06 32.175L173.421 32.0215C173.335 31.8543 173.177 31.5653 173.064 31.4027ZM173.597 31.1949L173.241 31.3439C173.363 31.5156 173.512 31.7776 173.602 31.9673L173.963 31.8137C173.882 31.6556 173.715 31.3665 173.597 31.1949Z" fill="white"/>
<path d="M175.341 33.0332H174.316V33.5346H174.821V34.6954H175.341V33.0332ZM175.341 34.4831H174.871C174.672 34.6502 174.451 34.8128 174.261 34.9348L174.519 35.4723C174.745 35.2781 174.934 35.1064 175.115 34.9303C175.386 35.2781 175.752 35.409 176.294 35.4316C176.845 35.4587 177.807 35.4497 178.372 35.4226C178.394 35.2645 178.48 35.0161 178.539 34.8941C177.911 34.9438 176.84 34.9574 176.298 34.9303C175.833 34.9122 175.513 34.7812 175.341 34.4831ZM174.329 31.6917C174.587 31.9131 174.889 32.2247 175.011 32.446L175.458 32.1028C175.318 31.8905 175.002 31.5878 174.745 31.3891L174.329 31.6917ZM176.696 31.8769V34.8309H177.22V31.8769H176.696ZM176.231 33.4668H177.699V33.6475H176.231V33.4668ZM176.231 32.979H177.699V33.1552H176.231V32.979ZM175.77 32.6493V33.9772H178.182V32.6493H175.77ZM175.553 31.4117V32.035H176.032V31.7956H177.906V32.035H178.408V31.4117H175.553ZM175.68 32.1073V32.4822H178.259V32.1073H175.68ZM175.517 34.1398V34.5328H178.457V34.1398H175.517Z" fill="white"/>
<path d="M180.336 33.0558H181.678V33.3765H180.336V33.0558ZM179.835 32.6583V33.7695H182.206V32.6583H179.835ZM180.684 33.6023C180.662 33.783 180.603 34.0269 180.544 34.2076L181.018 34.2753C181.1 34.1127 181.213 33.8824 181.303 33.6385L180.684 33.6023ZM179.456 34.045V35.522H179.971V34.5102H182.093V35.522H182.635V34.045H179.456ZM179.745 34.9077V35.3729H182.324V34.9077H179.745ZM179.108 31.9763V32.9429H179.6V32.437H182.437V32.9429H182.961V31.9763H179.108ZM182.139 31.2943C182.044 31.5111 181.868 31.8001 181.723 31.9944L182.161 32.1615C182.324 31.9898 182.527 31.7279 182.721 31.4704L182.139 31.2943ZM179.356 31.5336C179.505 31.7143 179.668 31.9673 179.731 32.1299L180.228 31.9131C180.156 31.7459 179.98 31.5065 179.826 31.3349L179.356 31.5336ZM180.49 31.4207C180.612 31.6104 180.752 31.8769 180.806 32.044L181.308 31.8589C181.244 31.6917 181.091 31.4343 180.964 31.2536L180.49 31.4207Z" fill="white"/>
<path d="M153.662 27.4279C153.272 27.4279 152.903 27.3592 152.557 27.2219C152.217 27.0774 151.921 26.8823 151.668 26.6366C151.415 26.3836 151.212 26.0909 151.061 25.7585C150.916 25.4261 150.844 25.0683 150.844 24.6853C150.844 24.4179 150.873 24.1614 150.93 23.9156C150.988 23.6627 151.068 23.4098 151.169 23.1568C151.277 22.8967 151.404 22.6329 151.548 22.3655C151.7 22.0909 151.866 21.8018 152.047 21.4983L153.109 19.7205H154.811L154.855 19.8289L153.38 22.1487C153.192 22.4522 153.03 22.7377 152.893 23.0051C152.755 23.2652 152.632 23.5254 152.524 23.7856C152.416 24.0457 152.307 24.3204 152.199 24.6094L151.852 23.8614C151.924 23.6085 152.04 23.3772 152.199 23.1677C152.358 22.9509 152.542 22.7666 152.752 22.6148C152.968 22.4558 153.192 22.3366 153.424 22.2571C153.655 22.1704 153.883 22.127 154.107 22.127C154.533 22.127 154.923 22.2426 155.277 22.4739C155.639 22.6979 155.928 22.9978 156.145 23.3736C156.361 23.7494 156.47 24.1614 156.47 24.6094C156.47 25.1442 156.347 25.6248 156.101 26.0512C155.863 26.4776 155.53 26.8136 155.104 27.0593C154.685 27.305 154.204 27.4279 153.662 27.4279ZM153.684 25.9103C153.915 25.9103 154.118 25.8597 154.291 25.7585C154.472 25.6573 154.613 25.5164 154.714 25.3357C154.815 25.1478 154.865 24.9346 154.865 24.6961C154.865 24.4938 154.811 24.3059 154.703 24.1325C154.602 23.9518 154.461 23.8072 154.28 23.6988C154.107 23.5832 153.912 23.5254 153.695 23.5254C153.463 23.5254 153.254 23.5796 153.066 23.688C152.885 23.7892 152.744 23.9301 152.643 24.1108C152.542 24.2842 152.491 24.4793 152.491 24.6961C152.491 24.9274 152.542 25.137 152.643 25.3249C152.744 25.5056 152.885 25.6501 153.066 25.7585C153.247 25.8597 153.453 25.9103 153.684 25.9103Z" fill="white"/>
<path d="M160.623 27.5363C159.943 27.5363 159.362 27.3809 158.877 27.0702C158.401 26.7594 158.036 26.315 157.783 25.7368C157.53 25.1514 157.403 24.4504 157.403 23.6338C157.403 22.8172 157.53 22.1198 157.783 21.5416C158.036 20.9563 158.401 20.5082 158.877 20.1974C159.362 19.8867 159.943 19.7313 160.623 19.7313C161.302 19.7313 161.884 19.8867 162.368 20.1974C162.852 20.5082 163.221 20.9563 163.474 21.5416C163.727 22.1198 163.853 22.8172 163.853 23.6338C163.853 24.4504 163.727 25.1514 163.474 25.7368C163.221 26.315 162.852 26.7594 162.368 27.0702C161.884 27.3809 161.302 27.5363 160.623 27.5363ZM160.623 25.9753C161.093 25.9753 161.454 25.7729 161.707 25.3682C161.967 24.9635 162.097 24.3854 162.097 23.6338C162.097 22.8605 161.967 22.2679 161.707 21.856C161.454 21.4368 161.093 21.2273 160.623 21.2273C160.153 21.2273 159.788 21.4368 159.528 21.856C159.275 22.2679 159.149 22.8605 159.149 23.6338C159.149 24.3854 159.275 24.9635 159.528 25.3682C159.788 25.7729 160.153 25.9753 160.623 25.9753Z" fill="white"/>
<path d="M168.155 27.5363C167.475 27.5363 166.894 27.3809 166.409 27.0702C165.932 26.7594 165.567 26.315 165.315 25.7368C165.062 25.1514 164.935 24.4504 164.935 23.6338C164.935 22.8172 165.062 22.1198 165.315 21.5416C165.567 20.9563 165.932 20.5082 166.409 20.1974C166.894 19.8867 167.475 19.7313 168.155 19.7313C168.834 19.7313 169.416 19.8867 169.9 20.1974C170.384 20.5082 170.753 20.9563 171.006 21.5416C171.259 22.1198 171.385 22.8172 171.385 23.6338C171.385 24.4504 171.259 25.1514 171.006 25.7368C170.753 26.315 170.384 26.7594 169.9 27.0702C169.416 27.3809 168.834 27.5363 168.155 27.5363ZM168.155 25.9753C168.624 25.9753 168.986 25.7729 169.239 25.3682C169.499 24.9635 169.629 24.3854 169.629 23.6338C169.629 22.8605 169.499 22.2679 169.239 21.856C168.986 21.4368 168.624 21.2273 168.155 21.2273C167.685 21.2273 167.32 21.4368 167.06 21.856C166.807 22.2679 166.68 22.8605 166.68 23.6338C166.68 24.3854 166.807 24.9635 167.06 25.3682C167.32 25.7729 167.685 25.9753 168.155 25.9753Z" fill="white"/>
<path d="M174.288 22.9563C174.25 23.6663 174.326 26.1433 172.147 27.352C172.369 27.5038 172.581 27.7043 172.695 27.8723C174.911 26.5119 174.982 23.8669 175.031 22.9563H174.288ZM175.009 23.0972L174.38 23.1622C174.424 23.7205 174.527 26.707 176.863 27.8669C176.96 27.6881 177.155 27.4713 177.361 27.3141C175.139 26.2734 175.025 23.5688 175.009 23.0972Z" fill="white"/>
<path d="M179.459 23.7585C179.79 24.1704 180.136 24.7395 180.277 25.1189L180.912 24.7774C180.754 24.398 180.407 23.8669 180.055 23.4712L179.459 23.7585ZM177.697 26.6095L177.925 27.3032C178.538 27.0431 179.34 26.707 180.061 26.3818L179.909 25.7422C179.117 26.0729 178.256 26.4198 177.697 26.6095ZM180.874 26.1216C181.372 26.6745 182.034 27.4279 182.321 27.9103L182.874 27.3737C182.565 26.9021 181.871 26.1813 181.378 25.6664L180.874 26.1216ZM181.611 23.1351C181.41 25.3737 180.852 26.6962 179.123 27.3466C179.28 27.4875 179.551 27.7802 179.643 27.9266C181.421 27.1244 182.077 25.6555 182.332 23.2002L181.611 23.1351ZM178.315 23.1568L178.44 26.6799L179.117 26.6528L178.998 23.1297L178.315 23.1568Z" fill="white"/>
<path d="M185.643 24.4522V25.1081H187.898V24.4522H185.643ZM183.324 26.9943V27.6501H188.278V26.9943H183.324ZM185.275 22.8912V27.3574H185.974V22.8912H185.275Z" fill="white"/>
</svg>
