<?xml version="1.0" encoding="UTF-8" standalone="no"?><svg width="101" height="8" viewBox="0 0 101 8" fill="none" xmlns="http://www.w3.org/2000/svg">
<path d="M3.85091 0.561035L6.89224 3.60237L3.85091 6.64371L0.80957 3.60237L3.85091 0.561035Z" fill="#D9D9D9"/>
<path d="M3.85091 0.561035L0.80957 3.60237L3.85091 3.60237L3.85091 0.561035Z" fill="#377DC5"/>
<path d="M3.85091 0.561035L6.89224 3.60237L3.85091 3.60237L3.85091 0.561035Z" fill="#0472C1"/>
<path d="M3.85091 6.64371L0.80957 3.60237L3.85091 3.60237L3.85091 6.64371Z" fill="#0156AD"/>
<path d="M3.85091 6.64371L6.89224 3.60237L3.85091 3.60237L3.85091 6.64371Z" fill="#013792"/>
<path d="M12.4571 4.87608C12.28 5.25916 12.0124 5.4507 11.6543 5.4507C11.5042 5.4507 11.3752 5.41894 11.2674 5.35541C11.1577 5.30151 11.0691 5.23125 11.0017 5.14462C10.919 5.05414 10.8641 4.93575 10.8372 4.78945C10.8064 4.64315 10.791 4.36305 10.791 3.94917C10.791 3.53529 10.8064 3.25327 10.8372 3.10312C10.8641 2.96067 10.919 2.8442 11.0017 2.75372C11.0691 2.6671 11.1577 2.59491 11.2674 2.53716C11.3752 2.48133 11.5042 2.45149 11.6543 2.44764C11.8584 2.45149 12.0316 2.51021 12.1741 2.62378C12.3108 2.74314 12.4051 2.88751 12.4571 3.05692H13.1328C13.0654 2.70464 12.9037 2.40914 12.6476 2.17044C12.3916 1.93366 12.0605 1.81334 11.6543 1.80949C11.3232 1.81334 11.047 1.89227 10.8256 2.04627C10.6004 2.19835 10.4367 2.37161 10.3347 2.56603C10.2712 2.66806 10.224 2.80185 10.1932 2.9674C10.1644 3.13296 10.1499 3.46021 10.1499 3.94917C10.1499 4.43043 10.1644 4.75576 10.1932 4.92517C10.2086 5.01564 10.2279 5.09072 10.251 5.15039C10.276 5.20815 10.3039 5.26878 10.3347 5.33231C10.4367 5.52674 10.6004 5.69807 10.8256 5.8463C11.047 6.0003 11.3232 6.08115 11.6543 6.08885C12.0201 6.08885 12.3368 5.9849 12.6043 5.77699C12.8642 5.56717 13.0404 5.26686 13.1328 4.87608H12.4571ZM14.0995 4.62775C14.1034 5.07051 14.2497 5.42182 14.5384 5.6817C14.8214 5.94928 15.1737 6.085 15.5953 6.08885C16.0245 6.085 16.3797 5.94928 16.6608 5.6817C16.9399 5.42182 17.0833 5.07051 17.091 4.62775V1.84415H16.4529V4.55845C16.449 4.84528 16.3682 5.06377 16.2103 5.21392C16.0486 5.37177 15.8436 5.4507 15.5953 5.4507C15.3469 5.4507 15.1438 5.37177 14.986 5.21392C14.8243 5.06377 14.7415 4.84528 14.7377 4.55845V1.84415H14.0995V4.62775ZM18.4938 6.0542H21.1821V5.4507H19.1319V4.21483H20.8818V3.64887H19.1319V2.44764H21.1821V1.84415H18.4938V6.0542ZM22.377 6.0542H24.1499C24.481 6.0542 24.7573 5.94351 24.9787 5.72213C25.202 5.51038 25.3155 5.22258 25.3194 4.85875C25.3194 4.6393 25.2645 4.43621 25.1548 4.24948C25.0374 4.06852 24.8641 3.94821 24.635 3.88853V3.87698C24.7563 3.81923 24.8583 3.75474 24.9411 3.68352C25.0239 3.61614 25.0874 3.54491 25.1317 3.46984C25.2183 3.31199 25.2597 3.14643 25.2559 2.97318C25.2559 2.63437 25.151 2.36198 24.9411 2.156C24.7332 1.95195 24.4223 1.848 24.0084 1.84415H22.377V6.0542ZM23.9969 4.18595C24.2337 4.1898 24.4069 4.25237 24.5167 4.37364C24.6264 4.49684 24.6812 4.64507 24.6812 4.81833C24.6812 4.98773 24.6264 5.13403 24.5167 5.25723C24.4069 5.38236 24.2337 5.44685 23.9969 5.4507H23.0151V4.18595H23.9969ZM23.9363 2.41299C24.1692 2.41684 24.3405 2.47363 24.4502 2.58336C24.5619 2.70079 24.6177 2.8442 24.6177 3.0136C24.6177 3.18301 24.5619 3.32354 24.4502 3.43519C24.3405 3.55646 24.1692 3.6171 23.9363 3.6171H23.0151V2.41299H23.9363ZM26.5403 6.0542H27.1438V3.05692H26.5403V6.0542ZM26.5403 2.44764H27.1438V1.84415H26.5403V2.44764ZM30.7526 4.87608C30.5755 5.25916 30.3079 5.4507 29.9499 5.4507C29.7997 5.4507 29.6707 5.41894 29.5629 5.35541C29.4532 5.30151 29.3647 5.23125 29.2973 5.14462C29.2145 5.05414 29.1596 4.93575 29.1327 4.78945C29.1019 4.64315 29.0865 4.36305 29.0865 3.94917C29.0865 3.53529 29.1019 3.25327 29.1327 3.10312C29.1596 2.96067 29.2145 2.8442 29.2973 2.75372C29.3647 2.6671 29.4532 2.59491 29.5629 2.53716C29.6707 2.48133 29.7997 2.45149 29.9499 2.44764C30.1539 2.45149 30.3272 2.51021 30.4696 2.62378C30.6063 2.74314 30.7006 2.88751 30.7526 3.05692H31.4283C31.3609 2.70464 31.1992 2.40914 30.9432 2.17044C30.6872 1.93366 30.3561 1.81334 29.9499 1.80949C29.6188 1.81334 29.3425 1.89227 29.1211 2.04627C28.8959 2.19835 28.7323 2.37161 28.6303 2.56603C28.5667 2.66806 28.5196 2.80185 28.4888 2.9674C28.4599 3.13296 28.4455 3.46021 28.4455 3.94917C28.4455 4.43043 28.4599 4.75576 28.4888 4.92517C28.5042 5.01564 28.5234 5.09072 28.5465 5.15039C28.5715 5.20815 28.5995 5.26878 28.6303 5.33231C28.7323 5.52674 28.8959 5.69807 29.1211 5.8463C29.3425 6.0003 29.6188 6.08115 29.9499 6.08885C30.3156 6.08885 30.6323 5.9849 30.8999 5.77699C31.1598 5.56717 31.3359 5.26686 31.4283 4.87608H30.7526ZM34.4851 6.0542H35.1232V3.42941H35.1348L36.0155 5.4507H36.5468L37.4275 3.42941H37.4419V6.0542H38.0801V1.84415H37.4766L36.2927 4.58732L35.0857 1.84415H34.4851V6.0542ZM40.3029 4.5469L40.9122 2.70752H40.9237L41.533 4.5469H40.3029ZM42.0412 6.0542H42.714L41.1836 1.84415H40.6494L39.119 6.0542H39.7947L40.1181 5.11286H41.7149L42.0412 6.0542ZM44.3969 2.41299H45.396C45.6 2.41299 45.756 2.45631 45.8638 2.54293C46.0004 2.64111 46.0707 2.79993 46.0746 3.01938C46.0746 3.20226 46.0158 3.35626 45.8984 3.48139C45.7791 3.61614 45.6 3.68544 45.3613 3.68929H44.3969V2.41299ZM43.7587 6.0542H44.3969V4.25525H45.2112L46.0803 6.0542H46.8398L45.8638 4.18595C46.3989 3.97997 46.6704 3.59112 46.6781 3.01938C46.6665 2.63052 46.5269 2.33118 46.2594 2.12135C46.038 1.93655 45.7521 1.84415 45.4018 1.84415H43.7587V6.0542ZM47.9595 6.0542H48.5977V4.77213L49.3369 3.99537L50.4833 6.0542H51.2398L49.7498 3.50449L51.0983 1.84415H50.3418L48.6092 4.0127H48.5977V1.84415H47.9595V6.0542ZM52.2759 6.0542H54.9642V5.4507H52.914V4.21483H54.6639V3.64887H52.914V2.44764H54.9642V1.84415H52.2759V6.0542ZM56.8723 6.0542H57.5133V2.41299H58.6654V1.84415H55.7201V2.41299H56.8723V6.0542ZM59.7073 6.0542H60.3454V1.84415H59.7073V6.0542ZM61.8233 6.0542H62.4614V3.06269H62.473L64.3759 6.0542H64.9794V1.84415H64.3412V4.83565H64.3297L62.4239 1.84415H61.8233V6.0542ZM67.8288 4.33899H68.6864V4.55845C68.6826 4.82218 68.5998 5.03489 68.4381 5.1966C68.2764 5.366 68.0714 5.4507 67.823 5.4507C67.6729 5.4507 67.5439 5.41894 67.4361 5.35541C67.3264 5.30151 67.2378 5.23125 67.1704 5.14462C67.0877 5.05414 67.0328 4.93575 67.0059 4.78945C66.9751 4.64315 66.9597 4.36305 66.9597 3.94917C66.9597 3.53529 66.9751 3.25327 67.0059 3.10312C67.0328 2.96067 67.0877 2.8442 67.1704 2.75372C67.2378 2.6671 67.3264 2.59491 67.4361 2.53716C67.5439 2.48133 67.6729 2.45149 67.823 2.44764C68.0271 2.45149 68.2003 2.51021 68.3428 2.62378C68.4795 2.74314 68.5738 2.88751 68.6258 3.05692H69.3015C69.2341 2.70464 69.0724 2.40914 68.8164 2.17044C68.5603 1.93366 68.2292 1.81334 67.823 1.80949C67.4919 1.81334 67.2157 1.89227 66.9943 2.04627C66.7691 2.19835 66.6055 2.37161 66.5034 2.56603C66.4399 2.66806 66.3927 2.80185 66.3619 2.9674C66.3331 3.13296 66.3186 3.46021 66.3186 3.94917C66.3186 4.43043 66.3331 4.75576 66.3619 4.92517C66.3773 5.01564 66.3966 5.09072 66.4197 5.15039C66.4447 5.20815 66.4726 5.26878 66.5034 5.33231C66.6055 5.52674 66.7691 5.69807 66.9943 5.8463C67.2157 6.0003 67.4919 6.08115 67.823 6.08885C68.2523 6.08115 68.6085 5.93581 68.8914 5.65283C69.1725 5.36792 69.3169 5.01468 69.3246 4.5931V3.73549H67.8288V4.33899ZM73.4208 4.5469L74.0301 2.70752H74.0417L74.6509 4.5469H73.4208ZM75.1592 6.0542H75.832L74.3016 1.84415H73.7674L72.2369 6.0542H72.9126L73.236 5.11286H74.8329L75.1592 6.0542ZM78.9297 4.87608C78.7526 5.25916 78.485 5.4507 78.127 5.4507C77.9768 5.4507 77.8479 5.41894 77.7401 5.35541C77.6303 5.30151 77.5418 5.23125 77.4744 5.14462C77.3916 5.05414 77.3368 4.93575 77.3098 4.78945C77.279 4.64315 77.2636 4.36305 77.2636 3.94917C77.2636 3.53529 77.279 3.25327 77.3098 3.10312C77.3368 2.96067 77.3916 2.8442 77.4744 2.75372C77.5418 2.6671 77.6303 2.59491 77.7401 2.53716C77.8479 2.48133 77.9768 2.45149 78.127 2.44764C78.331 2.45149 78.5043 2.51021 78.6467 2.62378C78.7834 2.74314 78.8778 2.88751 78.9297 3.05692H79.6054C79.538 2.70464 79.3763 2.40914 79.1203 2.17044C78.8643 1.93366 78.5332 1.81334 78.127 1.80949C77.7959 1.81334 77.5196 1.89227 77.2983 2.04627C77.073 2.19835 76.9094 2.37161 76.8074 2.56603C76.7438 2.66806 76.6967 2.80185 76.6659 2.9674C76.637 3.13296 76.6226 3.46021 76.6226 3.94917C76.6226 4.43043 76.637 4.75576 76.6659 4.92517C76.6813 5.01564 76.7005 5.09072 76.7236 5.15039C76.7487 5.20815 76.7766 5.26878 76.8074 5.33231C76.9094 5.52674 77.073 5.69807 77.2983 5.8463C77.5196 6.0003 77.7959 6.08115 78.127 6.08885C78.4927 6.08885 78.8094 5.9849 79.077 5.77699C79.3369 5.56717 79.513 5.26686 79.6054 4.87608H78.9297ZM81.3951 4.5469L82.0044 2.70752H82.0159L82.6252 4.5469H81.3951ZM83.1334 6.0542H83.8062L82.2758 1.84415H81.7416L80.2112 6.0542H80.8869L81.2103 5.11286H82.8071L83.1334 6.0542ZM84.8509 6.0542H86.2803C86.596 6.0542 86.8626 5.9849 87.0801 5.8463C87.2996 5.71732 87.4709 5.55369 87.5941 5.35541C87.6403 5.28033 87.6798 5.20815 87.7125 5.13884C87.7433 5.06762 87.7664 4.98677 87.7818 4.89629C87.8145 4.71726 87.8309 4.40156 87.8309 3.94917C87.8309 3.52374 87.8203 3.2244 87.7991 3.05114C87.7722 2.87789 87.7077 2.71234 87.6057 2.55448C87.3208 2.08477 86.8934 1.848 86.3236 1.84415H84.8509V6.0542ZM85.4891 2.44764H86.2514C86.5748 2.43994 86.8251 2.55833 87.0022 2.80281C87.0888 2.90099 87.1437 3.029 87.1668 3.18686C87.1841 3.34471 87.1927 3.60652 87.1927 3.97227C87.1927 4.34765 87.1841 4.60368 87.1668 4.74036C87.1475 4.87896 87.1023 4.9935 87.031 5.08398C86.8693 5.32846 86.6095 5.4507 86.2514 5.4507H85.4891V2.44764ZM89.1673 6.0542H91.8556V5.4507H89.8054V4.21483H91.5553V3.64887H89.8054V2.44764H91.8556V1.84415H89.1673V6.0542ZM93.0504 6.0542H93.6886V3.42941H93.7001L94.5808 5.4507H95.1122L95.9929 3.42941H96.0073V6.0542H96.6454V1.84415H96.0419L94.8581 4.58732L93.6511 1.84415H93.0504V6.0542ZM98.8567 6.0542H99.4573V4.32167L100.725 1.84415H100.049L99.157 3.71239L98.2648 1.84415H97.5891L98.8567 4.32167V6.0542Z" fill="#2B3F53"/>
</svg>
