<?xml version="1.0" encoding="UTF-8" standalone="no"?><svg width="101" height="7" viewBox="0 0 101 7" fill="none" xmlns="http://www.w3.org/2000/svg">
<path d="M3.9697 0.00650024L7.01363 3.05042L3.9697 6.09435L0.925781 3.05042L3.9697 0.00650024Z" fill="#D9D9D9"/>
<path d="M3.9697 0.00650024L0.925781 3.05042L3.9697 3.05042L3.9697 0.00650024Z" fill="white"/>
<path d="M3.9697 0.00650024L7.01363 3.05042L3.9697 3.05042L3.9697 0.00650024Z" fill="white"/>
<path d="M3.9697 6.09435L0.925781 3.05042L3.9697 3.05042L3.9697 6.09435Z" fill="white"/>
<path d="M3.9697 6.09435L7.01363 3.05042L3.9697 3.05042L3.9697 6.09435Z" fill="white"/>
<path d="M12.5826 3.9921C12.4053 4.37551 12.1375 4.56722 11.7791 4.56722C11.6289 4.56722 11.4998 4.53543 11.3919 4.47185C11.2821 4.4179 11.1934 4.34758 11.126 4.26088C11.0431 4.17032 10.9882 4.05183 10.9613 3.9054C10.9304 3.75898 10.915 3.47865 10.915 3.06441C10.915 2.65018 10.9304 2.36792 10.9613 2.21764C10.9882 2.07506 11.0431 1.9585 11.126 1.86795C11.1934 1.78125 11.2821 1.709 11.3919 1.6512C11.4998 1.59532 11.6289 1.56546 11.7791 1.56161C11.9834 1.56546 12.1568 1.62422 12.2993 1.7379C12.4361 1.85735 12.5305 2.00185 12.5826 2.1714H13.2588C13.1914 1.81882 13.0295 1.52307 12.7733 1.28416C12.517 1.04718 12.1857 0.926766 11.7791 0.922913C11.4477 0.926766 11.1713 1.00576 10.9497 1.15989C10.7243 1.3121 10.5605 1.4855 10.4584 1.6801C10.3948 1.78221 10.3476 1.91611 10.3168 2.08181C10.2879 2.2475 10.2734 2.57504 10.2734 3.06441C10.2734 3.54608 10.2879 3.87169 10.3168 4.04123C10.3322 4.13179 10.3515 4.20693 10.3746 4.26666C10.3996 4.32446 10.4276 4.38515 10.4584 4.44873C10.5605 4.64332 10.7243 4.81479 10.9497 4.96315C11.1713 5.11728 11.4477 5.1982 11.7791 5.20591C12.1452 5.20591 12.4621 5.10187 12.7299 4.89379C12.99 4.68378 13.1663 4.38322 13.2588 3.9921H12.5826Z" fill="white"/>
<path d="M14.2264 3.74356C14.2302 4.1867 14.3767 4.53832 14.6657 4.79842C14.9489 5.06622 15.3015 5.20206 15.7234 5.20591C16.1531 5.20206 16.5085 5.06622 16.7898 4.79842C17.0692 4.53832 17.2127 4.1867 17.2204 3.74356V0.957593H16.5817V3.6742C16.5779 3.96128 16.497 4.17996 16.339 4.33024C16.1771 4.48822 15.972 4.56722 15.7234 4.56722C15.4749 4.56722 15.2716 4.48822 15.1136 4.33024C14.9518 4.17996 14.8689 3.96128 14.8651 3.6742V0.957593H14.2264V3.74356Z" fill="white"/>
<path d="M18.6244 5.17123H21.315V4.56722H19.2631V3.33029H21.0144V2.76385H19.2631V1.56161H21.315V0.957593H18.6244V5.17123Z" fill="white"/>
<path d="M22.5109 5.17123H24.2854C24.6167 5.17123 24.8932 5.06045 25.1148 4.83888C25.3383 4.62694 25.452 4.33891 25.4558 3.97476C25.4558 3.75512 25.4009 3.55186 25.2911 3.36497C25.1736 3.18386 25.0002 3.06345 24.7709 3.00372V2.99216C24.8923 2.93436 24.9944 2.86982 25.0772 2.79853C25.1601 2.7311 25.2236 2.65981 25.268 2.58467C25.3547 2.42668 25.3961 2.26099 25.3922 2.08759C25.3922 1.74849 25.2872 1.47587 25.0772 1.26971C24.8691 1.06549 24.558 0.961446 24.1437 0.957593H22.5109V5.17123ZM24.1322 3.30139C24.3692 3.30524 24.5426 3.36786 24.6524 3.48924C24.7622 3.61255 24.8171 3.7609 24.8171 3.9343C24.8171 4.10385 24.7622 4.25028 24.6524 4.37359C24.5426 4.49882 24.3692 4.56336 24.1322 4.56722H23.1496V3.30139H24.1322ZM24.0715 1.52692C24.3046 1.53078 24.4761 1.58762 24.5859 1.69744C24.6977 1.81496 24.7535 1.9585 24.7535 2.12805C24.7535 2.29759 24.6977 2.43824 24.5859 2.54999C24.4761 2.67137 24.3046 2.73206 24.0715 2.73206H23.1496V1.52692H24.0715Z" fill="white"/>
<path d="M26.6777 5.17123H27.2817V2.1714H26.6777V5.17123ZM26.6777 1.56161H27.2817V0.957593H26.6777V1.56161Z" fill="white"/>
<path d="M30.8937 3.9921C30.7164 4.37551 30.4486 4.56722 30.0902 4.56722C29.9399 4.56722 29.8109 4.53543 29.703 4.47185C29.5931 4.4179 29.5045 4.34758 29.4371 4.26088C29.3542 4.17032 29.2993 4.05183 29.2724 3.9054C29.2415 3.75898 29.2261 3.47865 29.2261 3.06441C29.2261 2.65018 29.2415 2.36792 29.2724 2.21764C29.2993 2.07506 29.3542 1.9585 29.4371 1.86795C29.5045 1.78125 29.5931 1.709 29.703 1.6512C29.8109 1.59532 29.9399 1.56546 30.0902 1.56161C30.2945 1.56546 30.4679 1.62422 30.6104 1.7379C30.7472 1.85735 30.8416 2.00185 30.8937 2.1714H31.5699C31.5025 1.81882 31.3406 1.52307 31.0844 1.28416C30.8281 1.04718 30.4968 0.926766 30.0902 0.922913C29.7588 0.926766 29.4824 1.00576 29.2608 1.15989C29.0354 1.3121 28.8716 1.4855 28.7695 1.6801C28.7059 1.78221 28.6587 1.91611 28.6279 2.08181C28.599 2.2475 28.5845 2.57504 28.5845 3.06441C28.5845 3.54608 28.599 3.87169 28.6279 4.04123C28.6433 4.13179 28.6626 4.20693 28.6857 4.26666C28.7107 4.32446 28.7387 4.38515 28.7695 4.44873C28.8716 4.64332 29.0354 4.81479 29.2608 4.96315C29.4824 5.11728 29.7588 5.1982 30.0902 5.20591C30.4563 5.20591 30.7732 5.10187 31.041 4.89379C31.3011 4.68378 31.4774 4.38322 31.5699 3.9921H30.8937Z" fill="white"/>
<path d="M34.6293 5.17123H35.268V2.54421H35.2795L36.161 4.56722H36.6927L37.5742 2.54421H37.5886V5.17123H38.2273V0.957593H37.6233L36.4384 3.7031L35.2304 0.957593H34.6293V5.17123Z" fill="white"/>
<path d="M40.4521 3.66264L41.0619 1.82171H41.0734L41.6832 3.66264H40.4521ZM42.1919 5.17123H42.8652L41.3335 0.957593H40.7989L39.2672 5.17123H39.9434L40.2671 4.22909H41.8653L42.1919 5.17123Z" fill="white"/>
<path d="M44.5495 1.52692H45.5495C45.7537 1.52692 45.9098 1.57028 46.0176 1.65698C46.1544 1.75524 46.2248 1.91419 46.2286 2.13383C46.2286 2.31686 46.1699 2.471 46.0523 2.59623C45.9329 2.7311 45.7537 2.80046 45.5148 2.80431H44.5495V1.52692ZM43.9108 5.17123H44.5495V3.37075H45.3645L46.2344 5.17123H46.9945L46.0176 3.30139C46.5533 3.09524 46.8249 2.70605 46.8326 2.13383C46.8211 1.74464 46.6814 1.44504 46.4136 1.23503C46.192 1.05007 45.9059 0.957593 45.5552 0.957593H43.9108V5.17123Z" fill="white"/>
<path d="M48.1152 5.17123H48.7539V3.88806L49.4937 3.11065L50.6411 5.17123H51.3983L49.907 2.61935L51.2567 0.957593H50.4995L48.7655 3.12799H48.7539V0.957593H48.1152V5.17123Z" fill="white"/>
<path d="M52.4352 5.17123H55.1258V4.56722H53.0739V3.33029H54.8252V2.76385H53.0739V1.56161H55.1258V0.957593H52.4352V5.17123Z" fill="white"/>
<path d="M57.0355 5.17123H57.6771V1.52692H58.8302V0.957593H55.8824V1.52692H57.0355V5.17123Z" fill="white"/>
<path d="M59.8729 5.17123H60.5116V0.957593H59.8729V5.17123Z" fill="white"/>
<path d="M61.9907 5.17123H62.6294V2.17718H62.641L64.5455 5.17123H65.1495V0.957593H64.5108V3.95164H64.4993L62.5918 0.957593H61.9907V5.17123Z" fill="white"/>
<path d="M68.0014 3.45456H68.8597V3.6742C68.8558 3.93816 68.773 4.15106 68.6112 4.3129C68.4493 4.48244 68.2441 4.56722 67.9956 4.56722C67.8453 4.56722 67.7162 4.53543 67.6083 4.47185C67.4985 4.4179 67.4099 4.34758 67.3424 4.26088C67.2596 4.17032 67.2047 4.05183 67.1777 3.9054C67.1469 3.75898 67.1315 3.47865 67.1315 3.06441C67.1315 2.65018 67.1469 2.36792 67.1777 2.21764C67.2047 2.07506 67.2596 1.9585 67.3424 1.86795C67.4099 1.78125 67.4985 1.709 67.6083 1.6512C67.7162 1.59532 67.8453 1.56546 67.9956 1.56161C68.1998 1.56546 68.3732 1.62422 68.5158 1.7379C68.6526 1.85735 68.747 2.00185 68.799 2.1714H69.4753C69.4078 1.81882 69.246 1.52307 68.9898 1.28416C68.7335 1.04718 68.4021 0.926766 67.9956 0.922913C67.6642 0.926766 67.3877 1.00576 67.1662 1.15989C66.9407 1.3121 66.777 1.4855 66.6749 1.6801C66.6113 1.78221 66.5641 1.91611 66.5332 2.08181C66.5043 2.2475 66.4899 2.57504 66.4899 3.06441C66.4899 3.54608 66.5043 3.87169 66.5332 4.04123C66.5487 4.13179 66.5679 4.20693 66.591 4.26666C66.6161 4.32446 66.644 4.38515 66.6749 4.44873C66.777 4.64332 66.9407 4.81479 67.1662 4.96315C67.3877 5.11728 67.6642 5.1982 67.9956 5.20591C68.4252 5.1982 68.7817 5.05274 69.0649 4.76952C69.3462 4.48437 69.4907 4.13082 69.4984 3.70888V2.85055H68.0014V3.45456Z" fill="white"/>
<path d="M73.5982 3.66264L74.208 1.82171H74.2195L74.8293 3.66264H73.5982ZM75.3379 5.17123H76.0113L74.4796 0.957593H73.945L72.4133 5.17123H73.0895L73.4132 4.22909H75.0114L75.3379 5.17123Z" fill="white"/>
<path d="M79.1117 3.9921C78.9345 4.37551 78.6667 4.56722 78.3083 4.56722C78.158 4.56722 78.0289 4.53543 77.921 4.47185C77.8112 4.4179 77.7226 4.34758 77.6552 4.26088C77.5723 4.17032 77.5174 4.05183 77.4904 3.9054C77.4596 3.75898 77.4442 3.47865 77.4442 3.06441C77.4442 2.65018 77.4596 2.36792 77.4904 2.21764C77.5174 2.07506 77.5723 1.9585 77.6552 1.86795C77.7226 1.78125 77.8112 1.709 77.921 1.6512C78.0289 1.59532 78.158 1.56546 78.3083 1.56161C78.5125 1.56546 78.6859 1.62422 78.8285 1.7379C78.9653 1.85735 79.0597 2.00185 79.1117 2.1714H79.788C79.7205 1.81882 79.5587 1.52307 79.3025 1.28416C79.0462 1.04718 78.7148 0.926766 78.3083 0.922913C77.9769 0.926766 77.7004 1.00576 77.4789 1.15989C77.2534 1.3121 77.0897 1.4855 76.9876 1.6801C76.924 1.78221 76.8768 1.91611 76.846 2.08181C76.8171 2.2475 76.8026 2.57504 76.8026 3.06441C76.8026 3.54608 76.8171 3.87169 76.846 4.04123C76.8614 4.13179 76.8806 4.20693 76.9038 4.26666C76.9288 4.32446 76.9567 4.38515 76.9876 4.44873C77.0897 4.64332 77.2534 4.81479 77.4789 4.96315C77.7004 5.11728 77.9769 5.1982 78.3083 5.20591C78.6744 5.20591 78.9913 5.10187 79.2591 4.89379C79.5192 4.68378 79.6955 4.38322 79.788 3.9921H79.1117Z" fill="white"/>
<path d="M81.5792 3.66264L82.189 1.82171H82.2006L82.8104 3.66264H81.5792ZM83.319 5.17123H83.9924L82.4607 0.957593H81.926L80.3943 5.17123H81.0706L81.3943 4.22909H82.9924L83.319 5.17123Z" fill="white"/>
<path d="M85.038 5.17123H86.4685C86.7845 5.17123 87.0514 5.10187 87.2691 4.96315C87.4887 4.83406 87.6602 4.67029 87.7835 4.47185C87.8297 4.39671 87.8692 4.32446 87.902 4.2551C87.9328 4.18381 87.9559 4.10289 87.9713 4.01233C88.0041 3.83315 88.0205 3.51718 88.0205 3.06441C88.0205 2.63862 88.0099 2.33902 87.9887 2.16562C87.9617 1.99222 87.8972 1.82652 87.795 1.66854C87.5099 1.19843 87.0822 0.961446 86.5119 0.957593H85.038V5.17123ZM85.6767 1.56161H86.4396C86.7633 1.5539 87.0138 1.67239 87.191 1.91708C87.2777 2.01534 87.3326 2.14346 87.3558 2.30145C87.3731 2.45944 87.3818 2.72146 87.3818 3.08753C87.3818 3.46323 87.3731 3.71948 87.3558 3.85627C87.3365 3.99499 87.2912 4.10963 87.2199 4.20019C87.0581 4.44487 86.798 4.56722 86.4396 4.56722H85.6767V1.56161Z" fill="white"/>
<path d="M89.358 5.17123H92.0486V4.56722H89.9966V3.33029H91.748V2.76385H89.9966V1.56161H92.0486V0.957593H89.358V5.17123Z" fill="white"/>
<path d="M93.2444 5.17123H93.8831V2.54421H93.8947L94.7762 4.56722H95.3079L96.1894 2.54421H96.2038V5.17123H96.8425V0.957593H96.2385L95.0536 3.7031L93.8456 0.957593H93.2444V5.17123Z" fill="white"/>
<path d="M99.0557 5.17123H99.6568V3.43722L100.926 0.957593H100.249L99.3562 2.82743L98.4632 0.957593H97.787L99.0557 3.43722V5.17123Z" fill="white"/>
</svg>
