<?xml version="1.0" encoding="UTF-8" standalone="no"?><svg width="48" height="44" viewBox="0 0 48 44" fill="none" xmlns="http://www.w3.org/2000/svg">
<path d="M35.8455 4.09965C36.0414 4.2258 35.8907 4.12821 36.0812 4.26159C37.0596 4.94185 37.9759 5.70815 38.8159 6.54855C42.4398 10.1726 44.6804 15.1788 44.6804 20.7088C44.6804 26.2384 42.4398 31.2447 38.8159 34.8687C35.7779 37.9067 31.7677 39.9725 27.2926 40.5606C26.9308 40.6087 26.608 40.7059 26.2628 40.8292C25.6777 41.037 25.1203 41.3135 24.603 41.6497C23.8438 42.1445 23.1696 42.7688 22.6143 43.5L22.27 43.2397C22.8561 42.4662 23.5671 41.8084 24.3674 41.2879C24.9248 40.9253 25.5251 40.6293 26.1562 40.4077C26.5231 40.2787 26.8274 40.1847 27.2012 40.1352C31.5938 39.5655 35.5289 37.542 38.5094 34.5614C42.0545 31.0162 44.247 26.1188 44.247 20.7088C44.247 12.3182 40.0853 7.94415 35.8455 4.09965" fill="url(#paint0_linear_243_301)"/>
<path fill-rule="evenodd" clip-rule="evenodd" d="M30.8377 39.776C31.772 39.0791 32.9626 38.8229 34.1008 39.0741C35.239 39.3249 36.2124 40.0587 36.7668 41.0834C33.3888 41.2154 31.4124 40.7798 30.8377 39.776ZM30.7719 39.527C31.7803 38.944 32.4862 37.9499 32.7042 36.8055C32.9236 35.6601 32.6337 34.4767 31.9112 33.5625C30.4563 36.6151 30.0765 38.6027 30.7719 39.527Z" fill="url(#paint1_linear_243_301)"/>
<path fill-rule="evenodd" clip-rule="evenodd" d="M34.426 38.1704C35.2049 37.3484 36.3023 36.9049 37.4343 36.9562C38.5653 37.0072 39.6189 37.5483 40.3205 38.4368C37.1076 39.1253 35.1435 39.0361 34.426 38.1704V38.1704ZM34.3215 37.9426C35.1905 37.2165 35.7019 36.1487 35.7203 35.0155C35.7395 33.8831 35.2664 32.7983 34.422 32.0429C33.5358 35.206 33.5029 37.1734 34.3215 37.9426Z" fill="url(#paint2_linear_243_301)"/>
<path fill-rule="evenodd" clip-rule="evenodd" d="M37.6443 35.9073C38.2558 34.9924 39.2354 34.3899 40.3266 34.2536C41.4189 34.1184 42.5151 34.4647 43.3316 35.2013C40.3674 36.3837 38.472 36.6183 37.6443 35.9073ZM37.5069 35.7052C38.2212 34.8684 38.5356 33.7627 38.3697 32.6747C38.2038 31.5874 37.5724 30.6252 36.6424 30.0404C36.3091 33.2137 36.5972 35.103 37.5069 35.7052" fill="url(#paint3_linear_243_301)"/>
<path fill-rule="evenodd" clip-rule="evenodd" d="M40.3006 33.0984C40.7383 32.1239 41.5772 31.3872 42.5997 31.08C43.6234 30.7724 44.729 30.9253 45.6305 31.4978C42.9861 33.1118 41.2096 33.6456 40.3006 33.0984V33.0984ZM40.1368 32.9285C40.6841 32.0115 40.8059 30.9007 40.4697 29.8872C40.1336 28.8729 39.3735 28.0553 38.3867 27.6454C38.5844 30.7377 39.1674 32.4991 40.1368 32.9285" fill="url(#paint4_linear_243_301)"/>
<path fill-rule="evenodd" clip-rule="evenodd" d="M42.4197 29.8279C42.6778 28.8237 43.3595 27.9804 44.2877 27.5174C45.2159 27.0551 46.2988 27.0182 47.2559 27.418C44.9914 29.3984 43.3786 30.202 42.4197 29.8279ZM42.2354 29.6916C42.6084 28.7243 42.5408 27.6425 42.0528 26.7272C41.5642 25.8124 40.7025 25.1556 39.6904 24.9261C40.3891 27.8525 41.2374 29.4404 42.2354 29.6916Z" fill="url(#paint5_linear_243_301)"/>
<path fill-rule="evenodd" clip-rule="evenodd" d="M43.7801 26.1869C43.8589 25.1827 44.3691 24.2628 45.1785 23.6653C45.9891 23.0682 47.0186 22.852 48.0003 23.0743C46.1664 25.3458 44.7596 26.3839 43.7801 26.1869V26.1869ZM43.5812 26.0875C43.775 25.1 43.5297 24.0774 42.91 23.2843C42.2904 22.4913 41.3558 22.0066 40.3511 21.9574C41.5087 24.6376 42.5852 26.0148 43.5812 26.0875Z" fill="url(#paint6_linear_243_301)"/>
<path fill-rule="evenodd" clip-rule="evenodd" d="M44.4289 22.8371C44.3348 21.8648 44.6677 20.8997 45.3411 20.1927C46.0152 19.4858 46.9627 19.1055 47.9383 19.1525C46.5675 21.6322 45.3972 22.8598 44.4289 22.8371V22.8371ZM44.2218 22.7756C44.2404 21.7994 43.8346 20.8628 43.1095 20.2091C42.3829 19.5554 41.4095 19.2499 40.4404 19.3709C41.9968 21.7377 43.2568 22.8729 44.2218 22.7756Z" fill="url(#paint7_linear_243_301)"/>
<path fill-rule="evenodd" clip-rule="evenodd" d="M44.4736 18.8443C44.2234 17.9306 44.3825 16.9532 44.9098 16.1652C45.4375 15.3783 46.2808 14.8589 47.2213 14.7428C46.3198 17.3392 45.4039 18.7073 44.4736 18.8443ZM44.2654 18.8198C44.123 17.8836 43.5801 17.0544 42.7776 16.5494C41.9767 16.0441 40.9939 15.9122 40.0874 16.1887C41.9662 18.1948 43.3589 19.0731 44.2654 18.8198Z" fill="url(#paint8_linear_243_301)"/>
<path fill-rule="evenodd" clip-rule="evenodd" d="M43.7057 14.9147C43.3215 14.0794 43.3186 13.1175 43.6977 12.2804C44.0776 11.4421 44.802 10.811 45.6842 10.5497C45.2342 13.1801 44.5746 14.6349 43.7057 14.9147V14.9147ZM43.5029 14.9237C43.217 14.0497 42.5664 13.3427 41.7181 12.9874C40.8698 12.6306 39.9098 12.6614 39.085 13.0691C41.2038 14.6913 42.6759 15.3101 43.5029 14.9237Z" fill="url(#paint9_linear_243_301)"/>
<path fill-rule="evenodd" clip-rule="evenodd" d="M42.4259 11.7128C41.9651 10.9486 41.8585 10.0222 42.135 9.17276C42.4108 8.32441 43.0418 7.63692 43.8645 7.29064C43.7141 9.87581 43.2345 11.3502 42.4259 11.7128V11.7128ZM42.2315 11.7446C41.8614 10.932 41.1576 10.3204 40.301 10.0674C39.4447 9.81508 38.5216 9.94846 37.7705 10.431C39.9876 11.767 41.4753 12.2058 42.2315 11.7446Z" fill="url(#paint10_linear_243_301)"/>
<path fill-rule="evenodd" clip-rule="evenodd" d="M40.5682 8.75333C40.012 8.08932 39.7702 7.21639 39.9072 6.35973C40.0456 5.50415 40.5476 4.75123 41.2854 4.29506C41.5282 6.79746 41.2886 8.28306 40.5682 8.75333V8.75333ZM40.3868 8.81188C39.9104 8.08823 39.1431 7.60677 38.2835 7.49399C37.4237 7.38049 36.558 7.64581 35.9106 8.22161C38.2384 9.17153 39.73 9.36817 40.3868 8.81188" fill="url(#paint11_linear_243_301)"/>
<path fill-rule="evenodd" clip-rule="evenodd" d="M38.3233 6.21707C37.6901 5.66295 37.3282 4.8605 37.3333 4.0183C37.3387 3.17718 37.7096 2.37907 38.3486 1.83182C38.9533 4.19758 38.945 5.65969 38.3233 6.21707V6.21707ZM38.157 6.30129C37.5925 5.67704 36.7843 5.32896 35.9421 5.34812C35.101 5.36655 34.3091 5.75006 33.772 6.39852C36.1481 6.96493 37.6091 6.9324 38.157 6.30129" fill="url(#paint12_linear_243_301)"/>
<path fill-rule="evenodd" clip-rule="evenodd" d="M36.1597 4.21685C35.4693 3.77948 35.0019 3.06198 34.8812 2.25267C34.7601 1.44336 34.9969 0.621398 35.5307 0.000407286C36.464 2.18291 36.674 3.58863 36.1597 4.21685ZM36.0133 4.3224C35.3771 3.80696 34.5491 3.59405 33.7437 3.73755C32.9374 3.88069 32.2347 4.36758 31.8154 5.07134C34.1825 5.26003 35.581 5.01098 36.0133 4.3224Z" fill="url(#paint13_linear_243_301)"/>
<path fill-rule="evenodd" clip-rule="evenodd" d="M34.9756 3.31519C34.6803 2.55178 34.0677 1.95429 33.2975 1.67885C32.5269 1.40414 31.6746 1.4768 30.9614 1.87838C32.9212 3.21868 34.2593 3.69725 34.9756 3.31519" fill="url(#paint14_linear_243_301)"/>
<path d="M12.1532 4.09965C11.9585 4.2258 12.1091 4.12821 11.9186 4.26159C10.9391 4.94185 10.0241 5.70815 9.18399 6.54855C5.56009 10.1726 3.31934 15.1788 3.31934 20.7088C3.31934 26.2384 5.56009 31.2447 9.18399 34.8687C12.2218 37.9067 16.232 39.9725 20.7073 40.5606C21.069 40.6087 21.3918 40.7059 21.736 40.8292C22.3221 41.037 22.8794 41.3135 23.3968 41.6497C24.1562 42.1445 24.8303 42.7688 25.3855 43.5L25.7288 43.2397C25.1437 42.4662 24.4327 41.8084 23.6325 41.2879C23.0751 40.9253 22.4747 40.6293 21.8436 40.4077C21.4758 40.2787 21.1725 40.1847 20.7985 40.1352C16.4062 39.5655 12.4708 37.542 9.49031 34.5614C5.94532 31.0162 3.75271 26.1188 3.75271 20.7088C3.75271 12.3182 7.91455 7.94415 12.1532 4.09965" fill="url(#paint15_linear_243_301)"/>
<path fill-rule="evenodd" clip-rule="evenodd" d="M17.1612 39.776C16.2268 39.0791 15.0362 38.8229 13.8979 39.0741C12.7596 39.3249 11.7862 40.0587 11.231 41.0834C14.61 41.2154 16.5864 40.7798 17.1612 39.776ZM17.2267 39.527C16.2175 38.944 15.5127 37.9499 15.2944 36.8055C15.0752 35.6601 15.3651 34.4767 16.0874 33.5625C17.5423 36.6151 17.9225 38.6027 17.2267 39.527Z" fill="url(#paint16_linear_243_301)"/>
<path fill-rule="evenodd" clip-rule="evenodd" d="M13.5726 38.1704C12.7939 37.3484 11.6956 36.9049 10.5644 36.9562C9.43333 37.0072 8.38004 37.5483 7.67822 38.4368C10.8913 39.1253 12.8554 39.0361 13.5726 38.1704V38.1704ZM13.6771 37.9426C12.8083 37.2165 12.297 36.1487 12.2786 35.0155C12.2591 33.8831 12.7324 32.7983 13.5767 32.0429C14.4629 35.206 14.4958 37.1734 13.6771 37.9426" fill="url(#paint17_linear_243_301)"/>
<path fill-rule="evenodd" clip-rule="evenodd" d="M10.3544 35.9073C9.74271 34.9924 8.76323 34.3899 7.67206 34.2536C6.57984 34.1184 5.48357 34.4647 4.66699 35.2013C7.63107 36.3837 9.52653 36.6183 10.3544 35.9073V35.9073ZM10.4907 35.7052C9.77756 34.8684 9.46303 33.7627 9.62897 32.6747C9.79498 31.5874 10.4251 30.6252 11.3564 30.0404C11.6894 33.2137 11.4005 35.103 10.4907 35.7052" fill="url(#paint18_linear_243_301)"/>
<path fill-rule="evenodd" clip-rule="evenodd" d="M7.69948 33.0984C7.26199 32.1239 6.42289 31.3872 5.40036 31.08C4.37681 30.7724 3.27129 30.9253 2.36865 31.4978C5.01408 33.1118 6.7907 33.6456 7.69948 33.0984V33.0984ZM7.86239 32.9285C7.31527 32.0115 7.19436 30.9007 7.53043 29.8872C7.86647 28.8729 8.62674 28.0553 9.61341 27.6454C9.41563 30.7377 8.83164 32.4991 7.86239 32.9285Z" fill="url(#paint19_linear_243_301)"/>
<path fill-rule="evenodd" clip-rule="evenodd" d="M5.57764 29.8279C5.32047 28.8237 4.63911 27.9804 3.71084 27.5174C2.78261 27.0551 1.69961 27.0182 0.742676 27.418C3.00696 29.3984 4.61861 30.202 5.57764 29.8279V29.8279ZM5.76205 29.6916C5.39012 28.7243 5.45673 27.6425 5.94544 26.7272C6.43416 25.8124 7.29581 25.1556 8.30706 24.9261C7.60936 27.8525 6.76101 29.4404 5.76205 29.6916Z" fill="url(#paint20_linear_243_301)"/>
<path fill-rule="evenodd" clip-rule="evenodd" d="M4.22021 26.1869C4.14131 25.1827 3.63109 24.2628 2.82167 23.6653C2.01123 23.0682 0.981544 22.852 0 23.0743C1.83398 25.3458 3.24069 26.3839 4.22021 26.1869ZM4.41897 26.0875C4.22535 25.1 4.47023 24.0774 5.09007 23.2843C5.70995 22.4913 6.64433 22.0066 7.64948 21.9574C6.49169 24.6377 5.41487 26.0148 4.41897 26.0875" fill="url(#paint21_linear_243_301)"/>
<path fill-rule="evenodd" clip-rule="evenodd" d="M3.56826 22.8371C3.66252 21.8648 3.32952 20.8997 2.65535 20.1926C1.98219 19.4856 1.03448 19.1054 0.059082 19.1527C1.42998 21.6323 2.599 22.8599 3.56826 22.8371V22.8371ZM3.77519 22.7756C3.75574 21.7993 4.16251 20.8628 4.8879 20.2089C5.61433 19.5554 6.58767 19.25 7.55689 19.3707C6.00058 21.7379 4.73934 22.8729 3.77519 22.7756" fill="url(#paint22_linear_243_301)"/>
<path fill-rule="evenodd" clip-rule="evenodd" d="M3.52374 18.8443C3.77375 17.9306 3.61493 16.9532 3.08729 16.1652C2.55965 15.3783 1.71643 14.8589 0.775879 14.7428C1.67747 17.3392 2.59345 18.7073 3.52374 18.8443ZM3.73175 18.8198C3.87416 17.8836 4.4172 17.0544 5.21943 16.5494C6.02065 16.0441 7.0032 15.9122 7.90892 16.1887C6.03088 18.1948 4.63746 19.0731 3.73175 18.8198Z" fill="url(#paint23_linear_243_301)"/>
<path fill-rule="evenodd" clip-rule="evenodd" d="M4.29385 14.9147C4.67907 14.0794 4.68215 13.1175 4.30306 12.2804C3.92293 11.4421 3.19855 10.811 2.31641 10.5497C2.76619 13.1801 3.42601 14.6349 4.29385 14.9147V14.9147ZM4.49774 14.9237C4.78256 14.0497 5.43417 13.3427 6.28256 12.9874C7.13087 12.6306 8.09091 12.6614 8.9157 13.0691C6.79686 14.6913 5.32454 15.3101 4.49774 14.9237Z" fill="url(#paint24_linear_243_301)"/>
<path fill-rule="evenodd" clip-rule="evenodd" d="M5.57032 11.7128C6.03138 10.9486 6.13794 10.0222 5.86132 9.17276C5.58568 8.32441 4.95355 7.63692 4.13184 7.29064C4.28245 9.87581 4.76195 11.3502 5.57032 11.7128V11.7128ZM5.765 11.7446C6.13486 10.932 6.83875 10.3204 7.6953 10.0674C8.55182 9.81508 9.47496 9.94846 10.226 10.431C8.00882 11.767 6.52114 12.2058 5.765 11.7446Z" fill="url(#paint25_linear_243_301)"/>
<path fill-rule="evenodd" clip-rule="evenodd" d="M7.42862 8.75333C7.985 8.08932 8.22681 7.21639 8.08848 6.35973C7.9512 5.50415 7.44912 4.75123 6.71144 4.29506C6.46862 6.79746 6.70736 8.28306 7.42862 8.75333V8.75333ZM7.61 8.81188C8.08642 8.08823 8.85384 7.60677 9.71344 7.49399C10.5721 7.38049 11.4388 7.64581 12.0864 8.22161C9.75851 9.17153 8.26675 9.36817 7.61 8.81188" fill="url(#paint26_linear_243_301)"/>
<path fill-rule="evenodd" clip-rule="evenodd" d="M9.67695 6.21707C10.3101 5.66295 10.6708 4.8605 10.6667 4.0183C10.6616 3.17718 10.2907 2.37907 9.65031 1.83182C9.0458 4.19758 9.05501 5.65969 9.67695 6.21707V6.21707ZM9.84293 6.30129C10.4075 5.67704 11.2158 5.32896 12.057 5.34812C12.8992 5.36655 13.6912 5.75006 14.2271 6.39852C11.8521 6.96493 10.3901 6.9324 9.84293 6.30129Z" fill="url(#paint27_linear_243_301)"/>
<path fill-rule="evenodd" clip-rule="evenodd" d="M11.8355 4.21685C12.526 3.77948 12.9932 3.06198 13.1141 2.25267C13.235 1.44336 12.9973 0.621398 12.4645 0.000407286C11.5312 2.18291 11.3211 3.58863 11.8355 4.21685ZM11.982 4.3224C12.6172 3.80696 13.4461 3.59405 14.2514 3.73755C15.0567 3.88069 15.7606 4.36758 16.1786 5.07134C13.8129 5.26003 12.4133 5.01098 11.982 4.3224Z" fill="url(#paint28_linear_243_301)"/>
<path fill-rule="evenodd" clip-rule="evenodd" d="M13.0205 3.31519C13.3166 2.55178 13.9293 1.95429 14.6998 1.67885C15.4703 1.40414 16.3227 1.4768 17.0348 1.87838C15.0758 3.21868 13.7377 3.69725 13.0205 3.31519Z" fill="url(#paint29_linear_243_301)"/>
<rect width="12.7839" height="12.7839" transform="matrix(0.707105 0.707108 -0.707105 0.707108 24 11.8379)" fill="url(#paint30_linear_243_301)"/>
<defs>
<linearGradient id="paint0_linear_243_301" x1="22.27" y1="4.09965" x2="45.1943" y2="4.40098" gradientUnits="userSpaceOnUse">
<stop stop-color="#377DC5"/>
<stop offset="1" stop-color="#013792"/>
</linearGradient>
<linearGradient id="paint1_linear_243_301" x1="30.4346" y1="33.5625" x2="36.9107" y2="33.6881" gradientUnits="userSpaceOnUse">
<stop stop-color="#377DC5"/>
<stop offset="1" stop-color="#013792"/>
</linearGradient>
<linearGradient id="paint2_linear_243_301" x1="33.7314" y1="32.0429" x2="40.4694" y2="32.1926" gradientUnits="userSpaceOnUse">
<stop stop-color="#377DC5"/>
<stop offset="1" stop-color="#013792"/>
</linearGradient>
<linearGradient id="paint3_linear_243_301" x1="36.5083" y1="30.0404" x2="43.4849" y2="30.2159" gradientUnits="userSpaceOnUse">
<stop stop-color="#377DC5"/>
<stop offset="1" stop-color="#013792"/>
</linearGradient>
<linearGradient id="paint4_linear_243_301" x1="38.3867" y1="27.6454" x2="45.7914" y2="27.8643" gradientUnits="userSpaceOnUse">
<stop stop-color="#377DC5"/>
<stop offset="1" stop-color="#013792"/>
</linearGradient>
<linearGradient id="paint5_linear_243_301" x1="39.6904" y1="24.9261" x2="47.4212" y2="25.1969" gradientUnits="userSpaceOnUse">
<stop stop-color="#377DC5"/>
<stop offset="1" stop-color="#013792"/>
</linearGradient>
<linearGradient id="paint6_linear_243_301" x1="40.3511" y1="21.9574" x2="48.1635" y2="22.2821" gradientUnits="userSpaceOnUse">
<stop stop-color="#377DC5"/>
<stop offset="1" stop-color="#013792"/>
</linearGradient>
<linearGradient id="paint7_linear_243_301" x1="40.4404" y1="19.1486" x2="48.0947" y2="19.5082" gradientUnits="userSpaceOnUse">
<stop stop-color="#377DC5"/>
<stop offset="1" stop-color="#013792"/>
</linearGradient>
<linearGradient id="paint8_linear_243_301" x1="40.0874" y1="14.7428" x2="47.3745" y2="15.0345" gradientUnits="userSpaceOnUse">
<stop stop-color="#377DC5"/>
<stop offset="1" stop-color="#013792"/>
</linearGradient>
<linearGradient id="paint9_linear_243_301" x1="39.085" y1="10.5497" x2="45.829" y2="10.779" gradientUnits="userSpaceOnUse">
<stop stop-color="#377DC5"/>
<stop offset="1" stop-color="#013792"/>
</linearGradient>
<linearGradient id="paint10_linear_243_301" x1="37.7705" y1="7.29064" x2="43.9996" y2="7.48006" gradientUnits="userSpaceOnUse">
<stop stop-color="#377DC5"/>
<stop offset="1" stop-color="#013792"/>
</linearGradient>
<linearGradient id="paint11_linear_243_301" x1="35.9106" y1="4.29506" x2="41.4996" y2="4.44139" gradientUnits="userSpaceOnUse">
<stop stop-color="#377DC5"/>
<stop offset="1" stop-color="#013792"/>
</linearGradient>
<linearGradient id="paint12_linear_243_301" x1="33.772" y1="1.83182" x2="38.9092" y2="1.95187" gradientUnits="userSpaceOnUse">
<stop stop-color="#377DC5"/>
<stop offset="1" stop-color="#013792"/>
</linearGradient>
<linearGradient id="paint13_linear_243_301" x1="31.8154" y1="0.000407623" x2="36.5383" y2="0.0986264" gradientUnits="userSpaceOnUse">
<stop stop-color="#377DC5"/>
<stop offset="1" stop-color="#013792"/>
</linearGradient>
<linearGradient id="paint14_linear_243_301" x1="30.9614" y1="1.51475" x2="35.0589" y2="1.71195" gradientUnits="userSpaceOnUse">
<stop stop-color="#377DC5"/>
<stop offset="1" stop-color="#013792"/>
</linearGradient>
<linearGradient id="paint15_linear_243_301" x1="3.31934" y1="4.09965" x2="26.2428" y2="4.40096" gradientUnits="userSpaceOnUse">
<stop stop-color="#377DC5"/>
<stop offset="1" stop-color="#013792"/>
</linearGradient>
<linearGradient id="paint16_linear_243_301" x1="11.231" y1="33.5625" x2="17.7081" y2="33.6882" gradientUnits="userSpaceOnUse">
<stop stop-color="#377DC5"/>
<stop offset="1" stop-color="#013792"/>
</linearGradient>
<linearGradient id="paint17_linear_243_301" x1="7.67822" y1="32.0429" x2="14.4162" y2="32.1926" gradientUnits="userSpaceOnUse">
<stop stop-color="#377DC5"/>
<stop offset="1" stop-color="#013792"/>
</linearGradient>
<linearGradient id="paint18_linear_243_301" x1="4.66699" y1="30.0404" x2="11.6434" y2="30.2159" gradientUnits="userSpaceOnUse">
<stop stop-color="#377DC5"/>
<stop offset="1" stop-color="#013792"/>
</linearGradient>
<linearGradient id="paint19_linear_243_301" x1="2.36865" y1="27.6454" x2="9.77436" y2="27.8644" gradientUnits="userSpaceOnUse">
<stop stop-color="#377DC5"/>
<stop offset="1" stop-color="#013792"/>
</linearGradient>
<linearGradient id="paint20_linear_243_301" x1="0.742676" y1="24.9261" x2="8.47239" y2="25.1968" gradientUnits="userSpaceOnUse">
<stop stop-color="#377DC5"/>
<stop offset="1" stop-color="#013792"/>
</linearGradient>
<linearGradient id="paint21_linear_243_301" x1="-2.84965e-08" y1="21.9574" x2="7.81276" y2="22.2822" gradientUnits="userSpaceOnUse">
<stop stop-color="#377DC5"/>
<stop offset="1" stop-color="#013792"/>
</linearGradient>
<linearGradient id="paint22_linear_243_301" x1="0.059082" y1="19.1488" x2="7.71328" y2="19.5083" gradientUnits="userSpaceOnUse">
<stop stop-color="#377DC5"/>
<stop offset="1" stop-color="#013792"/>
</linearGradient>
<linearGradient id="paint23_linear_243_301" x1="0.775879" y1="14.7428" x2="8.06209" y2="15.0344" gradientUnits="userSpaceOnUse">
<stop stop-color="#377DC5"/>
<stop offset="1" stop-color="#013792"/>
</linearGradient>
<linearGradient id="paint24_linear_243_301" x1="2.31641" y1="10.5497" x2="9.06041" y2="10.779" gradientUnits="userSpaceOnUse">
<stop stop-color="#377DC5"/>
<stop offset="1" stop-color="#013792"/>
</linearGradient>
<linearGradient id="paint25_linear_243_301" x1="4.13184" y1="7.29064" x2="10.3611" y2="7.48007" gradientUnits="userSpaceOnUse">
<stop stop-color="#377DC5"/>
<stop offset="1" stop-color="#013792"/>
</linearGradient>
<linearGradient id="paint26_linear_243_301" x1="6.61963" y1="4.29506" x2="12.2089" y2="4.44141" gradientUnits="userSpaceOnUse">
<stop stop-color="#377DC5"/>
<stop offset="1" stop-color="#013792"/>
</linearGradient>
<linearGradient id="paint27_linear_243_301" x1="9.20361" y1="1.83182" x2="14.3404" y2="1.95184" gradientUnits="userSpaceOnUse">
<stop stop-color="#377DC5"/>
<stop offset="1" stop-color="#013792"/>
</linearGradient>
<linearGradient id="paint28_linear_243_301" x1="11.5615" y1="0.000407623" x2="16.2833" y2="0.0985796" gradientUnits="userSpaceOnUse">
<stop stop-color="#377DC5"/>
<stop offset="1" stop-color="#013792"/>
</linearGradient>
<linearGradient id="paint29_linear_243_301" x1="13.0205" y1="1.51475" x2="17.1181" y2="1.71196" gradientUnits="userSpaceOnUse">
<stop stop-color="#377DC5"/>
<stop offset="1" stop-color="#013792"/>
</linearGradient>
<linearGradient id="paint30_linear_243_301" x1="-4.76239e-08" y1="12.7839" x2="13.0724" y2="12.4818" gradientUnits="userSpaceOnUse">
<stop stop-color="#377DC5"/>
<stop offset="1" stop-color="#013792"/>
</linearGradient>
</defs>
</svg>
